G04*
G04 #@! TF.GenerationSoftware,Altium Limited,Altium Designer,24.0.1 (36)*
G04*
G04 Layer_Color=128*
%FSLAX25Y25*%
%MOIN*%
G70*
G04*
G04 #@! TF.SameCoordinates,852D5C1C-0582-447D-AFC5-A22B4F0E1159*
G04*
G04*
G04 #@! TF.FilePolarity,Positive*
G04*
G01*
G75*
%ADD13C,0.00500*%
D13*
X211100Y205787D02*
X213900D01*
X212500Y204387D02*
Y207187D01*
X211100Y225000D02*
X213900D01*
X212500Y223600D02*
Y226400D01*
X32992Y165000D02*
X37008D01*
X35000Y162992D02*
Y167008D01*
X32992Y175000D02*
X37008D01*
X35000Y172992D02*
Y177008D01*
X32992Y185000D02*
X37008D01*
X35000Y182992D02*
Y187008D01*
X32992Y195000D02*
X37008D01*
X35000Y192992D02*
Y197008D01*
X32992Y205000D02*
X37008D01*
X35000Y202992D02*
Y207008D01*
X122835Y281594D02*
X127165D01*
X125000Y279429D02*
Y283760D01*
X112835Y281594D02*
X117165D01*
X115000Y279429D02*
Y283760D01*
X102835Y281594D02*
X107165D01*
X105000Y279429D02*
Y283760D01*
X82835Y281594D02*
X87165D01*
X85000Y279429D02*
Y283760D01*
X72835Y281594D02*
X77165D01*
X75000Y279429D02*
Y283760D01*
X92835Y281594D02*
X97165D01*
X95000Y279429D02*
Y283760D01*
X132835Y281594D02*
X137165D01*
X135000Y279429D02*
Y283760D01*
X142835Y281594D02*
X147165D01*
X145000Y279429D02*
Y283760D01*
X152835Y281594D02*
X157165D01*
X155000Y279429D02*
Y283760D01*
X162835Y281594D02*
X167165D01*
X165000Y279429D02*
Y283760D01*
X139091Y196916D02*
X140076D01*
X139584Y196424D02*
Y197409D01*
X121508Y187500D02*
X122492D01*
X122000Y187008D02*
Y187992D01*
X150185Y189614D02*
X151169D01*
X150677Y189122D02*
Y190106D01*
X147008Y186000D02*
X147992D01*
X147500Y185508D02*
Y186492D01*
X151508Y180500D02*
X152492D01*
X152000Y180008D02*
Y180992D01*
X137508Y178500D02*
X138492D01*
X138000Y178008D02*
Y178992D01*
X169894Y181000D02*
X170878D01*
X170386Y180508D02*
Y181492D01*
X171008Y199000D02*
X171992D01*
X171500Y198508D02*
Y199492D01*
X174008Y198000D02*
X174992D01*
X174500Y197508D02*
Y198492D01*
X161508Y193500D02*
X162492D01*
X162000Y193008D02*
Y193992D01*
X157008Y191114D02*
X157992D01*
X157500Y190622D02*
Y191606D01*
X157995Y229513D02*
X158979D01*
X158487Y229021D02*
Y230005D01*
X170008Y216000D02*
X170992D01*
X170500Y215508D02*
Y216492D01*
X178008Y218000D02*
X178992D01*
X178500Y217508D02*
Y218492D01*
X171008Y227000D02*
X171992D01*
X171500Y226508D02*
Y227492D01*
X152008Y232000D02*
X152992D01*
X152500Y231508D02*
Y232492D01*
X166508Y240500D02*
X167492D01*
X167000Y240008D02*
Y240992D01*
X163508Y223500D02*
X164492D01*
X164000Y223008D02*
Y223992D01*
X115508Y222500D02*
X116492D01*
X116000Y222008D02*
Y222992D01*
X190500Y82500D02*
X192500D01*
X191500Y81500D02*
Y83500D01*
Y103184D02*
X193500D01*
X192500Y102184D02*
Y104184D01*
X62000Y115500D02*
X64000D01*
X63000Y114500D02*
Y116500D01*
X174008Y205000D02*
X174992D01*
X174500Y204508D02*
Y205492D01*
X166694Y211102D02*
X167679D01*
X167187Y210610D02*
Y211594D01*
X164733Y220225D02*
X165717D01*
X165225Y219733D02*
Y220717D01*
X132008Y201414D02*
X132992D01*
X132500Y200922D02*
Y201906D01*
X87008Y202000D02*
X87992D01*
X87500Y201508D02*
Y202492D01*
X93008Y198000D02*
X93992D01*
X93500Y197508D02*
Y198492D01*
X94008Y204500D02*
X94992D01*
X94500Y204008D02*
Y204992D01*
X44008Y194500D02*
X44992D01*
X44500Y194008D02*
Y194992D01*
X45008Y205000D02*
X45992D01*
X45500Y204508D02*
Y205492D01*
X113008Y206000D02*
X113992D01*
X113500Y205508D02*
Y206492D01*
X143508Y167500D02*
X144492D01*
X144000Y167008D02*
Y167992D01*
X125508Y210000D02*
X126492D01*
X126000Y209508D02*
Y210492D01*
X122008Y232000D02*
X122992D01*
X122500Y231508D02*
Y232492D01*
X97508Y215000D02*
X98492D01*
X98000Y214508D02*
Y215492D01*
X173508Y191000D02*
X174492D01*
X174000Y190508D02*
Y191492D01*
M02*
