G04*
G04 #@! TF.GenerationSoftware,Altium Limited,Altium Designer,24.0.1 (36)*
G04*
G04 Layer_Physical_Order=1*
G04 Layer_Color=255*
%FSLAX25Y25*%
%MOIN*%
G70*
G04*
G04 #@! TF.SameCoordinates,852D5C1C-0582-447D-AFC5-A22B4F0E1159*
G04*
G04*
G04 #@! TF.FilePolarity,Positive*
G04*
G01*
G75*
%ADD15C,0.01000*%
%ADD16R,0.05709X0.04724*%
%ADD17R,0.03543X0.04331*%
%ADD18R,0.10984X0.07500*%
%ADD19R,0.03150X0.03937*%
%ADD21R,0.01000X0.03200*%
%ADD22R,0.03200X0.01000*%
%ADD23R,0.03543X0.02953*%
%ADD24R,0.02953X0.03543*%
%ADD25R,0.03937X0.03150*%
%ADD26R,0.03937X0.02953*%
%ADD27R,0.07480X0.16535*%
%ADD28R,0.02047X0.02047*%
%ADD29R,0.03937X0.05906*%
%ADD30R,0.04750X0.04206*%
%ADD31R,0.02047X0.02047*%
%ADD32R,0.04206X0.04750*%
%ADD33R,0.03740X0.05315*%
%ADD34R,0.02965X0.13792*%
%ADD35R,0.03347X0.02461*%
%ADD36R,0.06693X0.04331*%
%ADD37R,0.07087X0.04921*%
%ADD38R,0.04331X0.03543*%
%ADD39R,0.05315X0.03740*%
%ADD43R,0.12800X0.12800*%
%ADD49C,0.04800*%
%ADD50R,0.04800X0.04800*%
%ADD51C,0.06181*%
%ADD52R,0.06181X0.06181*%
%ADD55C,0.01968*%
%ADD56C,0.06496*%
G04:AMPARAMS|DCode=57|XSize=64.96mil|YSize=64.96mil|CornerRadius=16.24mil|HoleSize=0mil|Usage=FLASHONLY|Rotation=180.000|XOffset=0mil|YOffset=0mil|HoleType=Round|Shape=RoundedRectangle|*
%AMROUNDEDRECTD57*
21,1,0.06496,0.03248,0,0,180.0*
21,1,0.03248,0.06496,0,0,180.0*
1,1,0.03248,-0.01624,0.01624*
1,1,0.03248,0.01624,0.01624*
1,1,0.03248,0.01624,-0.01624*
1,1,0.03248,-0.01624,-0.01624*
%
%ADD57ROUNDEDRECTD57*%
%ADD58C,0.01772*%
%ADD59C,0.04000*%
G36*
X220000Y107500D02*
X168981D01*
X159968Y116513D01*
Y119024D01*
X155451D01*
X155228Y119024D01*
X155013Y119516D01*
X156473Y120976D01*
X159968D01*
Y124929D01*
X158520D01*
Y129075D01*
X158442Y129465D01*
X158221Y129796D01*
X158098Y129918D01*
Y130089D01*
X158304Y130397D01*
X158382Y130787D01*
Y137728D01*
X159339D01*
Y142272D01*
X156709D01*
X156518Y142734D01*
X158229Y144444D01*
X158450Y144775D01*
X158528Y145165D01*
Y146201D01*
X167050D01*
X173972Y139279D01*
X174303Y139058D01*
X174693Y138980D01*
X176232D01*
Y136547D01*
X181169D01*
Y143453D01*
X176232D01*
Y141020D01*
X175115D01*
X168492Y147643D01*
Y154701D01*
X156508D01*
Y147299D01*
X156488Y147201D01*
Y145588D01*
X153172Y142272D01*
X150661D01*
Y141020D01*
X145598D01*
Y141524D01*
X142949D01*
Y142024D01*
X141425D01*
Y140000D01*
Y137976D01*
X142949D01*
Y138476D01*
X145598D01*
Y138980D01*
X150661D01*
Y137728D01*
X152012D01*
Y131524D01*
X151902D01*
Y131020D01*
X144339D01*
Y132272D01*
X140614D01*
X140386Y132272D01*
X140114Y132659D01*
Y132772D01*
X138138D01*
Y130000D01*
Y127228D01*
X140114D01*
Y127341D01*
X140386Y127728D01*
X140614Y127728D01*
X144339D01*
Y128980D01*
X151902D01*
Y128476D01*
X154949D01*
Y128476D01*
X155051D01*
Y128476D01*
X156480D01*
Y124929D01*
X155032D01*
Y122418D01*
X153495Y120882D01*
X144772D01*
Y121839D01*
X140228D01*
Y118114D01*
X140228Y117886D01*
X139841Y117614D01*
X139728D01*
Y115638D01*
X142500D01*
X145272D01*
Y117614D01*
X145159D01*
X144772Y117886D01*
X144772Y118114D01*
Y118843D01*
X153917D01*
X154307Y118920D01*
X154558Y119088D01*
X154853Y118969D01*
X155032Y118827D01*
X155032Y118605D01*
Y115071D01*
X158527D01*
X165636Y107962D01*
X165444Y107500D01*
X7500D01*
Y290000D01*
X220000D01*
Y107500D01*
D02*
G37*
%LPC*%
G36*
X105559Y285842D02*
X105500D01*
Y282095D01*
X109248D01*
Y282154D01*
X108958Y283234D01*
X108399Y284203D01*
X107608Y284994D01*
X106640Y285553D01*
X105559Y285842D01*
D02*
G37*
G36*
X104500D02*
X104441D01*
X103360Y285553D01*
X102392Y284994D01*
X101601Y284203D01*
X101041Y283234D01*
X100752Y282154D01*
Y282095D01*
X104500D01*
Y285842D01*
D02*
G37*
G36*
X76624Y285384D02*
X73376D01*
X72547Y285219D01*
X71845Y284750D01*
X71375Y284047D01*
X71210Y283219D01*
Y279971D01*
X71330Y279367D01*
X61779Y269815D01*
X61558Y269485D01*
X61480Y269094D01*
Y262547D01*
X58260D01*
Y254799D01*
X44694D01*
X39673Y259820D01*
Y261839D01*
X35327D01*
Y261128D01*
X28534D01*
X28143Y261050D01*
X27812Y260829D01*
X27582Y260598D01*
X25976D01*
Y257949D01*
X25476D01*
Y256425D01*
X27500D01*
X29524D01*
Y257949D01*
X29024D01*
Y259089D01*
X35327D01*
Y258378D01*
X38231D01*
X39487Y257122D01*
X39280Y256622D01*
X35327D01*
Y253161D01*
X36480D01*
Y250347D01*
X33156Y247024D01*
X31949D01*
Y247524D01*
X30425D01*
Y245500D01*
Y243476D01*
X31949D01*
Y243976D01*
X33156D01*
X39412Y237721D01*
X39277Y237396D01*
X39277D01*
Y222604D01*
X43242D01*
Y228980D01*
X44593D01*
X64295Y209279D01*
X64625Y209058D01*
X65016Y208980D01*
X125060D01*
X125215Y208825D01*
X125724Y208614D01*
X126276D01*
X126785Y208825D01*
X127175Y209215D01*
X127386Y209724D01*
Y210276D01*
X127175Y210785D01*
X126785Y211175D01*
X126276Y211386D01*
X125724D01*
X125215Y211175D01*
X125060Y211020D01*
X65438D01*
X59967Y216491D01*
X60158Y216953D01*
X62000D01*
Y225721D01*
X57760D01*
Y219351D01*
X57298Y219160D01*
X45737Y230721D01*
X45406Y230942D01*
X45016Y231020D01*
X43242D01*
Y237396D01*
X41784D01*
Y237810D01*
X41707Y238200D01*
X41486Y238531D01*
X34598Y245418D01*
Y245582D01*
X38221Y249204D01*
X38442Y249535D01*
X38520Y249925D01*
Y253161D01*
X39673D01*
Y256229D01*
X40173Y256436D01*
X43551Y253059D01*
X43881Y252838D01*
X44272Y252760D01*
X58260D01*
Y245012D01*
X66740D01*
Y262547D01*
X63520D01*
Y268672D01*
X72772Y277925D01*
X73376Y277805D01*
X76624D01*
X77453Y277970D01*
X78155Y278439D01*
X78625Y279142D01*
X78790Y279971D01*
Y283219D01*
X78625Y284047D01*
X78155Y284750D01*
X77453Y285219D01*
X76624Y285384D01*
D02*
G37*
G36*
X109248Y281095D02*
X105500D01*
Y277346D01*
X105559D01*
X106640Y277636D01*
X107608Y278195D01*
X108399Y278986D01*
X108958Y279955D01*
X109248Y281035D01*
Y281095D01*
D02*
G37*
G36*
X104500D02*
X100752D01*
Y281035D01*
X101041Y279955D01*
X101601Y278986D01*
X102392Y278195D01*
X103360Y277636D01*
X104441Y277346D01*
X104500D01*
Y281095D01*
D02*
G37*
G36*
X29524Y255425D02*
X28000D01*
Y253902D01*
X29524D01*
Y255425D01*
D02*
G37*
G36*
X27000D02*
X25476D01*
Y253902D01*
X27000D01*
Y255425D01*
D02*
G37*
G36*
X29425Y247524D02*
X27902D01*
Y246000D01*
X29425D01*
Y247524D01*
D02*
G37*
G36*
X186846Y248284D02*
X183000D01*
Y245618D01*
X186846D01*
Y248284D01*
D02*
G37*
G36*
X182000D02*
X178154D01*
Y245618D01*
X182000D01*
Y248284D01*
D02*
G37*
G36*
X29425Y245000D02*
X27902D01*
Y243476D01*
X29425D01*
Y245000D01*
D02*
G37*
G36*
X186846Y244618D02*
X183000D01*
Y241953D01*
X186846D01*
Y244618D01*
D02*
G37*
G36*
X182000D02*
X178154D01*
Y241953D01*
X182000D01*
Y244618D01*
D02*
G37*
G36*
X165493Y285343D02*
X164507D01*
X163553Y285087D01*
X162699Y284594D01*
X162001Y283896D01*
X161507Y283041D01*
X161252Y282088D01*
Y281101D01*
X161507Y280148D01*
X162001Y279293D01*
X162699Y278595D01*
X163553Y278102D01*
X164507Y277847D01*
X165493D01*
X166447Y278102D01*
X166830Y278323D01*
X171480Y273672D01*
Y245028D01*
X170031D01*
Y241271D01*
X169532Y241064D01*
X169522Y241073D01*
X169191Y241294D01*
X168801Y241372D01*
X168088D01*
X167785Y241675D01*
X167276Y241886D01*
X166724D01*
X166215Y241675D01*
X165825Y241285D01*
X165614Y240776D01*
Y240224D01*
X165825Y239715D01*
X166215Y239325D01*
X166724Y239114D01*
X167276D01*
X167785Y239325D01*
X167793Y239333D01*
X168379D01*
X170031Y237680D01*
Y234972D01*
X174969D01*
Y239122D01*
X171473D01*
X170218Y240378D01*
X170425Y240878D01*
X174969D01*
Y245028D01*
X173520D01*
Y274095D01*
X173442Y274485D01*
X173221Y274816D01*
X168272Y279765D01*
X168493Y280148D01*
X168748Y281101D01*
Y282088D01*
X168493Y283041D01*
X167999Y283896D01*
X167301Y284594D01*
X166447Y285087D01*
X165493Y285343D01*
D02*
G37*
G36*
X155493D02*
X154507D01*
X153553Y285087D01*
X152699Y284594D01*
X152001Y283896D01*
X151507Y283041D01*
X151252Y282088D01*
Y281101D01*
X151507Y280148D01*
X152001Y279293D01*
X152699Y278595D01*
X153553Y278102D01*
X154507Y277847D01*
X155493D01*
X156447Y278102D01*
X156830Y278323D01*
X161480Y273672D01*
Y245028D01*
X160031D01*
Y240878D01*
X164969D01*
Y245028D01*
X163520D01*
Y274095D01*
X163442Y274485D01*
X163221Y274816D01*
X158272Y279765D01*
X158493Y280148D01*
X158748Y281101D01*
Y282088D01*
X158493Y283041D01*
X157999Y283896D01*
X157301Y284594D01*
X156447Y285087D01*
X155493Y285343D01*
D02*
G37*
G36*
X145493D02*
X144507D01*
X143553Y285087D01*
X142699Y284594D01*
X142001Y283896D01*
X141507Y283041D01*
X141252Y282088D01*
Y281101D01*
X141507Y280148D01*
X142001Y279293D01*
X142699Y278595D01*
X143553Y278102D01*
X144507Y277847D01*
X145493D01*
X146447Y278102D01*
X146830Y278323D01*
X151480Y273672D01*
Y245028D01*
X150031D01*
Y240878D01*
X154969D01*
Y245028D01*
X153520D01*
Y274095D01*
X153442Y274485D01*
X153221Y274816D01*
X148272Y279765D01*
X148493Y280148D01*
X148748Y281101D01*
Y282088D01*
X148493Y283041D01*
X147999Y283896D01*
X147301Y284594D01*
X146447Y285087D01*
X145493Y285343D01*
D02*
G37*
G36*
X135493D02*
X134507D01*
X133553Y285087D01*
X132699Y284594D01*
X132001Y283896D01*
X131507Y283041D01*
X131252Y282088D01*
Y281101D01*
X131507Y280148D01*
X132001Y279293D01*
X132699Y278595D01*
X133553Y278102D01*
X134507Y277847D01*
X135493D01*
X136447Y278102D01*
X136830Y278323D01*
X141480Y273672D01*
Y245028D01*
X140032D01*
Y240878D01*
X144968D01*
Y245028D01*
X143520D01*
Y274095D01*
X143442Y274485D01*
X143221Y274816D01*
X138271Y279765D01*
X138493Y280148D01*
X138748Y281101D01*
Y282088D01*
X138493Y283041D01*
X137999Y283896D01*
X137301Y284594D01*
X136447Y285087D01*
X135493Y285343D01*
D02*
G37*
G36*
X125493D02*
X124507D01*
X123553Y285087D01*
X122699Y284594D01*
X122001Y283896D01*
X121507Y283041D01*
X121252Y282088D01*
Y281101D01*
X121507Y280148D01*
X122001Y279293D01*
X122699Y278595D01*
X123553Y278102D01*
X124507Y277847D01*
X125493D01*
X126447Y278102D01*
X126830Y278323D01*
X131480Y273672D01*
Y245028D01*
X130032D01*
Y240878D01*
X134968D01*
Y245028D01*
X133520D01*
Y274095D01*
X133442Y274485D01*
X133221Y274816D01*
X128271Y279765D01*
X128493Y280148D01*
X128748Y281101D01*
Y282088D01*
X128493Y283041D01*
X127999Y283896D01*
X127301Y284594D01*
X126447Y285087D01*
X125493Y285343D01*
D02*
G37*
G36*
X95493D02*
X94507D01*
X93553Y285087D01*
X92699Y284594D01*
X92001Y283896D01*
X91507Y283041D01*
X91252Y282088D01*
Y281101D01*
X91507Y280148D01*
X92001Y279293D01*
X92699Y278595D01*
X93553Y278102D01*
X94507Y277847D01*
X95493D01*
X96447Y278102D01*
X96830Y278323D01*
X111480Y263672D01*
Y243965D01*
X108457D01*
Y238043D01*
X116543D01*
Y243965D01*
X113520D01*
Y264094D01*
X113442Y264485D01*
X113221Y264815D01*
X98272Y279765D01*
X98493Y280148D01*
X98748Y281101D01*
Y282088D01*
X98493Y283041D01*
X97999Y283896D01*
X97301Y284594D01*
X96447Y285087D01*
X95493Y285343D01*
D02*
G37*
G36*
X154969Y239122D02*
X150031D01*
Y234972D01*
X151480D01*
Y232940D01*
X151325Y232785D01*
X151114Y232276D01*
Y231724D01*
X151325Y231215D01*
X151715Y230825D01*
X152224Y230614D01*
X152776D01*
X153285Y230825D01*
X153675Y231215D01*
X153886Y231724D01*
Y232276D01*
X153675Y232785D01*
X153520Y232940D01*
Y234972D01*
X154969D01*
Y239122D01*
D02*
G37*
G36*
X26223Y237896D02*
X24240D01*
Y230500D01*
X26223D01*
Y237896D01*
D02*
G37*
G36*
X23240D02*
X21258D01*
Y230500D01*
X23240D01*
Y237896D01*
D02*
G37*
G36*
X101847Y233047D02*
X98000D01*
Y230382D01*
X101847D01*
Y233047D01*
D02*
G37*
G36*
X186346Y237547D02*
X178654D01*
Y232217D01*
X181480D01*
Y231422D01*
X179078Y229020D01*
X173224D01*
Y234165D01*
X168681D01*
Y228835D01*
X170480D01*
Y227940D01*
X170325Y227785D01*
X170114Y227276D01*
Y226724D01*
X170325Y226215D01*
X170715Y225825D01*
X171224Y225614D01*
X171418D01*
X171558Y225614D01*
X171681Y225165D01*
X171681Y225121D01*
X171681Y224809D01*
Y224797D01*
Y222500D01*
X173953D01*
Y225165D01*
X172181D01*
X171999Y225165D01*
X171899Y225665D01*
X172045Y225726D01*
X172285Y225825D01*
X172675Y226215D01*
X172886Y226724D01*
Y226944D01*
X172922Y226980D01*
X179500D01*
X179890Y227058D01*
X180221Y227279D01*
X183221Y230279D01*
X183442Y230610D01*
X183520Y231000D01*
Y232217D01*
X186346D01*
Y237547D01*
D02*
G37*
G36*
X192138Y229500D02*
X190161D01*
Y227228D01*
X192138D01*
Y229500D01*
D02*
G37*
G36*
X67240Y235488D02*
X63000D01*
Y226720D01*
X67240D01*
Y235488D01*
D02*
G37*
G36*
X62000D02*
X57760D01*
Y226720D01*
X62000D01*
Y235488D01*
D02*
G37*
G36*
X101847Y229382D02*
X98000D01*
Y226716D01*
X101847D01*
Y229382D01*
D02*
G37*
G36*
X174953Y225165D02*
Y222500D01*
X177224D01*
Y225165D01*
X174953D01*
D02*
G37*
G36*
X26223Y229500D02*
X24240D01*
Y222104D01*
X26223D01*
Y229500D01*
D02*
G37*
G36*
X23240D02*
X21258D01*
Y222104D01*
X23240D01*
Y229500D01*
D02*
G37*
G36*
X115493Y285343D02*
X114507D01*
X113553Y285087D01*
X112699Y284594D01*
X112001Y283896D01*
X111507Y283041D01*
X111252Y282088D01*
Y281101D01*
X111507Y280148D01*
X112001Y279293D01*
X112699Y278595D01*
X113553Y278102D01*
X114507Y277847D01*
X115493D01*
X116447Y278102D01*
X116830Y278323D01*
X121480Y273672D01*
Y245224D01*
X119835D01*
Y240681D01*
X125165D01*
Y241239D01*
X125627Y241431D01*
X126480Y240578D01*
Y229000D01*
X126558Y228610D01*
X126779Y228279D01*
X133279Y221779D01*
X133610Y221558D01*
X134000Y221480D01*
X144591D01*
Y219650D01*
X144610Y219551D01*
Y217890D01*
X140750D01*
Y213921D01*
Y209984D01*
Y206098D01*
X122140D01*
X121750Y206021D01*
X121419Y205800D01*
X120833Y205214D01*
X120612Y204883D01*
X120535Y204493D01*
Y200323D01*
X119343D01*
Y198972D01*
X110179D01*
X104633Y204519D01*
X104824Y204980D01*
X112560D01*
X112715Y204825D01*
X113224Y204614D01*
X113776D01*
X114285Y204825D01*
X114675Y205215D01*
X114886Y205724D01*
Y206276D01*
X114675Y206785D01*
X114285Y207175D01*
X113776Y207386D01*
X113224D01*
X112715Y207175D01*
X112560Y207020D01*
X104536D01*
X104248Y207307D01*
X103918Y207528D01*
X103527Y207605D01*
X85932D01*
X85542Y207528D01*
X85211Y207307D01*
X63924Y186020D01*
X38444D01*
X38346Y186386D01*
X37873Y187205D01*
X37205Y187873D01*
X36386Y188346D01*
X35473Y188591D01*
X34527D01*
X33614Y188346D01*
X32795Y187873D01*
X32127Y187205D01*
X31654Y186386D01*
X31409Y185473D01*
Y184527D01*
X31654Y183614D01*
X32127Y182795D01*
X32795Y182127D01*
X33614Y181654D01*
X34527Y181409D01*
X35473D01*
X36386Y181654D01*
X37205Y182127D01*
X37873Y182795D01*
X38346Y183614D01*
X38444Y183980D01*
X64347D01*
X64737Y184058D01*
X65068Y184279D01*
X86355Y205566D01*
X92953D01*
X93234Y205066D01*
X93114Y204776D01*
Y204224D01*
X93325Y203715D01*
X93521Y203520D01*
X93313Y203020D01*
X88440D01*
X88285Y203175D01*
X87776Y203386D01*
X87224D01*
X86715Y203175D01*
X86325Y202785D01*
X86114Y202276D01*
Y201724D01*
X86325Y201215D01*
X86715Y200825D01*
X87224Y200614D01*
X87776D01*
X88285Y200825D01*
X88440Y200980D01*
X97578D01*
X115039Y183520D01*
X114831Y183020D01*
X49596D01*
X49206Y182942D01*
X48875Y182721D01*
X42173Y176020D01*
X38444D01*
X38346Y176386D01*
X37873Y177205D01*
X37205Y177873D01*
X36386Y178346D01*
X35473Y178591D01*
X34527D01*
X33614Y178346D01*
X32795Y177873D01*
X32127Y177205D01*
X31654Y176386D01*
X31409Y175473D01*
Y174527D01*
X31654Y173614D01*
X32127Y172795D01*
X32795Y172127D01*
X33614Y171654D01*
X34527Y171409D01*
X35473D01*
X36386Y171654D01*
X37205Y172127D01*
X37873Y172795D01*
X38346Y173614D01*
X38444Y173980D01*
X41885D01*
X42077Y173519D01*
X36714Y168156D01*
X36386Y168346D01*
X35473Y168591D01*
X34527D01*
X33614Y168346D01*
X32795Y167873D01*
X32127Y167205D01*
X31654Y166386D01*
X31409Y165473D01*
Y164527D01*
X31654Y163614D01*
X32127Y162795D01*
X32795Y162127D01*
X33614Y161654D01*
X34527Y161409D01*
X35473D01*
X36386Y161654D01*
X37205Y162127D01*
X37873Y162795D01*
X38346Y163614D01*
X38591Y164527D01*
Y165473D01*
X38346Y166386D01*
X38156Y166714D01*
X47922Y176480D01*
X113023D01*
X114146Y175357D01*
Y171075D01*
X120854D01*
Y172917D01*
X147437D01*
X147827Y172995D01*
X148158Y173216D01*
X150221Y175279D01*
X150442Y175610D01*
X150520Y176000D01*
Y178660D01*
X151020Y178865D01*
X151500Y178666D01*
Y180500D01*
X152500D01*
Y178666D01*
X153068Y178901D01*
X153599Y179432D01*
X153623Y179490D01*
X153965Y179558D01*
X154296Y179779D01*
X156918Y182402D01*
X157000D01*
Y184425D01*
X158000D01*
Y182402D01*
X159524D01*
Y183406D01*
X161425D01*
X161815Y183483D01*
X162146Y183704D01*
X165721Y187279D01*
X165942Y187610D01*
X166020Y188000D01*
Y195700D01*
X165942Y196090D01*
X165721Y196421D01*
X161525Y200617D01*
X161194Y200838D01*
X160890Y200899D01*
Y202110D01*
X162051D01*
X162150Y202091D01*
X167480D01*
Y175222D01*
X166058Y173799D01*
X156508D01*
Y165299D01*
X168492D01*
Y173349D01*
X169221Y174078D01*
X169442Y174409D01*
X169520Y174799D01*
Y179318D01*
X170020Y179652D01*
X170110Y179614D01*
X170661D01*
X171171Y179825D01*
X171326Y179980D01*
X179146D01*
Y178201D01*
X181480D01*
Y173000D01*
X181558Y172610D01*
X181779Y172279D01*
X186480Y167578D01*
Y163626D01*
X184897D01*
Y157876D01*
X190103D01*
Y163626D01*
X188520D01*
Y168000D01*
X188442Y168390D01*
X188221Y168721D01*
X183520Y173422D01*
Y178201D01*
X185854D01*
Y183925D01*
X179146D01*
Y182020D01*
X171326D01*
X171171Y182175D01*
X170661Y182386D01*
X170110D01*
X170020Y182348D01*
X169520Y182682D01*
Y201831D01*
X170020Y202039D01*
X170480Y201578D01*
Y199940D01*
X170325Y199785D01*
X170114Y199276D01*
Y198724D01*
X170325Y198215D01*
X170715Y197825D01*
X171224Y197614D01*
X171776D01*
X172285Y197825D01*
X172614Y198154D01*
X172900Y198105D01*
X173114Y198001D01*
Y197724D01*
X173325Y197215D01*
X173715Y196825D01*
X174224Y196614D01*
X174776D01*
X175285Y196825D01*
X175675Y197215D01*
X175886Y197724D01*
Y198276D01*
X175675Y198785D01*
X175520Y198940D01*
Y204060D01*
X175675Y204215D01*
X175886Y204724D01*
Y205276D01*
X175675Y205785D01*
X175285Y206175D01*
X174776Y206386D01*
X174224D01*
X173715Y206175D01*
X173325Y205785D01*
X173114Y205276D01*
Y204724D01*
X173325Y204215D01*
X173480Y204060D01*
Y199332D01*
X173386Y199223D01*
X173148Y199248D01*
X172956Y199314D01*
X172822Y199429D01*
X172675Y199785D01*
X172520Y199940D01*
Y202000D01*
X172442Y202390D01*
X172221Y202721D01*
X169414Y205528D01*
X169621Y206028D01*
X170387D01*
X170777Y206105D01*
X171108Y206326D01*
X171693Y206912D01*
X171914Y207243D01*
X171972Y207531D01*
X174122D01*
Y212149D01*
X175878D01*
Y207531D01*
X180027D01*
Y208980D01*
X182235D01*
X187982Y203234D01*
X187791Y202772D01*
X185161D01*
Y200500D01*
X187638D01*
Y200000D01*
X188138D01*
Y197228D01*
X190114D01*
Y197341D01*
X190386Y197728D01*
X194339D01*
Y198980D01*
X206713D01*
X207103Y199058D01*
X207434Y199279D01*
X211291Y203137D01*
X211381Y203085D01*
X212118Y202887D01*
X212882D01*
X213619Y203085D01*
X214281Y203467D01*
X214821Y204007D01*
X215202Y204668D01*
X215400Y205406D01*
Y206169D01*
X215202Y206907D01*
X214821Y207568D01*
X214281Y208108D01*
X213619Y208490D01*
X212882Y208687D01*
X212118D01*
X211381Y208490D01*
X210719Y208108D01*
X210179Y207568D01*
X209798Y206907D01*
X209600Y206169D01*
Y205406D01*
X209798Y204668D01*
X209849Y204579D01*
X206290Y201020D01*
X194339D01*
Y202272D01*
X191828D01*
X183378Y210721D01*
X183048Y210942D01*
X182658Y211020D01*
X180027D01*
Y212149D01*
X180668D01*
X181059Y212227D01*
X181389Y212448D01*
X183872Y214930D01*
X184093Y215261D01*
X184171Y215651D01*
Y225036D01*
X189699Y230565D01*
X189856Y230500D01*
X192638D01*
Y230000D01*
X193138D01*
Y227228D01*
X195114D01*
Y227341D01*
X195386Y227728D01*
X195614Y227728D01*
X199339D01*
Y228980D01*
X207078D01*
X209600Y226458D01*
Y222100D01*
X215400D01*
Y227900D01*
X211042D01*
X208221Y230721D01*
X207890Y230942D01*
X207500Y231020D01*
X199339D01*
Y232272D01*
X198382D01*
Y240984D01*
X198304Y241374D01*
X198083Y241705D01*
X194968Y244820D01*
Y247528D01*
X190032D01*
Y243378D01*
X193527D01*
X194782Y242122D01*
X194575Y241622D01*
X190032D01*
Y237472D01*
X191480D01*
Y235230D01*
X182430Y226180D01*
X182209Y225849D01*
X182132Y225459D01*
Y216074D01*
X180246Y214188D01*
X171054D01*
X170954Y214688D01*
X171285Y214825D01*
X171675Y215215D01*
X171886Y215724D01*
Y216276D01*
X171801Y216480D01*
X172133Y216980D01*
X177560D01*
X177715Y216825D01*
X178224Y216614D01*
X178776D01*
X179285Y216825D01*
X179675Y217215D01*
X179886Y217724D01*
Y218276D01*
X179675Y218785D01*
X179285Y219175D01*
X178776Y219386D01*
X178224D01*
X177715Y219175D01*
X177224Y219391D01*
Y221500D01*
X174453D01*
X171681D01*
Y219070D01*
X171191Y219027D01*
X170819Y219358D01*
Y224665D01*
X169400D01*
X169268Y224863D01*
X167410Y226721D01*
X167079Y226942D01*
X166689Y227020D01*
X164918D01*
X164726Y227482D01*
X164944Y227699D01*
X165165Y228030D01*
X165243Y228420D01*
Y228835D01*
X167319D01*
Y234165D01*
X162776D01*
Y228835D01*
X162406Y228520D01*
X161000D01*
X160610Y228442D01*
X160279Y228221D01*
X155200Y223142D01*
X155004Y222848D01*
X154968Y222844D01*
X154504Y223149D01*
Y224062D01*
X158569Y228127D01*
X158763D01*
X159272Y228338D01*
X159662Y228728D01*
X159873Y229237D01*
Y229788D01*
X159662Y230298D01*
X159272Y230688D01*
X158763Y230899D01*
X158500D01*
X158293Y231399D01*
X161752Y234858D01*
X161829Y234972D01*
X164969D01*
Y239122D01*
X160031D01*
Y236071D01*
X160019Y236008D01*
X151067Y227056D01*
X150567Y227263D01*
Y227453D01*
X150489Y227843D01*
X150268Y228174D01*
X143970Y234472D01*
X144177Y234972D01*
X144968D01*
Y239122D01*
X140032D01*
Y234972D01*
X141480D01*
Y234500D01*
X141558Y234110D01*
X141779Y233779D01*
X148528Y227030D01*
Y223950D01*
X148028Y223743D01*
X141689Y230082D01*
X141358Y230303D01*
X141011Y230372D01*
X134968Y236414D01*
Y239122D01*
X130032D01*
Y234972D01*
X133527D01*
X139859Y228640D01*
X140190Y228419D01*
X140537Y228350D01*
X144867Y224020D01*
X144660Y223520D01*
X134422D01*
X128520Y229422D01*
Y241000D01*
X128442Y241390D01*
X128221Y241721D01*
X126301Y243641D01*
X125970Y243862D01*
X125580Y243940D01*
X125165D01*
Y245224D01*
X123520D01*
Y274095D01*
X123442Y274485D01*
X123221Y274816D01*
X118272Y279765D01*
X118493Y280148D01*
X118748Y281101D01*
Y282088D01*
X118493Y283041D01*
X117999Y283896D01*
X117301Y284594D01*
X116447Y285087D01*
X115493Y285343D01*
D02*
G37*
G36*
X125165Y239319D02*
X119835D01*
Y234776D01*
X121480D01*
Y232940D01*
X121325Y232785D01*
X121114Y232276D01*
Y231724D01*
X121325Y231215D01*
X121628Y230912D01*
Y229375D01*
X121623Y229347D01*
Y223565D01*
X119078Y221020D01*
X117186D01*
X116979Y221520D01*
X117175Y221715D01*
X117386Y222224D01*
Y222776D01*
X117175Y223285D01*
X116785Y223675D01*
X116276Y223886D01*
X116056D01*
X114368Y225573D01*
X114560Y226035D01*
X116543D01*
Y231957D01*
X108457D01*
Y226035D01*
X111859D01*
Y225621D01*
X111937Y225231D01*
X112158Y224900D01*
X114614Y222444D01*
Y222224D01*
X114825Y221715D01*
X115021Y221520D01*
X114813Y221020D01*
X105027D01*
Y222468D01*
X100878D01*
Y217531D01*
X105027D01*
Y218980D01*
X119500D01*
X119890Y219058D01*
X120221Y219279D01*
X123363Y222421D01*
X123584Y222752D01*
X123662Y223142D01*
Y229325D01*
X123667Y229352D01*
Y231207D01*
X123675Y231215D01*
X123886Y231724D01*
Y232276D01*
X123675Y232785D01*
X123520Y232940D01*
Y234776D01*
X125165D01*
Y239319D01*
D02*
G37*
G36*
X67240Y225721D02*
X63000D01*
Y216953D01*
X67240D01*
Y225721D01*
D02*
G37*
G36*
X85493Y285343D02*
X84507D01*
X83553Y285087D01*
X82699Y284594D01*
X82001Y283896D01*
X81507Y283041D01*
X81252Y282088D01*
Y281101D01*
X81507Y280148D01*
X82001Y279293D01*
X82699Y278595D01*
X83553Y278102D01*
X84507Y277847D01*
X85493D01*
X86447Y278102D01*
X86830Y278323D01*
X96480Y268672D01*
Y242783D01*
X93654D01*
Y238895D01*
X92233Y237474D01*
X92012Y237143D01*
X91934Y236753D01*
Y224487D01*
X92012Y224097D01*
X92233Y223766D01*
X94972Y221027D01*
Y217531D01*
X96028D01*
Y215972D01*
X96105Y215581D01*
X96326Y215251D01*
X96614Y214963D01*
Y214724D01*
X96825Y214215D01*
X97215Y213825D01*
X97724Y213614D01*
X98276D01*
X98785Y213825D01*
X99175Y214215D01*
X99386Y214724D01*
Y215276D01*
X99175Y215785D01*
X98785Y216175D01*
X98276Y216386D01*
X98075D01*
X98067Y216394D01*
Y217531D01*
X99122D01*
Y222468D01*
X96414D01*
X93973Y224910D01*
Y226716D01*
X97000D01*
Y229882D01*
Y233047D01*
X93973D01*
Y236330D01*
X95095Y237453D01*
X101347D01*
Y242783D01*
X98520D01*
Y269094D01*
X98442Y269485D01*
X98221Y269815D01*
X88271Y279765D01*
X88493Y280148D01*
X88748Y281101D01*
Y282088D01*
X88493Y283041D01*
X87999Y283896D01*
X87301Y284594D01*
X86447Y285087D01*
X85493Y285343D01*
D02*
G37*
G36*
X38591Y208591D02*
X31409D01*
Y201409D01*
X38591D01*
Y203980D01*
X44560D01*
X44715Y203825D01*
X45224Y203614D01*
X45776D01*
X46285Y203825D01*
X46675Y204215D01*
X46886Y204724D01*
Y205276D01*
X46675Y205785D01*
X46285Y206175D01*
X45776Y206386D01*
X45224D01*
X44715Y206175D01*
X44560Y206020D01*
X38591D01*
Y208591D01*
D02*
G37*
G36*
X187138Y199500D02*
X185161D01*
Y197228D01*
X187138D01*
Y199500D01*
D02*
G37*
G36*
X35473Y198591D02*
X34527D01*
X33614Y198346D01*
X32795Y197873D01*
X32127Y197205D01*
X31654Y196386D01*
X31409Y195473D01*
Y194527D01*
X31654Y193614D01*
X32127Y192795D01*
X32795Y192127D01*
X33614Y191654D01*
X34527Y191409D01*
X35473D01*
X36386Y191654D01*
X37205Y192127D01*
X37873Y192795D01*
X38346Y193614D01*
X38350Y193628D01*
X43412D01*
X43715Y193325D01*
X44224Y193114D01*
X44776D01*
X45285Y193325D01*
X45675Y193715D01*
X45886Y194224D01*
Y194776D01*
X45675Y195285D01*
X45285Y195675D01*
X44776Y195886D01*
X44224D01*
X43715Y195675D01*
X43707Y195667D01*
X38538D01*
X38346Y196386D01*
X37873Y197205D01*
X37205Y197873D01*
X36386Y198346D01*
X35473Y198591D01*
D02*
G37*
G36*
X174276Y192386D02*
X173724D01*
X173215Y192175D01*
X172825Y191785D01*
X172614Y191276D01*
Y190724D01*
X172825Y190215D01*
X173215Y189825D01*
X173724Y189614D01*
X173944D01*
X175342Y188216D01*
X175673Y187995D01*
X176063Y187917D01*
X179146D01*
Y186075D01*
X185854D01*
Y191799D01*
X179146D01*
Y189957D01*
X176485D01*
X175386Y191056D01*
Y191276D01*
X175175Y191785D01*
X174785Y192175D01*
X174276Y192386D01*
D02*
G37*
G36*
X93776Y199386D02*
X93224D01*
X92715Y199175D01*
X92325Y198785D01*
X92114Y198276D01*
Y197724D01*
X92325Y197215D01*
X92480Y197060D01*
Y193799D01*
X86508D01*
Y185299D01*
X98492D01*
Y193799D01*
X94520D01*
Y197060D01*
X94675Y197215D01*
X94886Y197724D01*
Y198276D01*
X94675Y198785D01*
X94285Y199175D01*
X93776Y199386D01*
D02*
G37*
G36*
X98492Y174701D02*
X86508D01*
Y166201D01*
X88606D01*
X88797Y165739D01*
X85480Y162422D01*
X85259Y162091D01*
X85181Y161701D01*
Y158453D01*
X83732D01*
Y156417D01*
X83232Y156210D01*
X78859Y160583D01*
X78528Y160804D01*
X78138Y160882D01*
X74772D01*
Y161839D01*
X70228D01*
Y160488D01*
X64024D01*
Y160598D01*
X60976D01*
Y157949D01*
X60476D01*
Y156425D01*
X62500D01*
X64524D01*
Y157949D01*
X64024D01*
Y158449D01*
X69875D01*
X70013Y158311D01*
X69968Y157703D01*
X69841Y157614D01*
X69728D01*
Y155638D01*
X72500D01*
X75272D01*
Y157614D01*
X75159D01*
X74772Y157886D01*
X74772Y158114D01*
Y158843D01*
X77715D01*
X81771Y154787D01*
X73906Y146923D01*
X73332Y147055D01*
X73221Y147221D01*
X72221Y148221D01*
X71890Y148442D01*
X71500Y148520D01*
X65138D01*
X64748Y148442D01*
X64417Y148221D01*
X63051Y146855D01*
X63040Y146839D01*
X60228D01*
Y142886D01*
X64772D01*
Y145692D01*
X65560Y146480D01*
X71078D01*
X71460Y146098D01*
X71430Y145598D01*
X70976D01*
Y142949D01*
X70976Y142551D01*
X70976Y142051D01*
Y139402D01*
X71480D01*
Y137443D01*
X63520D01*
Y138161D01*
X64772D01*
Y142114D01*
X60228D01*
Y138161D01*
X61480D01*
Y137009D01*
X61558Y136619D01*
X61779Y136288D01*
X62066Y136001D01*
Y129929D01*
X60031D01*
Y125976D01*
X64969D01*
Y129929D01*
X64105D01*
Y135404D01*
X71492D01*
X76480Y130415D01*
Y126839D01*
X75228D01*
Y123114D01*
X75228Y122886D01*
X74841Y122614D01*
X74728D01*
Y120638D01*
X77500D01*
X80272D01*
Y122614D01*
X80159D01*
X79772Y122886D01*
X79772Y123114D01*
Y126839D01*
X78520D01*
Y130838D01*
X78442Y131228D01*
X78221Y131559D01*
X73329Y136450D01*
X73442Y136619D01*
X73520Y137009D01*
Y139402D01*
X74024D01*
Y142051D01*
X74024Y142449D01*
X74024Y142949D01*
Y144157D01*
X83270Y153403D01*
X83732Y153212D01*
Y151547D01*
X88669D01*
Y158453D01*
X87220D01*
Y161278D01*
X91008Y165066D01*
X91229Y165396D01*
X91306Y165787D01*
Y166201D01*
X98492D01*
Y174701D01*
D02*
G37*
G36*
X64524Y155425D02*
X63000D01*
Y153902D01*
X64524D01*
Y155425D01*
D02*
G37*
G36*
X62000D02*
X60476D01*
Y153902D01*
X62000D01*
Y155425D01*
D02*
G37*
G36*
X75272Y154638D02*
X73000D01*
Y152661D01*
X75272D01*
Y154638D01*
D02*
G37*
G36*
X72000D02*
X69728D01*
Y152661D01*
X72000D01*
Y154638D01*
D02*
G37*
G36*
X120854Y168925D02*
X114146D01*
Y163201D01*
X117232D01*
Y157603D01*
X115376D01*
Y152397D01*
X121126D01*
Y157603D01*
X119271D01*
Y163201D01*
X120854D01*
Y165043D01*
X142354D01*
X142744Y165121D01*
X143075Y165342D01*
X143847Y166114D01*
X144276D01*
X144785Y166325D01*
X145175Y166715D01*
X145386Y167224D01*
Y167776D01*
X145175Y168285D01*
X144785Y168675D01*
X144276Y168886D01*
X143724D01*
X143215Y168675D01*
X142825Y168285D01*
X142614Y167776D01*
Y167765D01*
X141932Y167083D01*
X120854D01*
Y168925D01*
D02*
G37*
G36*
X101268Y158453D02*
X96331D01*
Y151547D01*
X101268D01*
Y153980D01*
X108874D01*
Y152397D01*
X114624D01*
Y157603D01*
X108874D01*
Y156020D01*
X101268D01*
Y158453D01*
D02*
G37*
G36*
X140425Y142024D02*
X138902D01*
Y140500D01*
X140425D01*
Y142024D01*
D02*
G37*
G36*
Y139500D02*
X138902D01*
Y137976D01*
X140425D01*
Y139500D01*
D02*
G37*
G36*
X190103Y157124D02*
X184897D01*
Y151374D01*
X188661D01*
X190280Y149755D01*
Y143453D01*
X188831D01*
Y136547D01*
X193768D01*
Y143453D01*
X192319D01*
Y150177D01*
X192241Y150567D01*
X192020Y150898D01*
X190103Y152815D01*
Y157124D01*
D02*
G37*
G36*
X137138Y132772D02*
X135161D01*
Y130500D01*
X137138D01*
Y132772D01*
D02*
G37*
G36*
Y129500D02*
X135161D01*
Y127228D01*
X137138D01*
Y129500D01*
D02*
G37*
G36*
X80272Y119638D02*
X78000D01*
Y117661D01*
X80272D01*
Y119638D01*
D02*
G37*
G36*
X77000D02*
X74728D01*
Y117661D01*
X77000D01*
Y119638D01*
D02*
G37*
G36*
X64969Y124024D02*
X60031D01*
Y120071D01*
X61487D01*
Y117522D01*
X60881Y116916D01*
X60500Y115997D01*
Y115003D01*
X60881Y114084D01*
X61584Y113381D01*
X62503Y113000D01*
X63497D01*
X64416Y113381D01*
X65119Y114084D01*
X65500Y115003D01*
Y115997D01*
X65119Y116916D01*
X64513Y117522D01*
Y120071D01*
X64969D01*
Y124024D01*
D02*
G37*
G36*
X145272Y114638D02*
X143000D01*
Y112661D01*
X145272D01*
Y114638D01*
D02*
G37*
G36*
X142000D02*
X139728D01*
Y112661D01*
X142000D01*
Y114638D01*
D02*
G37*
%LPD*%
G36*
X163980Y195278D02*
Y188422D01*
X161003Y185445D01*
X159524D01*
Y186449D01*
X159024D01*
Y189098D01*
X158520D01*
Y190174D01*
X158675Y190329D01*
X158886Y190839D01*
Y191390D01*
X158675Y191899D01*
X158520Y192054D01*
Y194331D01*
X159020Y194538D01*
X160631Y192927D01*
X160778Y192829D01*
X160825Y192715D01*
X161215Y192325D01*
X161724Y192114D01*
X162276D01*
X162785Y192325D01*
X163175Y192715D01*
X163386Y193224D01*
Y193776D01*
X163175Y194285D01*
X162785Y194675D01*
X162276Y194886D01*
X161724D01*
X161605Y194836D01*
X159154Y197288D01*
X159345Y197750D01*
X160890D01*
Y197750D01*
X161327Y197931D01*
X163980Y195278D01*
D02*
G37*
G36*
X132916Y203559D02*
X132877Y203500D01*
X132863Y203428D01*
X132235Y202800D01*
X132224D01*
X131715Y202589D01*
X131325Y202199D01*
X131114Y201690D01*
Y201138D01*
X131325Y200629D01*
X131715Y200239D01*
X132224Y200028D01*
X132776D01*
X133285Y200239D01*
X133675Y200629D01*
X133886Y201138D01*
Y201567D01*
X134410Y202091D01*
X142850D01*
X142948Y202110D01*
X144610D01*
Y200448D01*
X144591Y200350D01*
Y200270D01*
X139250D01*
X138860Y200192D01*
X138529Y199971D01*
X123578Y185020D01*
X116422D01*
X98721Y202721D01*
X98390Y202942D01*
X98197Y202980D01*
X98246Y203480D01*
X102787D01*
X109035Y197232D01*
X109366Y197011D01*
X109756Y196933D01*
X119343D01*
Y195583D01*
X125657D01*
Y200323D01*
X122574D01*
Y204059D01*
X132649D01*
X132916Y203559D01*
D02*
G37*
G36*
X150496Y195438D02*
X146779Y191721D01*
X146558Y191390D01*
X146480Y191000D01*
Y186940D01*
X146325Y186785D01*
X146114Y186276D01*
Y185724D01*
X146325Y185215D01*
X146715Y184825D01*
X147224Y184614D01*
X147776D01*
X147980Y184699D01*
X148480Y184367D01*
Y176422D01*
X147015Y174957D01*
X120854D01*
Y176799D01*
X115588D01*
X114166Y178221D01*
X113835Y178442D01*
X113445Y178520D01*
X48211D01*
X48019Y178981D01*
X50018Y180980D01*
X126000D01*
X126390Y181058D01*
X126721Y181279D01*
X133677Y188235D01*
X134177Y188028D01*
Y185500D01*
X136547D01*
Y188657D01*
X134807D01*
X134599Y189157D01*
X138930Y193488D01*
X139151Y193819D01*
X139229Y194209D01*
Y194911D01*
X139848Y195531D01*
X139859D01*
X140368Y195742D01*
X140758Y196132D01*
X140969Y196641D01*
Y197192D01*
X140758Y197702D01*
X140729Y197730D01*
X140937Y198230D01*
X144591D01*
Y194270D01*
X143602Y193281D01*
X143381Y192950D01*
X143303Y192560D01*
Y188157D01*
X140583D01*
Y181843D01*
X145323D01*
Y186272D01*
X145342Y186370D01*
Y192138D01*
X146331Y193126D01*
X146552Y193457D01*
X146630Y193847D01*
Y198250D01*
X150496D01*
Y195438D01*
D02*
G37*
%LPC*%
G36*
X126157Y194917D02*
X123000D01*
Y192547D01*
X126157D01*
Y194917D01*
D02*
G37*
G36*
X122000D02*
X118842D01*
Y192547D01*
X122000D01*
Y194917D01*
D02*
G37*
G36*
X126157Y191547D02*
X122500D01*
X118842D01*
Y189177D01*
X120303D01*
X120510Y188677D01*
X120401Y188568D01*
X120166Y188000D01*
X123834D01*
X123599Y188568D01*
X123490Y188677D01*
X123697Y189177D01*
X126157D01*
Y191547D01*
D02*
G37*
G36*
X123834Y187000D02*
X122500D01*
Y185666D01*
X123068Y185901D01*
X123599Y186432D01*
X123834Y187000D01*
D02*
G37*
G36*
X121500D02*
X120166D01*
X120401Y186432D01*
X120932Y185901D01*
X121500Y185666D01*
Y187000D01*
D02*
G37*
G36*
X139917Y188657D02*
X137547D01*
Y185500D01*
X139917D01*
Y188657D01*
D02*
G37*
G36*
Y184500D02*
X137047D01*
X134177D01*
Y181342D01*
X136028D01*
Y179662D01*
X136105Y179271D01*
X136212Y179112D01*
X136166Y179000D01*
X139834D01*
X139599Y179568D01*
X139068Y180099D01*
X138375Y180386D01*
X138067D01*
Y181342D01*
X139917D01*
Y184500D01*
D02*
G37*
G36*
X139834Y178000D02*
X138500D01*
Y176666D01*
X139068Y176901D01*
X139599Y177432D01*
X139834Y178000D01*
D02*
G37*
G36*
X137500D02*
X136166D01*
X136401Y177432D01*
X136932Y176901D01*
X137500Y176666D01*
Y178000D01*
D02*
G37*
%LPD*%
D15*
X112500Y241004D02*
Y264094D01*
X95000Y281594D02*
X112500Y264094D01*
X98000Y202000D02*
X116000Y184000D01*
X124000D01*
X87500Y202000D02*
X98000D01*
X138209Y195334D02*
X139584Y196708D01*
Y196916D01*
X124000Y184000D02*
X139250Y199250D01*
X145610D01*
X126000Y182000D02*
X138209Y194209D01*
Y195334D01*
X49596Y182000D02*
X126000D01*
X42596Y175000D02*
X49596Y182000D01*
X122000Y191547D02*
X122500Y192047D01*
X122000Y187500D02*
Y191547D01*
X150677Y189614D02*
X150825Y189762D01*
X152358D01*
X149500Y186989D02*
X150086Y187575D01*
X149500Y176000D02*
Y186989D01*
X152358Y189762D02*
X153484Y190888D01*
X150086Y187575D02*
X157500D01*
X147437Y173937D02*
X149500Y176000D01*
X147500Y186000D02*
Y191000D01*
X151516Y195016D01*
X152000Y180500D02*
X153575D01*
X157500Y184425D01*
X137047Y179662D02*
X138000Y178709D01*
X137047Y179662D02*
Y185000D01*
X138000Y178500D02*
Y178709D01*
X117500Y173937D02*
X147437D01*
X157500Y187575D02*
Y191114D01*
Y192500D01*
X160804Y199896D02*
X165000Y195700D01*
X159390Y199896D02*
Y202073D01*
Y199896D02*
X160804D01*
X165000Y188000D02*
Y195700D01*
X161425Y184425D02*
X165000Y188000D01*
X157500Y184425D02*
X161425D01*
X168500Y174799D02*
Y202524D01*
X167914Y203110D02*
X168500Y202524D01*
X162150Y203110D02*
X167914D01*
X170386Y181000D02*
X182437D01*
X163250Y169549D02*
X168500Y174799D01*
X168421Y205079D02*
X171500Y202000D01*
X162500Y169549D02*
X163250D01*
X171500Y199000D02*
Y202000D01*
X162150Y205079D02*
X168421D01*
X174500Y198000D02*
Y205000D01*
X157421Y197579D02*
X161352Y193648D01*
X161852D02*
X162000Y193500D01*
X161352Y193648D02*
X161852D01*
X153484Y190888D02*
Y200350D01*
X161000Y227500D02*
X163303D01*
X157421Y221800D02*
X161621Y226000D01*
X155921Y221218D02*
Y222421D01*
X161000Y227500D01*
X157421Y219650D02*
Y221800D01*
X161621Y226000D02*
X166689D01*
X155453Y220750D02*
X155921Y221218D01*
X163303Y227500D02*
X164223Y228420D01*
Y230676D02*
X165047Y231500D01*
X155453Y219650D02*
Y220750D01*
X164223Y228420D02*
Y230676D01*
X158487Y229487D02*
Y229513D01*
X153484Y224484D02*
X158487Y229487D01*
X153484Y219650D02*
Y224484D01*
X151516Y219650D02*
Y226063D01*
X161031Y235579D02*
Y235972D01*
X162106Y237047D01*
X151516Y226063D02*
X161031Y235579D01*
X151516Y195016D02*
Y200350D01*
X168000Y216000D02*
X170500D01*
X164953Y212953D02*
X168000Y216000D01*
X162150Y212953D02*
X164953D01*
X167550Y218000D02*
X178500D01*
X164471Y214921D02*
X167550Y218000D01*
X162150Y214921D02*
X164471D01*
X168547Y222000D02*
Y224142D01*
X166689Y226000D02*
X168547Y224142D01*
X170953Y232000D02*
X171500Y231453D01*
Y227000D02*
Y231453D01*
Y227000D02*
X172500Y228000D01*
X179500D01*
X152500Y232000D02*
Y237047D01*
X167000Y240500D02*
X167148Y240352D01*
X168801D01*
X172106Y237047D01*
X172500D01*
X163852Y223352D02*
X164000Y223500D01*
X161992Y223352D02*
X163852D01*
X159390Y220750D02*
X161992Y223352D01*
X27500Y259075D02*
X28534Y260108D01*
X37943D01*
X112879Y225621D02*
X116000Y222500D01*
X122642Y223142D02*
Y229347D01*
X102953Y220000D02*
X119500D01*
X122642Y223142D01*
X157421Y197579D02*
Y200350D01*
X157500Y192500D02*
Y194911D01*
X155453Y196958D02*
X157500Y194911D01*
X155453Y196958D02*
Y200350D01*
X168687Y209016D02*
X169272Y209601D01*
Y212466D01*
X162150Y209016D02*
X168687D01*
X169975Y213169D02*
X180668D01*
X169272Y212466D02*
X169975Y213169D01*
X175157Y99883D02*
X189198D01*
X192500Y103184D01*
X153032Y130394D02*
X153425Y130000D01*
X153032Y130394D02*
Y139606D01*
X152638Y140000D02*
X153032Y139606D01*
X157992Y117047D02*
X175157Y99883D01*
X157500Y117047D02*
X157992D01*
X170972Y207633D02*
Y208925D01*
X170387Y207047D02*
X170972Y207633D01*
X167047Y207047D02*
X170387D01*
X170972Y208925D02*
X172047Y210000D01*
X167069Y210984D02*
X167187Y211102D01*
X162150Y210984D02*
X167069D01*
X167047Y207047D02*
X167047Y207047D01*
X162150Y207047D02*
X167047D01*
X159390Y219650D02*
Y220750D01*
X165077Y220077D02*
X165225Y220225D01*
X165077Y218717D02*
Y220077D01*
X163250Y216890D02*
X165077Y218717D01*
X132500Y201623D02*
X133819Y202942D01*
X132500Y201414D02*
Y201623D01*
X133819Y202942D02*
Y203110D01*
X35000Y175000D02*
X42596D01*
X35000Y165000D02*
X47500Y177500D01*
X113445D01*
X116295Y174650D01*
X116787D02*
X117500Y173937D01*
X116295Y174650D02*
X116787D01*
X92500Y189549D02*
X93500Y190549D01*
Y198000D01*
X103527Y206586D02*
X104113Y206000D01*
X94500Y204500D02*
X103209D01*
X85932Y206586D02*
X103527D01*
X64347Y185000D02*
X85932Y206586D01*
X103209Y204500D02*
X109756Y197953D01*
X104113Y206000D02*
X113500D01*
X35352Y194648D02*
X44352D01*
X44500Y194500D01*
X35000Y195000D02*
X35352Y194648D01*
X35000Y185000D02*
X64347D01*
X109756Y197953D02*
X122500D01*
X65016Y210000D02*
X126000D01*
X45016Y230000D02*
X65016Y210000D01*
X156575Y130000D02*
X157500Y129075D01*
Y122953D02*
Y129075D01*
X153917Y119862D02*
X157008Y122953D01*
X157500D01*
X142500Y119862D02*
X153917D01*
X142362Y130000D02*
X153425D01*
X144075Y140000D02*
X152638D01*
X35000Y205000D02*
X45500D01*
X145610Y193847D02*
Y199250D01*
Y200350D01*
X159350Y202113D02*
Y203150D01*
Y202113D02*
X159390Y202073D01*
X152500Y210000D02*
X159350Y203150D01*
X182437Y181000D02*
X182500Y181063D01*
X143791Y167500D02*
X144000D01*
X117500Y166063D02*
X142354D01*
X143791Y167500D01*
X33075Y245500D02*
X40765Y237810D01*
Y230495D02*
X41260Y230000D01*
X40765Y230495D02*
Y237810D01*
X41260Y230000D02*
X45016D01*
X133819Y203110D02*
X142850D01*
X122140Y205079D02*
X142850D01*
X162150Y216890D02*
X163250D01*
X147579Y219650D02*
Y222750D01*
X140580Y229361D02*
X140968D01*
X145025Y222500D02*
X145610Y221914D01*
X132894Y237047D02*
X140580Y229361D01*
X145610Y219650D02*
Y221914D01*
X134000Y222500D02*
X145025D01*
X127500Y229000D02*
X134000Y222500D01*
X140968Y229361D02*
X147579Y222750D01*
X122642Y229347D02*
X122648Y229352D01*
Y231852D01*
X122500Y232000D02*
X122648Y231852D01*
X122500Y232000D02*
Y237047D01*
X125580Y242920D02*
X127500Y241000D01*
Y229000D02*
Y241000D01*
X122500Y242953D02*
X122532Y242920D01*
X125580D01*
X97047Y215972D02*
Y220394D01*
X98000Y215000D02*
Y215019D01*
X97047Y215972D02*
X98000Y215019D01*
X121554Y204493D02*
X122140Y205079D01*
X121554Y198899D02*
Y204493D01*
Y198899D02*
X122500Y197953D01*
X112879Y225621D02*
Y228617D01*
X112500Y228996D02*
X112879Y228617D01*
X142500Y234500D02*
X149547Y227453D01*
X142500Y234500D02*
Y237047D01*
X149547Y219650D02*
Y227453D01*
X183151Y215651D02*
Y225459D01*
X180668Y213169D02*
X183151Y215651D01*
X187500Y160751D02*
Y168000D01*
X182500Y173000D02*
Y181063D01*
Y173000D02*
X187500Y168000D01*
X173852Y191148D02*
X174000Y191000D01*
X176063Y188937D01*
X182500D01*
X187500Y153976D02*
X191299Y150177D01*
X187500Y153976D02*
Y154249D01*
X191299Y140000D02*
Y150177D01*
X174693Y140000D02*
X178701D01*
X164242Y150451D02*
X174693Y140000D01*
X162500Y150451D02*
X164242D01*
X156575Y130000D02*
X157362Y130787D01*
Y140000D01*
X157508Y147201D02*
X160758Y150451D01*
X157508Y145165D02*
Y147201D01*
X160758Y150451D02*
X162500D01*
X152638Y140295D02*
X157508Y145165D01*
X152638Y140000D02*
Y140295D01*
X117500Y166063D02*
X118251Y165312D01*
Y155000D02*
Y165312D01*
X98799Y155000D02*
X111749D01*
X71914Y136423D02*
X77500Y130838D01*
Y124862D02*
Y130838D01*
X63086Y136423D02*
X71914D01*
X63086Y128539D02*
Y136423D01*
X62500Y127953D02*
X63086Y128539D01*
X71914Y136423D02*
X72500Y137009D01*
Y140925D01*
X62500Y137009D02*
Y140138D01*
Y137009D02*
X63086Y136423D01*
X78138Y159862D02*
X83000Y155000D01*
X72500Y159862D02*
X78138D01*
X86094Y154893D02*
X86201Y155000D01*
X83318Y154893D02*
X86094D01*
X72500Y144075D02*
X83318Y154893D01*
X72500Y144075D02*
Y146500D01*
X71500Y147500D02*
X72500Y146500D01*
X65138Y147500D02*
X71500D01*
X63772Y145839D02*
Y146134D01*
X62500Y144862D02*
X62795D01*
X63772Y145839D01*
Y146134D02*
X65138Y147500D01*
X62894Y159468D02*
X72106D01*
X72500Y159862D01*
X62500Y159075D02*
X62894Y159468D01*
X86201Y161701D02*
X90287Y165787D01*
X86201Y155000D02*
Y161701D01*
X90287Y168237D02*
X92500Y170451D01*
X90287Y165787D02*
Y168237D01*
X144323Y192560D02*
X145610Y193847D01*
X144323Y186370D02*
Y192560D01*
X182658Y210000D02*
X192362Y200295D01*
X177953Y210000D02*
X182658D01*
X206713Y200000D02*
X212500Y205787D01*
X192362Y200000D02*
X206713D01*
X192362D02*
Y200295D01*
X183151Y225459D02*
X192500Y234807D01*
Y239547D01*
X192894Y245453D02*
X197362Y240984D01*
Y230000D02*
Y240984D01*
X192500Y245453D02*
X192894D01*
X207500Y230000D02*
X212500Y225000D01*
X197362Y230000D02*
X207500D01*
X179500Y228000D02*
X182500Y231000D01*
Y234882D01*
X142953Y185000D02*
X144323Y186370D01*
X132500Y237047D02*
X132894D01*
X162106D02*
X162500D01*
X92953Y224487D02*
Y236753D01*
X96319Y240118D02*
X97500D01*
X92953Y224487D02*
X97047Y220394D01*
X92953Y236753D02*
X96319Y240118D01*
X33075Y245500D02*
X37500Y249925D01*
Y254892D01*
X37943Y260108D02*
X44272Y253780D01*
X62500D01*
Y269094D02*
X75000Y281594D01*
X62500Y253780D02*
Y269094D01*
X97500Y240118D02*
Y269094D01*
X85000Y281594D02*
X97500Y269094D01*
X115000Y281594D02*
X122500Y274095D01*
Y242953D02*
Y274095D01*
X132500Y242953D02*
Y274095D01*
X125000Y281594D02*
X132500Y274095D01*
X135000Y281594D02*
X142500Y274095D01*
Y242953D02*
Y274095D01*
X152500Y242953D02*
Y274095D01*
X145000Y281594D02*
X152500Y274095D01*
X162500Y242953D02*
Y274095D01*
X155000Y281594D02*
X162500Y274095D01*
X172500Y242953D02*
Y274095D01*
X165000Y281594D02*
X172500Y274095D01*
D16*
X117500Y166063D02*
D03*
Y173937D02*
D03*
X182500Y188937D02*
D03*
Y181063D02*
D03*
D17*
X168547Y222000D02*
D03*
X174453D02*
D03*
X165047Y231500D02*
D03*
X170953D02*
D03*
D18*
X162500Y169549D02*
D03*
Y150451D02*
D03*
X92500Y170451D02*
D03*
Y189549D02*
D03*
D19*
X172047Y210000D02*
D03*
X177953D02*
D03*
X97047Y220000D02*
D03*
X102953D02*
D03*
D21*
X145610Y219650D02*
D03*
X147579D02*
D03*
X149547D02*
D03*
X151516D02*
D03*
X153484D02*
D03*
X155453D02*
D03*
X157421D02*
D03*
X159390D02*
D03*
Y200350D02*
D03*
X157421D02*
D03*
X155453D02*
D03*
X153484D02*
D03*
X151516D02*
D03*
X149547D02*
D03*
X147579D02*
D03*
X145610D02*
D03*
D22*
X162150Y216890D02*
D03*
Y214921D02*
D03*
Y212953D02*
D03*
Y210984D02*
D03*
Y209016D02*
D03*
Y207047D02*
D03*
Y205079D02*
D03*
Y203110D02*
D03*
X142850D02*
D03*
Y205079D02*
D03*
Y207047D02*
D03*
Y209016D02*
D03*
Y210984D02*
D03*
Y212953D02*
D03*
Y214921D02*
D03*
Y216890D02*
D03*
D23*
X77500Y124862D02*
D03*
Y120138D02*
D03*
X142500Y115138D02*
D03*
Y119862D02*
D03*
X72500Y159862D02*
D03*
Y155138D02*
D03*
X62500Y140138D02*
D03*
Y144862D02*
D03*
D24*
X192638Y230000D02*
D03*
X197362D02*
D03*
X137638Y130000D02*
D03*
X142362D02*
D03*
X157362Y140000D02*
D03*
X152638D02*
D03*
X187638Y200000D02*
D03*
X192362D02*
D03*
D25*
X152500Y237047D02*
D03*
Y242953D02*
D03*
X192500Y239547D02*
D03*
Y245453D02*
D03*
X172500Y237047D02*
D03*
Y242953D02*
D03*
X132500Y237047D02*
D03*
Y242953D02*
D03*
X142500Y237047D02*
D03*
Y242953D02*
D03*
X162500Y237047D02*
D03*
Y242953D02*
D03*
D26*
X157500Y117047D02*
D03*
Y122953D02*
D03*
X62500Y122047D02*
D03*
Y127953D02*
D03*
D27*
Y226220D02*
D03*
Y253780D02*
D03*
D28*
Y159075D02*
D03*
Y155925D02*
D03*
X72500Y140925D02*
D03*
Y144075D02*
D03*
X27500Y259075D02*
D03*
Y255925D02*
D03*
X157500Y184425D02*
D03*
Y187575D02*
D03*
D29*
X86201Y155000D02*
D03*
X98799D02*
D03*
X178701Y140000D02*
D03*
X191299D02*
D03*
D30*
X111749Y155000D02*
D03*
X118251D02*
D03*
D31*
X140925Y140000D02*
D03*
X144075D02*
D03*
X156575Y130000D02*
D03*
X153425D02*
D03*
X33075Y245500D02*
D03*
X29925D02*
D03*
D32*
X187500Y154249D02*
D03*
Y160751D02*
D03*
D33*
X137047Y185000D02*
D03*
X142953D02*
D03*
D34*
X41260Y230000D02*
D03*
X23740D02*
D03*
D35*
X37500Y260108D02*
D03*
Y254892D02*
D03*
D36*
X97500Y240118D02*
D03*
Y229882D02*
D03*
X182500Y234882D02*
D03*
Y245118D02*
D03*
D37*
X112500Y228996D02*
D03*
Y241004D02*
D03*
D38*
X122500Y237047D02*
D03*
Y242953D02*
D03*
D39*
Y192047D02*
D03*
Y197953D02*
D03*
D43*
X152500Y210000D02*
D03*
D49*
X212500Y205787D02*
D03*
D50*
Y225000D02*
D03*
D51*
X35000Y165000D02*
D03*
Y175000D02*
D03*
Y185000D02*
D03*
Y195000D02*
D03*
D52*
Y205000D02*
D03*
D55*
X190000Y84000D02*
X191500Y82500D01*
X37000Y84000D02*
X190000D01*
X34000Y81000D02*
X37000Y84000D01*
X34000Y-72500D02*
Y81000D01*
Y-72500D02*
X36949Y-75449D01*
X193051D01*
X196000Y-72500D01*
Y85000D01*
X193063Y87937D02*
X196000Y85000D01*
X34937Y87937D02*
X193063D01*
X30063Y83063D02*
X34937Y87937D01*
X30063Y-74563D02*
Y83063D01*
Y-74563D02*
X34886Y-79386D01*
X195114D01*
X199354Y-75146D01*
Y87646D01*
X195126Y91874D02*
X199354Y87646D01*
X32874Y91874D02*
X195126D01*
X26126Y85126D02*
X32874Y91874D01*
X26126Y-76626D02*
Y85126D01*
Y-76626D02*
X32823Y-83323D01*
X197177D01*
X203291Y-77209D01*
Y89709D01*
X197189Y95811D02*
X203291Y89709D01*
X30811Y95811D02*
X197189D01*
X22189Y87189D02*
X30811Y95811D01*
X22189Y-78689D02*
Y87189D01*
Y-78689D02*
X30760Y-87260D01*
X199240D01*
X207228Y-79272D01*
Y91772D01*
X195816Y103184D02*
X207228Y91772D01*
X192500Y103184D02*
X195816D01*
X62508Y122047D02*
X63000Y121555D01*
Y115500D02*
Y121555D01*
X62500Y122047D02*
X62508D01*
D56*
X125000Y281594D02*
D03*
X115000D02*
D03*
X105000D02*
D03*
X85000D02*
D03*
X95000D02*
D03*
X135000D02*
D03*
X145000D02*
D03*
X155000D02*
D03*
X165000D02*
D03*
D57*
X75000D02*
D03*
D58*
X139584Y196916D02*
D03*
X122000Y187500D02*
D03*
X150677Y189614D02*
D03*
X147500Y186000D02*
D03*
X152000Y180500D02*
D03*
X138000Y178500D02*
D03*
X170386Y181000D02*
D03*
X171500Y199000D02*
D03*
X174500Y198000D02*
D03*
X162000Y193500D02*
D03*
X157500Y191114D02*
D03*
X158487Y229513D02*
D03*
X170500Y216000D02*
D03*
X178500Y218000D02*
D03*
X171500Y227000D02*
D03*
X152500Y232000D02*
D03*
X167000Y240500D02*
D03*
X164000Y223500D02*
D03*
X116000Y222500D02*
D03*
X174500Y205000D02*
D03*
X167187Y211102D02*
D03*
X165225Y220225D02*
D03*
X132500Y201414D02*
D03*
X87500Y202000D02*
D03*
X93500Y198000D02*
D03*
X94500Y204500D02*
D03*
X44500Y194500D02*
D03*
X45500Y205000D02*
D03*
X113500Y206000D02*
D03*
X144000Y167500D02*
D03*
X126000Y210000D02*
D03*
X122500Y232000D02*
D03*
X98000Y215000D02*
D03*
X174000Y191000D02*
D03*
D59*
X191500Y82500D02*
D03*
X192500Y103184D02*
D03*
X63000Y115500D02*
D03*
M02*
