G04*
G04 #@! TF.GenerationSoftware,Altium Limited,Altium Designer,24.0.1 (36)*
G04*
G04 Layer_Color=2752767*
%FSLAX25Y25*%
%MOIN*%
G70*
G04*
G04 #@! TF.SameCoordinates,852D5C1C-0582-447D-AFC5-A22B4F0E1159*
G04*
G04*
G04 #@! TF.FilePolarity,Positive*
G04*
G01*
G75*
%ADD13C,0.00500*%
%ADD65C,0.00667*%
D13*
X210500Y203787D02*
Y207787D01*
X214500D01*
Y203787D01*
X210500D01*
Y223000D02*
Y227000D01*
X214500D01*
Y223000D01*
X210500D01*
X125000Y279594D02*
X123000Y283594D01*
X127000D01*
X125000Y279594D01*
X115000D02*
X113000Y283594D01*
X117000D01*
X115000Y279594D01*
X105000D02*
X103000Y283594D01*
X107000D01*
X105000Y279594D01*
X85000D02*
X83000Y283594D01*
X87000D01*
X85000Y279594D01*
X75000D02*
X73000Y283594D01*
X77000D01*
X75000Y279594D01*
X95000D02*
X93000Y283594D01*
X97000D01*
X95000Y279594D01*
X135000D02*
X133000Y283594D01*
X137000D01*
X135000Y279594D01*
X145000D02*
X143000Y283594D01*
X147000D01*
X145000Y279594D01*
X155000D02*
X153000Y283594D01*
X157000D01*
X155000Y279594D01*
X165000D02*
X163000Y283594D01*
X167000D01*
X165000Y279594D01*
X137583Y194916D02*
X138584Y196916D01*
X137583Y198916D01*
X139584Y197916D01*
X141584Y198916D01*
X140584Y196916D01*
X141584Y194916D01*
X139584Y195916D01*
X137583Y194916D01*
X120000Y185500D02*
X121000Y187500D01*
X120000Y189500D01*
X122000Y188500D01*
X124000Y189500D01*
X123000Y187500D01*
X124000Y185500D01*
X122000Y186500D01*
X120000Y185500D01*
X148677Y187614D02*
X149677Y189614D01*
X148677Y191614D01*
X150677Y190614D01*
X152677Y191614D01*
X151677Y189614D01*
X152677Y187614D01*
X150677Y188614D01*
X148677Y187614D01*
X145500Y184000D02*
X146500Y186000D01*
X145500Y188000D01*
X147500Y187000D01*
X149500Y188000D01*
X148500Y186000D01*
X149500Y184000D01*
X147500Y185000D01*
X145500Y184000D01*
X150000Y178500D02*
X151000Y180500D01*
X150000Y182500D01*
X152000Y181500D01*
X154000Y182500D01*
X153000Y180500D01*
X154000Y178500D01*
X152000Y179500D01*
X150000Y178500D01*
X136000Y176500D02*
X137000Y178500D01*
X136000Y180500D01*
X138000Y179500D01*
X140000Y180500D01*
X139000Y178500D01*
X140000Y176500D01*
X138000Y177500D01*
X136000Y176500D01*
X168386Y179000D02*
X169386Y181000D01*
X168386Y183000D01*
X170386Y182000D01*
X172386Y183000D01*
X171386Y181000D01*
X172386Y179000D01*
X170386Y180000D01*
X168386Y179000D01*
X169500Y197000D02*
X170500Y199000D01*
X169500Y201000D01*
X171500Y200000D01*
X173500Y201000D01*
X172500Y199000D01*
X173500Y197000D01*
X171500Y198000D01*
X169500Y197000D01*
X172500Y196000D02*
X173500Y198000D01*
X172500Y200000D01*
X174500Y199000D01*
X176500Y200000D01*
X175500Y198000D01*
X176500Y196000D01*
X174500Y197000D01*
X172500Y196000D01*
X160000Y191500D02*
X161000Y193500D01*
X160000Y195500D01*
X162000Y194500D01*
X164000Y195500D01*
X163000Y193500D01*
X164000Y191500D01*
X162000Y192500D01*
X160000Y191500D01*
X155500Y189114D02*
X156500Y191114D01*
X155500Y193114D01*
X157500Y192114D01*
X159500Y193114D01*
X158500Y191114D01*
X159500Y189114D01*
X157500Y190114D01*
X155500Y189114D01*
X156487Y227513D02*
X157487Y229513D01*
X156487Y231513D01*
X158487Y230513D01*
X160487Y231513D01*
X159487Y229513D01*
X160487Y227513D01*
X158487Y228513D01*
X156487Y227513D01*
X168500Y214000D02*
X169500Y216000D01*
X168500Y218000D01*
X170500Y217000D01*
X172500Y218000D01*
X171500Y216000D01*
X172500Y214000D01*
X170500Y215000D01*
X168500Y214000D01*
X176500Y216000D02*
X177500Y218000D01*
X176500Y220000D01*
X178500Y219000D01*
X180500Y220000D01*
X179500Y218000D01*
X180500Y216000D01*
X178500Y217000D01*
X176500Y216000D01*
X169500Y225000D02*
X170500Y227000D01*
X169500Y229000D01*
X171500Y228000D01*
X173500Y229000D01*
X172500Y227000D01*
X173500Y225000D01*
X171500Y226000D01*
X169500Y225000D01*
X150500Y230000D02*
X151500Y232000D01*
X150500Y234000D01*
X152500Y233000D01*
X154500Y234000D01*
X153500Y232000D01*
X154500Y230000D01*
X152500Y231000D01*
X150500Y230000D01*
X165000Y238500D02*
X166000Y240500D01*
X165000Y242500D01*
X167000Y241500D01*
X169000Y242500D01*
X168000Y240500D01*
X169000Y238500D01*
X167000Y239500D01*
X165000Y238500D01*
X162000Y221500D02*
X163000Y223500D01*
X162000Y225500D01*
X164000Y224500D01*
X166000Y225500D01*
X165000Y223500D01*
X166000Y221500D01*
X164000Y222500D01*
X162000Y221500D01*
X114000Y220500D02*
X115000Y222500D01*
X114000Y224500D01*
X116000Y223500D01*
X118000Y224500D01*
X117000Y222500D01*
X118000Y220500D01*
X116000Y221500D01*
X114000Y220500D01*
X191500Y80500D02*
X192500Y81500D01*
X193500D01*
X192500Y82500D01*
X193500Y83500D01*
X192500D01*
X191500Y84500D01*
X190500Y83500D01*
X189500D01*
X190500Y82500D01*
X189500Y81500D01*
X190500D01*
X191500Y80500D01*
X192500Y101184D02*
X193500Y102184D01*
X194500D01*
X193500Y103184D01*
X194500Y104184D01*
X193500D01*
X192500Y105184D01*
X191500Y104184D01*
X190500D01*
X191500Y103184D01*
X190500Y102184D01*
X191500D01*
X192500Y101184D01*
X63000Y113500D02*
X64000Y114500D01*
X65000D01*
X64000Y115500D01*
X65000Y116500D01*
X64000D01*
X63000Y117500D01*
X62000Y116500D01*
X61000D01*
X62000Y115500D01*
X61000Y114500D01*
X62000D01*
X63000Y113500D01*
X172500Y203000D02*
X173500Y205000D01*
X172500Y207000D01*
X174500Y206000D01*
X176500Y207000D01*
X175500Y205000D01*
X176500Y203000D01*
X174500Y204000D01*
X172500Y203000D01*
X165187Y209102D02*
X166187Y211102D01*
X165187Y213102D01*
X167187Y212102D01*
X169187Y213102D01*
X168187Y211102D01*
X169187Y209102D01*
X167187Y210102D01*
X165187Y209102D01*
X163225Y218225D02*
X164225Y220225D01*
X163225Y222225D01*
X165225Y221225D01*
X167225Y222225D01*
X166225Y220225D01*
X167225Y218225D01*
X165225Y219225D01*
X163225Y218225D01*
X130500Y199414D02*
X131500Y201414D01*
X130500Y203414D01*
X132500Y202414D01*
X134500Y203414D01*
X133500Y201414D01*
X134500Y199414D01*
X132500Y200414D01*
X130500Y199414D01*
X85500Y200000D02*
X86500Y202000D01*
X85500Y204000D01*
X87500Y203000D01*
X89500Y204000D01*
X88500Y202000D01*
X89500Y200000D01*
X87500Y201000D01*
X85500Y200000D01*
X91500Y196000D02*
X92500Y198000D01*
X91500Y200000D01*
X93500Y199000D01*
X95500Y200000D01*
X94500Y198000D01*
X95500Y196000D01*
X93500Y197000D01*
X91500Y196000D01*
X92500Y202500D02*
X93500Y204500D01*
X92500Y206500D01*
X94500Y205500D01*
X96500Y206500D01*
X95500Y204500D01*
X96500Y202500D01*
X94500Y203500D01*
X92500Y202500D01*
X42500Y192500D02*
X43500Y194500D01*
X42500Y196500D01*
X44500Y195500D01*
X46500Y196500D01*
X45500Y194500D01*
X46500Y192500D01*
X44500Y193500D01*
X42500Y192500D01*
X43500Y203000D02*
X44500Y205000D01*
X43500Y207000D01*
X45500Y206000D01*
X47500Y207000D01*
X46500Y205000D01*
X47500Y203000D01*
X45500Y204000D01*
X43500Y203000D01*
X111500Y204000D02*
X112500Y206000D01*
X111500Y208000D01*
X113500Y207000D01*
X115500Y208000D01*
X114500Y206000D01*
X115500Y204000D01*
X113500Y205000D01*
X111500Y204000D01*
X142000Y165500D02*
X143000Y167500D01*
X142000Y169500D01*
X144000Y168500D01*
X146000Y169500D01*
X145000Y167500D01*
X146000Y165500D01*
X144000Y166500D01*
X142000Y165500D01*
X124000Y208000D02*
X125000Y210000D01*
X124000Y212000D01*
X126000Y211000D01*
X128000Y212000D01*
X127000Y210000D01*
X128000Y208000D01*
X126000Y209000D01*
X124000Y208000D01*
X120500Y230000D02*
X121500Y232000D01*
X120500Y234000D01*
X122500Y233000D01*
X124500Y234000D01*
X123500Y232000D01*
X124500Y230000D01*
X122500Y231000D01*
X120500Y230000D01*
X96000Y213000D02*
X97000Y215000D01*
X96000Y217000D01*
X98000Y216000D01*
X100000Y217000D01*
X99000Y215000D01*
X100000Y213000D01*
X98000Y214000D01*
X96000Y213000D01*
X172000Y189000D02*
X173000Y191000D01*
X172000Y193000D01*
X174000Y192000D01*
X176000Y193000D01*
X175000Y191000D01*
X176000Y189000D01*
X174000Y190000D01*
X172000Y189000D01*
D65*
X37000Y165000D02*
G03*
X37000Y165000I-2000J0D01*
G01*
Y175000D02*
G03*
X37000Y175000I-2000J0D01*
G01*
Y185000D02*
G03*
X37000Y185000I-2000J0D01*
G01*
Y195000D02*
G03*
X37000Y195000I-2000J0D01*
G01*
Y205000D02*
G03*
X37000Y205000I-2000J0D01*
G01*
M02*
