G04*
G04 #@! TF.GenerationSoftware,Altium Limited,Altium Designer,24.0.1 (36)*
G04*
G04 Layer_Color=32768*
%FSLAX25Y25*%
%MOIN*%
G70*
G04*
G04 #@! TF.SameCoordinates,852D5C1C-0582-447D-AFC5-A22B4F0E1159*
G04*
G04*
G04 #@! TF.FilePolarity,Positive*
G04*
G01*
G75*
%ADD60C,0.00394*%
D60*
X46161Y223661D02*
Y249251D01*
Y223661D02*
X78839D01*
X53248Y256338D02*
X71752D01*
X46161Y249251D02*
X53248Y256338D01*
X71752D02*
X78839Y249251D01*
Y223661D02*
Y249251D01*
X73740Y280335D02*
X76260D01*
X83740D02*
X86260D01*
X93740D02*
X96260D01*
X103740D02*
X106260D01*
X83740D02*
Y287500D01*
X76260Y280335D02*
Y287500D01*
X73740Y280335D02*
Y287500D01*
X86260Y280335D02*
Y287500D01*
X93740Y280335D02*
Y287500D01*
X96260Y280335D02*
Y287500D01*
X103740Y280335D02*
Y287500D01*
X70000D02*
Y297500D01*
X76260D02*
Y320335D01*
X73740Y297500D02*
Y320335D01*
X93740Y297500D02*
Y320335D01*
X83740Y297500D02*
Y320335D01*
X86260Y297500D02*
Y320335D01*
X96260Y297500D02*
Y320335D01*
X103740Y297500D02*
Y320335D01*
X85000Y321122D02*
X86260Y320335D01*
X73740D02*
X75000Y321122D01*
X93740Y320335D02*
X95000Y321122D01*
X83740Y320335D02*
X85000Y321122D01*
X75000D02*
X76260Y320335D01*
X95000Y321122D02*
X96260Y320335D01*
X103740D02*
X105000Y321122D01*
X106260Y320335D01*
Y280335D02*
Y287500D01*
Y297500D02*
Y320335D01*
X113740Y280335D02*
Y287500D01*
Y297500D02*
Y320335D01*
X115000Y321122D01*
X113740Y280335D02*
X116260D01*
X115000Y321122D02*
X116260Y320335D01*
Y297500D02*
Y320335D01*
Y280335D02*
Y287500D01*
X70000Y297500D02*
X170000D01*
X70000Y287500D02*
X170000D01*
X123740Y297500D02*
Y320335D01*
Y280335D02*
Y287500D01*
Y320335D02*
X125000Y321122D01*
X123740Y280335D02*
X126260D01*
X125000Y321122D02*
X126260Y320335D01*
Y280335D02*
Y287500D01*
Y297500D02*
Y320335D01*
X133740Y297500D02*
Y320335D01*
Y280335D02*
Y287500D01*
Y320335D02*
X135000Y321122D01*
X133740Y280335D02*
X136260D01*
X135000Y321122D02*
X136260Y320335D01*
Y297500D02*
Y320335D01*
Y280335D02*
Y287500D01*
X143740Y280335D02*
Y287500D01*
Y297500D02*
Y320335D01*
X145000Y321122D01*
X143740Y280335D02*
X146260D01*
X145000Y321122D02*
X146260Y320335D01*
Y280335D02*
Y287500D01*
Y297500D02*
Y320335D01*
X153740Y280335D02*
Y287500D01*
Y297500D02*
Y320335D01*
X155000Y321122D01*
X153740Y280335D02*
X156260D01*
X155000Y321122D02*
X156260Y320335D01*
Y297500D02*
Y320335D01*
Y280335D02*
Y287500D01*
X163740Y280335D02*
Y287500D01*
Y297500D02*
Y320335D01*
X165000Y321122D01*
X163740Y280335D02*
X166260D01*
X165000Y321122D02*
X166260Y320335D01*
Y280335D02*
Y287500D01*
Y297500D02*
Y320335D01*
X170000Y287500D02*
Y297500D01*
M02*
