G04*
G04 #@! TF.GenerationSoftware,Altium Limited,Altium Designer,24.0.1 (36)*
G04*
G04 Layer_Color=16711935*
%FSLAX25Y25*%
%MOIN*%
G70*
G04*
G04 #@! TF.SameCoordinates,852D5C1C-0582-447D-AFC5-A22B4F0E1159*
G04*
G04*
G04 #@! TF.FilePolarity,Positive*
G04*
G01*
G75*
%ADD14C,0.00300*%
%ADD60C,0.00394*%
%ADD63C,0.00000*%
%ADD64C,0.00100*%
D14*
X143200Y218654D02*
X145824Y216030D01*
X143200D02*
X145824Y218654D01*
X143200Y217342D02*
X145824D01*
X144512Y216030D02*
Y218654D01*
X218680Y236894D02*
X216056Y234270D01*
Y236894D02*
X218680Y234270D01*
X217368Y236894D02*
Y234270D01*
X216056Y235582D02*
X218680D01*
D60*
X114842Y165866D02*
X120158D01*
X114842Y174134D02*
X120158D01*
X114842Y165866D02*
Y174134D01*
X120158Y165866D02*
Y174134D01*
X167957Y223969D02*
X175043D01*
X167957Y220031D02*
X175043D01*
X167957D02*
Y223969D01*
X175043Y220031D02*
Y223969D01*
X164457Y229532D02*
Y233469D01*
X171543Y229532D02*
Y233469D01*
X164457D02*
X171543D01*
X164457Y229532D02*
X171543D01*
X171653Y208228D02*
Y211772D01*
X178347Y208228D02*
Y211772D01*
X171653D02*
X178347D01*
X171653Y208228D02*
X178347D01*
X185158Y180866D02*
Y189134D01*
X179842Y180866D02*
Y189134D01*
X185158D01*
X179842Y180866D02*
X185158D01*
X150728Y236653D02*
X154272D01*
X150728Y243347D02*
X154272D01*
X150728Y236653D02*
Y243347D01*
X154272Y236653D02*
Y243347D01*
X190728Y239154D02*
X194272D01*
X190728Y245847D02*
X194272D01*
X190728Y239154D02*
Y245847D01*
X194272Y239154D02*
Y245847D01*
X101043Y228307D02*
Y241693D01*
X93957Y228307D02*
Y241693D01*
X101043D01*
X93957Y228307D02*
X101043D01*
X178957Y233307D02*
Y246693D01*
X186043Y233307D02*
Y246693D01*
X178957Y233307D02*
X186043D01*
X178957Y246693D02*
X186043D01*
X96653Y218228D02*
Y221772D01*
X103347Y218228D02*
Y221772D01*
X96653D02*
X103347D01*
X96653Y218228D02*
X103347D01*
X109153Y228701D02*
X115847D01*
X109153Y241299D02*
X115847D01*
X109153Y228701D02*
Y241299D01*
X115847Y228701D02*
Y241299D01*
X170728Y236653D02*
X174272D01*
X170728Y243347D02*
X174272D01*
X170728Y236653D02*
Y243347D01*
X174272Y236653D02*
Y243347D01*
X130728Y236653D02*
X134272D01*
X130728Y243347D02*
X134272D01*
X130728Y236653D02*
Y243347D01*
X134272Y236653D02*
Y243347D01*
X120531Y236457D02*
X124469D01*
X120531Y243543D02*
X124469D01*
X120531Y236457D02*
Y243543D01*
X124469Y236457D02*
Y243543D01*
X140728Y236653D02*
X144272D01*
X140728Y243347D02*
X144272D01*
X140728Y236653D02*
Y243347D01*
X144272Y236653D02*
Y243347D01*
X160728Y236653D02*
X164272D01*
X160728Y243347D02*
X164272D01*
X160728Y236653D02*
Y243347D01*
X164272Y236653D02*
Y243347D01*
D63*
X205250Y198144D02*
G03*
X207750Y195644I2500J0D01*
G01*
X217250D02*
G03*
X219750Y198144I0J2500D01*
G01*
Y232644D02*
G03*
X217250Y235144I-2500J0D01*
G01*
X207750D02*
G03*
X205250Y232644I0J-2500D01*
G01*
X203250Y196144D02*
G03*
X205750Y193644I2500J0D01*
G01*
X219250D02*
G03*
X221750Y196144I0J2500D01*
G01*
X205750Y237144D02*
G03*
X203250Y234644I0J-2500D01*
G01*
X221750D02*
G03*
X219250Y237144I-2500J0D01*
G01*
D64*
X142450Y199950D02*
Y220050D01*
X162550D01*
Y199950D02*
Y220050D01*
X142450Y199950D02*
X162550D01*
Y216290D02*
Y217490D01*
Y216290D02*
Y217490D01*
Y214321D02*
Y215521D01*
Y214321D02*
Y215521D01*
Y212353D02*
Y213553D01*
Y212353D02*
Y213553D01*
Y210384D02*
Y211584D01*
Y210384D02*
Y211584D01*
Y208416D02*
Y209616D01*
Y208416D02*
Y209616D01*
Y206447D02*
Y207647D01*
Y206447D02*
Y207647D01*
Y204479D02*
Y205679D01*
Y204479D02*
Y205679D01*
Y202510D02*
Y203710D01*
Y202510D02*
Y203710D01*
X158790Y199950D02*
X159990D01*
X158790D02*
X159990D01*
X156821D02*
X158021D01*
X156821D02*
X158021D01*
X154853D02*
X156053D01*
X154853D02*
X156053D01*
X152884D02*
X154084D01*
X152884D02*
X154084D01*
X150916D02*
X152116D01*
X150916D02*
X152116D01*
X148947D02*
X150147D01*
X148947D02*
X150147D01*
X146979D02*
X148179D01*
X146979D02*
X148179D01*
X145010D02*
X146210D01*
X145010D02*
X146210D01*
X142450Y202510D02*
Y203710D01*
Y202510D02*
Y203710D01*
Y204479D02*
Y205679D01*
Y204479D02*
Y205679D01*
Y206447D02*
Y207647D01*
Y206447D02*
Y207647D01*
Y208416D02*
Y209616D01*
Y208416D02*
Y209616D01*
Y210384D02*
Y211584D01*
Y210384D02*
Y211584D01*
Y212353D02*
Y213553D01*
Y212353D02*
Y213553D01*
Y214321D02*
Y215521D01*
Y214321D02*
Y215521D01*
Y216290D02*
Y217490D01*
Y216290D02*
Y217490D01*
X145010Y220050D02*
X146210D01*
X145010D02*
X146210D01*
X146979D02*
X148179D01*
X146979D02*
X148179D01*
X148947D02*
X150147D01*
X148947D02*
X150147D01*
X150916D02*
X152116D01*
X150916D02*
X152116D01*
X152884D02*
X154084D01*
X152884D02*
X154084D01*
X154853D02*
X156053D01*
X154853D02*
X156053D01*
X156821D02*
X158021D01*
X156821D02*
X158021D01*
X158790D02*
X159990D01*
X158790D02*
X159990D01*
X142450Y215050D02*
X147450Y220050D01*
X205250Y198144D02*
Y232644D01*
X207750Y195644D02*
X217250D01*
X219750Y198144D02*
Y232644D01*
X207750Y235144D02*
X217250D01*
X203250Y196144D02*
Y234644D01*
X205750Y193644D02*
X219250D01*
X221750Y196144D02*
Y234644D01*
X205750Y237144D02*
X219250D01*
M02*
