G04*
G04 #@! TF.GenerationSoftware,Altium Limited,Altium Designer,24.0.1 (36)*
G04*
G04 Layer_Color=32768*
%FSLAX25Y25*%
%MOIN*%
G70*
G04*
G04 #@! TF.SameCoordinates,852D5C1C-0582-447D-AFC5-A22B4F0E1159*
G04*
G04*
G04 #@! TF.FilePolarity,Positive*
G04*
G01*
G75*
%ADD12C,0.00787*%
%ADD61C,0.00197*%
D12*
X173591Y146307D02*
Y173693D01*
X151409Y146307D02*
X173591D01*
X151409D02*
Y173693D01*
X173591D01*
X75138Y117776D02*
X79862D01*
Y127224D01*
X75138D02*
X79862D01*
X75138Y117776D02*
Y127224D01*
X199724Y227638D02*
Y232362D01*
X190276D02*
X199724D01*
X190276Y227638D02*
Y232362D01*
Y227638D02*
X199724D01*
X140138Y122224D02*
X144862D01*
X140138Y112776D02*
Y122224D01*
Y112776D02*
X144862D01*
Y122224D01*
X155138Y124823D02*
X159862D01*
X155138Y115177D02*
Y124823D01*
Y115177D02*
X159862D01*
Y124823D01*
X60138Y129823D02*
X64862D01*
X60138Y120177D02*
Y129823D01*
Y120177D02*
X64862D01*
Y129823D01*
X29213Y210886D02*
X40787D01*
X29213Y159114D02*
Y210886D01*
Y159114D02*
X40787D01*
Y210886D01*
X70138Y152776D02*
X74862D01*
Y162224D01*
X70138D02*
X74862D01*
X70138Y152776D02*
Y162224D01*
X60925Y154350D02*
X64075D01*
Y160650D01*
X60925D02*
X64075D01*
X60925Y154350D02*
Y160650D01*
X60138Y147224D02*
X64862D01*
X60138Y137776D02*
Y147224D01*
Y137776D02*
X64862D01*
Y147224D01*
X70925Y145650D02*
X74075D01*
X70925Y139350D02*
Y145650D01*
Y139350D02*
X74075D01*
Y145650D01*
X101161Y151260D02*
Y158740D01*
X83839D02*
X101161D01*
X83839Y151260D02*
Y158740D01*
Y151260D02*
X101161D01*
X122595Y150929D02*
Y159071D01*
X107405D02*
X122595D01*
X107405Y150929D02*
Y159071D01*
Y150929D02*
X122595D01*
X81410Y193693D02*
X103591D01*
X81410Y166307D02*
Y193693D01*
Y166307D02*
X103591D01*
Y193693D01*
X144724Y127638D02*
Y132362D01*
X135276D02*
X144724D01*
X135276Y127638D02*
Y132362D01*
Y127638D02*
X144724D01*
X145650Y138425D02*
Y141575D01*
X139350D02*
X145650D01*
X139350Y138425D02*
Y141575D01*
Y138425D02*
X145650D01*
X151850Y128425D02*
Y131575D01*
Y128425D02*
X158150D01*
Y131575D01*
X151850D02*
X158150D01*
X150276Y137638D02*
Y142362D01*
Y137638D02*
X159724D01*
Y142362D01*
X150276D02*
X159724D01*
X193661Y136260D02*
Y143740D01*
X176339D02*
X193661D01*
X176339Y136260D02*
Y143740D01*
Y136260D02*
X193661D01*
X183429Y165095D02*
X191571D01*
X183429Y149905D02*
Y165095D01*
Y149905D02*
X191571D01*
Y165095D01*
X194724Y197638D02*
Y202362D01*
X185276D02*
X194724D01*
X185276Y197638D02*
Y202362D01*
Y197638D02*
X194724D01*
X145512Y181653D02*
Y188347D01*
X134488D02*
X145512D01*
X134488Y181653D02*
Y188347D01*
Y181653D02*
X145512D01*
X21864Y222520D02*
Y237480D01*
Y222520D02*
X43136D01*
Y237480D01*
X21864D02*
X43136D01*
X35138Y253268D02*
X39862D01*
Y261732D01*
X35138D02*
X39862D01*
X35138Y253268D02*
Y261732D01*
X25925Y254350D02*
X29075D01*
Y260650D01*
X25925D02*
X29075D01*
X25925Y254350D02*
Y260650D01*
X155925Y189150D02*
X159075D01*
X155925Y182850D02*
Y189150D01*
Y182850D02*
X159075D01*
Y189150D01*
X28350Y243925D02*
Y247075D01*
Y243925D02*
X34650D01*
Y247075D01*
X28350D02*
X34650D01*
X119153Y200512D02*
X125847D01*
X119153Y189488D02*
Y200512D01*
Y189488D02*
X125847D01*
Y200512D01*
D61*
X44980Y217165D02*
Y262835D01*
X80020D01*
Y217165D02*
Y262835D01*
X44980Y217165D02*
X80020D01*
X62500Y238032D02*
Y241968D01*
X60532Y240000D02*
X64468D01*
X118032Y292500D02*
X121968D01*
X120000Y290531D02*
Y294468D01*
X68622Y277559D02*
X171378D01*
X68622D02*
Y321909D01*
X171378D01*
Y277559D02*
Y321909D01*
M02*
