G04*
G04 #@! TF.GenerationSoftware,Altium Limited,Altium Designer,24.0.1 (36)*
G04*
G04 Layer_Color=32768*
%FSLAX25Y25*%
%MOIN*%
G70*
G04*
G04 #@! TF.SameCoordinates,852D5C1C-0582-447D-AFC5-A22B4F0E1159*
G04*
G04*
G04 #@! TF.FilePolarity,Positive*
G04*
G01*
G75*
%ADD10C,0.00600*%
%ADD60C,0.00394*%
%ADD61C,0.00197*%
G36*
X144110Y198950D02*
X141450D01*
Y201610D01*
X140250D01*
Y218390D01*
X141450D01*
Y221050D01*
X144110D01*
Y222250D01*
X160890D01*
Y221050D01*
X163550D01*
Y218390D01*
X164750D01*
Y201610D01*
X163550D01*
Y198950D01*
X160890D01*
Y197750D01*
X144110D01*
Y198950D01*
D02*
G37*
G36*
X202250Y192644D02*
Y238144D01*
X222750D01*
Y192644D01*
X202250D01*
D02*
G37*
D10*
X141450Y198950D02*
X144110D01*
Y197750D02*
Y198950D01*
Y197750D02*
X160890D01*
Y198950D01*
X163550D01*
Y201610D01*
X164750D01*
Y218390D01*
X163550D02*
X164750D01*
X163550D02*
Y221050D01*
X160890D02*
X163550D01*
X160890D02*
Y222250D01*
X144110D02*
X160890D01*
X144110Y221050D02*
Y222250D01*
X141450Y221050D02*
X144110D01*
X141450Y218390D02*
Y221050D01*
X140250Y218390D02*
X141450D01*
X140250Y201610D02*
Y218390D01*
Y201610D02*
X141450D01*
Y198950D02*
Y201610D01*
X202250Y238144D02*
X222750D01*
Y192644D02*
Y238144D01*
X202250Y192644D02*
X222750D01*
X202250D02*
Y238144D01*
D60*
X117500Y168032D02*
Y171968D01*
X115532Y170000D02*
X119468D01*
X171500Y220031D02*
Y223969D01*
X169532Y222000D02*
X173468D01*
X166032Y231500D02*
X169968D01*
X168000Y229532D02*
Y233469D01*
X173228Y210000D02*
X176772D01*
X175000Y208228D02*
Y211772D01*
X180532Y185000D02*
X184468D01*
X182500Y183031D02*
Y186969D01*
X152500Y238228D02*
Y241772D01*
X150728Y240000D02*
X154272D01*
X192500Y240728D02*
Y244272D01*
X190728Y242500D02*
X194272D01*
X95531Y235000D02*
X99468D01*
X97500Y233032D02*
Y236968D01*
X180532Y240000D02*
X184468D01*
X182500Y238032D02*
Y241968D01*
X98228Y220000D02*
X101772D01*
X100000Y218228D02*
Y221772D01*
X112500Y233032D02*
Y236968D01*
X110531Y235000D02*
X114469D01*
X172500Y238228D02*
Y241772D01*
X170728Y240000D02*
X174272D01*
X132500Y238228D02*
Y241772D01*
X130728Y240000D02*
X134272D01*
X122500Y238032D02*
Y241968D01*
X120531Y240000D02*
X124469D01*
X142500Y238228D02*
Y241772D01*
X140728Y240000D02*
X144272D01*
X162500Y238228D02*
Y241772D01*
X160728Y240000D02*
X164272D01*
D61*
X112579Y161732D02*
X122421D01*
X112579Y178268D02*
X122421D01*
X112579Y161732D02*
Y178268D01*
X122421Y161732D02*
Y178268D01*
X164807Y226134D02*
X178193D01*
X164807Y217866D02*
X178193D01*
X164807D02*
Y226134D01*
X178193Y217866D02*
Y226134D01*
X161307Y227366D02*
Y235634D01*
X174693Y227366D02*
Y235634D01*
X161307D02*
X174693D01*
X161307Y227366D02*
X174693D01*
X168504Y206063D02*
Y213937D01*
X181496Y206063D02*
Y213937D01*
X168504D02*
X181496D01*
X168504Y206063D02*
X181496D01*
X187421Y176732D02*
Y193268D01*
X177579Y176732D02*
Y193268D01*
X187421D01*
X177579Y176732D02*
X187421D01*
X148563Y233504D02*
X156437D01*
X148563Y246496D02*
X156437D01*
X148563Y233504D02*
Y246496D01*
X156437Y233504D02*
Y246496D01*
X188563Y236004D02*
X196437D01*
X188563Y248996D02*
X196437D01*
X188563Y236004D02*
Y248996D01*
X196437Y236004D02*
Y248996D01*
X101437Y227323D02*
Y242677D01*
X93563Y227323D02*
Y242677D01*
X101437D01*
X93563Y227323D02*
X101437D01*
X178563Y232323D02*
Y247677D01*
X186437Y232323D02*
Y247677D01*
X178563Y232323D02*
X186437D01*
X178563Y247677D02*
X186437D01*
X93504Y216063D02*
Y223937D01*
X106496Y216063D02*
Y223937D01*
X93504D02*
X106496D01*
X93504Y216063D02*
X106496D01*
X106988Y224567D02*
X118012D01*
X106988Y245433D02*
X118012D01*
X106988Y224567D02*
Y245433D01*
X118012Y224567D02*
Y245433D01*
X168563Y233504D02*
X176437D01*
X168563Y246496D02*
X176437D01*
X168563Y233504D02*
Y246496D01*
X176437Y233504D02*
Y246496D01*
X128563Y233504D02*
X136437D01*
X128563Y246496D02*
X136437D01*
X128563Y233504D02*
Y246496D01*
X136437Y233504D02*
Y246496D01*
X118366Y233307D02*
X126634D01*
X118366Y246693D02*
X126634D01*
X118366Y233307D02*
Y246693D01*
X126634Y233307D02*
Y246693D01*
X138563Y233504D02*
X146437D01*
X138563Y246496D02*
X146437D01*
X138563Y233504D02*
Y246496D01*
X146437Y233504D02*
Y246496D01*
X158563Y233504D02*
X166437D01*
X158563Y246496D02*
X166437D01*
X158563Y233504D02*
Y246496D01*
X166437Y233504D02*
Y246496D01*
M02*
