G04*
G04 #@! TF.GenerationSoftware,Altium Limited,Altium Designer,24.0.1 (36)*
G04*
G04 Layer_Color=8388736*
%FSLAX25Y25*%
%MOIN*%
G70*
G04*
G04 #@! TF.SameCoordinates,852D5C1C-0582-447D-AFC5-A22B4F0E1159*
G04*
G04*
G04 #@! TF.FilePolarity,Positive*
G04*
G01*
G75*
%ADD12C,0.00787*%
%ADD60C,0.00394*%
D12*
X173197Y149303D02*
Y170697D01*
X151803Y149303D02*
X173197D01*
X151803D02*
Y170697D01*
X173197D01*
X75630Y119055D02*
X79370D01*
Y125945D01*
X75630D02*
X79370D01*
X75630Y119055D02*
Y125945D01*
X198445Y228130D02*
Y231870D01*
X191555D02*
X198445D01*
X191555Y228130D02*
Y231870D01*
Y228130D02*
X198445D01*
X140630Y120945D02*
X144370D01*
X140630Y114055D02*
Y120945D01*
Y114055D02*
X144370D01*
Y120945D01*
X155630Y123248D02*
X159370D01*
X155630Y116752D02*
Y123248D01*
Y116752D02*
X159370D01*
Y123248D01*
X60630Y128248D02*
X64370D01*
X60630Y121752D02*
Y128248D01*
Y121752D02*
X64370D01*
Y128248D01*
X29606Y210492D02*
X40394D01*
X29606Y159508D02*
Y210492D01*
Y159508D02*
X40394D01*
Y210492D01*
X70630Y154055D02*
X74370D01*
Y160945D01*
X70630D02*
X74370D01*
X70630Y154055D02*
Y160945D01*
X61417Y155433D02*
X63583D01*
Y159567D01*
X61417D02*
X63583D01*
X61417Y155433D02*
Y159567D01*
X60630Y145945D02*
X64370D01*
X60630Y139055D02*
Y145945D01*
Y139055D02*
X64370D01*
Y145945D01*
X71417Y144567D02*
X73583D01*
X71417Y140433D02*
Y144567D01*
Y140433D02*
X73583D01*
Y144567D01*
X98799Y151654D02*
Y158346D01*
X86201D02*
X98799D01*
X86201Y151654D02*
Y158346D01*
Y151654D02*
X98799D01*
X118150Y153405D02*
Y156595D01*
X111850D02*
X118150D01*
X111850Y153405D02*
Y156595D01*
Y153405D02*
X118150D01*
X81803Y190697D02*
X103197D01*
X81803Y169303D02*
Y190697D01*
Y169303D02*
X103197D01*
Y190697D01*
X143445Y128130D02*
Y131870D01*
X136555D02*
X143445D01*
X136555Y128130D02*
Y131870D01*
Y128130D02*
X143445D01*
X144567Y138917D02*
Y141083D01*
X140433D02*
X144567D01*
X140433Y138917D02*
Y141083D01*
Y138917D02*
X144567D01*
X152933Y128917D02*
Y131083D01*
Y128917D02*
X157067D01*
Y131083D01*
X152933D02*
X157067D01*
X151555Y138130D02*
Y141870D01*
Y138130D02*
X158445D01*
Y141870D01*
X151555D02*
X158445D01*
X191299Y136653D02*
Y143347D01*
X178701D02*
X191299D01*
X178701Y136653D02*
Y143347D01*
Y136653D02*
X191299D01*
X185906Y160650D02*
X189094D01*
X185906Y154350D02*
Y160650D01*
Y154350D02*
X189094D01*
Y160650D01*
X193445Y198130D02*
Y201870D01*
X186555D02*
X193445D01*
X186555Y198130D02*
Y201870D01*
Y198130D02*
X193445D01*
X144331Y182146D02*
Y187854D01*
X135669D02*
X144331D01*
X135669Y182146D02*
Y187854D01*
Y182146D02*
X144331D01*
X23642Y223701D02*
Y236299D01*
Y223701D02*
X41358D01*
Y236299D01*
X23642D02*
X41358D01*
X35531Y253957D02*
X39469D01*
Y261043D01*
X35531D02*
X39469D01*
X35531Y253957D02*
Y261043D01*
X26417Y255433D02*
X28583D01*
Y259567D01*
X26417D02*
X28583D01*
X26417Y255433D02*
Y259567D01*
X156417Y188067D02*
X158583D01*
X156417Y183933D02*
Y188067D01*
Y183933D02*
X158583D01*
Y188067D01*
X29433Y244417D02*
Y246583D01*
Y244417D02*
X33567D01*
Y246583D01*
X29433D02*
X33567D01*
X119646Y199331D02*
X125354D01*
X119646Y190669D02*
Y199331D01*
Y190669D02*
X125354D01*
Y199331D01*
D60*
X76260Y280335D02*
Y287500D01*
X73740Y280335D02*
Y287500D01*
Y280335D02*
X76260D01*
X86260D02*
Y287500D01*
X83740Y280335D02*
Y287500D01*
Y280335D02*
X86260D01*
X96260D02*
Y287500D01*
X93740Y280335D02*
Y287500D01*
Y280335D02*
X96260D01*
X106260D02*
Y287500D01*
X103740Y280335D02*
Y287500D01*
Y280335D02*
X106260D01*
X116260D02*
Y287500D01*
X113740Y280335D02*
Y287500D01*
Y280335D02*
X116260D01*
X126260D02*
Y287500D01*
X123740Y280335D02*
Y287500D01*
Y280335D02*
X126260D01*
X136260D02*
Y287500D01*
X133740Y280335D02*
Y287500D01*
Y280335D02*
X136260D01*
X146260D02*
Y287500D01*
X143740Y280335D02*
Y287500D01*
Y280335D02*
X146260D01*
X156260D02*
Y287500D01*
X153740Y280335D02*
Y287500D01*
Y280335D02*
X156260D01*
X163740D02*
Y287500D01*
X166260Y280335D02*
Y287500D01*
X163740Y280335D02*
X166260D01*
X156260Y297500D02*
Y320335D01*
X153740Y297500D02*
Y320335D01*
X155000Y321122D02*
X156260Y320335D01*
X153740D02*
X155000Y321122D01*
X136260Y297500D02*
Y320335D01*
X133740Y297500D02*
Y320335D01*
X135000Y321122D02*
X136260Y320335D01*
X133740D02*
X135000Y321122D01*
X123740Y320335D02*
X125000Y321122D01*
X126260Y320335D01*
X123740Y297500D02*
Y320335D01*
X126260Y297500D02*
Y320335D01*
X116260Y297500D02*
Y320335D01*
X113740Y297500D02*
Y320335D01*
X115000Y321122D02*
X116260Y320335D01*
X113740D02*
X115000Y321122D01*
X96260Y297500D02*
Y320335D01*
X93740Y297500D02*
Y320335D01*
X95000Y321122D02*
X96260Y320335D01*
X93740D02*
X95000Y321122D01*
X70000Y287500D02*
X170000D01*
X70000D02*
Y297500D01*
X170000D01*
Y287500D02*
Y297500D01*
X83740Y320335D02*
X85000Y321122D01*
X86260Y320335D01*
X83740Y297500D02*
Y320335D01*
X86260Y297500D02*
Y320335D01*
X76260Y297500D02*
Y320335D01*
X73740Y297500D02*
Y320335D01*
X75000Y321122D02*
X76260Y320335D01*
X73740D02*
X75000Y321122D01*
X103740Y320335D02*
X105000Y321122D01*
X106260Y320335D01*
X103740Y297500D02*
Y320335D01*
X106260Y297500D02*
Y320335D01*
X143740D02*
X145000Y321122D01*
X146260Y320335D01*
X143740Y297500D02*
Y320335D01*
X146260Y297500D02*
Y320335D01*
X163740D02*
X165000Y321122D01*
X166260Y320335D01*
X163740Y297500D02*
Y320335D01*
X166260Y297500D02*
Y320335D01*
M02*
