M48
;Layer_Color=9474304
;FILE_FORMAT=2:4
INCH,TZ
;TYPE=PLATED
T01F00S00C0.0098
T02F00S00C0.0200
T03F00S00C0.0280
T04F00S00C0.0402
T05F00S00C0.0433
%
T01
X4450Y19450
X4550Y20500
X8750Y20200
X9450Y20450
X9350Y19800
X9800Y21500
X11350Y20600
X12600Y21000
X13250Y20141
X13958Y19692
X15068Y18961
X14750Y18600
X15200Y18050
X13800Y17850
X14400Y16750
X15750Y19111
X16200Y19350
X17400Y19100
X17450Y19800
X17150Y19900
X17450Y20500
X16719Y21110
X17050Y21600
X16522Y22022
X16400Y22350
X17150Y22700
X15849Y22951
X15250Y23200
X16700Y24050
X17850Y21800
X17039Y18100
X12200Y18750
X11600Y22250
X12250Y23200
T02
X19150Y8250
X19250Y10318
X6300Y11550
T03
X21250Y20579
Y22500
T04
X3500Y16500
Y17500
Y18500
Y19500
Y20500
T05
X7500Y28159
X8500
X9500
X10500
X11500
X12500
X13500
X14500
X15500
X16500
M30
