M48
;Layer_Color=9474304
;FILE_FORMAT=2:4
INCH,TZ
;TYPE=PLATED
T01F00S00C0.0160
T02F00S00C0.0240
T03F00S00C0.0335
T04F00S00C0.0374
T05F00S00C0.0400
T06F00S00C0.0551
T07F00S00C0.0866
;TYPE=NON_PLATED
T08F00S00C0.1260
%
T01
X1010Y5505
X1760
X2510
X3260
X3510Y6255
Y7755
X3260Y8755
X2510
X1760
X1010
X7060Y7405
X6510Y6005
X9410Y6455
X10160Y7155
X9710Y8655
X11060Y11055
X8910Y12305
X7420Y13265
X6010Y11955
X9360Y15055
X12060Y14755
X12410Y14305
X15450Y15095
X14710Y6705
X12710Y6455
X12460Y5755
X12410Y3705
X13660Y4005
X11060Y4805
X11510Y1955
X9460Y2905
X18457Y3258
X19310Y3405
X19400Y4100
Y4600
X19960Y3991
X23260Y7355
X23610Y7705
X23860Y8155
X23960Y8855
X23260Y8455
X22460Y10505
X21960Y11705
Y12555
X22250Y13455
X21760Y15305
X19390Y15505
X17917Y15326
X17810Y10005
X17560Y9055
X16110Y9905
X15710Y9505
X23960Y10955
X23760Y11455
X23960Y12355
X24870Y13445
X27490Y9275
X28360Y7555
X28610Y7055
X29160Y6955
X29660Y6655
X29860Y4005
X29110Y4305
X30960Y3455
X31010Y15355
X29916Y15211
X32060Y15405
X32860
X31910Y3455
X31560Y18405
X23660
X19560Y17155
X19210Y16805
X18860Y16455
X18510Y16105
X18160Y15755
X17660Y15805
X16660Y15915
X15650Y15635
X16320Y17065
Y17535
X17700
Y17065
X19860Y16655
X18610Y18905
X12010Y18405
X11110Y18055
X8860Y18255
X9710Y15805
X12160Y16055
X6385Y15680
X3810Y17005
X490Y16985
T02
X5280Y5305
X5150Y8885
X5020Y10925
X3510Y11505
X5490Y12785
X7200Y10255
X9510Y10455
X10060Y9555
X8810Y8755
X12700Y8285
X15040Y8375
X14860Y9705
X15030Y11491
X12400Y11475
X8670Y4205
X10320Y1415
X19060Y2236
X18010Y4196
X16060Y8375
X17690Y10715
X17700Y11365
X17560Y12155
X17810Y13155
X16430Y13925
X21710Y11005
X22840Y8055
X24753Y7899
X27055
X27380Y10695
X28540Y10865
X30510Y10845
X30310Y7108
X27354Y12642
X28550Y14065
X26130Y15555
X34510Y15205
X39204Y14525
X35070Y8705
X39174Y4545
X30100Y18645
X25950Y20145
X22960Y16305
X17204Y20005
X9970Y16455
X6710Y18205
X2460Y20095
T03
X11010Y1005
X12010
X13010
X14010
X15010
X8260Y10255
X6260
X16010Y1005
X17010
X18010
X20010
X21010
X22010
X23010
X24010
X25010
X26010
X27010
T04
X2577Y14513
X3364
Y15497
X2577
X37010Y15005
Y14005
Y13005
Y12005
Y11005
Y10005
Y9005
Y8005
Y7005
Y6005
Y5005
Y4005
Y3005
X38010
Y4005
Y5005
Y6005
Y7005
Y8005
Y9005
Y10005
Y11005
Y12005
Y13005
Y14005
Y15005
Y16005
X37010
Y17005
X38010
Y18005
X37010
Y19005
X38010
Y20005
X37010
X8210Y16705
X7210
Y15705
X8210
T05
X25060Y10005
X26060
Y11005
X25060
Y12005
X26060
X8210Y17705
X7210
X6210
Y18705
X7210
X8210
T06
X3130Y1305
X3430
X3730
X4610Y2975
Y3275
Y3575
X2250
Y3275
Y2975
T07
X1510Y12643
Y17367
T08
X5510Y1005
X26010Y3005
Y14005
X38010Y1005
X35510Y20005
X6010
M30
