G04*
G04 #@! TF.GenerationSoftware,Altium Limited,Altium Designer,24.1.2 (44)*
G04*
G04 Layer_Color=8388736*
%FSLAX25Y25*%
%MOIN*%
G70*
G04*
G04 #@! TF.SameCoordinates,648C5357-8596-4598-863F-5FE4D4354F98*
G04*
G04*
G04 #@! TF.FilePolarity,Negative*
G04*
G01*
G75*
G04:AMPARAMS|DCode=38|XSize=128.11mil|YSize=128.11mil|CornerRadius=9.61mil|HoleSize=0mil|Usage=FLASHONLY|Rotation=270.000|XOffset=0mil|YOffset=0mil|HoleType=Round|Shape=RoundedRectangle|*
%AMROUNDEDRECTD38*
21,1,0.12811,0.10889,0,0,270.0*
21,1,0.10889,0.12811,0,0,270.0*
1,1,0.01922,-0.05445,-0.05445*
1,1,0.01922,-0.05445,0.05445*
1,1,0.01922,0.05445,0.05445*
1,1,0.01922,0.05445,-0.05445*
%
%ADD38ROUNDEDRECTD38*%
%ADD49C,0.08600*%
G04:AMPARAMS|DCode=50|XSize=63.06mil|YSize=15.81mil|CornerRadius=3.18mil|HoleSize=0mil|Usage=FLASHONLY|Rotation=0.000|XOffset=0mil|YOffset=0mil|HoleType=Round|Shape=RoundedRectangle|*
%AMROUNDEDRECTD50*
21,1,0.06306,0.00945,0,0,0.0*
21,1,0.05670,0.01581,0,0,0.0*
1,1,0.00636,0.02835,-0.00472*
1,1,0.00636,-0.02835,-0.00472*
1,1,0.00636,-0.02835,0.00472*
1,1,0.00636,0.02835,0.00472*
%
%ADD50ROUNDEDRECTD50*%
G04:AMPARAMS|DCode=51|XSize=15.81mil|YSize=63.06mil|CornerRadius=3.18mil|HoleSize=0mil|Usage=FLASHONLY|Rotation=0.000|XOffset=0mil|YOffset=0mil|HoleType=Round|Shape=RoundedRectangle|*
%AMROUNDEDRECTD51*
21,1,0.01581,0.05670,0,0,0.0*
21,1,0.00945,0.06306,0,0,0.0*
1,1,0.00636,0.00472,-0.02835*
1,1,0.00636,-0.00472,-0.02835*
1,1,0.00636,-0.00472,0.02835*
1,1,0.00636,0.00472,0.02835*
%
%ADD51ROUNDEDRECTD51*%
G04:AMPARAMS|DCode=52|XSize=47.31mil|YSize=39.37mil|CornerRadius=16.15mil|HoleSize=0mil|Usage=FLASHONLY|Rotation=0.000|XOffset=0mil|YOffset=0mil|HoleType=Round|Shape=RoundedRectangle|*
%AMROUNDEDRECTD52*
21,1,0.04731,0.00707,0,0,0.0*
21,1,0.01501,0.03937,0,0,0.0*
1,1,0.03230,0.00751,-0.00354*
1,1,0.03230,-0.00751,-0.00354*
1,1,0.03230,-0.00751,0.00354*
1,1,0.03230,0.00751,0.00354*
%
%ADD52ROUNDEDRECTD52*%
G04:AMPARAMS|DCode=53|XSize=51.24mil|YSize=43.37mil|CornerRadius=3.97mil|HoleSize=0mil|Usage=FLASHONLY|Rotation=270.000|XOffset=0mil|YOffset=0mil|HoleType=Round|Shape=RoundedRectangle|*
%AMROUNDEDRECTD53*
21,1,0.05124,0.03543,0,0,270.0*
21,1,0.04330,0.04337,0,0,270.0*
1,1,0.00794,-0.01772,-0.02165*
1,1,0.00794,-0.01772,0.02165*
1,1,0.00794,0.01772,0.02165*
1,1,0.00794,0.01772,-0.02165*
%
%ADD53ROUNDEDRECTD53*%
G04:AMPARAMS|DCode=54|XSize=59.12mil|YSize=74.87mil|CornerRadius=3.93mil|HoleSize=0mil|Usage=FLASHONLY|Rotation=90.000|XOffset=0mil|YOffset=0mil|HoleType=Round|Shape=RoundedRectangle|*
%AMROUNDEDRECTD54*
21,1,0.05912,0.06701,0,0,90.0*
21,1,0.05126,0.07487,0,0,90.0*
1,1,0.00786,0.03351,0.02563*
1,1,0.00786,0.03351,-0.02563*
1,1,0.00786,-0.03351,-0.02563*
1,1,0.00786,-0.03351,0.02563*
%
%ADD54ROUNDEDRECTD54*%
G04:AMPARAMS|DCode=55|XSize=15.81mil|YSize=51.24mil|CornerRadius=3.18mil|HoleSize=0mil|Usage=FLASHONLY|Rotation=90.000|XOffset=0mil|YOffset=0mil|HoleType=Round|Shape=RoundedRectangle|*
%AMROUNDEDRECTD55*
21,1,0.01581,0.04488,0,0,90.0*
21,1,0.00945,0.05124,0,0,90.0*
1,1,0.00636,0.02244,0.00472*
1,1,0.00636,0.02244,-0.00472*
1,1,0.00636,-0.02244,-0.00472*
1,1,0.00636,-0.02244,0.00472*
%
%ADD55ROUNDEDRECTD55*%
G04:AMPARAMS|DCode=56|XSize=47.31mil|YSize=39.37mil|CornerRadius=16.15mil|HoleSize=0mil|Usage=FLASHONLY|Rotation=90.000|XOffset=0mil|YOffset=0mil|HoleType=Round|Shape=RoundedRectangle|*
%AMROUNDEDRECTD56*
21,1,0.04731,0.00707,0,0,90.0*
21,1,0.01501,0.03937,0,0,90.0*
1,1,0.03230,0.00354,0.00751*
1,1,0.03230,0.00354,-0.00751*
1,1,0.03230,-0.00354,-0.00751*
1,1,0.03230,-0.00354,0.00751*
%
%ADD56ROUNDEDRECTD56*%
G04:AMPARAMS|DCode=57|XSize=25.65mil|YSize=51.24mil|CornerRadius=3.95mil|HoleSize=0mil|Usage=FLASHONLY|Rotation=180.000|XOffset=0mil|YOffset=0mil|HoleType=Round|Shape=RoundedRectangle|*
%AMROUNDEDRECTD57*
21,1,0.02565,0.04334,0,0,180.0*
21,1,0.01775,0.05124,0,0,180.0*
1,1,0.00790,-0.00888,0.02167*
1,1,0.00790,0.00888,0.02167*
1,1,0.00790,0.00888,-0.02167*
1,1,0.00790,-0.00888,-0.02167*
%
%ADD57ROUNDEDRECTD57*%
G04:AMPARAMS|DCode=58|XSize=39.37mil|YSize=47.31mil|CornerRadius=16.15mil|HoleSize=0mil|Usage=FLASHONLY|Rotation=0.000|XOffset=0mil|YOffset=0mil|HoleType=Round|Shape=RoundedRectangle|*
%AMROUNDEDRECTD58*
21,1,0.03937,0.01501,0,0,0.0*
21,1,0.00707,0.04731,0,0,0.0*
1,1,0.03230,0.00354,-0.00751*
1,1,0.03230,-0.00354,-0.00751*
1,1,0.03230,-0.00354,0.00751*
1,1,0.03230,0.00354,0.00751*
%
%ADD58ROUNDEDRECTD58*%
G04:AMPARAMS|DCode=59|XSize=66.99mil|YSize=59.12mil|CornerRadius=6.13mil|HoleSize=0mil|Usage=FLASHONLY|Rotation=0.000|XOffset=0mil|YOffset=0mil|HoleType=Round|Shape=RoundedRectangle|*
%AMROUNDEDRECTD59*
21,1,0.06699,0.04685,0,0,0.0*
21,1,0.05472,0.05912,0,0,0.0*
1,1,0.01227,0.02736,-0.02343*
1,1,0.01227,-0.02736,-0.02343*
1,1,0.01227,-0.02736,0.02343*
1,1,0.01227,0.02736,0.02343*
%
%ADD59ROUNDEDRECTD59*%
G04:AMPARAMS|DCode=60|XSize=23.69mil|YSize=29.59mil|CornerRadius=3.97mil|HoleSize=0mil|Usage=FLASHONLY|Rotation=90.000|XOffset=0mil|YOffset=0mil|HoleType=Round|Shape=RoundedRectangle|*
%AMROUNDEDRECTD60*
21,1,0.02369,0.02165,0,0,90.0*
21,1,0.01575,0.02959,0,0,90.0*
1,1,0.00794,0.01083,0.00788*
1,1,0.00794,0.01083,-0.00788*
1,1,0.00794,-0.01083,-0.00788*
1,1,0.00794,-0.01083,0.00788*
%
%ADD60ROUNDEDRECTD60*%
G04:AMPARAMS|DCode=61|XSize=44mil|YSize=44mil|CornerRadius=22mil|HoleSize=0mil|Usage=FLASHONLY|Rotation=0.000|XOffset=0mil|YOffset=0mil|HoleType=Round|Shape=RoundedRectangle|*
%AMROUNDEDRECTD61*
21,1,0.04400,0.00000,0,0,0.0*
21,1,0.00000,0.04400,0,0,0.0*
1,1,0.04400,0.00000,0.00000*
1,1,0.04400,0.00000,0.00000*
1,1,0.04400,0.00000,0.00000*
1,1,0.04400,0.00000,0.00000*
%
%ADD61ROUNDEDRECTD61*%
G04:AMPARAMS|DCode=62|XSize=39.37mil|YSize=47.31mil|CornerRadius=16.15mil|HoleSize=0mil|Usage=FLASHONLY|Rotation=90.000|XOffset=0mil|YOffset=0mil|HoleType=Round|Shape=RoundedRectangle|*
%AMROUNDEDRECTD62*
21,1,0.03937,0.01501,0,0,90.0*
21,1,0.00707,0.04731,0,0,90.0*
1,1,0.03230,0.00751,0.00354*
1,1,0.03230,0.00751,-0.00354*
1,1,0.03230,-0.00751,-0.00354*
1,1,0.03230,-0.00751,0.00354*
%
%ADD62ROUNDEDRECTD62*%
G04:AMPARAMS|DCode=63|XSize=82.74mil|YSize=31.56mil|CornerRadius=3.93mil|HoleSize=0mil|Usage=FLASHONLY|Rotation=0.000|XOffset=0mil|YOffset=0mil|HoleType=Round|Shape=RoundedRectangle|*
%AMROUNDEDRECTD63*
21,1,0.08274,0.02370,0,0,0.0*
21,1,0.07488,0.03156,0,0,0.0*
1,1,0.00786,0.03744,-0.01185*
1,1,0.00786,-0.03744,-0.01185*
1,1,0.00786,-0.03744,0.01185*
1,1,0.00786,0.03744,0.01185*
%
%ADD63ROUNDEDRECTD63*%
G04:AMPARAMS|DCode=64|XSize=43.37mil|YSize=43.37mil|CornerRadius=3.97mil|HoleSize=0mil|Usage=FLASHONLY|Rotation=0.000|XOffset=0mil|YOffset=0mil|HoleType=Round|Shape=RoundedRectangle|*
%AMROUNDEDRECTD64*
21,1,0.04337,0.03543,0,0,0.0*
21,1,0.03543,0.04337,0,0,0.0*
1,1,0.00794,0.01772,-0.01772*
1,1,0.00794,-0.01772,-0.01772*
1,1,0.00794,-0.01772,0.01772*
1,1,0.00794,0.01772,0.01772*
%
%ADD64ROUNDEDRECTD64*%
G04:AMPARAMS|DCode=65|XSize=51.24mil|YSize=43.37mil|CornerRadius=3.97mil|HoleSize=0mil|Usage=FLASHONLY|Rotation=180.000|XOffset=0mil|YOffset=0mil|HoleType=Round|Shape=RoundedRectangle|*
%AMROUNDEDRECTD65*
21,1,0.05124,0.03543,0,0,180.0*
21,1,0.04330,0.04337,0,0,180.0*
1,1,0.00794,-0.02165,0.01772*
1,1,0.00794,0.02165,0.01772*
1,1,0.00794,0.02165,-0.01772*
1,1,0.00794,-0.02165,-0.01772*
%
%ADD65ROUNDEDRECTD65*%
G04:AMPARAMS|DCode=66|XSize=15.02mil|YSize=31.56mil|CornerRadius=6.41mil|HoleSize=0mil|Usage=FLASHONLY|Rotation=270.000|XOffset=0mil|YOffset=0mil|HoleType=Round|Shape=RoundedRectangle|*
%AMROUNDEDRECTD66*
21,1,0.01502,0.01874,0,0,270.0*
21,1,0.00220,0.03156,0,0,270.0*
1,1,0.01282,-0.00937,-0.00110*
1,1,0.01282,-0.00937,0.00110*
1,1,0.01282,0.00937,0.00110*
1,1,0.01282,0.00937,-0.00110*
%
%ADD66ROUNDEDRECTD66*%
G04:AMPARAMS|DCode=67|XSize=15.02mil|YSize=31.56mil|CornerRadius=6.41mil|HoleSize=0mil|Usage=FLASHONLY|Rotation=180.000|XOffset=0mil|YOffset=0mil|HoleType=Round|Shape=RoundedRectangle|*
%AMROUNDEDRECTD67*
21,1,0.01502,0.01874,0,0,180.0*
21,1,0.00220,0.03156,0,0,180.0*
1,1,0.01282,-0.00110,0.00937*
1,1,0.01282,0.00110,0.00937*
1,1,0.01282,0.00110,-0.00937*
1,1,0.01282,-0.00110,-0.00937*
%
%ADD67ROUNDEDRECTD67*%
G04:AMPARAMS|DCode=68|XSize=50mil|YSize=67mil|CornerRadius=3.84mil|HoleSize=0mil|Usage=FLASHONLY|Rotation=0.000|XOffset=0mil|YOffset=0mil|HoleType=Round|Shape=RoundedRectangle|*
%AMROUNDEDRECTD68*
21,1,0.05000,0.05932,0,0,0.0*
21,1,0.04232,0.06700,0,0,0.0*
1,1,0.00768,0.02116,-0.02966*
1,1,0.00768,-0.02116,-0.02966*
1,1,0.00768,-0.02116,0.02966*
1,1,0.00768,0.02116,0.02966*
%
%ADD68ROUNDEDRECTD68*%
G04:AMPARAMS|DCode=69|XSize=35mil|YSize=39mil|CornerRadius=3.86mil|HoleSize=0mil|Usage=FLASHONLY|Rotation=270.000|XOffset=0mil|YOffset=0mil|HoleType=Round|Shape=RoundedRectangle|*
%AMROUNDEDRECTD69*
21,1,0.03500,0.03128,0,0,270.0*
21,1,0.02728,0.03900,0,0,270.0*
1,1,0.00772,-0.01564,-0.01364*
1,1,0.00772,-0.01564,0.01364*
1,1,0.00772,0.01564,0.01364*
1,1,0.00772,0.01564,-0.01364*
%
%ADD69ROUNDEDRECTD69*%
G04:AMPARAMS|DCode=70|XSize=51.24mil|YSize=51.24mil|CornerRadius=3.89mil|HoleSize=0mil|Usage=FLASHONLY|Rotation=90.000|XOffset=0mil|YOffset=0mil|HoleType=Round|Shape=RoundedRectangle|*
%AMROUNDEDRECTD70*
21,1,0.05124,0.04346,0,0,90.0*
21,1,0.04346,0.05124,0,0,90.0*
1,1,0.00778,0.02173,0.02173*
1,1,0.00778,0.02173,-0.02173*
1,1,0.00778,-0.02173,-0.02173*
1,1,0.00778,-0.02173,0.02173*
%
%ADD70ROUNDEDRECTD70*%
G04:AMPARAMS|DCode=71|XSize=78.8mil|YSize=137.86mil|CornerRadius=3.87mil|HoleSize=0mil|Usage=FLASHONLY|Rotation=90.000|XOffset=0mil|YOffset=0mil|HoleType=Round|Shape=RoundedRectangle|*
%AMROUNDEDRECTD71*
21,1,0.07880,0.13012,0,0,90.0*
21,1,0.07106,0.13786,0,0,90.0*
1,1,0.00774,0.06506,0.03553*
1,1,0.00774,0.06506,-0.03553*
1,1,0.00774,-0.06506,-0.03553*
1,1,0.00774,-0.06506,0.03553*
%
%ADD71ROUNDEDRECTD71*%
G04:AMPARAMS|DCode=72|XSize=145.73mil|YSize=90.61mil|CornerRadius=3.73mil|HoleSize=0mil|Usage=FLASHONLY|Rotation=90.000|XOffset=0mil|YOffset=0mil|HoleType=Round|Shape=RoundedRectangle|*
%AMROUNDEDRECTD72*
21,1,0.14573,0.08315,0,0,90.0*
21,1,0.13827,0.09061,0,0,90.0*
1,1,0.00746,0.04157,0.06913*
1,1,0.00746,0.04157,-0.06913*
1,1,0.00746,-0.04157,-0.06913*
1,1,0.00746,-0.04157,0.06913*
%
%ADD72ROUNDEDRECTD72*%
G04:AMPARAMS|DCode=73|XSize=52mil|YSize=92mil|CornerRadius=3.92mil|HoleSize=0mil|Usage=FLASHONLY|Rotation=90.000|XOffset=0mil|YOffset=0mil|HoleType=Round|Shape=RoundedRectangle|*
%AMROUNDEDRECTD73*
21,1,0.05200,0.08416,0,0,90.0*
21,1,0.04416,0.09200,0,0,90.0*
1,1,0.00784,0.04208,0.02208*
1,1,0.00784,0.04208,-0.02208*
1,1,0.00784,-0.04208,-0.02208*
1,1,0.00784,-0.04208,0.02208*
%
%ADD73ROUNDEDRECTD73*%
G04:AMPARAMS|DCode=74|XSize=98.49mil|YSize=98.49mil|CornerRadius=3.89mil|HoleSize=0mil|Usage=FLASHONLY|Rotation=180.000|XOffset=0mil|YOffset=0mil|HoleType=Round|Shape=RoundedRectangle|*
%AMROUNDEDRECTD74*
21,1,0.09849,0.09071,0,0,180.0*
21,1,0.09071,0.09849,0,0,180.0*
1,1,0.00778,-0.04536,0.04536*
1,1,0.00778,0.04536,0.04536*
1,1,0.00778,0.04536,-0.04536*
1,1,0.00778,-0.04536,-0.04536*
%
%ADD74ROUNDEDRECTD74*%
G04:AMPARAMS|DCode=75|XSize=122.11mil|YSize=59.12mil|CornerRadius=3.93mil|HoleSize=0mil|Usage=FLASHONLY|Rotation=90.000|XOffset=0mil|YOffset=0mil|HoleType=Round|Shape=RoundedRectangle|*
%AMROUNDEDRECTD75*
21,1,0.12211,0.05126,0,0,90.0*
21,1,0.11425,0.05912,0,0,90.0*
1,1,0.00786,0.02563,0.05713*
1,1,0.00786,0.02563,-0.05713*
1,1,0.00786,-0.02563,-0.05713*
1,1,0.00786,-0.02563,0.05713*
%
%ADD75ROUNDEDRECTD75*%
G04:AMPARAMS|DCode=76|XSize=194mil|YSize=194mil|CornerRadius=0mil|HoleSize=0mil|Usage=FLASHONLY|Rotation=90.000|XOffset=0mil|YOffset=0mil|HoleType=Round|Shape=Octagon|*
%AMOCTAGOND76*
4,1,8,0.04850,0.09700,-0.04850,0.09700,-0.09700,0.04850,-0.09700,-0.04850,-0.04850,-0.09700,0.04850,-0.09700,0.09700,-0.04850,0.09700,0.04850,0.04850,0.09700,0.0*
%
%ADD76OCTAGOND76*%

%ADD77C,0.08668*%
%ADD78O,0.06000X0.09360*%
%ADD79C,0.12998*%
G04:AMPARAMS|DCode=80|XSize=70mil|YSize=70mil|CornerRadius=0mil|HoleSize=0mil|Usage=FLASHONLY|Rotation=270.000|XOffset=0mil|YOffset=0mil|HoleType=Round|Shape=Octagon|*
%AMOCTAGOND80*
4,1,8,-0.01750,-0.03500,0.01750,-0.03500,0.03500,-0.01750,0.03500,0.01750,0.01750,0.03500,-0.01750,0.03500,-0.03500,0.01750,-0.03500,-0.01750,-0.01750,-0.03500,0.0*
%
%ADD80OCTAGOND80*%

G04:AMPARAMS|DCode=81|XSize=65.02mil|YSize=65.02mil|CornerRadius=0mil|HoleSize=0mil|Usage=FLASHONLY|Rotation=180.000|XOffset=0mil|YOffset=0mil|HoleType=Round|Shape=Octagon|*
%AMOCTAGOND81*
4,1,8,-0.03251,0.01626,-0.03251,-0.01626,-0.01626,-0.03251,0.01626,-0.03251,0.03251,-0.01626,0.03251,0.01626,0.01626,0.03251,-0.01626,0.03251,-0.03251,0.01626,0.0*
%
%ADD81OCTAGOND81*%

%ADD82C,0.13391*%
G04:AMPARAMS|DCode=83|XSize=65.02mil|YSize=65.02mil|CornerRadius=0mil|HoleSize=0mil|Usage=FLASHONLY|Rotation=270.000|XOffset=0mil|YOffset=0mil|HoleType=Round|Shape=Octagon|*
%AMOCTAGOND83*
4,1,8,-0.01626,-0.03251,0.01626,-0.03251,0.03251,-0.01626,0.03251,0.01626,0.01626,0.03251,-0.01626,0.03251,-0.03251,0.01626,-0.03251,-0.01626,-0.01626,-0.03251,0.0*
%
%ADD83OCTAGOND83*%

%ADD84C,0.04000*%
%ADD85C,0.04800*%
G36*
X109801Y58450D02*
Y65650D01*
X110401D01*
Y58450D01*
X109801D01*
D02*
G37*
G36*
X73351Y137050D02*
Y137567D01*
X73553Y138581D01*
X73949Y139537D01*
X74523Y140397D01*
X75254Y141128D01*
X76114Y141702D01*
X77070Y142098D01*
X78084Y142300D01*
X78601D01*
X79118D01*
X80132Y142098D01*
X81088Y141702D01*
X81948Y141128D01*
X82679Y140397D01*
X83254Y139537D01*
X83649Y138581D01*
X83851Y137567D01*
Y137050D01*
Y136533D01*
X83649Y135519D01*
X83254Y134563D01*
X82679Y133703D01*
X81948Y132972D01*
X81088Y132397D01*
X80132Y132002D01*
X79118Y131800D01*
X78601D01*
X78084D01*
X77070Y132002D01*
X76114Y132397D01*
X75254Y132972D01*
X74523Y133703D01*
X73949Y134563D01*
X73553Y135519D01*
X73351Y136533D01*
Y137050D01*
D01*
D02*
G37*
D38*
X78601D02*
D03*
D49*
X202070Y111650D02*
X201806Y112635D01*
X201085Y113355D01*
X200101Y113619D01*
X199117Y113355D01*
X198396Y112635D01*
X198132Y111650D01*
X198396Y110666D01*
X199117Y109945D01*
X200101Y109681D01*
X201085Y109945D01*
X201806Y110666D01*
X202070Y111650D01*
X9070Y150050D02*
X8806Y151034D01*
X8085Y151755D01*
X7101Y152019D01*
X6117Y151755D01*
X5396Y151034D01*
X5132Y150050D01*
X5396Y149065D01*
X6117Y148345D01*
X7101Y148081D01*
X8085Y148345D01*
X8806Y149065D01*
X9070Y150050D01*
X12570Y9550D02*
X12306Y10535D01*
X11586Y11255D01*
X10601Y11519D01*
X9617Y11255D01*
X8896Y10535D01*
X8632Y9550D01*
X8896Y8565D01*
X9617Y7845D01*
X10601Y7581D01*
X11586Y7845D01*
X12306Y8565D01*
X12570Y9550D01*
X280970Y150413D02*
X280706Y151398D01*
X279985Y152118D01*
X279001Y152382D01*
X278016Y152118D01*
X277296Y151398D01*
X277032Y150413D01*
X277296Y149428D01*
X278016Y148708D01*
X279001Y148444D01*
X279985Y148708D01*
X280706Y149428D01*
X280970Y150413D01*
D50*
X168605Y135272D02*
D03*
Y133304D02*
D03*
Y131335D02*
D03*
Y129367D02*
D03*
Y127398D02*
D03*
Y125430D02*
D03*
Y123461D02*
D03*
Y121493D02*
D03*
Y119524D02*
D03*
Y117556D02*
D03*
Y115587D02*
D03*
Y113619D02*
D03*
Y111650D02*
D03*
Y109681D02*
D03*
Y107713D02*
D03*
Y105744D02*
D03*
Y103776D02*
D03*
Y101807D02*
D03*
Y99839D02*
D03*
Y97870D02*
D03*
Y95902D02*
D03*
Y93933D02*
D03*
Y91965D02*
D03*
Y89996D02*
D03*
Y88028D02*
D03*
X231597D02*
D03*
Y89996D02*
D03*
Y91965D02*
D03*
Y93933D02*
D03*
Y95902D02*
D03*
Y97870D02*
D03*
Y99839D02*
D03*
Y101807D02*
D03*
Y103776D02*
D03*
Y105744D02*
D03*
Y107713D02*
D03*
Y109681D02*
D03*
Y111650D02*
D03*
Y113619D02*
D03*
Y115587D02*
D03*
Y117556D02*
D03*
Y119524D02*
D03*
Y121493D02*
D03*
Y123461D02*
D03*
Y125430D02*
D03*
Y127398D02*
D03*
Y129367D02*
D03*
Y131335D02*
D03*
Y133304D02*
D03*
Y135272D02*
D03*
D51*
X176479Y80154D02*
D03*
X178447D02*
D03*
X180416D02*
D03*
X182384D02*
D03*
X184353D02*
D03*
X186321D02*
D03*
X188290D02*
D03*
X190258D02*
D03*
X192227D02*
D03*
X194195D02*
D03*
X196164D02*
D03*
X198132D02*
D03*
X200101D02*
D03*
X202070D02*
D03*
X204038D02*
D03*
X206007D02*
D03*
X207975D02*
D03*
X209944D02*
D03*
X211912D02*
D03*
X213881D02*
D03*
X215849D02*
D03*
X217818D02*
D03*
X219786D02*
D03*
X221755D02*
D03*
X223723D02*
D03*
Y143146D02*
D03*
X221755D02*
D03*
X219786D02*
D03*
X217818D02*
D03*
X215849D02*
D03*
X213881D02*
D03*
X211912D02*
D03*
X209944D02*
D03*
X207975D02*
D03*
X206007D02*
D03*
X204038D02*
D03*
X202070D02*
D03*
X200101D02*
D03*
X198132D02*
D03*
X196164D02*
D03*
X194195D02*
D03*
X192227D02*
D03*
X190258D02*
D03*
X188290D02*
D03*
X186321D02*
D03*
X184353D02*
D03*
X182384D02*
D03*
X180416D02*
D03*
X178447D02*
D03*
X176479D02*
D03*
D52*
X171893Y141708D02*
D03*
Y148708D02*
D03*
X132101Y54050D02*
D03*
Y61050D02*
D03*
X56601Y66050D02*
D03*
Y73050D02*
D03*
D53*
X164221Y144261D02*
D03*
Y152923D02*
D03*
D54*
X51601Y175357D02*
D03*
Y188743D02*
D03*
X140101Y50857D02*
D03*
Y64243D02*
D03*
D55*
X64286Y80207D02*
D03*
Y82767D02*
D03*
Y85326D02*
D03*
Y87885D02*
D03*
X80920D02*
D03*
Y85326D02*
D03*
Y82767D02*
D03*
Y80207D02*
D03*
D56*
X88601Y115550D02*
D03*
X81601D02*
D03*
X56601D02*
D03*
X63601D02*
D03*
X56901Y146550D02*
D03*
X63901D02*
D03*
X101101Y115550D02*
D03*
X94101D02*
D03*
X81601Y67550D02*
D03*
X88601D02*
D03*
X113601Y72050D02*
D03*
X106601D02*
D03*
X44101Y115550D02*
D03*
X51101D02*
D03*
X113601Y85050D02*
D03*
X106601D02*
D03*
X44101Y122050D02*
D03*
X51101D02*
D03*
X155601Y28050D02*
D03*
X148601D02*
D03*
X236001Y155050D02*
D03*
X229001D02*
D03*
X154258Y119810D02*
D03*
X161258D02*
D03*
X113601Y175050D02*
D03*
X106601D02*
D03*
D57*
X113841Y94032D02*
D03*
X106361D02*
D03*
Y104268D02*
D03*
X110101D02*
D03*
X113841D02*
D03*
D58*
X76101Y115550D02*
D03*
X69101D02*
D03*
D59*
X8066Y192054D02*
D03*
X41136Y183196D02*
D03*
X8066D02*
D03*
X41136Y200912D02*
D03*
X8066D02*
D03*
D60*
X44944Y141326D02*
D03*
Y144475D02*
D03*
Y147625D02*
D03*
Y150774D02*
D03*
X50258D02*
D03*
Y147625D02*
D03*
Y144475D02*
D03*
Y141326D02*
D03*
X112758Y159774D02*
D03*
Y156625D02*
D03*
Y153475D02*
D03*
Y150326D02*
D03*
X107444D02*
D03*
Y153475D02*
D03*
Y156625D02*
D03*
Y159774D02*
D03*
X320258Y149774D02*
D03*
Y146625D02*
D03*
Y143475D02*
D03*
Y140326D02*
D03*
X314944D02*
D03*
Y143475D02*
D03*
Y146625D02*
D03*
Y149774D02*
D03*
X69944Y60326D02*
D03*
Y63475D02*
D03*
Y66625D02*
D03*
Y69774D02*
D03*
X75258D02*
D03*
Y66625D02*
D03*
Y63475D02*
D03*
Y60326D02*
D03*
X107444Y117826D02*
D03*
Y120975D02*
D03*
Y124125D02*
D03*
Y127274D02*
D03*
X112758D02*
D03*
Y124125D02*
D03*
Y120975D02*
D03*
Y117826D02*
D03*
D61*
X200101Y111650D02*
D03*
X7101Y150050D02*
D03*
X10601Y9550D02*
D03*
X279001Y150413D02*
D03*
D62*
X159601Y61050D02*
D03*
Y54050D02*
D03*
D63*
X151101Y53613D02*
D03*
Y57550D02*
D03*
Y61487D02*
D03*
D64*
X51538Y156250D02*
D03*
X43664D02*
D03*
X51538Y135050D02*
D03*
X43664D02*
D03*
D65*
X42870Y163450D02*
D03*
X51532D02*
D03*
D66*
X68955Y130160D02*
D03*
Y132129D02*
D03*
Y134097D02*
D03*
Y136066D02*
D03*
Y138034D02*
D03*
Y140003D02*
D03*
Y141971D02*
D03*
Y143940D02*
D03*
X88247D02*
D03*
Y141971D02*
D03*
Y140003D02*
D03*
Y138034D02*
D03*
Y136066D02*
D03*
Y134097D02*
D03*
Y132129D02*
D03*
Y130160D02*
D03*
D67*
X71711Y146696D02*
D03*
X73680D02*
D03*
X75648D02*
D03*
X77617D02*
D03*
X79585D02*
D03*
X81554D02*
D03*
X83522D02*
D03*
X85491D02*
D03*
Y127404D02*
D03*
X83522D02*
D03*
X81554D02*
D03*
X79585D02*
D03*
X77617D02*
D03*
X75648D02*
D03*
X73680D02*
D03*
X71711D02*
D03*
D68*
X113101Y62050D02*
D03*
X107101D02*
D03*
D69*
X40101Y98150D02*
D03*
Y105750D02*
D03*
X32101Y101950D02*
D03*
D70*
X105967Y166050D02*
D03*
X114235D02*
D03*
X105967Y144050D02*
D03*
X114235D02*
D03*
X105967Y135050D02*
D03*
X114235D02*
D03*
X295967Y145050D02*
D03*
X304235D02*
D03*
D71*
X17601Y112727D02*
D03*
Y97373D02*
D03*
D72*
X21900Y70050D02*
D03*
D73*
X46301Y79150D02*
D03*
Y70050D02*
D03*
Y60950D02*
D03*
D74*
X93762Y11050D02*
D03*
X76440D02*
D03*
D75*
X100601Y26601D02*
D03*
Y45499D02*
D03*
X72601Y26601D02*
D03*
Y45499D02*
D03*
D76*
X34301Y13050D02*
D03*
X46101Y32750D02*
D03*
X22501D02*
D03*
D77*
X37301Y13050D02*
D03*
X31301D02*
D03*
X22501Y29750D02*
D03*
Y35750D02*
D03*
X46101Y29750D02*
D03*
Y35750D02*
D03*
D78*
X200101Y10050D02*
D03*
X210101D02*
D03*
X220101D02*
D03*
X230101D02*
D03*
X240101D02*
D03*
X250101D02*
D03*
X260101D02*
D03*
X270101D02*
D03*
X180101D02*
D03*
X170101D02*
D03*
X160101D02*
D03*
X150101D02*
D03*
X140101D02*
D03*
X130101D02*
D03*
X120101D02*
D03*
X110101D02*
D03*
D79*
X260101Y30050D02*
D03*
Y140050D02*
D03*
X55101Y10050D02*
D03*
X355101Y200050D02*
D03*
X60101D02*
D03*
X380101Y10050D02*
D03*
D80*
Y30050D02*
D03*
X370101D02*
D03*
X380101Y40050D02*
D03*
X370101D02*
D03*
X380101Y50050D02*
D03*
X370101D02*
D03*
X380101Y60050D02*
D03*
X370101D02*
D03*
X380101Y70050D02*
D03*
X370101D02*
D03*
X380101Y80050D02*
D03*
X370101D02*
D03*
X380101Y90050D02*
D03*
X370101D02*
D03*
X380101Y100050D02*
D03*
X370101D02*
D03*
X380101Y110050D02*
D03*
X370101D02*
D03*
X380101Y120050D02*
D03*
X370101D02*
D03*
X380101Y130050D02*
D03*
X370101D02*
D03*
X380101Y140050D02*
D03*
X370101D02*
D03*
X380101Y150050D02*
D03*
X370101D02*
D03*
X380101Y160050D02*
D03*
X370101D02*
D03*
X380101Y170050D02*
D03*
X370101D02*
D03*
X380101Y180050D02*
D03*
X370101D02*
D03*
X380101Y190050D02*
D03*
X370101D02*
D03*
X380101Y200050D02*
D03*
X370101D02*
D03*
X72101Y167050D02*
D03*
X82101D02*
D03*
X72101Y157050D02*
D03*
X82101D02*
D03*
X62601Y102550D02*
D03*
X82601D02*
D03*
X25770Y145129D02*
D03*
Y154971D02*
D03*
X33644D02*
D03*
Y145129D02*
D03*
D81*
X62101Y177050D02*
D03*
Y187050D02*
D03*
X72101Y177050D02*
D03*
Y187050D02*
D03*
X82101Y177050D02*
D03*
Y187050D02*
D03*
D82*
X15101Y126428D02*
D03*
Y173672D02*
D03*
D83*
X260601Y100050D02*
D03*
X250601D02*
D03*
X260601Y110050D02*
D03*
X250601D02*
D03*
X260601Y120050D02*
D03*
X250601D02*
D03*
D84*
X163201Y175350D02*
D03*
Y170650D02*
D03*
X194000Y41000D02*
D03*
Y46000D02*
D03*
X179169Y153263D02*
D03*
X38101Y170050D02*
D03*
X88601Y182550D02*
D03*
X65101Y60050D02*
D03*
X63851Y156800D02*
D03*
X121601Y160550D02*
D03*
X237601Y114550D02*
D03*
X238601Y81550D02*
D03*
X236101Y77050D02*
D03*
X239601Y88550D02*
D03*
X232601Y73550D02*
D03*
Y84550D02*
D03*
X178101Y100050D02*
D03*
X219601Y125550D02*
D03*
Y117050D02*
D03*
X283601Y75550D02*
D03*
X286101Y70550D02*
D03*
X93601Y150550D02*
D03*
X101601Y71550D02*
D03*
X156501Y156350D02*
D03*
X120601Y147550D02*
D03*
X124101Y143050D02*
D03*
X154501Y150950D02*
D03*
X186101Y189050D02*
D03*
X161101Y99050D02*
D03*
X291101Y43050D02*
D03*
X298601Y40050D02*
D03*
X199601Y39912D02*
D03*
X157101Y95050D02*
D03*
X319101Y34550D02*
D03*
X193101Y34050D02*
D03*
X175601Y90550D02*
D03*
X177001Y170650D02*
D03*
X296601Y66550D02*
D03*
X320601Y154050D02*
D03*
X177001Y175350D02*
D03*
X310101Y153550D02*
D03*
X291601Y69550D02*
D03*
X97101Y86550D02*
D03*
X136601Y40050D02*
D03*
X198601Y166550D02*
D03*
X193901Y155050D02*
D03*
X195601Y171550D02*
D03*
X192101Y168050D02*
D03*
X188601Y164550D02*
D03*
X181601Y157550D02*
D03*
X185101Y161050D02*
D03*
X120101Y184050D02*
D03*
X236601D02*
D03*
X315601D02*
D03*
X299164Y152113D02*
D03*
X94601Y29050D02*
D03*
X4901Y169850D02*
D03*
X124101Y37050D02*
D03*
X184570Y32582D02*
D03*
X309601Y34550D02*
D03*
X110601Y48050D02*
D03*
X111101Y180550D02*
D03*
X166601Y159150D02*
D03*
X147101Y67050D02*
D03*
X70601Y74050D02*
D03*
X74201Y132650D02*
D03*
X274901Y92750D02*
D03*
X239601Y109550D02*
D03*
X176601Y158050D02*
D03*
X127101Y64550D02*
D03*
X217601Y153050D02*
D03*
X239601Y123550D02*
D03*
X60101Y119550D02*
D03*
X94101Y64550D02*
D03*
X97101Y158050D02*
D03*
X110601Y110550D02*
D03*
X89101Y123050D02*
D03*
X32601Y55050D02*
D03*
X35101Y62550D02*
D03*
X17601Y55050D02*
D03*
X25101D02*
D03*
X10101D02*
D03*
X35101Y77550D02*
D03*
X10101Y87550D02*
D03*
X32601D02*
D03*
X17601D02*
D03*
X25101D02*
D03*
X224601Y105050D02*
D03*
X248701Y134450D02*
D03*
X222501Y134550D02*
D03*
X328601Y154050D02*
D03*
X124601Y57550D02*
D03*
X115101Y19550D02*
D03*
D85*
X24601Y200950D02*
D03*
X180101Y41961D02*
D03*
X88101Y87550D02*
D03*
X127001Y82850D02*
D03*
X273801Y106950D02*
D03*
X261301Y155550D02*
D03*
X54901Y127850D02*
D03*
X172038Y200050D02*
D03*
X259501Y201450D02*
D03*
X391738Y45450D02*
D03*
X247533Y78990D02*
D03*
X273536Y126418D02*
D03*
X72001Y102550D02*
D03*
X285401Y108650D02*
D03*
X392038Y145250D02*
D03*
X303101Y71082D02*
D03*
X305101Y108450D02*
D03*
X148601Y97050D02*
D03*
X50201Y109250D02*
D03*
X228401Y80550D02*
D03*
X99701Y164550D02*
D03*
X95101Y104550D02*
D03*
X51501Y88850D02*
D03*
X103201Y14150D02*
D03*
X190601Y22361D02*
D03*
X176901Y107150D02*
D03*
X301001Y186450D02*
D03*
X229601Y163050D02*
D03*
X100601Y95550D02*
D03*
X67101Y182050D02*
D03*
X160601Y83750D02*
D03*
X52801Y53050D02*
D03*
X86701Y42050D02*
D03*
X285501Y140650D02*
D03*
X350701Y87050D02*
D03*
X345101Y152050D02*
D03*
X150301Y114913D02*
D03*
X124001Y114750D02*
D03*
X178101Y131550D02*
D03*
X177001Y113650D02*
D03*
X150401Y83750D02*
D03*
X270555Y78990D02*
D03*
X217101Y110050D02*
D03*
X164301Y139250D02*
D03*
X35101Y115050D02*
D03*
X175601Y121550D02*
D03*
M02*
