G04*
G04 #@! TF.GenerationSoftware,Altium Limited,Altium Designer,24.1.2 (44)*
G04*
G04 Layer_Color=65535*
%FSLAX25Y25*%
%MOIN*%
G70*
G04*
G04 #@! TF.SameCoordinates,648C5357-8596-4598-863F-5FE4D4354F98*
G04*
G04*
G04 #@! TF.FilePolarity,Positive*
G04*
G01*
G75*
%ADD10C,0.01600*%
%ADD11C,0.00571*%
%ADD12C,0.00425*%
%ADD13C,0.01594*%
%ADD14C,0.00841*%
%ADD15C,0.00748*%
%ADD16C,0.00638*%
%ADD17C,0.01122*%
%ADD18C,0.00408*%
%ADD19C,0.00340*%
%ADD20C,0.00714*%
G36*
X143600Y187900D02*
X143700D01*
Y187800D01*
X143800D01*
Y187700D01*
X143900D01*
Y187600D01*
X144000D01*
Y187500D01*
X144100D01*
Y187400D01*
X144200D01*
Y187300D01*
X144300D01*
Y187200D01*
X144400D01*
Y187000D01*
X144500D01*
Y186900D01*
X144600D01*
Y186700D01*
X144700D01*
Y186500D01*
X144800D01*
Y186200D01*
X144900D01*
Y185800D01*
X145000D01*
Y185000D01*
X144900D01*
Y184700D01*
X144800D01*
Y184500D01*
X144700D01*
Y184300D01*
X144600D01*
Y184100D01*
X144500D01*
Y183900D01*
X144400D01*
Y183700D01*
X144300D01*
Y183500D01*
X144200D01*
Y183400D01*
X144100D01*
Y183200D01*
X144000D01*
Y183000D01*
X143900D01*
Y182900D01*
X143800D01*
Y182700D01*
X143700D01*
Y182500D01*
X143600D01*
Y182400D01*
X143500D01*
Y182200D01*
X143400D01*
Y182000D01*
X143300D01*
Y181800D01*
X143200D01*
Y181600D01*
X143100D01*
Y181400D01*
X143000D01*
Y181200D01*
X142900D01*
Y181000D01*
X142800D01*
Y180700D01*
X142700D01*
Y180300D01*
X142600D01*
Y179400D01*
X143600D01*
Y179500D01*
X143700D01*
Y179700D01*
X143800D01*
Y179900D01*
X143900D01*
Y180000D01*
X144000D01*
Y180200D01*
X144100D01*
Y180400D01*
X144200D01*
Y180500D01*
X144300D01*
Y180700D01*
X144400D01*
Y180900D01*
X144500D01*
Y181000D01*
X144600D01*
Y181200D01*
X144700D01*
Y181400D01*
X144800D01*
Y181700D01*
X144900D01*
Y181900D01*
X145000D01*
Y182300D01*
X145100D01*
Y183400D01*
X145000D01*
Y183800D01*
X144900D01*
Y184100D01*
X144800D01*
Y184200D01*
Y184300D01*
X144900D01*
Y184100D01*
X145000D01*
Y183900D01*
X145100D01*
Y183700D01*
X145200D01*
Y183400D01*
X145300D01*
Y182100D01*
X145200D01*
Y181800D01*
X145100D01*
Y181500D01*
X145000D01*
Y181200D01*
X144900D01*
Y181000D01*
X144800D01*
Y180800D01*
X144700D01*
Y180600D01*
X144600D01*
Y180400D01*
X144500D01*
Y180300D01*
X144400D01*
Y180100D01*
X144300D01*
Y179900D01*
X144200D01*
Y179700D01*
X144100D01*
Y179500D01*
X144000D01*
Y179400D01*
X144900D01*
Y179300D01*
X146000D01*
Y179200D01*
X146800D01*
Y179100D01*
X147300D01*
Y179000D01*
X147800D01*
Y178900D01*
X148200D01*
Y178800D01*
X148500D01*
Y178700D01*
X148800D01*
Y178600D01*
X149100D01*
Y178500D01*
X149200D01*
Y178400D01*
X149400D01*
Y178200D01*
X149500D01*
Y178100D01*
X149400D01*
Y178200D01*
X149300D01*
Y178300D01*
X149100D01*
Y178400D01*
X148900D01*
Y178500D01*
X148600D01*
Y178600D01*
X148200D01*
Y178700D01*
X147600D01*
Y178800D01*
X147300D01*
Y178300D01*
X147200D01*
Y178800D01*
X146800D01*
Y178600D01*
X146900D01*
Y178700D01*
X147000D01*
Y177700D01*
X147100D01*
Y178000D01*
Y178100D01*
Y178300D01*
X147200D01*
Y177600D01*
X147100D01*
Y177500D01*
X147000D01*
Y177700D01*
X146900D01*
Y177600D01*
X146800D01*
Y177700D01*
X146700D01*
Y177800D01*
X146600D01*
Y177600D01*
X146700D01*
Y177400D01*
X146500D01*
Y177500D01*
X146100D01*
Y177600D01*
X144800D01*
Y177700D01*
X144100D01*
Y177500D01*
X143800D01*
Y177400D01*
X143700D01*
Y177300D01*
X143600D01*
Y177400D01*
X143500D01*
Y177300D01*
X142900D01*
Y177200D01*
X142800D01*
Y177100D01*
X144900D01*
Y177200D01*
X146600D01*
Y177300D01*
X147500D01*
Y177400D01*
X148100D01*
Y177500D01*
X148600D01*
Y177600D01*
X148900D01*
Y177700D01*
X149100D01*
Y177800D01*
X149300D01*
Y177900D01*
X149400D01*
Y178000D01*
X149500D01*
Y176900D01*
X149600D01*
Y177000D01*
X149700D01*
Y177100D01*
X149800D01*
Y177200D01*
X149900D01*
Y177300D01*
X150100D01*
Y177400D01*
X150400D01*
Y177500D01*
X150800D01*
Y177600D01*
X151100D01*
Y177500D01*
X151500D01*
Y177400D01*
X151700D01*
Y177300D01*
X151900D01*
Y177200D01*
X152000D01*
Y177100D01*
X152100D01*
Y177000D01*
X152200D01*
Y176800D01*
X152300D01*
Y176600D01*
X152400D01*
Y176400D01*
X152500D01*
Y176000D01*
X152600D01*
Y175300D01*
X152500D01*
Y175000D01*
X152400D01*
Y174700D01*
X152300D01*
Y174600D01*
X152200D01*
Y174400D01*
X152100D01*
Y174300D01*
X152000D01*
Y174200D01*
X151900D01*
Y174100D01*
X151800D01*
Y174000D01*
X151700D01*
Y173900D01*
X151500D01*
Y173800D01*
X151400D01*
Y173700D01*
X151200D01*
Y173600D01*
X151000D01*
Y173500D01*
X150800D01*
Y173400D01*
X150500D01*
Y173300D01*
X150000D01*
Y173200D01*
X149700D01*
Y173300D01*
X149300D01*
Y173400D01*
X149100D01*
Y173500D01*
X148900D01*
Y173600D01*
X148800D01*
Y173700D01*
X148700D01*
Y173400D01*
X148600D01*
Y173200D01*
X148500D01*
Y173000D01*
X148400D01*
Y172900D01*
X148300D01*
Y172700D01*
X148200D01*
Y172600D01*
X148100D01*
Y172400D01*
X148000D01*
Y172300D01*
X147900D01*
Y172200D01*
X147800D01*
Y172100D01*
X147700D01*
Y172000D01*
X147600D01*
Y171900D01*
X147500D01*
Y171800D01*
X147400D01*
Y171700D01*
X147300D01*
Y171600D01*
X147200D01*
Y171500D01*
X147000D01*
Y171400D01*
X146800D01*
Y171300D01*
X146700D01*
Y171200D01*
X146600D01*
Y171000D01*
X146500D01*
Y170800D01*
X146400D01*
Y170700D01*
X146300D01*
Y170500D01*
X146200D01*
Y170300D01*
X146000D01*
Y170200D01*
X145800D01*
Y170100D01*
X146200D01*
Y170200D01*
X146600D01*
Y170300D01*
X146800D01*
Y170400D01*
X147000D01*
Y170500D01*
X147200D01*
Y170800D01*
X147100D01*
Y170900D01*
X147000D01*
Y171000D01*
X146900D01*
Y171100D01*
X147100D01*
Y171200D01*
X147200D01*
Y171300D01*
X147400D01*
Y171400D01*
X147500D01*
Y171500D01*
X147700D01*
Y171600D01*
X147900D01*
Y171700D01*
X148000D01*
Y171800D01*
X148200D01*
Y171600D01*
X148100D01*
Y171500D01*
X148000D01*
Y171400D01*
X148200D01*
Y171500D01*
X148300D01*
Y171600D01*
X148500D01*
Y171500D01*
X148400D01*
Y171400D01*
X148300D01*
Y171300D01*
X148200D01*
Y171200D01*
X148400D01*
Y171300D01*
X148500D01*
Y171400D01*
X148700D01*
Y171300D01*
X148600D01*
Y171200D01*
X148500D01*
Y171100D01*
X148600D01*
Y170900D01*
X148500D01*
Y170800D01*
X148400D01*
Y170700D01*
X148600D01*
Y170600D01*
X148500D01*
Y170500D01*
X148400D01*
Y170600D01*
X148300D01*
Y170500D01*
X148400D01*
Y170400D01*
X148300D01*
Y170500D01*
X148100D01*
Y170400D01*
X148000D01*
Y170600D01*
X147800D01*
Y170500D01*
X147700D01*
Y170700D01*
X147500D01*
Y170800D01*
X147600D01*
Y170900D01*
X147400D01*
Y171200D01*
X147300D01*
Y171100D01*
X147200D01*
Y170900D01*
X147300D01*
Y170800D01*
X147400D01*
Y170600D01*
X147300D01*
Y170400D01*
X147200D01*
Y170300D01*
X147100D01*
Y170200D01*
X146900D01*
Y170100D01*
X146700D01*
Y170000D01*
X146400D01*
Y169900D01*
X146100D01*
Y169800D01*
X145600D01*
Y169700D01*
X144900D01*
Y169600D01*
X146000D01*
Y169700D01*
X146800D01*
Y169800D01*
X147400D01*
Y169900D01*
X147900D01*
Y170000D01*
X148300D01*
Y170100D01*
X148600D01*
Y170200D01*
X148800D01*
Y170300D01*
X149000D01*
Y170400D01*
X149200D01*
Y170500D01*
X149400D01*
Y170600D01*
X149500D01*
Y170800D01*
X149600D01*
Y171000D01*
X149500D01*
Y171100D01*
X149400D01*
Y171200D01*
X149300D01*
Y171300D01*
X149200D01*
Y171400D01*
X149100D01*
Y171500D01*
X148900D01*
Y171600D01*
X148700D01*
Y171700D01*
X148500D01*
Y171800D01*
X148200D01*
Y172000D01*
X148100D01*
Y171900D01*
X148000D01*
Y172200D01*
X148200D01*
Y172300D01*
X148500D01*
Y172200D01*
X149000D01*
Y172300D01*
X149300D01*
Y172200D01*
X149700D01*
Y172100D01*
X150000D01*
Y172000D01*
X150200D01*
Y171900D01*
X150500D01*
Y171800D01*
X150700D01*
Y171700D01*
X150900D01*
Y171600D01*
X151000D01*
Y171500D01*
X151100D01*
Y171400D01*
X151200D01*
Y171300D01*
X151300D01*
Y171200D01*
X151400D01*
Y170900D01*
X151500D01*
Y170800D01*
X151400D01*
Y170500D01*
X151300D01*
Y170300D01*
X151200D01*
Y170200D01*
X151100D01*
Y170100D01*
X151000D01*
Y170000D01*
X150800D01*
Y169900D01*
X150700D01*
Y169800D01*
X150500D01*
Y169700D01*
X150300D01*
Y169600D01*
X150000D01*
Y169500D01*
X149800D01*
Y169400D01*
X149500D01*
Y169300D01*
X149100D01*
Y169200D01*
X148700D01*
Y169100D01*
X148200D01*
Y169000D01*
X147700D01*
Y168900D01*
X147100D01*
Y168800D01*
X146600D01*
Y168600D01*
X146500D01*
Y168500D01*
X146300D01*
Y168400D01*
X146000D01*
Y168300D01*
X145500D01*
Y168200D01*
X141600D01*
Y168300D01*
X140900D01*
Y168400D01*
X140500D01*
Y168500D01*
X140100D01*
Y168600D01*
X139900D01*
Y168700D01*
X139800D01*
Y168800D01*
X139200D01*
Y168900D01*
X138600D01*
Y169000D01*
X138000D01*
Y169100D01*
X137500D01*
Y169200D01*
X137100D01*
Y169300D01*
X136800D01*
Y169400D01*
X136500D01*
Y169500D01*
X136200D01*
Y169600D01*
X136000D01*
Y169700D01*
X135800D01*
Y169800D01*
X135600D01*
Y169900D01*
X135400D01*
Y170000D01*
X135300D01*
Y170100D01*
X135200D01*
Y170200D01*
X135100D01*
Y170300D01*
X135000D01*
Y170400D01*
X134900D01*
Y170600D01*
X134800D01*
Y171100D01*
X134900D01*
Y171300D01*
X135000D01*
Y171400D01*
X135100D01*
Y171500D01*
X135200D01*
Y171600D01*
X135400D01*
Y171700D01*
X135600D01*
Y171800D01*
X135800D01*
Y171900D01*
X136000D01*
Y172000D01*
X136200D01*
Y172100D01*
X136600D01*
Y172200D01*
X136900D01*
Y172300D01*
X137300D01*
Y172200D01*
X137000D01*
Y172100D01*
X136900D01*
Y172000D01*
X137200D01*
Y171900D01*
X137400D01*
Y171800D01*
X137800D01*
Y171700D01*
X137600D01*
Y171600D01*
X137400D01*
Y171500D01*
X137200D01*
Y171400D01*
X137700D01*
Y171300D01*
X138100D01*
Y171200D01*
X138500D01*
Y171100D01*
X138800D01*
Y171000D01*
X139100D01*
Y171100D01*
X139300D01*
Y171200D01*
X139700D01*
Y171400D01*
X139500D01*
Y171500D01*
X139300D01*
Y171600D01*
X139200D01*
Y171700D01*
X139000D01*
Y171800D01*
X138900D01*
Y171900D01*
X138800D01*
Y172000D01*
X138700D01*
Y172100D01*
X138600D01*
Y172200D01*
X138500D01*
Y172300D01*
X138400D01*
Y172400D01*
X138300D01*
Y172500D01*
X138200D01*
Y172700D01*
X138100D01*
Y172800D01*
X138000D01*
Y173000D01*
X137900D01*
Y173200D01*
X137800D01*
Y173400D01*
X137700D01*
Y173600D01*
X137600D01*
Y173700D01*
Y173800D01*
Y173900D01*
X137500D01*
Y174100D01*
X137400D01*
Y174500D01*
X137300D01*
Y174800D01*
X137200D01*
Y175200D01*
X137100D01*
Y175600D01*
X137000D01*
Y176100D01*
X136900D01*
Y176700D01*
X136800D01*
Y177400D01*
X136700D01*
Y177900D01*
X136600D01*
Y178200D01*
X136700D01*
Y178400D01*
X136800D01*
Y178500D01*
X136900D01*
Y178600D01*
X137000D01*
Y178700D01*
X137200D01*
Y178800D01*
X137500D01*
Y178900D01*
X137800D01*
Y179000D01*
X138100D01*
Y179100D01*
X138600D01*
Y179200D01*
X139300D01*
Y179300D01*
X140300D01*
Y179400D01*
X141100D01*
Y179700D01*
X141000D01*
Y181400D01*
X141100D01*
Y181700D01*
X141200D01*
Y182000D01*
X141300D01*
Y182300D01*
X141400D01*
Y182500D01*
X141500D01*
Y182600D01*
X141600D01*
Y182800D01*
X141700D01*
Y183000D01*
X141800D01*
Y183100D01*
X141900D01*
Y183200D01*
X142000D01*
Y183400D01*
X142100D01*
Y183500D01*
X142200D01*
Y183600D01*
X142300D01*
Y183800D01*
X142400D01*
Y183900D01*
X142500D01*
Y184000D01*
X142600D01*
Y184200D01*
X142700D01*
Y184300D01*
X142800D01*
Y184400D01*
X142900D01*
Y184500D01*
X143000D01*
Y184700D01*
X143100D01*
Y184800D01*
X143200D01*
Y184900D01*
X143300D01*
Y185100D01*
X143400D01*
Y185200D01*
X143500D01*
Y185400D01*
X143600D01*
Y185600D01*
X143700D01*
Y185800D01*
X143800D01*
Y186200D01*
X143900D01*
Y186800D01*
X143800D01*
Y187200D01*
X143700D01*
Y187500D01*
X143600D01*
Y187700D01*
X143700D01*
Y187600D01*
Y187500D01*
X143800D01*
Y187300D01*
X143900D01*
Y187000D01*
X144000D01*
Y185800D01*
X143900D01*
Y185500D01*
X143800D01*
Y185300D01*
X143700D01*
Y185100D01*
X143600D01*
Y185000D01*
X143500D01*
Y184800D01*
X143400D01*
Y184700D01*
X143300D01*
Y184500D01*
X143200D01*
Y184400D01*
X143100D01*
Y184300D01*
X143000D01*
Y184100D01*
X142900D01*
Y184000D01*
X142800D01*
Y183900D01*
X142700D01*
Y183800D01*
X142600D01*
Y183600D01*
X142500D01*
Y183500D01*
X142400D01*
Y183400D01*
X142300D01*
Y183200D01*
X142200D01*
Y183100D01*
X142100D01*
Y182900D01*
X142000D01*
Y182700D01*
X141900D01*
Y182600D01*
X141800D01*
Y182400D01*
X141700D01*
Y182200D01*
X141600D01*
Y181900D01*
X141500D01*
Y181600D01*
X141400D01*
Y181100D01*
X141300D01*
Y180000D01*
X141400D01*
Y179600D01*
X141500D01*
Y179400D01*
X141800D01*
Y179500D01*
X141700D01*
Y180900D01*
X141800D01*
Y181200D01*
X141900D01*
Y181500D01*
X142000D01*
Y181700D01*
X142100D01*
Y181900D01*
X142200D01*
Y182000D01*
X142300D01*
Y182200D01*
X142400D01*
Y182300D01*
X142500D01*
Y182400D01*
X142600D01*
Y182500D01*
X142700D01*
Y182600D01*
X142800D01*
Y182800D01*
X142900D01*
Y182900D01*
X143000D01*
Y183000D01*
X143100D01*
Y183100D01*
X143200D01*
Y183200D01*
X143300D01*
Y183300D01*
X143400D01*
Y183400D01*
X143500D01*
Y183500D01*
X143600D01*
Y183600D01*
X143700D01*
Y183700D01*
X143800D01*
Y183800D01*
X143900D01*
Y183900D01*
X144000D01*
Y184000D01*
X144100D01*
Y184100D01*
X144200D01*
Y184200D01*
X144300D01*
Y184400D01*
X144400D01*
Y184500D01*
X144500D01*
Y184700D01*
X144600D01*
Y184800D01*
X144700D01*
Y185000D01*
X144800D01*
Y186100D01*
X144700D01*
Y186400D01*
X144600D01*
Y186600D01*
X144500D01*
Y186800D01*
X144400D01*
Y187000D01*
X144300D01*
Y187100D01*
X144200D01*
Y187200D01*
Y187300D01*
X144100D01*
Y187400D01*
X144000D01*
Y187500D01*
X143900D01*
Y187600D01*
X143800D01*
Y187700D01*
X143700D01*
Y187800D01*
X143500D01*
Y187900D01*
Y188000D01*
X143600D01*
Y187900D01*
D02*
G37*
G36*
X144200Y177300D02*
X144000D01*
Y177400D01*
X144200D01*
Y177300D01*
D02*
G37*
G36*
X137600Y172300D02*
X137300D01*
Y172400D01*
X137600D01*
Y172300D01*
D02*
G37*
G36*
X138000Y171800D02*
X137900D01*
Y171900D01*
X138000D01*
Y171800D01*
D02*
G37*
G36*
X148300Y170300D02*
X148200D01*
Y170400D01*
X148300D01*
Y170300D01*
D02*
G37*
G36*
X148000D02*
X147900D01*
Y170400D01*
X148000D01*
Y170300D01*
D02*
G37*
G36*
X148200Y170200D02*
X148100D01*
Y170300D01*
X148200D01*
Y170200D01*
D02*
G37*
G36*
X174885Y27250D02*
X174240D01*
X173200Y31029D01*
Y31036D01*
X173193Y31050D01*
X173186Y31072D01*
X173178Y31108D01*
X173157Y31186D01*
X173135Y31280D01*
X173107Y31380D01*
X173078Y31473D01*
X173056Y31552D01*
X173049Y31588D01*
X173042Y31609D01*
Y31602D01*
X173035Y31595D01*
X173028Y31552D01*
X173013Y31488D01*
X172992Y31409D01*
X172970Y31323D01*
X172942Y31222D01*
X172920Y31122D01*
X172891Y31029D01*
X171845Y27250D01*
X171156D01*
X169859Y32212D01*
X170540D01*
X171278Y28956D01*
Y28949D01*
X171285Y28935D01*
X171293Y28906D01*
X171300Y28870D01*
X171307Y28820D01*
X171321Y28770D01*
X171336Y28705D01*
X171350Y28634D01*
X171386Y28483D01*
X171422Y28311D01*
X171458Y28125D01*
X171493Y27938D01*
Y27946D01*
X171501Y27974D01*
X171515Y28010D01*
X171522Y28067D01*
X171536Y28125D01*
X171558Y28196D01*
X171594Y28354D01*
X171637Y28512D01*
X171651Y28591D01*
X171673Y28662D01*
X171687Y28727D01*
X171701Y28784D01*
X171716Y28827D01*
X171723Y28856D01*
X172662Y32212D01*
X173458D01*
X174161Y29695D01*
Y29688D01*
X174175Y29652D01*
X174189Y29602D01*
X174204Y29537D01*
X174225Y29451D01*
X174254Y29358D01*
X174283Y29250D01*
X174311Y29129D01*
X174347Y28992D01*
X174376Y28856D01*
X174440Y28562D01*
X174505Y28254D01*
X174555Y27938D01*
Y27946D01*
X174562Y27960D01*
Y27988D01*
X174576Y28024D01*
X174584Y28067D01*
X174598Y28118D01*
X174605Y28182D01*
X174627Y28254D01*
X174662Y28411D01*
X174706Y28598D01*
X174749Y28799D01*
X174806Y29021D01*
X175580Y32212D01*
X176247D01*
X174885Y27250D01*
D02*
G37*
G36*
X183854Y32204D02*
X183919D01*
X184070Y32197D01*
X184227Y32176D01*
X184399Y32154D01*
X184557Y32118D01*
X184636Y32097D01*
X184701Y32075D01*
X184708D01*
X184715Y32068D01*
X184758Y32047D01*
X184822Y32018D01*
X184901Y31968D01*
X184987Y31903D01*
X185081Y31817D01*
X185167Y31717D01*
X185253Y31602D01*
Y31595D01*
X185260Y31588D01*
X185288Y31545D01*
X185317Y31473D01*
X185360Y31380D01*
X185396Y31272D01*
X185432Y31143D01*
X185453Y31007D01*
X185460Y30856D01*
Y30849D01*
Y30835D01*
Y30806D01*
X185453Y30770D01*
Y30720D01*
X185446Y30670D01*
X185417Y30548D01*
X185374Y30405D01*
X185317Y30254D01*
X185231Y30104D01*
X185174Y30032D01*
X185116Y29960D01*
X185109Y29953D01*
X185102Y29946D01*
X185081Y29924D01*
X185052Y29903D01*
X185016Y29874D01*
X184973Y29845D01*
X184916Y29810D01*
X184858Y29767D01*
X184787Y29731D01*
X184708Y29695D01*
X184622Y29652D01*
X184528Y29616D01*
X184421Y29587D01*
X184313Y29552D01*
X184191Y29530D01*
X184062Y29509D01*
X184077Y29501D01*
X184105Y29487D01*
X184148Y29458D01*
X184206Y29430D01*
X184335Y29351D01*
X184399Y29301D01*
X184457Y29258D01*
X184471Y29243D01*
X184507Y29207D01*
X184564Y29150D01*
X184636Y29078D01*
X184715Y28978D01*
X184808Y28870D01*
X184901Y28741D01*
X185002Y28598D01*
X185855Y27250D01*
X185038D01*
X184385Y28282D01*
Y28290D01*
X184371Y28304D01*
X184356Y28326D01*
X184335Y28354D01*
X184285Y28433D01*
X184220Y28533D01*
X184141Y28641D01*
X184062Y28756D01*
X183984Y28863D01*
X183912Y28964D01*
X183905Y28971D01*
X183883Y29000D01*
X183847Y29043D01*
X183797Y29093D01*
X183689Y29200D01*
X183632Y29250D01*
X183575Y29294D01*
X183568Y29301D01*
X183553Y29308D01*
X183525Y29322D01*
X183482Y29344D01*
X183439Y29365D01*
X183388Y29387D01*
X183274Y29423D01*
X183266D01*
X183252Y29430D01*
X183223D01*
X183188Y29437D01*
X183137Y29444D01*
X183080D01*
X183001Y29451D01*
X182155D01*
Y27250D01*
X181495D01*
Y32212D01*
X183797D01*
X183854Y32204D01*
D02*
G37*
G36*
X180463Y31624D02*
X177531D01*
Y30111D01*
X180277D01*
Y29523D01*
X177531D01*
Y27838D01*
X180578D01*
Y27250D01*
X176871D01*
Y32212D01*
X180463D01*
Y31624D01*
D02*
G37*
G36*
X162445Y32204D02*
X162567Y32197D01*
X162696Y32190D01*
X162818Y32176D01*
X162925Y32162D01*
X162940D01*
X162990Y32147D01*
X163054Y32133D01*
X163140Y32111D01*
X163233Y32075D01*
X163334Y32032D01*
X163442Y31982D01*
X163535Y31925D01*
X163549Y31918D01*
X163578Y31896D01*
X163621Y31853D01*
X163678Y31803D01*
X163743Y31738D01*
X163807Y31652D01*
X163879Y31559D01*
X163936Y31452D01*
X163943Y31437D01*
X163958Y31401D01*
X163986Y31337D01*
X164015Y31251D01*
X164037Y31150D01*
X164065Y31036D01*
X164080Y30907D01*
X164087Y30770D01*
Y30763D01*
Y30742D01*
Y30713D01*
X164080Y30663D01*
X164072Y30613D01*
X164065Y30548D01*
X164051Y30476D01*
X164037Y30398D01*
X163986Y30233D01*
X163958Y30147D01*
X163915Y30053D01*
X163865Y29960D01*
X163814Y29874D01*
X163750Y29788D01*
X163678Y29702D01*
X163671Y29695D01*
X163657Y29681D01*
X163635Y29659D01*
X163599Y29638D01*
X163556Y29602D01*
X163499Y29566D01*
X163427Y29523D01*
X163348Y29487D01*
X163255Y29444D01*
X163147Y29401D01*
X163033Y29365D01*
X162897Y29337D01*
X162753Y29308D01*
X162595Y29286D01*
X162416Y29272D01*
X162230Y29265D01*
X160961D01*
Y27250D01*
X160301D01*
Y32212D01*
X162337D01*
X162445Y32204D01*
D02*
G37*
G36*
X167213Y32291D02*
X167277D01*
X167342Y32283D01*
X167428Y32269D01*
X167514Y32255D01*
X167700Y32219D01*
X167915Y32162D01*
X168123Y32075D01*
X168231Y32025D01*
X168339Y31968D01*
X168346Y31961D01*
X168360Y31953D01*
X168389Y31932D01*
X168432Y31910D01*
X168475Y31875D01*
X168532Y31832D01*
X168654Y31731D01*
X168783Y31602D01*
X168927Y31444D01*
X169063Y31258D01*
X169177Y31050D01*
Y31043D01*
X169192Y31021D01*
X169206Y30993D01*
X169220Y30950D01*
X169249Y30892D01*
X169271Y30828D01*
X169299Y30749D01*
X169328Y30663D01*
X169350Y30570D01*
X169378Y30469D01*
X169407Y30355D01*
X169428Y30240D01*
X169457Y29989D01*
X169471Y29717D01*
Y29709D01*
Y29681D01*
Y29645D01*
X169464Y29587D01*
Y29523D01*
X169457Y29444D01*
X169443Y29358D01*
X169436Y29265D01*
X169400Y29057D01*
X169342Y28827D01*
X169264Y28598D01*
X169220Y28483D01*
X169163Y28368D01*
Y28361D01*
X169149Y28340D01*
X169134Y28311D01*
X169106Y28268D01*
X169077Y28218D01*
X169041Y28168D01*
X168941Y28032D01*
X168819Y27888D01*
X168676Y27738D01*
X168503Y27594D01*
X168303Y27465D01*
X168296D01*
X168281Y27451D01*
X168245Y27436D01*
X168202Y27415D01*
X168152Y27393D01*
X168095Y27372D01*
X168023Y27343D01*
X167944Y27314D01*
X167858Y27286D01*
X167765Y27257D01*
X167557Y27214D01*
X167335Y27178D01*
X167098Y27164D01*
X167026D01*
X166983Y27171D01*
X166919D01*
X166847Y27185D01*
X166768Y27193D01*
X166675Y27207D01*
X166481Y27250D01*
X166274Y27307D01*
X166059Y27393D01*
X165951Y27444D01*
X165843Y27501D01*
X165836Y27508D01*
X165822Y27515D01*
X165793Y27537D01*
X165750Y27566D01*
X165707Y27594D01*
X165657Y27637D01*
X165535Y27745D01*
X165399Y27874D01*
X165255Y28032D01*
X165126Y28211D01*
X165005Y28419D01*
Y28426D01*
X164990Y28447D01*
X164976Y28476D01*
X164962Y28519D01*
X164940Y28576D01*
X164918Y28641D01*
X164890Y28713D01*
X164868Y28792D01*
X164840Y28885D01*
X164811Y28978D01*
X164768Y29193D01*
X164739Y29415D01*
X164725Y29659D01*
Y29666D01*
Y29673D01*
Y29717D01*
X164732Y29781D01*
Y29867D01*
X164746Y29967D01*
X164761Y30089D01*
X164782Y30226D01*
X164811Y30369D01*
X164840Y30520D01*
X164883Y30677D01*
X164940Y30835D01*
X165005Y31000D01*
X165076Y31158D01*
X165169Y31315D01*
X165270Y31459D01*
X165384Y31595D01*
X165392Y31602D01*
X165413Y31624D01*
X165456Y31660D01*
X165506Y31703D01*
X165571Y31760D01*
X165650Y31817D01*
X165743Y31882D01*
X165851Y31946D01*
X165965Y32011D01*
X166094Y32075D01*
X166238Y32133D01*
X166388Y32190D01*
X166553Y32233D01*
X166725Y32269D01*
X166905Y32291D01*
X167098Y32298D01*
X167163D01*
X167213Y32291D01*
D02*
G37*
G36*
X396190Y172953D02*
X398047Y170350D01*
X397237D01*
X395982Y172114D01*
X395975Y172121D01*
X395960Y172143D01*
X395946Y172171D01*
X395917Y172207D01*
X395853Y172307D01*
X395781Y172415D01*
X395774Y172408D01*
X395752Y172379D01*
X395724Y172336D01*
X395688Y172279D01*
X395609Y172164D01*
X395573Y172114D01*
X395545Y172071D01*
X394290Y170350D01*
X393501D01*
X395415Y172917D01*
X393723Y175312D01*
X394505D01*
X395408Y174035D01*
Y174028D01*
X395423Y174021D01*
X395437Y174000D01*
X395458Y173971D01*
X395501Y173899D01*
X395566Y173813D01*
X395631Y173713D01*
X395695Y173612D01*
X395752Y173519D01*
X395803Y173433D01*
X395810Y173447D01*
X395831Y173476D01*
X395867Y173533D01*
X395917Y173605D01*
X395975Y173684D01*
X396046Y173784D01*
X396118Y173885D01*
X396204Y173992D01*
X397194Y175312D01*
X397911D01*
X396190Y172953D01*
D02*
G37*
G36*
X399402Y170350D02*
X398742D01*
Y175312D01*
X399402D01*
Y170350D01*
D02*
G37*
G36*
X402851Y175391D02*
X402915D01*
X402980Y175383D01*
X403066Y175369D01*
X403152Y175355D01*
X403338Y175319D01*
X403553Y175261D01*
X403761Y175175D01*
X403869Y175125D01*
X403976Y175068D01*
X403983Y175061D01*
X403998Y175054D01*
X404027Y175032D01*
X404070Y175011D01*
X404113Y174975D01*
X404170Y174932D01*
X404292Y174831D01*
X404421Y174702D01*
X404564Y174545D01*
X404701Y174358D01*
X404815Y174150D01*
Y174143D01*
X404830Y174121D01*
X404844Y174093D01*
X404858Y174050D01*
X404887Y173992D01*
X404909Y173928D01*
X404937Y173849D01*
X404966Y173763D01*
X404987Y173670D01*
X405016Y173569D01*
X405045Y173455D01*
X405066Y173340D01*
X405095Y173089D01*
X405109Y172817D01*
Y172809D01*
Y172781D01*
Y172745D01*
X405102Y172687D01*
Y172623D01*
X405095Y172544D01*
X405081Y172458D01*
X405073Y172365D01*
X405037Y172157D01*
X404980Y171927D01*
X404901Y171698D01*
X404858Y171583D01*
X404801Y171468D01*
Y171461D01*
X404787Y171440D01*
X404772Y171411D01*
X404744Y171368D01*
X404715Y171318D01*
X404679Y171268D01*
X404579Y171132D01*
X404457Y170988D01*
X404313Y170838D01*
X404141Y170694D01*
X403940Y170565D01*
X403933D01*
X403919Y170551D01*
X403883Y170536D01*
X403840Y170515D01*
X403790Y170493D01*
X403733Y170472D01*
X403661Y170443D01*
X403582Y170414D01*
X403496Y170386D01*
X403403Y170357D01*
X403195Y170314D01*
X402973Y170278D01*
X402736Y170264D01*
X402664D01*
X402621Y170271D01*
X402557D01*
X402485Y170285D01*
X402406Y170293D01*
X402313Y170307D01*
X402119Y170350D01*
X401911Y170407D01*
X401696Y170493D01*
X401589Y170544D01*
X401481Y170601D01*
X401474Y170608D01*
X401460Y170615D01*
X401431Y170637D01*
X401388Y170666D01*
X401345Y170694D01*
X401295Y170737D01*
X401173Y170845D01*
X401037Y170974D01*
X400893Y171132D01*
X400764Y171311D01*
X400642Y171519D01*
Y171526D01*
X400628Y171547D01*
X400614Y171576D01*
X400599Y171619D01*
X400578Y171676D01*
X400556Y171741D01*
X400528Y171813D01*
X400506Y171892D01*
X400477Y171985D01*
X400449Y172078D01*
X400406Y172293D01*
X400377Y172515D01*
X400363Y172759D01*
Y172766D01*
Y172774D01*
Y172817D01*
X400370Y172881D01*
Y172967D01*
X400384Y173067D01*
X400398Y173189D01*
X400420Y173326D01*
X400449Y173469D01*
X400477Y173619D01*
X400520Y173777D01*
X400578Y173935D01*
X400642Y174100D01*
X400714Y174258D01*
X400807Y174415D01*
X400908Y174559D01*
X401022Y174695D01*
X401029Y174702D01*
X401051Y174724D01*
X401094Y174759D01*
X401144Y174803D01*
X401209Y174860D01*
X401288Y174917D01*
X401381Y174982D01*
X401488Y175046D01*
X401603Y175111D01*
X401732Y175175D01*
X401876Y175233D01*
X402026Y175290D01*
X402191Y175333D01*
X402363Y175369D01*
X402542Y175391D01*
X402736Y175398D01*
X402801D01*
X402851Y175391D01*
D02*
G37*
G36*
X64638Y168929D02*
X64695Y168922D01*
X64760Y168915D01*
X64839Y168901D01*
X64918Y168886D01*
X65104Y168843D01*
X65298Y168771D01*
X65398Y168728D01*
X65491Y168671D01*
X65592Y168614D01*
X65685Y168542D01*
X65692Y168535D01*
X65713Y168520D01*
X65742Y168492D01*
X65778Y168456D01*
X65821Y168406D01*
X65878Y168348D01*
X65929Y168277D01*
X65986Y168198D01*
X66043Y168112D01*
X66093Y168011D01*
X66144Y167904D01*
X66194Y167789D01*
X66230Y167667D01*
X66258Y167531D01*
X66280Y167388D01*
X66287Y167237D01*
Y167173D01*
X66280Y167122D01*
X66273Y167065D01*
X66265Y167000D01*
X66258Y166922D01*
X66237Y166843D01*
X66194Y166663D01*
X66129Y166484D01*
X66086Y166391D01*
X66036Y166298D01*
X65979Y166212D01*
X65914Y166126D01*
X65907Y166119D01*
X65900Y166104D01*
X65871Y166090D01*
X65842Y166061D01*
X65807Y166025D01*
X65764Y165989D01*
X65706Y165946D01*
X65642Y165911D01*
X65577Y165868D01*
X65498Y165825D01*
X65326Y165746D01*
X65126Y165681D01*
X65018Y165660D01*
X64903Y165645D01*
X64853Y166283D01*
X64860D01*
X64875D01*
X64896Y166291D01*
X64932Y166298D01*
X65011Y166319D01*
X65118Y166348D01*
X65226Y166391D01*
X65348Y166448D01*
X65455Y166520D01*
X65556Y166606D01*
X65563Y166620D01*
X65592Y166649D01*
X65627Y166707D01*
X65670Y166785D01*
X65713Y166871D01*
X65749Y166979D01*
X65778Y167101D01*
X65785Y167237D01*
Y167280D01*
X65778Y167309D01*
X65771Y167395D01*
X65742Y167495D01*
X65706Y167617D01*
X65649Y167739D01*
X65563Y167868D01*
X65513Y167925D01*
X65455Y167983D01*
X65448Y167990D01*
X65441Y167997D01*
X65420Y168011D01*
X65398Y168033D01*
X65319Y168083D01*
X65219Y168140D01*
X65097Y168191D01*
X64946Y168241D01*
X64767Y168277D01*
X64674Y168291D01*
X64573D01*
X64566D01*
X64552D01*
X64523D01*
X64487Y168284D01*
X64444D01*
X64394Y168277D01*
X64279Y168255D01*
X64143Y168219D01*
X64007Y168169D01*
X63878Y168097D01*
X63756Y167997D01*
X63749D01*
X63742Y167983D01*
X63706Y167947D01*
X63656Y167882D01*
X63598Y167796D01*
X63548Y167682D01*
X63498Y167552D01*
X63462Y167402D01*
X63448Y167316D01*
Y167180D01*
X63455Y167122D01*
X63462Y167051D01*
X63484Y166965D01*
X63505Y166878D01*
X63541Y166785D01*
X63584Y166692D01*
X63591Y166685D01*
X63605Y166656D01*
X63641Y166613D01*
X63677Y166556D01*
X63727Y166498D01*
X63792Y166441D01*
X63856Y166377D01*
X63935Y166326D01*
X63856Y165753D01*
X61304Y166233D01*
Y168700D01*
X61885D01*
Y166714D01*
X63226Y166448D01*
X63218Y166455D01*
X63211Y166470D01*
X63197Y166491D01*
X63175Y166527D01*
X63154Y166570D01*
X63125Y166620D01*
X63068Y166735D01*
X63010Y166878D01*
X62960Y167036D01*
X62924Y167208D01*
X62910Y167294D01*
Y167452D01*
X62917Y167495D01*
X62924Y167552D01*
X62932Y167617D01*
X62946Y167689D01*
X62967Y167768D01*
X63017Y167940D01*
X63053Y168033D01*
X63104Y168126D01*
X63154Y168219D01*
X63211Y168313D01*
X63283Y168399D01*
X63362Y168485D01*
X63369Y168492D01*
X63383Y168506D01*
X63405Y168528D01*
X63441Y168556D01*
X63491Y168592D01*
X63541Y168628D01*
X63605Y168671D01*
X63677Y168714D01*
X63756Y168750D01*
X63842Y168793D01*
X63942Y168829D01*
X64043Y168865D01*
X64150Y168893D01*
X64272Y168915D01*
X64394Y168929D01*
X64523Y168936D01*
X64530D01*
X64552D01*
X64588D01*
X64638Y168929D01*
D02*
G37*
G36*
X62788Y165050D02*
X62838Y165043D01*
X62903Y165036D01*
X62975Y165022D01*
X63053Y165007D01*
X63218Y164957D01*
X63304Y164928D01*
X63398Y164885D01*
X63491Y164835D01*
X63577Y164785D01*
X63663Y164720D01*
X63749Y164649D01*
X63756Y164641D01*
X63770Y164627D01*
X63792Y164606D01*
X63813Y164570D01*
X63849Y164527D01*
X63885Y164469D01*
X63928Y164398D01*
X63964Y164319D01*
X64007Y164226D01*
X64050Y164118D01*
X64086Y164003D01*
X64114Y163867D01*
X64143Y163724D01*
X64165Y163566D01*
X64179Y163387D01*
X64186Y163200D01*
Y161931D01*
X66201D01*
Y161272D01*
X61239D01*
Y163308D01*
X61247Y163415D01*
X61254Y163537D01*
X61261Y163666D01*
X61275Y163788D01*
X61290Y163896D01*
Y163910D01*
X61304Y163960D01*
X61318Y164025D01*
X61340Y164111D01*
X61376Y164204D01*
X61419Y164304D01*
X61469Y164412D01*
X61526Y164505D01*
X61533Y164520D01*
X61555Y164548D01*
X61598Y164591D01*
X61648Y164649D01*
X61713Y164713D01*
X61799Y164778D01*
X61892Y164849D01*
X61999Y164907D01*
X62014Y164914D01*
X62050Y164928D01*
X62114Y164957D01*
X62200Y164986D01*
X62300Y165007D01*
X62415Y165036D01*
X62544Y165050D01*
X62681Y165057D01*
X62688D01*
X62709D01*
X62738D01*
X62788Y165050D01*
D02*
G37*
G36*
X64781Y160189D02*
X64839D01*
X64975Y160175D01*
X65133Y160160D01*
X65298Y160132D01*
X65448Y160089D01*
X65592Y160038D01*
X65599D01*
X65606Y160031D01*
X65649Y160010D01*
X65706Y159974D01*
X65785Y159924D01*
X65864Y159852D01*
X65950Y159773D01*
X66036Y159673D01*
X66108Y159558D01*
X66115Y159544D01*
X66136Y159501D01*
X66165Y159436D01*
X66194Y159343D01*
X66230Y159228D01*
X66258Y159099D01*
X66280Y158956D01*
X66287Y158798D01*
Y158733D01*
X66280Y158690D01*
X66273Y158633D01*
X66265Y158576D01*
X66237Y158425D01*
X66194Y158267D01*
X66129Y158103D01*
X66086Y158016D01*
X66036Y157938D01*
X65979Y157866D01*
X65914Y157794D01*
X65907Y157787D01*
X65900Y157780D01*
X65871Y157765D01*
X65842Y157744D01*
X65807Y157715D01*
X65756Y157687D01*
X65699Y157658D01*
X65635Y157622D01*
X65563Y157593D01*
X65477Y157565D01*
X65391Y157536D01*
X65290Y157507D01*
X65183Y157493D01*
X65061Y157472D01*
X64939Y157464D01*
X64803D01*
X64717Y158059D01*
X64724D01*
X64738D01*
X64767D01*
X64810Y158067D01*
X64853Y158074D01*
X64903D01*
X65025Y158095D01*
X65154Y158117D01*
X65283Y158160D01*
X65398Y158203D01*
X65448Y158231D01*
X65491Y158267D01*
X65498Y158274D01*
X65520Y158303D01*
X65556Y158346D01*
X65592Y158404D01*
X65635Y158483D01*
X65663Y158569D01*
X65692Y158676D01*
X65699Y158791D01*
Y158834D01*
X65692Y158877D01*
X65685Y158941D01*
X65670Y159006D01*
X65656Y159078D01*
X65627Y159149D01*
X65592Y159221D01*
X65584Y159228D01*
X65570Y159250D01*
X65541Y159278D01*
X65513Y159321D01*
X65462Y159357D01*
X65412Y159400D01*
X65355Y159436D01*
X65283Y159465D01*
X65276D01*
X65247Y159479D01*
X65197Y159486D01*
X65133Y159501D01*
X65047Y159515D01*
X64939Y159522D01*
X64810Y159537D01*
X64660D01*
X61239D01*
Y160196D01*
X64624D01*
X64631D01*
X64652D01*
X64681D01*
X64724D01*
X64781Y160189D01*
D02*
G37*
%LPC*%
G36*
X143900Y183300D02*
X143800D01*
Y183200D01*
X143900D01*
Y183300D01*
D02*
G37*
G36*
X143800Y183200D02*
X143700D01*
Y183100D01*
X143600D01*
Y182900D01*
X143700D01*
Y183000D01*
X143800D01*
Y183200D01*
D02*
G37*
G36*
X143600Y182900D02*
X143500D01*
Y182800D01*
X143400D01*
Y182700D01*
X143300D01*
Y182600D01*
X143200D01*
Y182500D01*
X143100D01*
Y182300D01*
X143000D01*
Y182200D01*
X142900D01*
Y182100D01*
X142800D01*
Y181900D01*
X142700D01*
Y181800D01*
X142600D01*
Y181600D01*
X142500D01*
Y181400D01*
X142400D01*
Y181100D01*
X142300D01*
Y180700D01*
X142200D01*
Y179900D01*
X142300D01*
Y179700D01*
X142400D01*
Y180400D01*
X142500D01*
Y180700D01*
X142600D01*
Y181000D01*
X142700D01*
Y181200D01*
X142800D01*
Y181500D01*
X142900D01*
Y181700D01*
X143000D01*
Y181900D01*
X143100D01*
Y182100D01*
X143200D01*
Y182200D01*
X143300D01*
Y182400D01*
X143400D01*
Y182600D01*
X143500D01*
Y182700D01*
X143600D01*
Y182900D01*
D02*
G37*
G36*
X146400Y178900D02*
X146300D01*
Y178800D01*
X146400D01*
Y178900D01*
D02*
G37*
G36*
X141900D02*
X141800D01*
Y178800D01*
X141900D01*
Y178600D01*
X142000D01*
Y178700D01*
Y178800D01*
X141900D01*
Y178900D01*
D02*
G37*
G36*
X146700D02*
X146500D01*
Y178000D01*
X146600D01*
Y178100D01*
Y178200D01*
Y178400D01*
X146700D01*
Y178900D01*
D02*
G37*
G36*
X143400Y179000D02*
X142700D01*
Y178900D01*
X142600D01*
Y178800D01*
X142700D01*
Y178500D01*
X142800D01*
Y178200D01*
X142900D01*
Y178000D01*
X143300D01*
Y177900D01*
X143400D01*
Y178200D01*
X143300D01*
Y178800D01*
X143400D01*
Y179000D01*
D02*
G37*
G36*
X141400Y178900D02*
X140900D01*
Y178800D01*
X140500D01*
Y178700D01*
Y178600D01*
Y178400D01*
X140400D01*
Y177900D01*
X140500D01*
Y177800D01*
X140600D01*
Y177900D01*
X141500D01*
Y178000D01*
X141900D01*
Y178100D01*
X141800D01*
Y178300D01*
X141700D01*
Y178400D01*
X141600D01*
Y178500D01*
X141500D01*
Y178700D01*
X141400D01*
Y178900D01*
D02*
G37*
G36*
X140100Y177900D02*
X140000D01*
Y177800D01*
X139900D01*
Y177700D01*
X140100D01*
Y177900D01*
D02*
G37*
G36*
X145000Y179000D02*
X143800D01*
Y178900D01*
X143700D01*
Y178300D01*
X143800D01*
Y178000D01*
X143900D01*
Y177900D01*
X144700D01*
Y177800D01*
X145600D01*
Y177700D01*
X146200D01*
Y177600D01*
X146400D01*
Y177800D01*
X146200D01*
Y178000D01*
X146100D01*
Y178800D01*
Y178900D01*
X145000D01*
Y179000D01*
D02*
G37*
G36*
X143700Y177600D02*
X143500D01*
Y177500D01*
X143700D01*
Y177600D01*
D02*
G37*
G36*
X143300Y177700D02*
X143100D01*
Y177500D01*
X143200D01*
Y177600D01*
X143300D01*
Y177700D01*
D02*
G37*
G36*
X139300Y178600D02*
X139200D01*
Y177900D01*
X139300D01*
Y177500D01*
X139400D01*
Y177700D01*
Y177800D01*
Y178100D01*
X139300D01*
Y178600D01*
D02*
G37*
G36*
X138800Y178500D02*
X138300D01*
Y178400D01*
X137900D01*
Y178300D01*
X137600D01*
Y178200D01*
X137400D01*
Y178100D01*
X137300D01*
Y178000D01*
X137400D01*
Y177900D01*
X137700D01*
Y177800D01*
X137900D01*
Y177700D01*
X138300D01*
Y177600D01*
X138700D01*
Y177500D01*
X139100D01*
Y177600D01*
X139000D01*
Y177900D01*
X138900D01*
Y178300D01*
X138800D01*
Y178500D01*
D02*
G37*
G36*
X143100Y177500D02*
X143000D01*
Y177400D01*
X143100D01*
Y177500D01*
D02*
G37*
G36*
X141600Y177600D02*
X141400D01*
Y177400D01*
X141500D01*
Y177500D01*
X141600D01*
Y177600D01*
D02*
G37*
G36*
X141200Y177500D02*
X140500D01*
Y177400D01*
X140100D01*
Y177300D01*
X140800D01*
Y177200D01*
X142500D01*
Y177300D01*
X142100D01*
Y177400D01*
X141900D01*
Y177300D01*
X141200D01*
Y177500D01*
D02*
G37*
G36*
X151300Y177200D02*
X150900D01*
Y177100D01*
X151100D01*
Y177000D01*
X151300D01*
Y176900D01*
X151400D01*
Y176800D01*
X151500D01*
Y176700D01*
X151600D01*
Y176600D01*
X151700D01*
Y176400D01*
X151800D01*
Y176200D01*
X151900D01*
Y176000D01*
X152000D01*
Y175600D01*
X152100D01*
Y174900D01*
X152200D01*
Y175300D01*
X152300D01*
Y175900D01*
X152200D01*
Y176300D01*
X152100D01*
Y176500D01*
X152000D01*
Y176700D01*
X151900D01*
Y176800D01*
X151800D01*
Y176900D01*
X151700D01*
Y177000D01*
X151500D01*
Y177100D01*
X151300D01*
Y177200D01*
D02*
G37*
G36*
X150700Y177100D02*
X150400D01*
Y177000D01*
X150200D01*
Y176900D01*
X150000D01*
Y176800D01*
X149900D01*
Y176700D01*
X149800D01*
Y176500D01*
X149700D01*
Y176200D01*
X149600D01*
Y176000D01*
X149500D01*
Y175900D01*
X149300D01*
Y175400D01*
X149200D01*
Y175000D01*
X149100D01*
Y174600D01*
X149000D01*
Y174400D01*
X149100D01*
Y174300D01*
X149200D01*
Y174200D01*
X149400D01*
Y174100D01*
X149500D01*
Y174000D01*
X149700D01*
Y173900D01*
X150000D01*
Y173800D01*
X150700D01*
Y173900D01*
X151000D01*
Y174000D01*
X151200D01*
Y174100D01*
X151300D01*
Y174200D01*
X151400D01*
Y174300D01*
X151500D01*
Y174400D01*
X151600D01*
Y174600D01*
X151700D01*
Y174800D01*
X151800D01*
Y175900D01*
X151700D01*
Y176200D01*
X151600D01*
Y176400D01*
X151500D01*
Y176500D01*
X151400D01*
Y176600D01*
X151300D01*
Y176700D01*
X151200D01*
Y176800D01*
X151100D01*
Y176900D01*
X151000D01*
Y177000D01*
X150700D01*
Y177100D01*
D02*
G37*
G36*
X149000Y174000D02*
X148800D01*
Y173700D01*
X149000D01*
Y173600D01*
X149100D01*
Y173500D01*
X149400D01*
Y173400D01*
X150000D01*
Y173500D01*
X149700D01*
Y173600D01*
X149500D01*
Y173700D01*
X149300D01*
Y173800D01*
X149100D01*
Y173900D01*
X149000D01*
Y174000D01*
D02*
G37*
G36*
X146700Y176900D02*
X146600D01*
Y176300D01*
X146500D01*
Y174900D01*
X146400D01*
Y174300D01*
X146300D01*
Y173800D01*
X146200D01*
Y173500D01*
X146100D01*
Y173200D01*
X146000D01*
Y172900D01*
X145900D01*
Y172600D01*
X146000D01*
Y172800D01*
X146100D01*
Y173100D01*
X146200D01*
Y173300D01*
X146300D01*
Y173600D01*
X146400D01*
Y174000D01*
X146500D01*
Y174400D01*
X146600D01*
Y174900D01*
X146700D01*
Y176900D01*
D02*
G37*
G36*
X148500Y172200D02*
X148300D01*
Y172100D01*
X148500D01*
Y172200D01*
D02*
G37*
G36*
X148300Y172100D02*
X148200D01*
Y172000D01*
X148300D01*
Y172100D01*
D02*
G37*
G36*
X149400D02*
X148900D01*
Y172000D01*
X148700D01*
Y171900D01*
X148500D01*
Y171800D01*
X148700D01*
Y171700D01*
X148900D01*
Y171800D01*
X149000D01*
Y171900D01*
X149200D01*
Y172000D01*
X149400D01*
Y172100D01*
D02*
G37*
G36*
X137200Y171900D02*
X136800D01*
Y171800D01*
X137100D01*
Y171700D01*
X137400D01*
Y171800D01*
X137200D01*
Y171900D01*
D02*
G37*
G36*
X149400Y177700D02*
X149200D01*
Y177600D01*
X149000D01*
Y177500D01*
X148800D01*
Y177400D01*
X148500D01*
Y177300D01*
X148200D01*
Y177200D01*
X147800D01*
Y177100D01*
X147500D01*
Y176500D01*
X147400D01*
Y175400D01*
X147300D01*
Y174800D01*
X147200D01*
Y174400D01*
X147100D01*
Y174000D01*
X147000D01*
Y173800D01*
X146900D01*
Y173500D01*
X146800D01*
Y173300D01*
X146700D01*
Y173100D01*
X146600D01*
Y172900D01*
X146500D01*
Y172700D01*
X146400D01*
Y172500D01*
X146300D01*
Y172400D01*
X146200D01*
Y172200D01*
X146100D01*
Y172000D01*
X146000D01*
Y171900D01*
X145900D01*
Y171800D01*
X145800D01*
Y171600D01*
X145700D01*
Y171500D01*
X145600D01*
Y171800D01*
X145700D01*
Y172100D01*
X145800D01*
Y172300D01*
X145900D01*
Y172600D01*
X145800D01*
Y172400D01*
X145700D01*
Y172200D01*
X145600D01*
Y172500D01*
X145700D01*
Y172800D01*
X145800D01*
Y173200D01*
X145900D01*
Y173600D01*
X146000D01*
Y174200D01*
X146100D01*
Y175100D01*
X146200D01*
Y176800D01*
X146100D01*
Y176900D01*
X145900D01*
Y176800D01*
X144700D01*
Y176700D01*
X140300D01*
Y176800D01*
X139300D01*
Y176900D01*
X138600D01*
Y177000D01*
X138200D01*
Y177100D01*
X137800D01*
Y177200D01*
X137500D01*
Y177300D01*
X137200D01*
Y177000D01*
X137300D01*
Y176200D01*
X137400D01*
Y175600D01*
X137500D01*
Y175100D01*
X137600D01*
Y174700D01*
X137700D01*
Y174300D01*
X137800D01*
Y174000D01*
X137900D01*
Y173700D01*
X138000D01*
Y173500D01*
X138100D01*
Y173300D01*
X138200D01*
Y173100D01*
X138300D01*
Y172900D01*
X138400D01*
Y172700D01*
X138500D01*
Y172600D01*
X138600D01*
Y172400D01*
X138700D01*
Y172300D01*
X138800D01*
Y172200D01*
X138900D01*
Y172100D01*
X139000D01*
Y172000D01*
X139100D01*
Y171900D01*
X139200D01*
Y171800D01*
X139300D01*
Y171700D01*
X139400D01*
Y171600D01*
X139600D01*
Y171500D01*
X139700D01*
Y171400D01*
X139900D01*
Y171200D01*
X140100D01*
Y171100D01*
X140300D01*
Y171000D01*
X140500D01*
Y170900D01*
X141000D01*
Y170800D01*
X141900D01*
Y170700D01*
X143700D01*
Y170800D01*
X144700D01*
Y170900D01*
X145300D01*
Y171000D01*
X145700D01*
Y171100D01*
X146000D01*
Y171200D01*
X146200D01*
Y171400D01*
X146300D01*
Y171500D01*
X146400D01*
Y171600D01*
X146600D01*
Y171700D01*
X146700D01*
Y171800D01*
X146900D01*
Y171900D01*
X147100D01*
Y172000D01*
X147200D01*
Y172100D01*
X147300D01*
Y172200D01*
X147400D01*
Y172300D01*
X147500D01*
Y172400D01*
X147600D01*
Y172500D01*
X147700D01*
Y172600D01*
X147800D01*
Y172700D01*
X147900D01*
Y172900D01*
X148000D01*
Y173000D01*
X148100D01*
Y173200D01*
X148200D01*
Y173400D01*
X148300D01*
Y173600D01*
X148400D01*
Y173800D01*
X148500D01*
Y174000D01*
X148600D01*
Y174300D01*
X148700D01*
Y174500D01*
X148800D01*
Y174900D01*
X148900D01*
Y175200D01*
X149000D01*
Y175600D01*
X149100D01*
Y176100D01*
X149200D01*
Y176600D01*
X149300D01*
Y177200D01*
X149400D01*
Y177700D01*
D02*
G37*
G36*
X136900Y171700D02*
X136500D01*
Y171600D01*
X136800D01*
Y171500D01*
X137000D01*
Y171600D01*
X136900D01*
Y171700D01*
D02*
G37*
G36*
X150500D02*
X150400D01*
Y171500D01*
X150000D01*
Y171400D01*
X150400D01*
Y171300D01*
X150000D01*
Y171400D01*
X149900D01*
Y171300D01*
X149600D01*
Y171200D01*
X149700D01*
Y170600D01*
X149600D01*
Y170500D01*
X149500D01*
Y170400D01*
X149400D01*
Y170300D01*
X149300D01*
Y170200D01*
X149200D01*
Y170100D01*
X149000D01*
Y170000D01*
X148800D01*
Y169900D01*
X148500D01*
Y169800D01*
X148200D01*
Y169700D01*
X147900D01*
Y169600D01*
X147400D01*
Y169500D01*
X146900D01*
Y169400D01*
X146300D01*
Y169300D01*
X145500D01*
Y169200D01*
X144100D01*
Y169100D01*
X141900D01*
Y169200D01*
X140800D01*
Y169300D01*
X140000D01*
Y169400D01*
X139400D01*
Y169500D01*
X138900D01*
Y169600D01*
X138400D01*
Y169700D01*
X138100D01*
Y169800D01*
X137800D01*
Y169900D01*
X137500D01*
Y170000D01*
X137300D01*
Y170100D01*
X137100D01*
Y170200D01*
X136900D01*
Y170300D01*
X136800D01*
Y170400D01*
X136700D01*
Y170500D01*
X136600D01*
Y170700D01*
X136500D01*
Y171100D01*
X135600D01*
Y171200D01*
X135400D01*
Y171300D01*
X135200D01*
Y171200D01*
X135100D01*
Y171000D01*
X135000D01*
Y170700D01*
X135200D01*
Y170800D01*
X135900D01*
Y170900D01*
X136400D01*
Y170800D01*
X136100D01*
Y170700D01*
X135400D01*
Y170600D01*
X135100D01*
Y170500D01*
X135200D01*
Y170400D01*
X135300D01*
Y170300D01*
X135400D01*
Y170200D01*
X135600D01*
Y170100D01*
X135800D01*
Y170000D01*
X136000D01*
Y169900D01*
X136200D01*
Y169800D01*
X136500D01*
Y169700D01*
X136800D01*
Y169600D01*
X137200D01*
Y169500D01*
X137600D01*
Y169400D01*
X138100D01*
Y169300D01*
X138700D01*
Y169200D01*
X139400D01*
Y169100D01*
X140400D01*
Y169000D01*
X142400D01*
Y168900D01*
X143800D01*
Y169000D01*
X145900D01*
Y169100D01*
X146900D01*
Y169200D01*
X147600D01*
Y169300D01*
X148200D01*
Y169400D01*
X148700D01*
Y169500D01*
X149100D01*
Y169600D01*
X149500D01*
Y169700D01*
X149800D01*
Y169800D01*
X150000D01*
Y169900D01*
X150300D01*
Y170000D01*
X150500D01*
Y170100D01*
X150700D01*
Y170200D01*
X150800D01*
Y170300D01*
X151000D01*
Y170400D01*
X151100D01*
Y170600D01*
X151200D01*
Y171100D01*
X151100D01*
Y171300D01*
X151000D01*
Y171400D01*
X150800D01*
Y171500D01*
X150700D01*
Y171600D01*
X150500D01*
Y171700D01*
D02*
G37*
G36*
X137200Y171400D02*
X137000D01*
Y171300D01*
X137200D01*
Y171400D01*
D02*
G37*
G36*
X136300Y171600D02*
X135900D01*
Y171500D01*
X136300D01*
Y171400D01*
X136600D01*
Y171300D01*
X136800D01*
Y171400D01*
X136700D01*
Y171500D01*
X136300D01*
Y171600D01*
D02*
G37*
G36*
X148000Y171400D02*
X147800D01*
Y171300D01*
X147700D01*
Y171200D01*
X147900D01*
Y171300D01*
X148000D01*
Y171400D01*
D02*
G37*
G36*
X135800Y171500D02*
X135400D01*
Y171300D01*
X135900D01*
Y171200D01*
X136500D01*
Y171300D01*
X136100D01*
Y171400D01*
X135800D01*
Y171500D01*
D02*
G37*
G36*
X148500Y171100D02*
X148400D01*
Y171000D01*
X148500D01*
Y171100D01*
D02*
G37*
G36*
X147700Y171000D02*
X147600D01*
Y170900D01*
X147700D01*
Y171000D01*
D02*
G37*
G36*
X148200Y170800D02*
X148100D01*
Y170700D01*
X148000D01*
Y170600D01*
X148200D01*
Y170800D01*
D02*
G37*
G36*
X140000Y170700D02*
X139900D01*
Y170600D01*
X140000D01*
Y170700D01*
D02*
G37*
G36*
X139800Y170300D02*
X139700D01*
Y170200D01*
X139800D01*
Y170300D01*
D02*
G37*
G36*
X140200Y171000D02*
X140000D01*
Y170900D01*
X140100D01*
Y170700D01*
X140200D01*
Y170600D01*
X140300D01*
Y170500D01*
X140400D01*
Y170400D01*
X140600D01*
Y170300D01*
X141000D01*
Y170200D01*
X141600D01*
Y170100D01*
X143900D01*
Y170200D01*
X144700D01*
Y170300D01*
X145200D01*
Y170400D01*
X145600D01*
Y170500D01*
X145800D01*
Y170600D01*
X145900D01*
Y170700D01*
X145700D01*
Y170600D01*
X145300D01*
Y170500D01*
X144000D01*
Y170400D01*
X143200D01*
Y170500D01*
X141700D01*
Y170600D01*
X141100D01*
Y170700D01*
X140700D01*
Y170800D01*
X140400D01*
Y170900D01*
X140200D01*
Y171000D01*
D02*
G37*
G36*
X140300Y170200D02*
X140200D01*
Y170100D01*
X140300D01*
Y170200D01*
D02*
G37*
G36*
X140600Y170100D02*
X140500D01*
Y170000D01*
X140600D01*
Y170100D01*
D02*
G37*
G36*
X141200D02*
X140700D01*
Y170000D01*
X141100D01*
Y169900D01*
X141600D01*
Y170000D01*
X141200D01*
Y170100D01*
D02*
G37*
G36*
X144900Y169600D02*
X144100D01*
Y169500D01*
X144900D01*
Y169600D01*
D02*
G37*
G36*
X137000Y171300D02*
X136900D01*
Y171200D01*
X136800D01*
Y171000D01*
X136700D01*
Y170800D01*
X136800D01*
Y170600D01*
X136900D01*
Y170500D01*
X137100D01*
Y170400D01*
X137200D01*
Y170300D01*
X137400D01*
Y170200D01*
X137700D01*
Y170100D01*
X138000D01*
Y170000D01*
X138300D01*
Y169900D01*
X138800D01*
Y169800D01*
X139400D01*
Y169700D01*
X140100D01*
Y169600D01*
X141200D01*
Y169500D01*
X142100D01*
Y169600D01*
X141400D01*
Y169700D01*
X140700D01*
Y169800D01*
X140300D01*
Y169900D01*
X139900D01*
Y170000D01*
X139600D01*
Y170100D01*
X139400D01*
Y170200D01*
X139200D01*
Y170300D01*
X139100D01*
Y170400D01*
X139000D01*
Y170500D01*
X138900D01*
Y170800D01*
X138500D01*
Y170600D01*
X138600D01*
Y170100D01*
X138300D01*
Y170200D01*
X138100D01*
Y170300D01*
X138000D01*
Y170400D01*
X137800D01*
Y170500D01*
X137700D01*
Y170700D01*
X137900D01*
Y170800D01*
X137800D01*
Y170900D01*
X137500D01*
Y171000D01*
X137300D01*
Y171100D01*
X137100D01*
Y171200D01*
X137000D01*
Y171300D01*
D02*
G37*
G36*
X141000Y168700D02*
X140200D01*
Y168600D01*
X140600D01*
Y168500D01*
X141300D01*
Y168600D01*
X141000D01*
Y168700D01*
D02*
G37*
G36*
X144900Y168600D02*
X143300D01*
Y168500D01*
X143400D01*
Y168400D01*
X143600D01*
Y168500D01*
X144900D01*
Y168600D01*
D02*
G37*
%LPD*%
G36*
X140500Y176100D02*
X140400D01*
Y175900D01*
X140300D01*
Y175800D01*
X140200D01*
Y175600D01*
X140100D01*
Y175500D01*
X140000D01*
Y175400D01*
X139900D01*
Y175200D01*
X139800D01*
Y175100D01*
X139700D01*
Y175000D01*
X139600D01*
Y174800D01*
X139500D01*
Y174700D01*
X139400D01*
Y174600D01*
X139300D01*
Y174400D01*
X139200D01*
Y174300D01*
X139100D01*
Y174200D01*
X139000D01*
Y174000D01*
X139100D01*
Y174100D01*
X139200D01*
Y174200D01*
X139300D01*
Y174300D01*
X139400D01*
Y174400D01*
X139500D01*
Y174500D01*
X139600D01*
Y174600D01*
X139700D01*
Y174700D01*
X139800D01*
Y174800D01*
X139900D01*
Y174900D01*
X140000D01*
Y175000D01*
X140100D01*
Y175100D01*
X140200D01*
Y175200D01*
X140300D01*
Y175300D01*
X140400D01*
Y175400D01*
X140500D01*
Y175500D01*
X140600D01*
Y175600D01*
X140700D01*
Y175700D01*
X140800D01*
Y175800D01*
X141100D01*
Y175500D01*
X141000D01*
Y175400D01*
X140900D01*
Y175300D01*
X140800D01*
Y175200D01*
X140700D01*
Y175000D01*
X140600D01*
Y174900D01*
X140500D01*
Y174800D01*
X140400D01*
Y174600D01*
X140300D01*
Y174500D01*
X140200D01*
Y174400D01*
X140100D01*
Y174200D01*
X140000D01*
Y174100D01*
X139900D01*
Y174000D01*
X139800D01*
Y173800D01*
X139700D01*
Y173700D01*
X139600D01*
Y173500D01*
X139500D01*
Y173300D01*
X139400D01*
Y173200D01*
X139300D01*
Y173000D01*
X139400D01*
Y173100D01*
X139500D01*
Y173200D01*
X139600D01*
Y173300D01*
X139700D01*
Y173400D01*
X139800D01*
Y173500D01*
X140000D01*
Y173600D01*
X140100D01*
Y173700D01*
X140200D01*
Y173800D01*
X140300D01*
Y173900D01*
X140400D01*
Y174000D01*
X140500D01*
Y174100D01*
X140600D01*
Y174200D01*
X140700D01*
Y174300D01*
X140800D01*
Y174400D01*
X140900D01*
Y174500D01*
X141000D01*
Y174700D01*
X141100D01*
Y174800D01*
X141200D01*
Y174900D01*
X141300D01*
Y175000D01*
X141400D01*
Y175100D01*
X141500D01*
Y175200D01*
X141800D01*
Y174900D01*
X141700D01*
Y174800D01*
X141600D01*
Y174700D01*
X141500D01*
Y174600D01*
X141400D01*
Y174500D01*
X141300D01*
Y174400D01*
X141200D01*
Y174300D01*
X141100D01*
Y174200D01*
X141000D01*
Y174100D01*
X140900D01*
Y174000D01*
X140800D01*
Y173800D01*
X140700D01*
Y173700D01*
X140600D01*
Y173600D01*
X140500D01*
Y173400D01*
X140400D01*
Y173300D01*
X140300D01*
Y173200D01*
X140200D01*
Y173000D01*
X140100D01*
Y172800D01*
X140000D01*
Y172700D01*
X139900D01*
Y172500D01*
X139800D01*
Y172300D01*
X139900D01*
Y172400D01*
X140100D01*
Y172500D01*
X140200D01*
Y172600D01*
X140300D01*
Y172700D01*
X140400D01*
Y172800D01*
X140500D01*
Y172900D01*
X140600D01*
Y173000D01*
X140700D01*
Y173100D01*
X140800D01*
Y173200D01*
X140900D01*
Y173300D01*
X141000D01*
Y173400D01*
X141100D01*
Y173500D01*
X141200D01*
Y173600D01*
X141300D01*
Y173700D01*
X141400D01*
Y173800D01*
X141500D01*
Y173900D01*
X141600D01*
Y174000D01*
X141700D01*
Y174100D01*
X141800D01*
Y174200D01*
X141900D01*
Y174300D01*
X142000D01*
Y174400D01*
X142100D01*
Y174600D01*
X142200D01*
Y174700D01*
X142300D01*
Y174800D01*
X142400D01*
Y174900D01*
X142500D01*
Y175000D01*
X142600D01*
Y175100D01*
X142700D01*
Y175200D01*
X142800D01*
Y175300D01*
X143000D01*
Y175000D01*
X142900D01*
Y174900D01*
X142800D01*
Y174800D01*
X142700D01*
Y174700D01*
X142600D01*
Y174600D01*
X142500D01*
Y174500D01*
X142400D01*
Y174400D01*
X142300D01*
Y174200D01*
X142200D01*
Y174100D01*
X142100D01*
Y174000D01*
X142000D01*
Y173900D01*
X141900D01*
Y173800D01*
X141800D01*
Y173600D01*
X141700D01*
Y173500D01*
X141600D01*
Y173300D01*
X141500D01*
Y173100D01*
X141400D01*
Y173000D01*
X141300D01*
Y172800D01*
X141200D01*
Y172600D01*
X141100D01*
Y172300D01*
X141000D01*
Y172000D01*
X141200D01*
Y172100D01*
X141300D01*
Y172200D01*
X141500D01*
Y172300D01*
X141600D01*
Y172400D01*
X141700D01*
Y172500D01*
X141800D01*
Y172600D01*
X141900D01*
Y172700D01*
X142000D01*
Y172800D01*
X142100D01*
Y172900D01*
X142200D01*
Y173000D01*
X142300D01*
Y173200D01*
X142400D01*
Y173300D01*
X142500D01*
Y173400D01*
X142600D01*
Y173500D01*
X142700D01*
Y173600D01*
X142800D01*
Y173800D01*
X142900D01*
Y173900D01*
X143000D01*
Y174000D01*
X143100D01*
Y174100D01*
X143200D01*
Y174200D01*
X143300D01*
Y174300D01*
X143400D01*
Y174400D01*
X143500D01*
Y174500D01*
X143600D01*
Y174200D01*
X143500D01*
Y174100D01*
X143400D01*
Y174000D01*
X143300D01*
Y173900D01*
X143200D01*
Y173700D01*
X143100D01*
Y173600D01*
X143000D01*
Y173500D01*
X142900D01*
Y173300D01*
X142800D01*
Y173200D01*
X142700D01*
Y173000D01*
X142600D01*
Y172900D01*
X142500D01*
Y172700D01*
X142400D01*
Y172500D01*
X142300D01*
Y172400D01*
X142200D01*
Y172600D01*
X142100D01*
Y172500D01*
X142000D01*
Y172400D01*
X141900D01*
Y172300D01*
X141800D01*
Y172200D01*
X141600D01*
Y172100D01*
X141500D01*
Y172000D01*
X141400D01*
Y171900D01*
X141200D01*
Y171800D01*
X141000D01*
Y171900D01*
X140900D01*
Y172000D01*
X140800D01*
Y172300D01*
X140900D01*
Y172600D01*
X141000D01*
Y172800D01*
X141100D01*
Y173000D01*
X141000D01*
Y172900D01*
X140900D01*
Y172800D01*
X140800D01*
Y172700D01*
X140700D01*
Y172600D01*
X140600D01*
Y172500D01*
X140500D01*
Y172400D01*
X140400D01*
Y172300D01*
X140200D01*
Y172200D01*
X140100D01*
Y172100D01*
X139900D01*
Y172000D01*
X139500D01*
Y172400D01*
X139600D01*
Y172700D01*
X139400D01*
Y172600D01*
X139000D01*
Y172700D01*
X138900D01*
Y173000D01*
X139000D01*
Y173300D01*
X139100D01*
Y173500D01*
X139200D01*
Y173600D01*
X139000D01*
Y173500D01*
X138900D01*
Y173400D01*
X138700D01*
Y173300D01*
X138500D01*
Y173400D01*
X138400D01*
Y173800D01*
X138500D01*
Y174000D01*
X138600D01*
Y174100D01*
X138400D01*
Y174000D01*
X138300D01*
Y174100D01*
X138200D01*
Y174600D01*
X138300D01*
Y174800D01*
X138400D01*
Y175000D01*
X138500D01*
Y175200D01*
X138600D01*
Y175400D01*
X138700D01*
Y175600D01*
X138800D01*
Y175700D01*
X138900D01*
Y175900D01*
X139000D01*
Y176000D01*
X139100D01*
Y176100D01*
X139400D01*
Y175800D01*
X139300D01*
Y175600D01*
X139200D01*
Y175400D01*
X139100D01*
Y175300D01*
X139000D01*
Y175100D01*
X139100D01*
Y175200D01*
X139200D01*
Y175300D01*
X139300D01*
Y175500D01*
X139400D01*
Y175600D01*
X139500D01*
Y175700D01*
X139600D01*
Y175800D01*
X139700D01*
Y175900D01*
X139800D01*
Y176000D01*
X139900D01*
Y176100D01*
X140000D01*
Y176200D01*
X140100D01*
Y176300D01*
X140200D01*
Y176400D01*
X140500D01*
Y176100D01*
D02*
G37*
G36*
X144000Y172600D02*
X143900D01*
Y172700D01*
X144000D01*
Y172600D01*
D02*
G37*
G36*
X143900Y172500D02*
X143800D01*
Y172600D01*
X143900D01*
Y172500D01*
D02*
G37*
G36*
X143800Y172400D02*
X143700D01*
Y172500D01*
X143800D01*
Y172400D01*
D02*
G37*
G36*
X143600Y172300D02*
X143500D01*
Y172400D01*
X143600D01*
Y172300D01*
D02*
G37*
G36*
X143500Y172200D02*
X143400D01*
Y172300D01*
X143500D01*
Y172200D01*
D02*
G37*
G36*
X143400Y172100D02*
X143200D01*
Y172200D01*
X143400D01*
Y172100D01*
D02*
G37*
G36*
X143200Y172000D02*
X143100D01*
Y172100D01*
X143200D01*
Y172000D01*
D02*
G37*
G36*
X142200Y172200D02*
Y172100D01*
X142100D01*
Y171900D01*
X142000D01*
Y172200D01*
X142100D01*
Y172400D01*
X142200D01*
Y172200D01*
D02*
G37*
G36*
X143100Y171900D02*
X143000D01*
Y171800D01*
X142800D01*
Y171900D01*
X142900D01*
Y172000D01*
X143100D01*
Y171900D01*
D02*
G37*
G36*
X142800Y171700D02*
X142600D01*
Y171800D01*
X142800D01*
Y171700D01*
D02*
G37*
G36*
X142600Y171600D02*
X142400D01*
Y171700D01*
X142600D01*
Y171600D01*
D02*
G37*
G36*
X142000Y171700D02*
X142100D01*
Y171600D01*
X142400D01*
Y171500D01*
X142000D01*
Y171600D01*
X141900D01*
Y171900D01*
X142000D01*
Y171700D01*
D02*
G37*
G36*
X145600Y171400D02*
X145500D01*
Y171500D01*
X145600D01*
Y171400D01*
D02*
G37*
%LPC*%
G36*
X139000Y175100D02*
X138900D01*
Y175000D01*
X139000D01*
Y175100D01*
D02*
G37*
G36*
Y174000D02*
X138900D01*
Y173900D01*
X139000D01*
Y174000D01*
D02*
G37*
G36*
X139700Y172800D02*
X139600D01*
Y172700D01*
X139700D01*
Y172800D01*
D02*
G37*
G36*
X142300D02*
X142200D01*
Y172600D01*
X142300D01*
Y172800D01*
D02*
G37*
%LPD*%
G36*
X138800Y170000D02*
X138700D01*
Y170100D01*
X138800D01*
Y170000D01*
D02*
G37*
%LPC*%
G36*
X183718Y31660D02*
X182155D01*
Y30018D01*
X183632D01*
X183718Y30025D01*
X183819Y30032D01*
X183933Y30039D01*
X184048Y30053D01*
X184163Y30075D01*
X184263Y30104D01*
X184277Y30111D01*
X184306Y30125D01*
X184349Y30147D01*
X184406Y30175D01*
X184471Y30218D01*
X184536Y30269D01*
X184600Y30333D01*
X184650Y30405D01*
X184658Y30412D01*
X184672Y30441D01*
X184693Y30484D01*
X184722Y30541D01*
X184743Y30606D01*
X184765Y30677D01*
X184779Y30763D01*
X184787Y30849D01*
Y30856D01*
Y30864D01*
X184779Y30907D01*
X184772Y30971D01*
X184758Y31057D01*
X184722Y31143D01*
X184679Y31244D01*
X184615Y31337D01*
X184528Y31430D01*
X184514Y31437D01*
X184478Y31466D01*
X184421Y31502D01*
X184328Y31545D01*
X184220Y31588D01*
X184077Y31624D01*
X183912Y31652D01*
X183718Y31660D01*
D02*
G37*
G36*
X162380Y31624D02*
X160961D01*
Y29853D01*
X162294D01*
X162345Y29860D01*
X162395D01*
X162452Y29867D01*
X162588Y29881D01*
X162739Y29910D01*
X162889Y29953D01*
X163026Y30010D01*
X163090Y30046D01*
X163140Y30089D01*
X163155Y30104D01*
X163183Y30132D01*
X163226Y30190D01*
X163277Y30261D01*
X163327Y30355D01*
X163370Y30469D01*
X163398Y30598D01*
X163413Y30749D01*
Y30756D01*
Y30763D01*
Y30799D01*
X163406Y30864D01*
X163391Y30935D01*
X163377Y31014D01*
X163348Y31108D01*
X163305Y31194D01*
X163255Y31280D01*
X163248Y31287D01*
X163226Y31315D01*
X163190Y31351D01*
X163147Y31401D01*
X163083Y31452D01*
X163011Y31495D01*
X162932Y31538D01*
X162839Y31574D01*
X162832D01*
X162803Y31581D01*
X162760Y31588D01*
X162703Y31602D01*
X162617Y31609D01*
X162509Y31617D01*
X162380Y31624D01*
D02*
G37*
G36*
X167098Y31731D02*
X167034D01*
X166983Y31724D01*
X166919Y31717D01*
X166854Y31703D01*
X166776Y31688D01*
X166690Y31674D01*
X166503Y31617D01*
X166403Y31574D01*
X166302Y31530D01*
X166195Y31473D01*
X166094Y31409D01*
X165994Y31337D01*
X165901Y31251D01*
X165894Y31244D01*
X165879Y31229D01*
X165858Y31201D01*
X165822Y31158D01*
X165786Y31108D01*
X165743Y31043D01*
X165700Y30964D01*
X165650Y30871D01*
X165607Y30770D01*
X165557Y30649D01*
X165514Y30520D01*
X165478Y30376D01*
X165442Y30218D01*
X165420Y30039D01*
X165406Y29853D01*
X165399Y29652D01*
Y29645D01*
Y29616D01*
Y29566D01*
X165406Y29501D01*
X165413Y29430D01*
X165427Y29344D01*
X165442Y29243D01*
X165456Y29143D01*
X165514Y28913D01*
X165557Y28799D01*
X165600Y28677D01*
X165657Y28562D01*
X165721Y28447D01*
X165793Y28340D01*
X165879Y28240D01*
X165886Y28232D01*
X165901Y28218D01*
X165929Y28189D01*
X165965Y28161D01*
X166016Y28118D01*
X166073Y28074D01*
X166137Y28032D01*
X166209Y27981D01*
X166295Y27931D01*
X166388Y27888D01*
X166489Y27845D01*
X166596Y27802D01*
X166711Y27773D01*
X166826Y27745D01*
X166955Y27730D01*
X167091Y27723D01*
X167127D01*
X167163Y27730D01*
X167213D01*
X167277Y27738D01*
X167349Y27752D01*
X167435Y27766D01*
X167521Y27788D01*
X167622Y27816D01*
X167715Y27852D01*
X167822Y27888D01*
X167923Y27938D01*
X168023Y28003D01*
X168123Y28067D01*
X168224Y28146D01*
X168317Y28240D01*
X168324Y28247D01*
X168339Y28261D01*
X168360Y28297D01*
X168396Y28340D01*
X168432Y28390D01*
X168468Y28455D01*
X168511Y28533D01*
X168561Y28620D01*
X168604Y28720D01*
X168647Y28835D01*
X168683Y28956D01*
X168726Y29085D01*
X168754Y29229D01*
X168776Y29387D01*
X168790Y29552D01*
X168798Y29724D01*
Y29731D01*
Y29752D01*
Y29781D01*
Y29824D01*
X168790Y29874D01*
Y29939D01*
X168783Y30003D01*
X168769Y30082D01*
X168747Y30247D01*
X168711Y30419D01*
X168661Y30606D01*
X168589Y30778D01*
Y30785D01*
X168582Y30799D01*
X168568Y30821D01*
X168554Y30849D01*
X168503Y30935D01*
X168439Y31036D01*
X168353Y31150D01*
X168245Y31265D01*
X168123Y31380D01*
X167987Y31480D01*
X167980D01*
X167973Y31495D01*
X167951Y31502D01*
X167915Y31523D01*
X167880Y31538D01*
X167837Y31559D01*
X167729Y31609D01*
X167600Y31652D01*
X167449Y31695D01*
X167277Y31724D01*
X167098Y31731D01*
D02*
G37*
G36*
X402736Y174831D02*
X402671D01*
X402621Y174824D01*
X402557Y174817D01*
X402492Y174803D01*
X402413Y174788D01*
X402327Y174774D01*
X402141Y174716D01*
X402040Y174673D01*
X401940Y174630D01*
X401832Y174573D01*
X401732Y174509D01*
X401632Y174437D01*
X401539Y174351D01*
X401531Y174344D01*
X401517Y174329D01*
X401496Y174301D01*
X401460Y174258D01*
X401424Y174207D01*
X401381Y174143D01*
X401338Y174064D01*
X401288Y173971D01*
X401245Y173871D01*
X401194Y173749D01*
X401151Y173619D01*
X401116Y173476D01*
X401080Y173318D01*
X401058Y173139D01*
X401044Y172953D01*
X401037Y172752D01*
Y172745D01*
Y172716D01*
Y172666D01*
X401044Y172601D01*
X401051Y172530D01*
X401065Y172444D01*
X401080Y172343D01*
X401094Y172243D01*
X401151Y172013D01*
X401194Y171899D01*
X401237Y171777D01*
X401295Y171662D01*
X401359Y171547D01*
X401431Y171440D01*
X401517Y171339D01*
X401524Y171332D01*
X401539Y171318D01*
X401567Y171289D01*
X401603Y171261D01*
X401653Y171218D01*
X401711Y171175D01*
X401775Y171132D01*
X401847Y171081D01*
X401933Y171031D01*
X402026Y170988D01*
X402127Y170945D01*
X402234Y170902D01*
X402349Y170873D01*
X402463Y170845D01*
X402593Y170830D01*
X402729Y170823D01*
X402765D01*
X402801Y170830D01*
X402851D01*
X402915Y170838D01*
X402987Y170852D01*
X403073Y170866D01*
X403159Y170888D01*
X403259Y170916D01*
X403353Y170952D01*
X403460Y170988D01*
X403560Y171038D01*
X403661Y171103D01*
X403761Y171167D01*
X403862Y171246D01*
X403955Y171339D01*
X403962Y171347D01*
X403976Y171361D01*
X403998Y171397D01*
X404034Y171440D01*
X404070Y171490D01*
X404105Y171555D01*
X404148Y171633D01*
X404199Y171720D01*
X404242Y171820D01*
X404285Y171935D01*
X404320Y172056D01*
X404363Y172186D01*
X404392Y172329D01*
X404414Y172487D01*
X404428Y172652D01*
X404435Y172824D01*
Y172831D01*
Y172852D01*
Y172881D01*
Y172924D01*
X404428Y172974D01*
Y173039D01*
X404421Y173103D01*
X404407Y173182D01*
X404385Y173347D01*
X404349Y173519D01*
X404299Y173706D01*
X404227Y173878D01*
Y173885D01*
X404220Y173899D01*
X404206Y173921D01*
X404191Y173949D01*
X404141Y174035D01*
X404077Y174136D01*
X403991Y174250D01*
X403883Y174365D01*
X403761Y174480D01*
X403625Y174580D01*
X403618D01*
X403611Y174595D01*
X403589Y174602D01*
X403553Y174623D01*
X403517Y174638D01*
X403475Y174659D01*
X403367Y174709D01*
X403238Y174752D01*
X403087Y174795D01*
X402915Y174824D01*
X402736Y174831D01*
D02*
G37*
G36*
X62702Y164383D02*
X62695D01*
X62688D01*
X62652D01*
X62587Y164376D01*
X62516Y164362D01*
X62437Y164348D01*
X62344Y164319D01*
X62257Y164276D01*
X62172Y164226D01*
X62164Y164218D01*
X62136Y164197D01*
X62100Y164161D01*
X62050Y164118D01*
X61999Y164054D01*
X61956Y163982D01*
X61913Y163903D01*
X61878Y163810D01*
Y163803D01*
X61870Y163774D01*
X61863Y163731D01*
X61849Y163674D01*
X61842Y163587D01*
X61835Y163480D01*
X61827Y163351D01*
Y161931D01*
X63598D01*
Y163265D01*
X63591Y163315D01*
Y163365D01*
X63584Y163423D01*
X63570Y163559D01*
X63541Y163709D01*
X63498Y163860D01*
X63441Y163996D01*
X63405Y164061D01*
X63362Y164111D01*
X63347Y164125D01*
X63319Y164154D01*
X63261Y164197D01*
X63190Y164247D01*
X63096Y164297D01*
X62982Y164340D01*
X62853Y164369D01*
X62702Y164383D01*
D02*
G37*
%LPD*%
D10*
X247601Y185050D02*
X250101D01*
D11*
X117726Y16798D02*
Y18384D01*
Y17591D01*
X122484D01*
Y16798D01*
Y18384D01*
X117726Y23143D02*
Y21556D01*
X118519Y20763D01*
X121691D01*
X122484Y21556D01*
Y23143D01*
X121691Y23936D01*
X118519D01*
X117726Y23143D01*
X122484Y25522D02*
X117726D01*
Y27901D01*
X118519Y28694D01*
X120105D01*
X120898Y27901D01*
Y25522D01*
Y27108D02*
X122484Y28694D01*
X117726Y33453D02*
Y30280D01*
X122484D01*
Y33453D01*
X120105Y30280D02*
Y31866D01*
X117726Y38211D02*
Y35039D01*
X120105D01*
Y36625D01*
Y35039D01*
X122484D01*
X387273Y24015D02*
X386480Y24809D01*
X384894D01*
X384101Y24015D01*
Y20843D01*
X384894Y20050D01*
X386480D01*
X387273Y20843D01*
Y22429D01*
X385687D01*
X388860Y20050D02*
Y24809D01*
X392032Y20050D01*
Y24809D01*
X393618D02*
Y20050D01*
X395997D01*
X396790Y20843D01*
Y24015D01*
X395997Y24809D01*
X393618D01*
X161221Y20832D02*
X160428Y21625D01*
X158842D01*
X158049Y20832D01*
Y17660D01*
X158842Y16867D01*
X160428D01*
X161221Y17660D01*
Y19246D01*
X159635D01*
X162808Y16867D02*
Y21625D01*
X165980Y16867D01*
Y21625D01*
X167566D02*
Y16867D01*
X169945D01*
X170738Y17660D01*
Y20832D01*
X169945Y21625D01*
X167566D01*
X175249D02*
Y18453D01*
X176835Y16867D01*
X178421Y18453D01*
Y21625D01*
X180008D02*
X181594D01*
X180800D01*
Y16867D01*
X180008D01*
X181594D01*
X183973D02*
Y21625D01*
X187145Y16867D01*
Y21625D01*
X149221D02*
X146049D01*
Y19246D01*
X147635Y20039D01*
X148428D01*
X149221Y19246D01*
Y17660D01*
X148428Y16867D01*
X146842D01*
X146049Y17660D01*
X150807Y21625D02*
Y18453D01*
X152394Y16867D01*
X153980Y18453D01*
Y21625D01*
X139019Y16798D02*
X138225Y17591D01*
Y19177D01*
X139019Y19970D01*
X139812D01*
X140605Y19177D01*
Y18384D01*
Y19177D01*
X141398Y19970D01*
X142191D01*
X142984Y19177D01*
Y17591D01*
X142191Y16798D01*
X138225Y21556D02*
X141398D01*
X142984Y23143D01*
X141398Y24729D01*
X138225D01*
X139019Y26315D02*
X138225Y27108D01*
Y28694D01*
X139019Y29487D01*
X139812D01*
X140605Y28694D01*
Y27901D01*
Y28694D01*
X141398Y29487D01*
X142191D01*
X142984Y28694D01*
Y27108D01*
X142191Y26315D01*
X132984Y16798D02*
X128226D01*
Y19177D01*
X129019Y19970D01*
X130605D01*
X131398Y19177D01*
Y16798D01*
Y18384D02*
X132984Y19970D01*
X128226Y24729D02*
Y21556D01*
X132984D01*
Y24729D01*
X130605Y21556D02*
Y23143D01*
X129019Y29487D02*
X128226Y28694D01*
Y27108D01*
X129019Y26315D01*
X129812D01*
X130605Y27108D01*
Y28694D01*
X131398Y29487D01*
X132191D01*
X132984Y28694D01*
Y27108D01*
X132191Y26315D01*
X128226Y34246D02*
Y31073D01*
X132984D01*
Y34246D01*
X130605Y31073D02*
Y32660D01*
X128226Y35832D02*
Y39004D01*
Y37418D01*
X132984D01*
X104061Y182270D02*
X103268Y181477D01*
Y179891D01*
X104061Y179098D01*
X107233D01*
X108026Y179891D01*
Y181477D01*
X107233Y182270D01*
X105647D01*
Y180684D01*
X108026Y183856D02*
X103268D01*
X108026Y187029D01*
X103268D01*
Y188615D02*
X108026D01*
Y190994D01*
X107233Y191787D01*
X104061D01*
X103268Y190994D01*
Y188615D01*
X97484Y173998D02*
X94312D01*
X92725Y175584D01*
X94312Y177170D01*
X97484D01*
X95105D01*
Y173998D01*
X97484Y178756D02*
X92725D01*
Y181136D01*
X93519Y181929D01*
X95105D01*
X95898Y181136D01*
Y178756D01*
Y180343D02*
X97484Y181929D01*
X92725Y186687D02*
Y183515D01*
X97484D01*
Y186687D01*
X95105Y183515D02*
Y185101D01*
X92725Y191446D02*
Y188273D01*
X95105D01*
Y189859D01*
Y188273D01*
X97484D01*
X246849Y131163D02*
X248435D01*
X247642D01*
Y126404D01*
X246849D01*
X248435D01*
X253987Y130369D02*
X253194Y131163D01*
X251607D01*
X250814Y130369D01*
Y127197D01*
X251607Y126404D01*
X253194D01*
X253987Y127197D01*
X258745Y130369D02*
X257952Y131163D01*
X256366D01*
X255573Y130369D01*
Y129576D01*
X256366Y128783D01*
X257952D01*
X258745Y127990D01*
Y127197D01*
X257952Y126404D01*
X256366D01*
X255573Y127197D01*
X260331Y126404D02*
Y131163D01*
X262710D01*
X263504Y130369D01*
Y128783D01*
X262710Y127990D01*
X260331D01*
D12*
X94601Y34550D02*
Y38799D01*
X96725D01*
X97433Y38091D01*
Y36674D01*
X96725Y35966D01*
X94601D01*
X101682Y38091D02*
X100974Y38799D01*
X99558D01*
X98850Y38091D01*
Y35258D01*
X99558Y34550D01*
X100974D01*
X101682Y35258D01*
X105931Y34550D02*
X103098D01*
X105931Y37382D01*
Y38091D01*
X105223Y38799D01*
X103806D01*
X103098Y38091D01*
X67101Y34050D02*
Y38299D01*
X69225D01*
X69933Y37591D01*
Y36174D01*
X69225Y35466D01*
X67101D01*
X74182Y37591D02*
X73474Y38299D01*
X72058D01*
X71350Y37591D01*
Y34758D01*
X72058Y34050D01*
X73474D01*
X74182Y34758D01*
X75598Y34050D02*
X77014D01*
X76306D01*
Y38299D01*
X75598Y37591D01*
D13*
X197601Y40050D02*
Y50672D01*
X201142Y47131D01*
X204682Y50672D01*
Y40050D01*
X215304Y50672D02*
X208223D01*
Y40050D01*
X215304D01*
X208223Y45361D02*
X211763D01*
X225925Y48901D02*
X224155Y50672D01*
X220614D01*
X218844Y48901D01*
Y41820D01*
X220614Y40050D01*
X224155D01*
X225925Y41820D01*
Y45361D01*
X222385D01*
X229466Y40050D02*
Y47131D01*
X233006Y50672D01*
X236547Y47131D01*
Y40050D01*
Y45361D01*
X229466D01*
X257790Y40050D02*
X250709D01*
X257790Y47131D01*
Y48901D01*
X256020Y50672D01*
X252479D01*
X250709Y48901D01*
X268411Y50672D02*
X261330D01*
Y45361D01*
X264871Y47131D01*
X266641D01*
X268411Y45361D01*
Y41820D01*
X266641Y40050D01*
X263101D01*
X261330Y41820D01*
X279033Y50672D02*
X275493Y48901D01*
X271952Y45361D01*
Y41820D01*
X273722Y40050D01*
X277263D01*
X279033Y41820D01*
Y43591D01*
X277263Y45361D01*
X271952D01*
X282574Y48901D02*
X284344Y50672D01*
X287884D01*
X289655Y48901D01*
Y41820D01*
X287884Y40050D01*
X284344D01*
X282574Y41820D01*
Y48901D01*
D14*
X346993Y92550D02*
X352601D01*
Y95354D01*
X351666Y96289D01*
X347927D01*
X346993Y95354D01*
Y92550D01*
Y98158D02*
Y100028D01*
Y99093D01*
X352601D01*
Y98158D01*
Y100028D01*
X347927Y106570D02*
X346993Y105636D01*
Y103766D01*
X347927Y102832D01*
X351666D01*
X352601Y103766D01*
Y105636D01*
X351666Y106570D01*
X349797D01*
Y104701D01*
X346993Y108440D02*
Y110309D01*
Y109375D01*
X352601D01*
Y108440D01*
Y110309D01*
X346993Y113113D02*
Y116852D01*
Y114983D01*
X352601D01*
Y118722D02*
X348862D01*
X346993Y120591D01*
X348862Y122460D01*
X352601D01*
X349797D01*
Y118722D01*
X346993Y124330D02*
X352601D01*
Y128068D01*
X217601Y29050D02*
Y32789D01*
X219470Y34658D01*
X221340Y32789D01*
Y29050D01*
Y31854D01*
X217601D01*
X223209Y29050D02*
Y34658D01*
X226948Y29050D01*
Y34658D01*
X228817Y29050D02*
Y32789D01*
X230687Y34658D01*
X232556Y32789D01*
Y29050D01*
Y31854D01*
X228817D01*
X234426Y34658D02*
Y29050D01*
X238164D01*
X242838Y34658D02*
X240968D01*
X240034Y33724D01*
Y29985D01*
X240968Y29050D01*
X242838D01*
X243773Y29985D01*
Y33724D01*
X242838Y34658D01*
X249381Y33724D02*
X248446Y34658D01*
X246577D01*
X245642Y33724D01*
Y29985D01*
X246577Y29050D01*
X248446D01*
X249381Y29985D01*
Y31854D01*
X247511D01*
X268075Y34658D02*
X269944D01*
X269009D01*
Y29050D01*
X268075D01*
X269944D01*
X272748D02*
Y34658D01*
X276487Y29050D01*
Y34658D01*
D15*
X364362Y208550D02*
X361870D01*
Y206681D01*
X363116Y207304D01*
X363739D01*
X364362Y206681D01*
Y205434D01*
X363739Y204811D01*
X362493D01*
X361870Y205434D01*
X365609Y208550D02*
Y206058D01*
X366855Y204811D01*
X368101Y206058D01*
Y208550D01*
D16*
X244652Y118753D02*
X246068D01*
X245360D01*
Y123002D01*
X244652Y122294D01*
D17*
X197601Y55050D02*
Y61281D01*
X200717Y64397D01*
X203832Y61281D01*
Y55050D01*
Y59724D01*
X197601D01*
X206948Y61281D02*
Y55050D01*
Y58166D01*
X208506Y59724D01*
X210064Y61281D01*
X211621D01*
X222526Y64397D02*
Y55050D01*
X217853D01*
X216295Y56608D01*
Y59724D01*
X217853Y61281D01*
X222526D01*
X225642D02*
Y56608D01*
X227200Y55050D01*
X231873D01*
Y61281D01*
X234989Y55050D02*
X238105D01*
X236547D01*
Y61281D01*
X234989D01*
X242778Y55050D02*
Y61281D01*
X247452D01*
X249009Y59724D01*
Y55050D01*
X253683D02*
X256799D01*
X258356Y56608D01*
Y59724D01*
X256799Y61281D01*
X253683D01*
X252125Y59724D01*
Y56608D01*
X253683Y55050D01*
D18*
X98701Y66550D02*
Y69269D01*
X100061D01*
X100514Y68816D01*
Y67910D01*
X100061Y67456D01*
X98701D01*
X99607D02*
X100514Y66550D01*
X103233Y69269D02*
X101420D01*
Y66550D01*
X103233D01*
X101420Y67910D02*
X102327D01*
X105952Y68816D02*
X105499Y69269D01*
X104592D01*
X104139Y68816D01*
Y68363D01*
X104592Y67910D01*
X105499D01*
X105952Y67456D01*
Y67003D01*
X105499Y66550D01*
X104592D01*
X104139Y67003D01*
X108671Y69269D02*
X106858D01*
Y66550D01*
X108671D01*
X106858Y67910D02*
X107765D01*
X109578Y69269D02*
X111390D01*
X110484D01*
Y66550D01*
X112297Y67910D02*
X114109D01*
X116829Y69269D02*
X115016D01*
Y66550D01*
X116829D01*
X115016Y67910D02*
X115922D01*
X117735Y66550D02*
Y69269D01*
X119548Y66550D01*
Y69269D01*
D19*
X10781Y147289D02*
X15030Y150121D01*
X10781D02*
X15030Y147289D01*
Y154370D02*
Y151538D01*
X12197Y154370D01*
X11489D01*
X10781Y153662D01*
Y152246D01*
X11489Y151538D01*
D20*
X285622Y146322D02*
X284035D01*
X283242Y145529D01*
Y142357D01*
X284035Y141563D01*
X285622D01*
X286415Y142357D01*
Y145529D01*
X285622Y146322D01*
X288001Y141563D02*
Y146322D01*
X291173Y141563D01*
Y146322D01*
M02*
