G04*
G04 #@! TF.GenerationSoftware,Altium Limited,Altium Designer,24.1.2 (44)*
G04*
G04 Layer_Physical_Order=1*
G04 Layer_Color=255*
%FSLAX25Y25*%
%MOIN*%
G70*
G04*
G04 #@! TF.SameCoordinates,648C5357-8596-4598-863F-5FE4D4354F98*
G04*
G04*
G04 #@! TF.FilePolarity,Positive*
G04*
G01*
G75*
%ADD10C,0.01600*%
G04:AMPARAMS|DCode=30|XSize=62.99mil|YSize=55.12mil|CornerRadius=4.13mil|HoleSize=0mil|Usage=FLASHONLY|Rotation=0.000|XOffset=0mil|YOffset=0mil|HoleType=Round|Shape=RoundedRectangle|*
%AMROUNDEDRECTD30*
21,1,0.06299,0.04685,0,0,0.0*
21,1,0.05472,0.05512,0,0,0.0*
1,1,0.00827,0.02736,-0.02343*
1,1,0.00827,-0.02736,-0.02343*
1,1,0.00827,-0.02736,0.02343*
1,1,0.00827,0.02736,0.02343*
%
%ADD30ROUNDEDRECTD30*%
G04:AMPARAMS|DCode=38|XSize=128.11mil|YSize=128.11mil|CornerRadius=9.61mil|HoleSize=0mil|Usage=FLASHONLY|Rotation=270.000|XOffset=0mil|YOffset=0mil|HoleType=Round|Shape=RoundedRectangle|*
%AMROUNDEDRECTD38*
21,1,0.12811,0.10889,0,0,270.0*
21,1,0.10889,0.12811,0,0,270.0*
1,1,0.01922,-0.05445,-0.05445*
1,1,0.01922,-0.05445,0.05445*
1,1,0.01922,0.05445,0.05445*
1,1,0.01922,0.05445,-0.05445*
%
%ADD38ROUNDEDRECTD38*%
G04:AMPARAMS|DCode=86|XSize=59.06mil|YSize=11.81mil|CornerRadius=1.18mil|HoleSize=0mil|Usage=FLASHONLY|Rotation=0.000|XOffset=0mil|YOffset=0mil|HoleType=Round|Shape=RoundedRectangle|*
%AMROUNDEDRECTD86*
21,1,0.05906,0.00945,0,0,0.0*
21,1,0.05670,0.01181,0,0,0.0*
1,1,0.00236,0.02835,-0.00472*
1,1,0.00236,-0.02835,-0.00472*
1,1,0.00236,-0.02835,0.00472*
1,1,0.00236,0.02835,0.00472*
%
%ADD86ROUNDEDRECTD86*%
G04:AMPARAMS|DCode=87|XSize=11.81mil|YSize=59.06mil|CornerRadius=1.18mil|HoleSize=0mil|Usage=FLASHONLY|Rotation=0.000|XOffset=0mil|YOffset=0mil|HoleType=Round|Shape=RoundedRectangle|*
%AMROUNDEDRECTD87*
21,1,0.01181,0.05670,0,0,0.0*
21,1,0.00945,0.05906,0,0,0.0*
1,1,0.00236,0.00472,-0.02835*
1,1,0.00236,-0.00472,-0.02835*
1,1,0.00236,-0.00472,0.02835*
1,1,0.00236,0.00472,0.02835*
%
%ADD87ROUNDEDRECTD87*%
G04:AMPARAMS|DCode=88|XSize=43.31mil|YSize=35.37mil|CornerRadius=14.15mil|HoleSize=0mil|Usage=FLASHONLY|Rotation=0.000|XOffset=0mil|YOffset=0mil|HoleType=Round|Shape=RoundedRectangle|*
%AMROUNDEDRECTD88*
21,1,0.04331,0.00707,0,0,0.0*
21,1,0.01501,0.03537,0,0,0.0*
1,1,0.02830,0.00751,-0.00354*
1,1,0.02830,-0.00751,-0.00354*
1,1,0.02830,-0.00751,0.00354*
1,1,0.02830,0.00751,0.00354*
%
%ADD88ROUNDEDRECTD88*%
G04:AMPARAMS|DCode=89|XSize=47.24mil|YSize=39.37mil|CornerRadius=1.97mil|HoleSize=0mil|Usage=FLASHONLY|Rotation=270.000|XOffset=0mil|YOffset=0mil|HoleType=Round|Shape=RoundedRectangle|*
%AMROUNDEDRECTD89*
21,1,0.04724,0.03543,0,0,270.0*
21,1,0.04330,0.03937,0,0,270.0*
1,1,0.00394,-0.01772,-0.02165*
1,1,0.00394,-0.01772,0.02165*
1,1,0.00394,0.01772,0.02165*
1,1,0.00394,0.01772,-0.02165*
%
%ADD89ROUNDEDRECTD89*%
G04:AMPARAMS|DCode=90|XSize=55.12mil|YSize=70.87mil|CornerRadius=1.93mil|HoleSize=0mil|Usage=FLASHONLY|Rotation=90.000|XOffset=0mil|YOffset=0mil|HoleType=Round|Shape=RoundedRectangle|*
%AMROUNDEDRECTD90*
21,1,0.05512,0.06701,0,0,90.0*
21,1,0.05126,0.07087,0,0,90.0*
1,1,0.00386,0.03351,0.02563*
1,1,0.00386,0.03351,-0.02563*
1,1,0.00386,-0.03351,-0.02563*
1,1,0.00386,-0.03351,0.02563*
%
%ADD90ROUNDEDRECTD90*%
G04:AMPARAMS|DCode=91|XSize=11.81mil|YSize=47.24mil|CornerRadius=1.18mil|HoleSize=0mil|Usage=FLASHONLY|Rotation=90.000|XOffset=0mil|YOffset=0mil|HoleType=Round|Shape=RoundedRectangle|*
%AMROUNDEDRECTD91*
21,1,0.01181,0.04488,0,0,90.0*
21,1,0.00945,0.04724,0,0,90.0*
1,1,0.00236,0.02244,0.00472*
1,1,0.00236,0.02244,-0.00472*
1,1,0.00236,-0.02244,-0.00472*
1,1,0.00236,-0.02244,0.00472*
%
%ADD91ROUNDEDRECTD91*%
G04:AMPARAMS|DCode=92|XSize=43.31mil|YSize=35.37mil|CornerRadius=14.15mil|HoleSize=0mil|Usage=FLASHONLY|Rotation=90.000|XOffset=0mil|YOffset=0mil|HoleType=Round|Shape=RoundedRectangle|*
%AMROUNDEDRECTD92*
21,1,0.04331,0.00707,0,0,90.0*
21,1,0.01501,0.03537,0,0,90.0*
1,1,0.02830,0.00354,0.00751*
1,1,0.02830,0.00354,-0.00751*
1,1,0.02830,-0.00354,-0.00751*
1,1,0.02830,-0.00354,0.00751*
%
%ADD92ROUNDEDRECTD92*%
G04:AMPARAMS|DCode=93|XSize=21.65mil|YSize=47.24mil|CornerRadius=1.95mil|HoleSize=0mil|Usage=FLASHONLY|Rotation=180.000|XOffset=0mil|YOffset=0mil|HoleType=Round|Shape=RoundedRectangle|*
%AMROUNDEDRECTD93*
21,1,0.02165,0.04334,0,0,180.0*
21,1,0.01775,0.04724,0,0,180.0*
1,1,0.00390,-0.00888,0.02167*
1,1,0.00390,0.00888,0.02167*
1,1,0.00390,0.00888,-0.02167*
1,1,0.00390,-0.00888,-0.02167*
%
%ADD93ROUNDEDRECTD93*%
G04:AMPARAMS|DCode=94|XSize=35.37mil|YSize=43.31mil|CornerRadius=14.15mil|HoleSize=0mil|Usage=FLASHONLY|Rotation=0.000|XOffset=0mil|YOffset=0mil|HoleType=Round|Shape=RoundedRectangle|*
%AMROUNDEDRECTD94*
21,1,0.03537,0.01501,0,0,0.0*
21,1,0.00707,0.04331,0,0,0.0*
1,1,0.02830,0.00354,-0.00751*
1,1,0.02830,-0.00354,-0.00751*
1,1,0.02830,-0.00354,0.00751*
1,1,0.02830,0.00354,0.00751*
%
%ADD94ROUNDEDRECTD94*%
G04:AMPARAMS|DCode=95|XSize=19.69mil|YSize=25.59mil|CornerRadius=1.97mil|HoleSize=0mil|Usage=FLASHONLY|Rotation=90.000|XOffset=0mil|YOffset=0mil|HoleType=Round|Shape=RoundedRectangle|*
%AMROUNDEDRECTD95*
21,1,0.01969,0.02165,0,0,90.0*
21,1,0.01575,0.02559,0,0,90.0*
1,1,0.00394,0.01083,0.00788*
1,1,0.00394,0.01083,-0.00788*
1,1,0.00394,-0.01083,-0.00788*
1,1,0.00394,-0.01083,0.00788*
%
%ADD95ROUNDEDRECTD95*%
G04:AMPARAMS|DCode=96|XSize=40mil|YSize=40mil|CornerRadius=20mil|HoleSize=0mil|Usage=FLASHONLY|Rotation=0.000|XOffset=0mil|YOffset=0mil|HoleType=Round|Shape=RoundedRectangle|*
%AMROUNDEDRECTD96*
21,1,0.04000,0.00000,0,0,0.0*
21,1,0.00000,0.04000,0,0,0.0*
1,1,0.04000,0.00000,0.00000*
1,1,0.04000,0.00000,0.00000*
1,1,0.04000,0.00000,0.00000*
1,1,0.04000,0.00000,0.00000*
%
%ADD96ROUNDEDRECTD96*%
G04:AMPARAMS|DCode=97|XSize=35.37mil|YSize=43.31mil|CornerRadius=14.15mil|HoleSize=0mil|Usage=FLASHONLY|Rotation=90.000|XOffset=0mil|YOffset=0mil|HoleType=Round|Shape=RoundedRectangle|*
%AMROUNDEDRECTD97*
21,1,0.03537,0.01501,0,0,90.0*
21,1,0.00707,0.04331,0,0,90.0*
1,1,0.02830,0.00751,0.00354*
1,1,0.02830,0.00751,-0.00354*
1,1,0.02830,-0.00751,-0.00354*
1,1,0.02830,-0.00751,0.00354*
%
%ADD97ROUNDEDRECTD97*%
G04:AMPARAMS|DCode=98|XSize=78.74mil|YSize=27.56mil|CornerRadius=1.93mil|HoleSize=0mil|Usage=FLASHONLY|Rotation=0.000|XOffset=0mil|YOffset=0mil|HoleType=Round|Shape=RoundedRectangle|*
%AMROUNDEDRECTD98*
21,1,0.07874,0.02370,0,0,0.0*
21,1,0.07488,0.02756,0,0,0.0*
1,1,0.00386,0.03744,-0.01185*
1,1,0.00386,-0.03744,-0.01185*
1,1,0.00386,-0.03744,0.01185*
1,1,0.00386,0.03744,0.01185*
%
%ADD98ROUNDEDRECTD98*%
G04:AMPARAMS|DCode=99|XSize=39.37mil|YSize=39.37mil|CornerRadius=1.97mil|HoleSize=0mil|Usage=FLASHONLY|Rotation=0.000|XOffset=0mil|YOffset=0mil|HoleType=Round|Shape=RoundedRectangle|*
%AMROUNDEDRECTD99*
21,1,0.03937,0.03543,0,0,0.0*
21,1,0.03543,0.03937,0,0,0.0*
1,1,0.00394,0.01772,-0.01772*
1,1,0.00394,-0.01772,-0.01772*
1,1,0.00394,-0.01772,0.01772*
1,1,0.00394,0.01772,0.01772*
%
%ADD99ROUNDEDRECTD99*%
G04:AMPARAMS|DCode=100|XSize=47.24mil|YSize=39.37mil|CornerRadius=1.97mil|HoleSize=0mil|Usage=FLASHONLY|Rotation=180.000|XOffset=0mil|YOffset=0mil|HoleType=Round|Shape=RoundedRectangle|*
%AMROUNDEDRECTD100*
21,1,0.04724,0.03543,0,0,180.0*
21,1,0.04330,0.03937,0,0,180.0*
1,1,0.00394,-0.02165,0.01772*
1,1,0.00394,0.02165,0.01772*
1,1,0.00394,0.02165,-0.01772*
1,1,0.00394,-0.02165,-0.01772*
%
%ADD100ROUNDEDRECTD100*%
G04:AMPARAMS|DCode=101|XSize=11.02mil|YSize=27.56mil|CornerRadius=4.41mil|HoleSize=0mil|Usage=FLASHONLY|Rotation=270.000|XOffset=0mil|YOffset=0mil|HoleType=Round|Shape=RoundedRectangle|*
%AMROUNDEDRECTD101*
21,1,0.01102,0.01874,0,0,270.0*
21,1,0.00220,0.02756,0,0,270.0*
1,1,0.00882,-0.00937,-0.00110*
1,1,0.00882,-0.00937,0.00110*
1,1,0.00882,0.00937,0.00110*
1,1,0.00882,0.00937,-0.00110*
%
%ADD101ROUNDEDRECTD101*%
G04:AMPARAMS|DCode=102|XSize=11.02mil|YSize=27.56mil|CornerRadius=4.41mil|HoleSize=0mil|Usage=FLASHONLY|Rotation=180.000|XOffset=0mil|YOffset=0mil|HoleType=Round|Shape=RoundedRectangle|*
%AMROUNDEDRECTD102*
21,1,0.01102,0.01874,0,0,180.0*
21,1,0.00220,0.02756,0,0,180.0*
1,1,0.00882,-0.00110,0.00937*
1,1,0.00882,0.00110,0.00937*
1,1,0.00882,0.00110,-0.00937*
1,1,0.00882,-0.00110,-0.00937*
%
%ADD102ROUNDEDRECTD102*%
G04:AMPARAMS|DCode=103|XSize=46mil|YSize=63mil|CornerRadius=1.84mil|HoleSize=0mil|Usage=FLASHONLY|Rotation=0.000|XOffset=0mil|YOffset=0mil|HoleType=Round|Shape=RoundedRectangle|*
%AMROUNDEDRECTD103*
21,1,0.04600,0.05932,0,0,0.0*
21,1,0.04232,0.06300,0,0,0.0*
1,1,0.00368,0.02116,-0.02966*
1,1,0.00368,-0.02116,-0.02966*
1,1,0.00368,-0.02116,0.02966*
1,1,0.00368,0.02116,0.02966*
%
%ADD103ROUNDEDRECTD103*%
G04:AMPARAMS|DCode=104|XSize=31mil|YSize=35mil|CornerRadius=1.86mil|HoleSize=0mil|Usage=FLASHONLY|Rotation=270.000|XOffset=0mil|YOffset=0mil|HoleType=Round|Shape=RoundedRectangle|*
%AMROUNDEDRECTD104*
21,1,0.03100,0.03128,0,0,270.0*
21,1,0.02728,0.03500,0,0,270.0*
1,1,0.00372,-0.01564,-0.01364*
1,1,0.00372,-0.01564,0.01364*
1,1,0.00372,0.01564,0.01364*
1,1,0.00372,0.01564,-0.01364*
%
%ADD104ROUNDEDRECTD104*%
G04:AMPARAMS|DCode=105|XSize=47.24mil|YSize=47.24mil|CornerRadius=1.89mil|HoleSize=0mil|Usage=FLASHONLY|Rotation=90.000|XOffset=0mil|YOffset=0mil|HoleType=Round|Shape=RoundedRectangle|*
%AMROUNDEDRECTD105*
21,1,0.04724,0.04346,0,0,90.0*
21,1,0.04346,0.04724,0,0,90.0*
1,1,0.00378,0.02173,0.02173*
1,1,0.00378,0.02173,-0.02173*
1,1,0.00378,-0.02173,-0.02173*
1,1,0.00378,-0.02173,0.02173*
%
%ADD105ROUNDEDRECTD105*%
G04:AMPARAMS|DCode=106|XSize=74.8mil|YSize=133.86mil|CornerRadius=1.87mil|HoleSize=0mil|Usage=FLASHONLY|Rotation=90.000|XOffset=0mil|YOffset=0mil|HoleType=Round|Shape=RoundedRectangle|*
%AMROUNDEDRECTD106*
21,1,0.07480,0.13012,0,0,90.0*
21,1,0.07106,0.13386,0,0,90.0*
1,1,0.00374,0.06506,0.03553*
1,1,0.00374,0.06506,-0.03553*
1,1,0.00374,-0.06506,-0.03553*
1,1,0.00374,-0.06506,0.03553*
%
%ADD106ROUNDEDRECTD106*%
G04:AMPARAMS|DCode=107|XSize=141.73mil|YSize=86.61mil|CornerRadius=1.73mil|HoleSize=0mil|Usage=FLASHONLY|Rotation=90.000|XOffset=0mil|YOffset=0mil|HoleType=Round|Shape=RoundedRectangle|*
%AMROUNDEDRECTD107*
21,1,0.14173,0.08315,0,0,90.0*
21,1,0.13827,0.08661,0,0,90.0*
1,1,0.00346,0.04157,0.06913*
1,1,0.00346,0.04157,-0.06913*
1,1,0.00346,-0.04157,-0.06913*
1,1,0.00346,-0.04157,0.06913*
%
%ADD107ROUNDEDRECTD107*%
G04:AMPARAMS|DCode=108|XSize=48mil|YSize=88mil|CornerRadius=1.92mil|HoleSize=0mil|Usage=FLASHONLY|Rotation=90.000|XOffset=0mil|YOffset=0mil|HoleType=Round|Shape=RoundedRectangle|*
%AMROUNDEDRECTD108*
21,1,0.04800,0.08416,0,0,90.0*
21,1,0.04416,0.08800,0,0,90.0*
1,1,0.00384,0.04208,0.02208*
1,1,0.00384,0.04208,-0.02208*
1,1,0.00384,-0.04208,-0.02208*
1,1,0.00384,-0.04208,0.02208*
%
%ADD108ROUNDEDRECTD108*%
G04:AMPARAMS|DCode=109|XSize=94.49mil|YSize=94.49mil|CornerRadius=1.89mil|HoleSize=0mil|Usage=FLASHONLY|Rotation=180.000|XOffset=0mil|YOffset=0mil|HoleType=Round|Shape=RoundedRectangle|*
%AMROUNDEDRECTD109*
21,1,0.09449,0.09071,0,0,180.0*
21,1,0.09071,0.09449,0,0,180.0*
1,1,0.00378,-0.04536,0.04536*
1,1,0.00378,0.04536,0.04536*
1,1,0.00378,0.04536,-0.04536*
1,1,0.00378,-0.04536,-0.04536*
%
%ADD109ROUNDEDRECTD109*%
G04:AMPARAMS|DCode=110|XSize=118.11mil|YSize=55.12mil|CornerRadius=1.93mil|HoleSize=0mil|Usage=FLASHONLY|Rotation=90.000|XOffset=0mil|YOffset=0mil|HoleType=Round|Shape=RoundedRectangle|*
%AMROUNDEDRECTD110*
21,1,0.11811,0.05126,0,0,90.0*
21,1,0.11425,0.05512,0,0,90.0*
1,1,0.00386,0.02563,0.05713*
1,1,0.00386,0.02563,-0.05713*
1,1,0.00386,-0.02563,-0.05713*
1,1,0.00386,-0.02563,0.05713*
%
%ADD110ROUNDEDRECTD110*%
%ADD111C,0.00800*%
%ADD112C,0.01100*%
%ADD113C,0.01000*%
%ADD114C,0.02000*%
%ADD115C,0.01200*%
%ADD116C,0.03200*%
%ADD117C,0.02400*%
%ADD118C,0.04000*%
%ADD119C,0.05000*%
G04:AMPARAMS|DCode=120|XSize=190mil|YSize=190mil|CornerRadius=0mil|HoleSize=0mil|Usage=FLASHONLY|Rotation=90.000|XOffset=0mil|YOffset=0mil|HoleType=Round|Shape=Octagon|*
%AMOCTAGOND120*
4,1,8,0.04750,0.09500,-0.04750,0.09500,-0.09500,0.04750,-0.09500,-0.04750,-0.04750,-0.09500,0.04750,-0.09500,0.09500,-0.04750,0.09500,0.04750,0.04750,0.09500,0.0*
%
%ADD120OCTAGOND120*%

%ADD121C,0.08268*%
%ADD122O,0.05600X0.08960*%
%ADD123C,0.12598*%
G04:AMPARAMS|DCode=124|XSize=66mil|YSize=66mil|CornerRadius=0mil|HoleSize=0mil|Usage=FLASHONLY|Rotation=270.000|XOffset=0mil|YOffset=0mil|HoleType=Round|Shape=Octagon|*
%AMOCTAGOND124*
4,1,8,-0.01650,-0.03300,0.01650,-0.03300,0.03300,-0.01650,0.03300,0.01650,0.01650,0.03300,-0.01650,0.03300,-0.03300,0.01650,-0.03300,-0.01650,-0.01650,-0.03300,0.0*
%
%ADD124OCTAGOND124*%

G04:AMPARAMS|DCode=125|XSize=61.02mil|YSize=61.02mil|CornerRadius=0mil|HoleSize=0mil|Usage=FLASHONLY|Rotation=180.000|XOffset=0mil|YOffset=0mil|HoleType=Round|Shape=Octagon|*
%AMOCTAGOND125*
4,1,8,-0.03051,0.01526,-0.03051,-0.01526,-0.01526,-0.03051,0.01526,-0.03051,0.03051,-0.01526,0.03051,0.01526,0.01526,0.03051,-0.01526,0.03051,-0.03051,0.01526,0.0*
%
%ADD125OCTAGOND125*%

%ADD126C,0.12992*%
G04:AMPARAMS|DCode=127|XSize=61.02mil|YSize=61.02mil|CornerRadius=0mil|HoleSize=0mil|Usage=FLASHONLY|Rotation=270.000|XOffset=0mil|YOffset=0mil|HoleType=Round|Shape=Octagon|*
%AMOCTAGOND127*
4,1,8,-0.01526,-0.03051,0.01526,-0.03051,0.03051,-0.01526,0.03051,0.01526,0.01526,0.03051,-0.01526,0.03051,-0.03051,0.01526,-0.03051,-0.01526,-0.01526,-0.03051,0.0*
%
%ADD127OCTAGOND127*%

%ADD128C,0.03600*%
%ADD129C,0.04400*%
G36*
X387277Y202872D02*
Y159000D01*
X387369Y158295D01*
X387642Y157638D01*
X388074Y157074D01*
X397277Y147872D01*
Y21128D01*
X389168Y13019D01*
X389080Y13003D01*
X388585Y13144D01*
X388199Y14076D01*
X388066Y14307D01*
X387947Y14547D01*
X387258Y15578D01*
X387082Y15779D01*
X386919Y15991D01*
X386042Y16868D01*
X385830Y17031D01*
X385629Y17207D01*
X384598Y17896D01*
X384358Y18015D01*
X384127Y18148D01*
X382980Y18623D01*
X382723Y18692D01*
X382470Y18778D01*
X381253Y19020D01*
X380986Y19037D01*
X380721Y19072D01*
X379481D01*
X379216Y19037D01*
X378949Y19020D01*
X377732Y18778D01*
X377479Y18692D01*
X377221Y18623D01*
X376075Y18148D01*
X375844Y18015D01*
X375604Y17896D01*
X374573Y17207D01*
X374372Y17031D01*
X374160Y16868D01*
X373283Y15991D01*
X373120Y15779D01*
X372944Y15578D01*
X372255Y14547D01*
X372136Y14307D01*
X372003Y14076D01*
X371528Y12930D01*
X371459Y12672D01*
X371373Y12419D01*
X371131Y11202D01*
X371113Y10935D01*
X371079Y10670D01*
Y9430D01*
X371113Y9165D01*
X371131Y8898D01*
X371373Y7681D01*
X371459Y7428D01*
X371528Y7170D01*
X372003Y6024D01*
X372136Y5793D01*
X372255Y5553D01*
X372944Y4522D01*
X373120Y4321D01*
X373283Y4109D01*
X374160Y3232D01*
X374171Y3223D01*
X374001Y2723D01*
X61201D01*
X61031Y3223D01*
X61042Y3232D01*
X61919Y4109D01*
X62082Y4321D01*
X62258Y4522D01*
X62947Y5553D01*
X63066Y5793D01*
X63199Y6024D01*
X63674Y7170D01*
X63743Y7428D01*
X63829Y7681D01*
X64071Y8898D01*
X64088Y9165D01*
X64123Y9430D01*
Y10670D01*
X64088Y10935D01*
X64071Y11202D01*
X63829Y12419D01*
X63743Y12672D01*
X63674Y12930D01*
X63199Y14076D01*
X63066Y14307D01*
X62947Y14547D01*
X62258Y15578D01*
X62082Y15779D01*
X61919Y15991D01*
X61042Y16868D01*
X60830Y17031D01*
X60629Y17207D01*
X59598Y17896D01*
X59358Y18015D01*
X59127Y18148D01*
X57981Y18623D01*
X57723Y18692D01*
X57470Y18778D01*
X56253Y19020D01*
X55986Y19037D01*
X55721Y19072D01*
X54481D01*
X54216Y19037D01*
X53949Y19020D01*
X52732Y18778D01*
X52479Y18692D01*
X52222Y18623D01*
X51075Y18148D01*
X50844Y18015D01*
X50604Y17896D01*
X49573Y17207D01*
X49372Y17031D01*
X49160Y16868D01*
X48283Y15991D01*
X48120Y15779D01*
X47944Y15578D01*
X47255Y14547D01*
X47136Y14307D01*
X47003Y14076D01*
X46528Y12930D01*
X46459Y12672D01*
X46373Y12419D01*
X46131Y11202D01*
X46113Y10935D01*
X46079Y10670D01*
Y9430D01*
X46113Y9165D01*
X46131Y8898D01*
X46373Y7681D01*
X46459Y7428D01*
X46528Y7170D01*
X47003Y6024D01*
X47136Y5793D01*
X47255Y5553D01*
X47944Y4522D01*
X48120Y4321D01*
X48283Y4109D01*
X49160Y3232D01*
X49171Y3223D01*
X49001Y2723D01*
X40378D01*
X40186Y3185D01*
X44801Y7800D01*
Y18300D01*
X41513Y21588D01*
X41704Y22050D01*
X51451D01*
X53994Y24593D01*
X57819Y20768D01*
X58487Y20255D01*
X59075Y20011D01*
X64062Y15024D01*
X64306Y14436D01*
X64819Y13768D01*
X69819Y8768D01*
X70487Y8255D01*
X70488Y8254D01*
Y6515D01*
X70596Y5973D01*
X70903Y5513D01*
X71363Y5206D01*
X71904Y5098D01*
X80976D01*
X81517Y5206D01*
X81977Y5513D01*
X82284Y5973D01*
X82392Y6515D01*
Y15586D01*
X82284Y16127D01*
X81977Y16587D01*
X81517Y16894D01*
X80976Y17002D01*
X71904D01*
X71363Y16894D01*
X71038Y16677D01*
X70140Y17576D01*
X69896Y18164D01*
X69383Y18832D01*
X62883Y25332D01*
X62215Y25845D01*
X61627Y26089D01*
X56801Y30915D01*
Y38100D01*
X51451Y43450D01*
X40751D01*
X35401Y38100D01*
Y27400D01*
X38789Y24012D01*
X38598Y23550D01*
X29704D01*
X29513Y24012D01*
X33001Y27500D01*
Y38000D01*
X27751Y43250D01*
X17251D01*
X12001Y38000D01*
Y27500D01*
X17251Y22250D01*
X27098D01*
X27289Y21788D01*
X23801Y18300D01*
Y7800D01*
X28416Y3185D01*
X28225Y2723D01*
X14463D01*
X14341Y3208D01*
X14708Y3404D01*
X15828Y4323D01*
X16747Y5443D01*
X17430Y6721D01*
X17851Y8108D01*
X17993Y9550D01*
X17851Y10992D01*
X17430Y12379D01*
X16747Y13656D01*
X15828Y14777D01*
X14708Y15696D01*
X13430Y16379D01*
X12043Y16800D01*
X10601Y16942D01*
X9159Y16800D01*
X7772Y16379D01*
X6494Y15696D01*
X5374Y14777D01*
X4455Y13656D01*
X3772Y12379D01*
X3351Y10992D01*
X3223Y9691D01*
X2723Y9715D01*
Y50726D01*
X38201D01*
X38669Y50820D01*
X39066Y51085D01*
X39331Y51482D01*
X39424Y51950D01*
Y67226D01*
X40831D01*
X41089Y66838D01*
X41550Y66531D01*
X42093Y66423D01*
X50509D01*
X51052Y66531D01*
X51513Y66838D01*
X51820Y67299D01*
X51928Y67842D01*
Y72258D01*
X51820Y72801D01*
X51513Y73262D01*
X51052Y73569D01*
X50509Y73677D01*
X42093D01*
X41550Y73569D01*
X41089Y73262D01*
X40831Y72874D01*
X39424D01*
Y83478D01*
X39887Y83669D01*
X41099Y82457D01*
X41089Y82362D01*
X40782Y81901D01*
X40674Y81358D01*
Y76942D01*
X40782Y76399D01*
X41089Y75938D01*
X41550Y75631D01*
X42093Y75523D01*
X50134D01*
X53251Y72406D01*
X53303Y72014D01*
X53566Y71378D01*
X53985Y70831D01*
X54532Y70412D01*
X55168Y70149D01*
X55560Y70097D01*
X56329Y69328D01*
X56138Y68866D01*
X55850D01*
X54908Y68678D01*
X54109Y68145D01*
X53576Y67346D01*
X53397Y66450D01*
X56601D01*
Y66050D01*
X57001D01*
Y63234D01*
X57020D01*
X57081Y63198D01*
X57356Y62805D01*
X57368Y62741D01*
X57277Y62050D01*
Y52550D01*
X57373Y51819D01*
X57655Y51138D01*
X58104Y50553D01*
X65155Y43502D01*
X65740Y43053D01*
X66421Y42771D01*
X67152Y42675D01*
X68618D01*
Y39786D01*
X68726Y39243D01*
X69034Y38782D01*
X69494Y38474D01*
X70038Y38366D01*
X75164D01*
X75644Y38462D01*
X87053Y27053D01*
X87638Y26604D01*
X88319Y26322D01*
X89050Y26226D01*
X91373D01*
Y17002D01*
X89227D01*
X88684Y16894D01*
X88225Y16587D01*
X87918Y16127D01*
X87810Y15586D01*
Y6515D01*
X87918Y5973D01*
X88225Y5513D01*
X88684Y5206D01*
X89227Y5098D01*
X98298D01*
X98839Y5206D01*
X99299Y5513D01*
X99606Y5973D01*
X99714Y6515D01*
Y15586D01*
X99606Y16127D01*
X99299Y16587D01*
X98839Y16894D01*
X98298Y17002D01*
X97829D01*
Y19500D01*
X98038Y19672D01*
X100201D01*
Y26601D01*
Y33530D01*
X98038D01*
X97572Y33437D01*
X97178Y33174D01*
X96914Y32779D01*
X96822Y32314D01*
Y31945D01*
X96373Y31724D01*
X96215Y31845D01*
X95436Y32168D01*
X94601Y32278D01*
X93766Y32168D01*
X93057Y31874D01*
X90220D01*
X76584Y45510D01*
Y51212D01*
X76476Y51755D01*
X76168Y52216D01*
X75708Y52524D01*
X75164Y52632D01*
X70038D01*
X69494Y52524D01*
X69034Y52216D01*
X68726Y51755D01*
X68618Y51212D01*
Y48734D01*
X68118Y48527D01*
X62925Y53720D01*
Y57308D01*
X63425Y57555D01*
X63588Y57429D01*
X64318Y57127D01*
X65101Y57024D01*
X65884Y57127D01*
X66614Y57429D01*
X67241Y57910D01*
X67482Y58225D01*
X67810Y58495D01*
X68163Y58325D01*
X68316Y58223D01*
X68861Y58114D01*
X71027D01*
X71572Y58223D01*
X72034Y58531D01*
X72105Y58638D01*
X72540Y58725D01*
X72591Y58759D01*
X73082Y58661D01*
X73168Y58531D01*
X73630Y58223D01*
X74175Y58114D01*
X76341D01*
X76886Y58223D01*
X77287Y58491D01*
X103717D01*
X103987Y58086D01*
X104445Y57780D01*
X104985Y57673D01*
X109217D01*
X109757Y57780D01*
X110101Y58010D01*
X110445Y57780D01*
X110985Y57673D01*
X111266D01*
Y51395D01*
X110878Y51039D01*
X110601Y51076D01*
X109818Y50973D01*
X109088Y50670D01*
X108461Y50190D01*
X107981Y49563D01*
X107678Y48833D01*
X107575Y48050D01*
X107678Y47267D01*
X107981Y46537D01*
X108461Y45910D01*
X109088Y45430D01*
X109818Y45127D01*
X110601Y45024D01*
X111384Y45127D01*
X112114Y45430D01*
X112741Y45910D01*
X113222Y46537D01*
X113524Y47267D01*
X113627Y48050D01*
X113577Y48430D01*
X114399Y49252D01*
X114797Y49848D01*
X114936Y50550D01*
Y57673D01*
X115217D01*
X115757Y57780D01*
X116215Y58086D01*
X116521Y58544D01*
X116628Y59084D01*
Y65016D01*
X116521Y65556D01*
X116215Y66014D01*
X116210Y66063D01*
X122361Y72215D01*
X138266D01*
Y68226D01*
X136750D01*
X136207Y68118D01*
X135746Y67810D01*
X135438Y67350D01*
X135330Y66806D01*
Y66078D01*
X135294D01*
X134592Y65939D01*
X133996Y65541D01*
X132497Y64041D01*
X131350D01*
X130668Y63951D01*
X130032Y63688D01*
X129485Y63269D01*
X129066Y62722D01*
X128803Y62086D01*
X128713Y61404D01*
Y60696D01*
X128803Y60014D01*
X129066Y59378D01*
X129485Y58831D01*
X130032Y58412D01*
X130668Y58149D01*
X131350Y58059D01*
X132852D01*
X133534Y58149D01*
X134170Y58412D01*
X134717Y58831D01*
X135136Y59378D01*
X135399Y60014D01*
X135438Y60306D01*
X135971Y60526D01*
X136207Y60368D01*
X136750Y60260D01*
X143452D01*
X143995Y60368D01*
X144456Y60676D01*
X144764Y61136D01*
X144872Y61680D01*
Y66806D01*
X144764Y67350D01*
X144456Y67810D01*
X143995Y68118D01*
X143452Y68226D01*
X141936D01*
Y74290D01*
X143361Y75715D01*
X171485D01*
X172875Y74324D01*
X173438Y73949D01*
X174101Y73817D01*
X183301D01*
X183964Y73949D01*
X184527Y74324D01*
X185397Y75195D01*
X185615Y75340D01*
X186002Y75919D01*
X186013Y75975D01*
X186793D01*
X187308Y76078D01*
X187465Y76182D01*
X187821Y76094D01*
X187991Y75590D01*
X184682Y72281D01*
X171818D01*
X171264Y72651D01*
X170601Y72783D01*
X165101D01*
X164438Y72651D01*
X163875Y72276D01*
X160375Y68776D01*
X160000Y68213D01*
X159868Y67550D01*
Y64041D01*
X158850D01*
X158168Y63951D01*
X157532Y63688D01*
X156985Y63269D01*
X156724Y62928D01*
X156197Y63015D01*
X156157Y63216D01*
X155849Y63676D01*
X155389Y63984D01*
X154845Y64092D01*
X147357D01*
X146813Y63984D01*
X146353Y63676D01*
X146045Y63216D01*
X145937Y62672D01*
Y60302D01*
X146045Y59758D01*
X146325Y59338D01*
X146233Y59201D01*
X146141Y58735D01*
Y57950D01*
X151101D01*
Y57150D01*
X146141D01*
Y56365D01*
X146233Y55900D01*
X146325Y55761D01*
X146045Y55342D01*
X145937Y54798D01*
Y52428D01*
X146045Y51884D01*
X146353Y51424D01*
X146813Y51116D01*
X147357Y51008D01*
X154845D01*
X155389Y51116D01*
X155849Y51424D01*
X156154Y51880D01*
X156948D01*
X156985Y51831D01*
X157532Y51412D01*
X158168Y51149D01*
X158850Y51059D01*
X160352D01*
X161034Y51149D01*
X161670Y51412D01*
X162217Y51831D01*
X162636Y52378D01*
X162899Y53014D01*
X162957Y53455D01*
X165327Y55824D01*
X165702Y56387D01*
X165834Y57050D01*
Y65832D01*
X167319Y67317D01*
X167601D01*
X168114Y67419D01*
X187227D01*
X187851Y67543D01*
X188381Y67896D01*
X192008Y71524D01*
X192470Y71332D01*
Y56050D01*
X192594Y55426D01*
X192947Y54896D01*
X199201Y48643D01*
X199084Y48363D01*
X198960Y48177D01*
X198355Y48057D01*
X197826Y47703D01*
X197255Y47133D01*
X196756Y47186D01*
X196621Y47513D01*
X196140Y48140D01*
X195513Y48621D01*
X194783Y48923D01*
X194000Y49026D01*
X193217Y48923D01*
X192487Y48621D01*
X191860Y48140D01*
X191379Y47513D01*
X191077Y46783D01*
X190974Y46000D01*
X191077Y45217D01*
X191379Y44487D01*
X191860Y43860D01*
X192004Y43750D01*
Y43250D01*
X191860Y43140D01*
X191379Y42513D01*
X191077Y41783D01*
X190974Y41000D01*
X191077Y40217D01*
X191379Y39487D01*
X191860Y38860D01*
X192487Y38379D01*
X193217Y38077D01*
X194000Y37974D01*
X194783Y38077D01*
X195513Y38379D01*
X196140Y38860D01*
X196216Y38960D01*
X196783Y38877D01*
X196981Y38399D01*
X197461Y37772D01*
X198088Y37291D01*
X198611Y37075D01*
X198771Y36527D01*
X197925Y35681D01*
X195631D01*
X195241Y36190D01*
X194614Y36671D01*
X193884Y36973D01*
X193101Y37076D01*
X192318Y36973D01*
X191588Y36671D01*
X190961Y36190D01*
X190480Y35563D01*
X190178Y34833D01*
X190138Y34530D01*
X189945Y34382D01*
X189602Y34288D01*
X189396Y34428D01*
X189388Y34429D01*
X189381Y34434D01*
X188999Y34510D01*
X188617Y34589D01*
X186800Y34604D01*
X186710Y34722D01*
X186083Y35203D01*
X185353Y35505D01*
X184570Y35608D01*
X183787Y35505D01*
X183057Y35203D01*
X182430Y34722D01*
X181949Y34095D01*
X181647Y33365D01*
X181544Y32582D01*
X181647Y31799D01*
X181949Y31069D01*
X182430Y30442D01*
X183057Y29961D01*
X183787Y29659D01*
X184570Y29556D01*
X185353Y29659D01*
X186083Y29961D01*
X186710Y30442D01*
X186773Y30525D01*
X187750Y30518D01*
X189659Y28608D01*
X190321Y28166D01*
X191101Y28011D01*
X195101D01*
X195881Y28166D01*
X196543Y28608D01*
X197446Y29511D01*
X199101D01*
X199478Y29586D01*
X199855Y29656D01*
X199867Y29663D01*
X199881Y29666D01*
X200201Y29880D01*
X200523Y30088D01*
X207329Y36711D01*
X253349D01*
X253540Y36249D01*
X253283Y35991D01*
X253120Y35779D01*
X252944Y35578D01*
X252255Y34547D01*
X252136Y34307D01*
X252003Y34076D01*
X251528Y32930D01*
X251459Y32672D01*
X251373Y32419D01*
X251131Y31202D01*
X251114Y30935D01*
X251079Y30670D01*
Y29430D01*
X251114Y29165D01*
X251131Y28898D01*
X251373Y27681D01*
X251459Y27428D01*
X251528Y27171D01*
X252003Y26024D01*
X252136Y25793D01*
X252255Y25553D01*
X252944Y24522D01*
X253120Y24321D01*
X253283Y24109D01*
X254160Y23232D01*
X254372Y23069D01*
X254573Y22893D01*
X255604Y22204D01*
X255844Y22085D01*
X256075Y21952D01*
X257222Y21477D01*
X257479Y21408D01*
X257732Y21322D01*
X258949Y21080D01*
X259216Y21062D01*
X259481Y21028D01*
X260721D01*
X260986Y21062D01*
X261253Y21080D01*
X262470Y21322D01*
X262723Y21408D01*
X262981Y21477D01*
X264127Y21952D01*
X264358Y22085D01*
X264598Y22204D01*
X265629Y22893D01*
X265830Y23069D01*
X266042Y23232D01*
X266919Y24109D01*
X267082Y24321D01*
X267258Y24522D01*
X267947Y25553D01*
X268066Y25793D01*
X268199Y26024D01*
X268674Y27171D01*
X268743Y27428D01*
X268829Y27681D01*
X269071Y28898D01*
X269088Y29165D01*
X269123Y29430D01*
Y30670D01*
X269088Y30935D01*
X269071Y31202D01*
X268829Y32419D01*
X268743Y32672D01*
X268674Y32930D01*
X268199Y34076D01*
X268066Y34307D01*
X267947Y34547D01*
X267258Y35578D01*
X267082Y35779D01*
X266919Y35991D01*
X266662Y36249D01*
X266853Y36711D01*
X283056D01*
X287159Y32608D01*
X287821Y32166D01*
X288601Y32011D01*
X307982D01*
X308088Y31929D01*
X308818Y31627D01*
X309601Y31524D01*
X310384Y31627D01*
X311114Y31929D01*
X311741Y32410D01*
X312222Y33037D01*
X312524Y33767D01*
X312627Y34550D01*
X312524Y35333D01*
X312222Y36063D01*
X311741Y36690D01*
X311114Y37170D01*
X310384Y37473D01*
X309601Y37576D01*
X308818Y37473D01*
X308088Y37170D01*
X307461Y36690D01*
X307001Y36089D01*
X305601D01*
X305409Y36551D01*
X307277Y38419D01*
X314425D01*
X316611Y36233D01*
X316480Y36063D01*
X316178Y35333D01*
X316075Y34550D01*
X316178Y33767D01*
X316480Y33037D01*
X316961Y32410D01*
X317588Y31929D01*
X318318Y31627D01*
X319101Y31524D01*
X319884Y31627D01*
X320614Y31929D01*
X321241Y32410D01*
X321722Y33037D01*
X322024Y33767D01*
X322127Y34550D01*
X322024Y35333D01*
X321722Y36063D01*
X321241Y36690D01*
X320614Y37170D01*
X320057Y37401D01*
X317001Y40457D01*
X317193Y40919D01*
X356925D01*
X363948Y33896D01*
X364477Y33543D01*
X365101Y33419D01*
X366366D01*
X366558Y32957D01*
X365801Y32200D01*
Y30450D01*
X370101D01*
X374401D01*
Y32200D01*
X373644Y32957D01*
X373836Y33419D01*
X376366D01*
X376558Y32957D01*
X375801Y32200D01*
Y30450D01*
X380101D01*
X384401D01*
Y32200D01*
X383479Y33122D01*
X383549Y33759D01*
X383754Y33896D01*
X386255Y36397D01*
X386608Y36926D01*
X386732Y37550D01*
Y45050D01*
X386608Y45674D01*
X386255Y46204D01*
X384601Y47857D01*
Y52300D01*
X382351Y54550D01*
X377851D01*
X375601Y52300D01*
Y47800D01*
X377851Y45550D01*
X382294D01*
X383297Y44547D01*
X383268Y44340D01*
X382737Y44164D01*
X382351Y44550D01*
X377908D01*
X376255Y46204D01*
X375725Y46557D01*
X375101Y46681D01*
X374136D01*
X373944Y47143D01*
X374601Y47800D01*
Y52300D01*
X373944Y52957D01*
X374136Y53419D01*
X375101D01*
X375725Y53543D01*
X376255Y53896D01*
X377908Y55550D01*
X382351D01*
X384601Y57800D01*
Y62300D01*
X382351Y64550D01*
X377851D01*
X375601Y62300D01*
Y57857D01*
X374598Y56854D01*
X374391Y56883D01*
X374215Y57414D01*
X374601Y57800D01*
Y62300D01*
X373944Y62957D01*
X374136Y63419D01*
X375101D01*
X375725Y63543D01*
X376255Y63897D01*
X377908Y65550D01*
X382351D01*
X384601Y67800D01*
Y72300D01*
X382351Y74550D01*
X377851D01*
X375601Y72300D01*
Y67857D01*
X374598Y66854D01*
X374391Y66883D01*
X374215Y67414D01*
X374601Y67800D01*
Y72300D01*
X373944Y72957D01*
X374136Y73419D01*
X375101D01*
X375725Y73543D01*
X376255Y73896D01*
X377908Y75550D01*
X382351D01*
X384601Y77800D01*
Y82300D01*
X382351Y84550D01*
X377851D01*
X375601Y82300D01*
Y77857D01*
X374598Y76854D01*
X374391Y76883D01*
X374215Y77414D01*
X374601Y77800D01*
Y82300D01*
X373944Y82957D01*
X374136Y83419D01*
X375101D01*
X375725Y83543D01*
X376255Y83896D01*
X377908Y85550D01*
X382351D01*
X384601Y87800D01*
Y92300D01*
X382351Y94550D01*
X377851D01*
X375601Y92300D01*
Y87857D01*
X374598Y86854D01*
X374391Y86883D01*
X374215Y87414D01*
X374601Y87800D01*
Y92300D01*
X373944Y92957D01*
X374136Y93419D01*
X375101D01*
X375725Y93543D01*
X376255Y93897D01*
X377908Y95550D01*
X382351D01*
X384601Y97800D01*
Y102300D01*
X382351Y104550D01*
X377851D01*
X375601Y102300D01*
Y97857D01*
X374598Y96854D01*
X374391Y96883D01*
X374215Y97414D01*
X374601Y97800D01*
Y102300D01*
X373944Y102957D01*
X374136Y103419D01*
X375101D01*
X375725Y103543D01*
X376255Y103896D01*
X377908Y105550D01*
X382351D01*
X384601Y107800D01*
Y112300D01*
X382351Y114550D01*
X377851D01*
X375601Y112300D01*
Y107857D01*
X374598Y106854D01*
X374391Y106883D01*
X374215Y107414D01*
X374601Y107800D01*
Y112300D01*
X373944Y112957D01*
X374136Y113419D01*
X375101D01*
X375725Y113543D01*
X376255Y113897D01*
X377908Y115550D01*
X382351D01*
X384601Y117800D01*
Y122300D01*
X382351Y124550D01*
X377851D01*
X375601Y122300D01*
Y117857D01*
X374598Y116854D01*
X374391Y116883D01*
X374215Y117414D01*
X374601Y117800D01*
Y122300D01*
X373944Y122957D01*
X374136Y123419D01*
X375101D01*
X375725Y123543D01*
X376255Y123897D01*
X377908Y125550D01*
X382351D01*
X384601Y127800D01*
Y132300D01*
X382351Y134550D01*
X377851D01*
X375601Y132300D01*
Y127857D01*
X374598Y126854D01*
X374391Y126883D01*
X374215Y127414D01*
X374601Y127800D01*
Y132300D01*
X373944Y132957D01*
X374136Y133419D01*
X375101D01*
X375725Y133543D01*
X376255Y133897D01*
X377908Y135550D01*
X382351D01*
X384601Y137800D01*
Y142300D01*
X382351Y144550D01*
X377851D01*
X375601Y142300D01*
Y137857D01*
X374598Y136854D01*
X374391Y136883D01*
X374215Y137414D01*
X374601Y137800D01*
Y142300D01*
X373944Y142957D01*
X374136Y143419D01*
X375101D01*
X375725Y143543D01*
X376255Y143896D01*
X377908Y145550D01*
X382351D01*
X384601Y147800D01*
Y152300D01*
X382351Y154550D01*
X377851D01*
X375601Y152300D01*
Y147857D01*
X374598Y146854D01*
X374391Y146883D01*
X374215Y147414D01*
X374601Y147800D01*
Y152300D01*
X373944Y152957D01*
X374136Y153419D01*
X375101D01*
X375725Y153543D01*
X376255Y153896D01*
X377908Y155550D01*
X382351D01*
X384601Y157800D01*
Y162300D01*
X382351Y164550D01*
X377851D01*
X375601Y162300D01*
Y157857D01*
X374598Y156854D01*
X374391Y156883D01*
X374215Y157414D01*
X374601Y157800D01*
Y162300D01*
X373944Y162957D01*
X374136Y163419D01*
X375101D01*
X375725Y163543D01*
X376255Y163897D01*
X377908Y165550D01*
X382351D01*
X384601Y167800D01*
Y172300D01*
X382351Y174550D01*
X377851D01*
X375601Y172300D01*
Y167857D01*
X374598Y166854D01*
X374391Y166883D01*
X374215Y167414D01*
X374601Y167800D01*
Y172300D01*
X373944Y172957D01*
X374136Y173419D01*
X375101D01*
X375725Y173543D01*
X376255Y173897D01*
X377908Y175550D01*
X382351D01*
X384601Y177800D01*
Y182300D01*
X382351Y184550D01*
X377851D01*
X375601Y182300D01*
Y177857D01*
X374598Y176854D01*
X374391Y176883D01*
X374215Y177414D01*
X374601Y177800D01*
Y182300D01*
X373944Y182957D01*
X374136Y183419D01*
X375101D01*
X375725Y183543D01*
X376255Y183897D01*
X377908Y185550D01*
X382351D01*
X384601Y187800D01*
Y192300D01*
X382351Y194550D01*
X377851D01*
X375601Y192300D01*
Y187857D01*
X374598Y186854D01*
X374391Y186883D01*
X374215Y187414D01*
X374601Y187800D01*
Y192300D01*
X372351Y194550D01*
X367851D01*
X365601Y192300D01*
Y190857D01*
X354925Y180181D01*
X314193D01*
X314001Y180643D01*
X314583Y181225D01*
X314818Y181127D01*
X315601Y181024D01*
X316384Y181127D01*
X317114Y181430D01*
X317741Y181910D01*
X318221Y182537D01*
X318524Y183267D01*
X318627Y184050D01*
X318524Y184833D01*
X318221Y185563D01*
X317741Y186190D01*
X317114Y186670D01*
X316384Y186973D01*
X315601Y187076D01*
X314818Y186973D01*
X314088Y186670D01*
X313461Y186190D01*
X312981Y185563D01*
X312678Y184833D01*
X312575Y184050D01*
X312601Y183857D01*
X310925Y182181D01*
X240777D01*
X239543Y183415D01*
X239627Y184050D01*
X239524Y184833D01*
X239222Y185563D01*
X238741Y186190D01*
X238114Y186670D01*
X237384Y186973D01*
X236601Y187076D01*
X235818Y186973D01*
X235088Y186670D01*
X234461Y186190D01*
X233980Y185563D01*
X233678Y184833D01*
X233575Y184050D01*
X233678Y183267D01*
X233980Y182537D01*
X234461Y181910D01*
X235088Y181430D01*
X235818Y181127D01*
X236601Y181024D01*
X237236Y181108D01*
X237701Y180643D01*
X237509Y180181D01*
X230101D01*
X230101Y180181D01*
X229477Y180057D01*
X228947Y179703D01*
X220447Y171203D01*
X220094Y170674D01*
X219970Y170050D01*
Y151726D01*
X218633Y150389D01*
X218279Y149859D01*
X218155Y149235D01*
Y147325D01*
X217346D01*
X216833Y147223D01*
X216321Y147325D01*
X215377D01*
X214862Y147222D01*
X214628Y147066D01*
X214353Y147121D01*
X214281D01*
Y146714D01*
X214135Y146495D01*
X214033Y145981D01*
Y143146D01*
X213728D01*
Y145981D01*
X213626Y146495D01*
X213481Y146713D01*
Y147121D01*
X213409D01*
X213133Y147066D01*
X212899Y147222D01*
X212384Y147325D01*
X211440D01*
X210928Y147223D01*
X210416Y147325D01*
X209472D01*
X208960Y147223D01*
X208447Y147325D01*
X207503D01*
X206991Y147223D01*
X206479Y147325D01*
X205535D01*
X205023Y147223D01*
X204510Y147325D01*
X203566D01*
X203054Y147223D01*
X202542Y147325D01*
X201598D01*
X201085Y147223D01*
X200573Y147325D01*
X199629D01*
X199117Y147223D01*
X198604Y147325D01*
X197795D01*
Y151437D01*
X198755Y152397D01*
X199108Y152926D01*
X199232Y153550D01*
Y156050D01*
X199108Y156674D01*
X198755Y157203D01*
X197232Y158726D01*
Y161374D01*
X199557Y163699D01*
X200114Y163929D01*
X200741Y164410D01*
X201221Y165037D01*
X201524Y165767D01*
X201627Y166550D01*
X201524Y167333D01*
X201221Y168063D01*
X200741Y168690D01*
X200114Y169170D01*
X199384Y169473D01*
X198601Y169576D01*
X198486Y169561D01*
X198216Y170029D01*
X198222Y170037D01*
X198524Y170767D01*
X198627Y171550D01*
X198524Y172333D01*
X198222Y173063D01*
X197741Y173690D01*
X197114Y174170D01*
X196384Y174473D01*
X195601Y174576D01*
X194818Y174473D01*
X194088Y174170D01*
X193461Y173690D01*
X192981Y173063D01*
X192678Y172333D01*
X192575Y171550D01*
X192593Y171411D01*
X192240Y171058D01*
X192101Y171076D01*
X191318Y170973D01*
X190588Y170670D01*
X189961Y170190D01*
X189480Y169563D01*
X189178Y168833D01*
X189075Y168050D01*
X189093Y167911D01*
X188740Y167558D01*
X188601Y167576D01*
X187818Y167473D01*
X187088Y167171D01*
X186461Y166690D01*
X185980Y166063D01*
X185678Y165333D01*
X185575Y164550D01*
X185593Y164411D01*
X185240Y164058D01*
X185101Y164076D01*
X184318Y163973D01*
X183588Y163671D01*
X182961Y163190D01*
X182481Y162563D01*
X182178Y161833D01*
X182075Y161050D01*
X182093Y160911D01*
X181740Y160558D01*
X181601Y160576D01*
X180818Y160473D01*
X180088Y160170D01*
X179461Y159690D01*
X178981Y159063D01*
X178678Y158333D01*
X178575Y157550D01*
X178678Y156767D01*
X178734Y156632D01*
X178509Y156243D01*
X178379Y156184D01*
X177656Y155884D01*
X177029Y155403D01*
X176548Y154777D01*
X176416Y154457D01*
X176276Y154378D01*
X175811Y154304D01*
X175403Y154577D01*
X174739Y154709D01*
X173493D01*
X169560Y158642D01*
X169627Y159150D01*
X169524Y159933D01*
X169221Y160663D01*
X168741Y161290D01*
X168114Y161770D01*
X167384Y162073D01*
X166601Y162176D01*
X165818Y162073D01*
X165088Y161770D01*
X164461Y161290D01*
X163980Y160663D01*
X163678Y159933D01*
X163575Y159150D01*
X163678Y158367D01*
X163980Y157637D01*
X164461Y157010D01*
X164289Y156512D01*
X162449D01*
X161904Y156404D01*
X161442Y156095D01*
X161134Y155633D01*
X161025Y155088D01*
Y150758D01*
X161134Y150213D01*
X161442Y149751D01*
X161904Y149442D01*
X162449Y149334D01*
X165993D01*
X166538Y149442D01*
X167000Y149751D01*
X167212Y150068D01*
X167686Y150180D01*
X167810Y150169D01*
X168553Y149426D01*
X168505Y149062D01*
Y148474D01*
X167501D01*
X167033Y148380D01*
X166636Y148115D01*
X166404Y147768D01*
X165993Y147850D01*
X162449D01*
X161904Y147742D01*
X161442Y147433D01*
X161134Y146971D01*
X161025Y146426D01*
Y142096D01*
X161134Y141551D01*
X161435Y141100D01*
X161331Y140965D01*
X160988Y140138D01*
X160872Y139250D01*
X160988Y138362D01*
X161331Y137535D01*
X161876Y136825D01*
X162586Y136280D01*
X163413Y135938D01*
X163941Y135868D01*
X164137Y135818D01*
X164336Y135310D01*
X164147Y134935D01*
X160923D01*
X159532Y136326D01*
Y155050D01*
X159426Y155584D01*
X159527Y156350D01*
X159424Y157133D01*
X159122Y157863D01*
X158641Y158490D01*
X158014Y158970D01*
X157284Y159273D01*
X156501Y159376D01*
X155718Y159273D01*
X154988Y158970D01*
X154361Y158490D01*
X153881Y157863D01*
X153578Y157133D01*
X153475Y156350D01*
X153578Y155567D01*
X153881Y154837D01*
X154186Y154439D01*
X153966Y153905D01*
X153718Y153873D01*
X152988Y153570D01*
X152361Y153090D01*
X151881Y152463D01*
X151578Y151733D01*
X151475Y150950D01*
X151578Y150167D01*
X151881Y149437D01*
X152361Y148810D01*
X152870Y148420D01*
Y132850D01*
X152994Y132226D01*
X153348Y131696D01*
X154862Y130182D01*
X155392Y129828D01*
X156016Y129704D01*
X164426D01*
Y128895D01*
X164528Y128383D01*
X164426Y127870D01*
Y126926D01*
X164528Y126414D01*
X164426Y125902D01*
Y124958D01*
X164528Y124445D01*
X164426Y123933D01*
Y122989D01*
X164528Y122477D01*
X164426Y121965D01*
Y121905D01*
X163926Y121806D01*
X163896Y121879D01*
X163477Y122426D01*
X162930Y122845D01*
X162294Y123108D01*
X161612Y123198D01*
X160904D01*
X160222Y123108D01*
X159586Y122845D01*
X159039Y122426D01*
X158620Y121879D01*
X158357Y121243D01*
X158267Y120561D01*
Y119059D01*
X158357Y118377D01*
X158620Y117741D01*
X159039Y117194D01*
X159586Y116775D01*
X160222Y116512D01*
X160904Y116422D01*
X161612D01*
X162266Y116508D01*
X162657Y116169D01*
X163279Y115815D01*
X163990Y115725D01*
X164159Y115772D01*
X164630D01*
Y115115D01*
X164685Y114840D01*
X164529Y114606D01*
X164426Y114091D01*
Y113147D01*
X164528Y112635D01*
X164426Y112122D01*
Y111178D01*
X164528Y110666D01*
X164426Y110153D01*
Y109209D01*
X164528Y108697D01*
X164426Y108185D01*
Y107241D01*
X164528Y106728D01*
X164426Y106216D01*
Y105272D01*
X164528Y104760D01*
X164426Y104248D01*
Y103304D01*
X164528Y102792D01*
X164426Y102279D01*
Y101335D01*
X164528Y100823D01*
X164426Y100311D01*
Y100168D01*
X163926Y100069D01*
X163722Y100563D01*
X163241Y101190D01*
X162614Y101671D01*
X161884Y101973D01*
X161101Y102076D01*
X160318Y101973D01*
X159588Y101671D01*
X158961Y101190D01*
X158481Y100563D01*
X158178Y99833D01*
X158075Y99050D01*
X158161Y98399D01*
X158041Y98215D01*
X157936Y98110D01*
X157752Y97990D01*
X157101Y98076D01*
X156318Y97973D01*
X155588Y97671D01*
X154961Y97190D01*
X154481Y96563D01*
X154178Y95833D01*
X154075Y95050D01*
X154178Y94267D01*
X154481Y93537D01*
X154961Y92910D01*
X155588Y92430D01*
X156318Y92127D01*
X157101Y92024D01*
X157884Y92127D01*
X158614Y92430D01*
X159241Y92910D01*
X159631Y93419D01*
X161601D01*
X162225Y93543D01*
X162754Y93897D01*
X163129Y94271D01*
X164426D01*
Y93461D01*
X164528Y92949D01*
X164426Y92437D01*
Y91493D01*
X164528Y90980D01*
X164426Y90468D01*
Y89524D01*
X164528Y89012D01*
X164426Y88500D01*
Y87556D01*
X164529Y87041D01*
X164820Y86605D01*
X165256Y86314D01*
X165770Y86212D01*
X171440D01*
X171954Y86314D01*
X172390Y86605D01*
X172681Y87041D01*
X172784Y87556D01*
Y88472D01*
X172825Y88509D01*
X173284Y88642D01*
X173461Y88410D01*
X174088Y87929D01*
X174818Y87627D01*
X175601Y87524D01*
X176384Y87627D01*
X177114Y87929D01*
X177741Y88410D01*
X178221Y89037D01*
X178524Y89767D01*
X178627Y90550D01*
X178524Y91333D01*
X178221Y92063D01*
X177741Y92690D01*
X177225Y93085D01*
X177108Y93674D01*
X176754Y94204D01*
X175872Y95086D01*
X175342Y95440D01*
X174718Y95564D01*
X172784D01*
Y96374D01*
X172682Y96886D01*
X172784Y97398D01*
Y98208D01*
X175733D01*
X175961Y97910D01*
X176588Y97430D01*
X177318Y97127D01*
X178101Y97024D01*
X178884Y97127D01*
X179614Y97430D01*
X180241Y97910D01*
X180721Y98537D01*
X181024Y99267D01*
X181127Y100050D01*
X181024Y100833D01*
X180721Y101563D01*
X180241Y102190D01*
X179614Y102671D01*
X178884Y102973D01*
X178101Y103076D01*
X177318Y102973D01*
X176588Y102671D01*
X175961Y102190D01*
X175480Y101563D01*
X175442Y101470D01*
X172784D01*
Y102279D01*
X172682Y102792D01*
X172784Y103304D01*
Y104248D01*
X172682Y104760D01*
X172784Y105272D01*
Y106216D01*
X172682Y106728D01*
X172784Y107241D01*
Y108185D01*
X172682Y108697D01*
X172784Y109209D01*
Y110153D01*
X172682Y110666D01*
X172784Y111178D01*
Y112122D01*
X172682Y112635D01*
X172784Y113147D01*
Y114091D01*
X172681Y114606D01*
X172525Y114840D01*
X172580Y115115D01*
Y115772D01*
X173107D01*
X173205Y115791D01*
X173305Y115783D01*
X173544Y115859D01*
X173790Y115908D01*
X173873Y115963D01*
X173968Y115993D01*
X174160Y116155D01*
X174369Y116294D01*
X174424Y116377D01*
X174501Y116442D01*
X175139Y117241D01*
X175479Y117196D01*
X176445Y117323D01*
X177345Y117696D01*
X178118Y118289D01*
X178711Y119062D01*
X179084Y119962D01*
X179211Y120928D01*
Y121318D01*
X206101D01*
X207067Y121445D01*
X207967Y121818D01*
X208740Y122411D01*
X217147Y130818D01*
X222501D01*
X223467Y130945D01*
X224367Y131318D01*
X225140Y131911D01*
X225733Y132684D01*
X226106Y133584D01*
X226233Y134550D01*
X226106Y135516D01*
X225847Y136142D01*
X230055Y140420D01*
X230268Y140746D01*
X230485Y141070D01*
X230487Y141078D01*
X230491Y141085D01*
X230564Y141468D01*
X230640Y141850D01*
Y152002D01*
X230673Y152015D01*
X231220Y152434D01*
X231639Y152981D01*
X231902Y153617D01*
X231992Y154299D01*
Y155801D01*
X231902Y156483D01*
X231639Y157119D01*
X231220Y157666D01*
X230673Y158085D01*
X230037Y158348D01*
X229355Y158438D01*
X228647D01*
X227965Y158348D01*
X227732Y158252D01*
X227232Y158586D01*
Y167374D01*
X232777Y172919D01*
X241509D01*
X241701Y172457D01*
X240447Y171203D01*
X240094Y170674D01*
X239970Y170050D01*
Y155289D01*
X239317Y154636D01*
X238817Y154843D01*
Y155801D01*
X238629Y156743D01*
X238096Y157542D01*
X237297Y158075D01*
X236401Y158254D01*
Y155050D01*
X236001D01*
Y154650D01*
X233185D01*
Y154299D01*
X233373Y153357D01*
X233906Y152558D01*
X234705Y152025D01*
X235647Y151837D01*
X235811D01*
X236018Y151337D01*
X232947Y148266D01*
X232594Y147737D01*
X232470Y147113D01*
Y137088D01*
X228762D01*
X228248Y136986D01*
X227812Y136695D01*
X227520Y136259D01*
X227418Y135744D01*
Y134800D01*
X227520Y134288D01*
X227418Y133776D01*
Y132832D01*
X227520Y132319D01*
X227418Y131807D01*
Y130863D01*
X227520Y130351D01*
X227418Y129839D01*
Y128895D01*
X227520Y128383D01*
X227418Y127870D01*
Y126926D01*
X227520Y126414D01*
X227418Y125902D01*
Y124958D01*
X227520Y124445D01*
X227418Y123933D01*
Y122989D01*
X227520Y122477D01*
X227418Y121965D01*
Y121021D01*
X227431Y120957D01*
X227310Y120772D01*
X226897Y120721D01*
X226702Y120756D01*
X222543Y124915D01*
X222627Y125550D01*
X222524Y126333D01*
X222221Y127063D01*
X221741Y127690D01*
X221114Y128171D01*
X220384Y128473D01*
X219601Y128576D01*
X218818Y128473D01*
X218088Y128171D01*
X217461Y127690D01*
X216981Y127063D01*
X216678Y126333D01*
X216575Y125550D01*
X216678Y124767D01*
X216981Y124037D01*
X217461Y123410D01*
X218088Y122930D01*
X218818Y122627D01*
X219601Y122524D01*
X220236Y122608D01*
X223970Y118874D01*
Y115050D01*
X224058Y114608D01*
X223597Y114361D01*
X222280Y115678D01*
X222524Y116267D01*
X222627Y117050D01*
X222524Y117833D01*
X222221Y118563D01*
X221741Y119190D01*
X221114Y119670D01*
X220384Y119973D01*
X219601Y120076D01*
X218818Y119973D01*
X218088Y119670D01*
X217461Y119190D01*
X216981Y118563D01*
X216678Y117833D01*
X216575Y117050D01*
X216678Y116267D01*
X216981Y115537D01*
X217461Y114910D01*
X218088Y114429D01*
X218818Y114127D01*
X219277Y114067D01*
X222948Y110397D01*
X223477Y110043D01*
X224101Y109919D01*
X226819D01*
X226869Y109419D01*
X226581Y109362D01*
X226002Y108975D01*
X225937Y108877D01*
X225839Y108812D01*
X225045Y108017D01*
X224601Y108076D01*
X223818Y107973D01*
X223088Y107670D01*
X222461Y107190D01*
X221981Y106563D01*
X221678Y105833D01*
X221597Y105219D01*
X207672Y91293D01*
X187501D01*
X186643Y91122D01*
X185915Y90636D01*
X184715Y89436D01*
X184229Y88708D01*
X184058Y87850D01*
Y84770D01*
X184058Y84768D01*
X183644Y84286D01*
X183369Y84231D01*
X182856Y84333D01*
X181912D01*
X181400Y84231D01*
X180888Y84333D01*
X179944D01*
X179431Y84231D01*
X178919Y84333D01*
X177975D01*
X177463Y84231D01*
X176951Y84333D01*
X176007D01*
X175492Y84231D01*
X175056Y83939D01*
X174765Y83503D01*
X174663Y82989D01*
Y81782D01*
X174198Y81781D01*
X173887Y81719D01*
X173577Y81657D01*
X173575Y81656D01*
X173574Y81656D01*
X173312Y81480D01*
X173047Y81304D01*
X173029Y81285D01*
X140128D01*
Y86154D01*
X140004Y86778D01*
X139650Y87308D01*
X134732Y92226D01*
Y158050D01*
X134608Y158674D01*
X134255Y159204D01*
X131755Y161704D01*
X131225Y162057D01*
X130601Y162181D01*
X124131D01*
X123741Y162690D01*
X123114Y163171D01*
X122595Y163385D01*
X122437Y163935D01*
X123327Y164824D01*
X123702Y165387D01*
X123834Y166050D01*
Y182050D01*
X123702Y182713D01*
X123327Y183276D01*
X123060Y183542D01*
X123127Y184050D01*
X123024Y184833D01*
X122722Y185563D01*
X122241Y186190D01*
X121614Y186670D01*
X120884Y186973D01*
X120101Y187076D01*
X119318Y186973D01*
X118588Y186670D01*
X117961Y186190D01*
X117481Y185563D01*
X117178Y184833D01*
X117075Y184050D01*
X117178Y183267D01*
X117481Y182537D01*
X117961Y181910D01*
X118588Y181430D01*
X119318Y181127D01*
X120101Y181024D01*
X120368Y180790D01*
Y166768D01*
X118286Y164686D01*
X117824Y164878D01*
Y168223D01*
X117716Y168765D01*
X117409Y169224D01*
X116950Y169531D01*
X116408Y169639D01*
X112062D01*
X111520Y169531D01*
X111061Y169224D01*
X110754Y168765D01*
X110646Y168223D01*
Y166724D01*
X110574Y166701D01*
X110510Y166666D01*
X110438Y166651D01*
X110216Y166503D01*
X109982Y166374D01*
X109936Y166316D01*
X109875Y166276D01*
X109814Y166215D01*
X109352Y166406D01*
Y168223D01*
X109260Y168687D01*
X108997Y169080D01*
X108604Y169343D01*
X108140Y169435D01*
X106367D01*
Y166050D01*
Y162665D01*
X108140D01*
X108368Y162478D01*
Y161986D01*
X106361D01*
X105816Y161877D01*
X105354Y161569D01*
X105229Y161381D01*
X105172Y161375D01*
X104851Y161274D01*
X104527Y161181D01*
X104510Y161167D01*
X104489Y161160D01*
X104231Y160944D01*
X103967Y160735D01*
X103249Y159885D01*
X99474D01*
X99241Y160190D01*
X98614Y160670D01*
X97884Y160973D01*
X97101Y161076D01*
X96318Y160973D01*
X95588Y160670D01*
X94961Y160190D01*
X94834Y160024D01*
X94334Y160194D01*
Y186550D01*
X94202Y187213D01*
X93827Y187776D01*
X88827Y192776D01*
X88264Y193151D01*
X87601Y193283D01*
X76601D01*
X75938Y193151D01*
X75375Y192776D01*
X73901Y191301D01*
X69976D01*
X67850Y189175D01*
Y184924D01*
X69976Y182799D01*
X74226D01*
X76352Y184924D01*
Y188850D01*
X77319Y189817D01*
X77838D01*
X78029Y189355D01*
X77850Y189175D01*
Y184924D01*
X79975Y182799D01*
X80901D01*
X81937Y181763D01*
X81745Y181301D01*
X79975D01*
X77850Y179175D01*
Y175394D01*
X76428Y173972D01*
X76142Y174007D01*
X75959Y174531D01*
X76352Y174925D01*
Y179175D01*
X74226Y181301D01*
X69976D01*
X67850Y179175D01*
Y174925D01*
X68427Y174347D01*
X68236Y173885D01*
X65666D01*
X65475Y174347D01*
X66152Y175024D01*
Y176650D01*
X62101D01*
X58050D01*
Y176350D01*
X57588Y176158D01*
X57092Y176655D01*
X56496Y177053D01*
X56372Y177077D01*
Y177920D01*
X56264Y178464D01*
X55956Y178924D01*
X55495Y179232D01*
X54952Y179340D01*
X48250D01*
X48236Y179352D01*
Y182783D01*
X50213Y184760D01*
X53006D01*
X53012Y184758D01*
X53154Y184688D01*
X53477Y184666D01*
X53794Y184603D01*
X58171D01*
X59975Y182799D01*
X64227D01*
X66352Y184924D01*
Y189175D01*
X64227Y191301D01*
X63862D01*
X63763Y191801D01*
X64127Y191952D01*
X64358Y192085D01*
X64598Y192203D01*
X65629Y192893D01*
X65830Y193069D01*
X66042Y193232D01*
X66919Y194109D01*
X67082Y194321D01*
X67258Y194522D01*
X67947Y195553D01*
X68066Y195793D01*
X68199Y196024D01*
X68674Y197170D01*
X68743Y197428D01*
X68829Y197681D01*
X69071Y198898D01*
X69088Y199165D01*
X69123Y199430D01*
Y200670D01*
X69088Y200935D01*
X69071Y201202D01*
X68829Y202419D01*
X68743Y202672D01*
X68674Y202929D01*
X68199Y204076D01*
X68066Y204307D01*
X67947Y204547D01*
X67258Y205578D01*
X67082Y205779D01*
X66919Y205991D01*
X66134Y206777D01*
X66224Y207125D01*
X66331Y207277D01*
X348871D01*
X348978Y207125D01*
X349068Y206777D01*
X348283Y205991D01*
X348120Y205779D01*
X347944Y205578D01*
X347255Y204547D01*
X347136Y204307D01*
X347003Y204076D01*
X346528Y202929D01*
X346459Y202672D01*
X346373Y202419D01*
X346131Y201202D01*
X346113Y200935D01*
X346079Y200670D01*
Y199430D01*
X346113Y199165D01*
X346131Y198898D01*
X346373Y197681D01*
X346459Y197428D01*
X346528Y197170D01*
X347003Y196024D01*
X347136Y195793D01*
X347255Y195553D01*
X347944Y194522D01*
X348120Y194321D01*
X348283Y194109D01*
X349160Y193232D01*
X349372Y193069D01*
X349573Y192893D01*
X350604Y192203D01*
X350844Y192085D01*
X351075Y191952D01*
X352221Y191477D01*
X352479Y191408D01*
X352732Y191322D01*
X353949Y191080D01*
X354216Y191063D01*
X354481Y191028D01*
X355721D01*
X355986Y191063D01*
X356253Y191080D01*
X357470Y191322D01*
X357723Y191408D01*
X357980Y191477D01*
X359127Y191952D01*
X359358Y192085D01*
X359598Y192203D01*
X360629Y192893D01*
X360830Y193069D01*
X361042Y193232D01*
X361919Y194109D01*
X362082Y194321D01*
X362258Y194522D01*
X362947Y195553D01*
X363066Y195793D01*
X363199Y196024D01*
X363674Y197170D01*
X363743Y197428D01*
X363829Y197681D01*
X364071Y198898D01*
X364088Y199165D01*
X364123Y199430D01*
Y200670D01*
X364088Y200935D01*
X364071Y201202D01*
X363829Y202419D01*
X363743Y202672D01*
X363674Y202929D01*
X363199Y204076D01*
X363066Y204307D01*
X362947Y204547D01*
X362258Y205578D01*
X362082Y205779D01*
X361919Y205991D01*
X361134Y206777D01*
X361224Y207125D01*
X361331Y207277D01*
X382872D01*
X387277Y202872D01*
D02*
G37*
G36*
X53978Y207125D02*
X54068Y206777D01*
X53283Y205991D01*
X53120Y205779D01*
X52944Y205578D01*
X52254Y204547D01*
X52136Y204307D01*
X52003Y204076D01*
X51528Y202929D01*
X51459Y202672D01*
X51373Y202419D01*
X51131Y201202D01*
X51113Y200935D01*
X51079Y200670D01*
Y199430D01*
X51113Y199165D01*
X51131Y198898D01*
X51373Y197681D01*
X51459Y197428D01*
X51528Y197170D01*
X52003Y196024D01*
X52136Y195793D01*
X52254Y195553D01*
X52944Y194522D01*
X53120Y194321D01*
X53283Y194109D01*
X54160Y193232D01*
X54167Y193226D01*
X53997Y192726D01*
X48250D01*
X47707Y192618D01*
X47246Y192310D01*
X46938Y191850D01*
X46830Y191306D01*
Y186568D01*
X45990Y185727D01*
X45447Y185891D01*
X45392Y186168D01*
X45035Y186702D01*
X44502Y187058D01*
X43872Y187184D01*
X38400D01*
X37770Y187058D01*
X37237Y186702D01*
X36880Y186168D01*
X36755Y185539D01*
Y185085D01*
X12447D01*
Y185539D01*
X12322Y186168D01*
X11965Y186702D01*
X11432Y187058D01*
X10802Y187184D01*
X5330D01*
X4700Y187058D01*
X4167Y186702D01*
X3810Y186168D01*
X3685Y185539D01*
Y181410D01*
X3603Y181329D01*
X3223Y180760D01*
X3186Y180754D01*
X2723Y180972D01*
Y206183D01*
X2770Y206417D01*
X2861Y206638D01*
X2994Y206837D01*
X3163Y207006D01*
X3362Y207139D01*
X3583Y207230D01*
X3817Y207277D01*
X53871D01*
X53978Y207125D01*
D02*
G37*
G36*
X129470Y156374D02*
Y90550D01*
X129594Y89926D01*
X129947Y89397D01*
X134970Y84374D01*
Y80226D01*
X134425Y79681D01*
X115346D01*
X115155Y80143D01*
X115831Y80820D01*
X116362Y81614D01*
X116548Y82550D01*
Y83965D01*
X116592Y84299D01*
Y85801D01*
X116502Y86483D01*
X116239Y87119D01*
X115880Y87587D01*
Y91078D01*
X116043Y91321D01*
X116151Y91865D01*
Y96199D01*
X116043Y96743D01*
X115734Y97205D01*
X115273Y97513D01*
X114729Y97621D01*
X112953D01*
X112409Y97513D01*
X111948Y97205D01*
X111639Y96743D01*
X111531Y96199D01*
Y91865D01*
X111639Y91321D01*
X111802Y91078D01*
Y87987D01*
X111382Y87666D01*
X110963Y87119D01*
X110700Y86483D01*
X110610Y85801D01*
Y84299D01*
X110700Y83617D01*
X110784Y83413D01*
X110506Y82997D01*
X109544D01*
X109257Y83497D01*
X109417Y84299D01*
Y84650D01*
X106601D01*
X103785D01*
Y84299D01*
X103945Y83497D01*
X103658Y82997D01*
X100115D01*
X99548Y83564D01*
Y84811D01*
X99721Y85037D01*
X100024Y85767D01*
X100127Y86550D01*
X100024Y87333D01*
X99721Y88063D01*
X99241Y88690D01*
X98614Y89170D01*
X97884Y89473D01*
X97101Y89576D01*
X96721Y89526D01*
X92399Y93848D01*
X91803Y94246D01*
X91943Y94708D01*
X91985Y94770D01*
X91999Y94841D01*
X92036Y94905D01*
X92076Y95229D01*
X92140Y95550D01*
Y105424D01*
X95357Y109011D01*
X96601D01*
X97381Y109166D01*
X98043Y109608D01*
X100361Y111926D01*
X104118Y108169D01*
Y106771D01*
X104051Y106435D01*
Y105276D01*
X104025Y104715D01*
X104051Y104542D01*
Y102101D01*
X104159Y101557D01*
X104468Y101095D01*
X104929Y100787D01*
X105473Y100679D01*
X107249D01*
X107793Y100787D01*
X108254Y101095D01*
X108747Y100975D01*
X109213Y100883D01*
X109701D01*
Y104268D01*
X110501D01*
Y100883D01*
X110989D01*
X111455Y100975D01*
X111948Y101095D01*
X112409Y100787D01*
X112953Y100679D01*
X114729D01*
X115273Y100787D01*
X115734Y101095D01*
X116043Y101557D01*
X116151Y102101D01*
Y106435D01*
X116084Y106771D01*
Y107310D01*
X115913Y108168D01*
X115427Y108896D01*
X113605Y110719D01*
X113524Y111333D01*
X113222Y112063D01*
X112741Y112690D01*
X112114Y113171D01*
X111834Y113286D01*
Y115614D01*
X113841D01*
X114386Y115723D01*
X114848Y116031D01*
X114889Y116093D01*
X117877D01*
X118540Y116225D01*
X119103Y116600D01*
X125327Y122824D01*
X125327Y122824D01*
X125702Y123387D01*
X125834Y124050D01*
X125834Y124050D01*
Y140599D01*
X126241Y140910D01*
X126722Y141537D01*
X127024Y142267D01*
X127127Y143050D01*
X127024Y143833D01*
X126722Y144563D01*
X126241Y145190D01*
X125614Y145670D01*
X124884Y145973D01*
X124101Y146076D01*
X123760Y146031D01*
X123409Y146489D01*
X123524Y146767D01*
X123627Y147550D01*
X123524Y148333D01*
X123222Y149063D01*
X122741Y149690D01*
X122114Y150171D01*
X121384Y150473D01*
X120601Y150576D01*
X119818Y150473D01*
X119088Y150171D01*
X118461Y149690D01*
X117981Y149063D01*
X117678Y148333D01*
X117595Y147702D01*
X117242Y147476D01*
X117085Y147441D01*
X116950Y147531D01*
X116408Y147639D01*
X112062D01*
X111520Y147531D01*
X111061Y147224D01*
X110754Y146765D01*
X110646Y146223D01*
Y141877D01*
X110754Y141335D01*
X111061Y140876D01*
X111520Y140569D01*
X112062Y140461D01*
X114739D01*
X116060Y139139D01*
X115853Y138639D01*
X112062D01*
X111520Y138531D01*
X111061Y138224D01*
X110754Y137765D01*
X110646Y137223D01*
Y132877D01*
X110754Y132335D01*
X111025Y131929D01*
Y129307D01*
X110668Y129069D01*
X110360Y128607D01*
X110356Y128588D01*
X109846D01*
X109843Y128607D01*
X109534Y129069D01*
X109072Y129377D01*
X108527Y129486D01*
X106361D01*
X105816Y129377D01*
X105354Y129069D01*
X105258Y128925D01*
X105010Y128876D01*
X105010Y128876D01*
X105009Y128875D01*
X104724Y128685D01*
X104448Y128501D01*
X104228Y128282D01*
X103602Y128268D01*
X103571Y128286D01*
X102005Y130140D01*
X102099Y130804D01*
X102236Y130896D01*
X103033D01*
X103546Y130794D01*
X104248Y130933D01*
X104844Y131331D01*
X104973Y131461D01*
X108140D01*
X108682Y131569D01*
X109141Y131876D01*
X109448Y132335D01*
X109556Y132877D01*
Y137223D01*
X109448Y137765D01*
X109141Y138224D01*
X108682Y138531D01*
X108140Y138639D01*
X103794D01*
X103252Y138531D01*
X102793Y138224D01*
X102486Y137765D01*
X102378Y137223D01*
Y134362D01*
X101522D01*
X100859Y134230D01*
X100308Y133862D01*
X97518D01*
X97326Y134324D01*
X103518Y140516D01*
X103794Y140461D01*
X108140D01*
X108682Y140569D01*
X109141Y140876D01*
X109448Y141335D01*
X109556Y141877D01*
Y146223D01*
X109448Y146765D01*
X109141Y147224D01*
X108682Y147531D01*
X108266Y147614D01*
X108315Y148114D01*
X108527D01*
X109072Y148223D01*
X109534Y148531D01*
X109843Y148993D01*
X109951Y149538D01*
Y151114D01*
X109843Y151659D01*
X109839Y151664D01*
X109946Y151861D01*
X110529Y151888D01*
X110641Y151720D01*
X110548Y151581D01*
X110455Y151114D01*
Y150726D01*
X112758D01*
X115061D01*
Y151114D01*
X114968Y151581D01*
X114875Y151720D01*
X115156Y152142D01*
X115265Y152687D01*
Y154263D01*
X115219Y154494D01*
X115588Y154994D01*
X122176D01*
X122800Y155118D01*
X123329Y155472D01*
X124777Y156919D01*
X128925D01*
X129470Y156374D01*
D02*
G37*
G36*
X174663Y145981D02*
Y144218D01*
X174163Y143951D01*
X173586Y144336D01*
X172644Y144524D01*
X172293D01*
Y141708D01*
Y138892D01*
X172644D01*
X173586Y139080D01*
X174348Y139589D01*
X174394Y139612D01*
X174937Y139540D01*
X175056Y139361D01*
X175492Y139069D01*
X176007Y138967D01*
X176951D01*
X177466Y139069D01*
X177700Y139226D01*
X177975Y139171D01*
X178047D01*
Y139578D01*
X178193Y139797D01*
X178296Y140311D01*
Y143146D01*
X178600D01*
Y140311D01*
X178702Y139797D01*
X178847Y139579D01*
Y139171D01*
X178919D01*
X179195Y139226D01*
X179429Y139069D01*
X179944Y138967D01*
X180888D01*
X181400Y139069D01*
X181912Y138967D01*
X182856D01*
X183369Y139069D01*
X183881Y138967D01*
X184825D01*
X185337Y139069D01*
X185849Y138967D01*
X186793D01*
X187305Y139069D01*
X187818Y138967D01*
X188762D01*
X189274Y139069D01*
X189786Y138967D01*
X190730D01*
X191243Y139069D01*
X191755Y138967D01*
X192699D01*
X193211Y139069D01*
X193723Y138967D01*
X194667D01*
X195179Y139069D01*
X195692Y138967D01*
X196636D01*
X197148Y139069D01*
X197660Y138967D01*
X198604D01*
X199117Y139069D01*
X199629Y138967D01*
X200573D01*
X201085Y139069D01*
X201598Y138967D01*
X202542D01*
X203054Y139069D01*
X203566Y138967D01*
X204510D01*
X205023Y139069D01*
X205535Y138967D01*
X206479D01*
X206991Y139069D01*
X207503Y138967D01*
X208447D01*
X208960Y139069D01*
X209472Y138967D01*
X210416D01*
X210928Y139069D01*
X211440Y138967D01*
X212384D01*
X212899Y139069D01*
X213133Y139226D01*
X213409Y139171D01*
X214066D01*
Y138450D01*
X214162Y137968D01*
X214154Y137955D01*
X213735Y137782D01*
X212962Y137189D01*
X204555Y128782D01*
X177601D01*
X177362Y128751D01*
X177121Y128751D01*
X176881Y128687D01*
X176635Y128655D01*
X176412Y128562D01*
X176179Y128500D01*
X175964Y128377D01*
X175735Y128282D01*
X175544Y128135D01*
X175335Y128015D01*
X173213Y126393D01*
X173199Y126379D01*
X173142Y126383D01*
X172721Y126609D01*
X172784Y126926D01*
Y127870D01*
X172682Y128383D01*
X172784Y128895D01*
Y129839D01*
X172682Y130351D01*
X172784Y130863D01*
Y131807D01*
X172682Y132319D01*
X172784Y132832D01*
Y133776D01*
X172682Y134288D01*
X172784Y134800D01*
Y135744D01*
X172681Y136259D01*
X172390Y136695D01*
X171954Y136986D01*
X171440Y137088D01*
X167491D01*
X167435Y137202D01*
X167293Y137588D01*
X167613Y138362D01*
X167730Y139250D01*
X167613Y140138D01*
X167271Y140965D01*
X167082Y141211D01*
X167308Y141551D01*
X167417Y142096D01*
Y145157D01*
X167501Y145227D01*
X168901D01*
X169369Y145320D01*
X169766Y145585D01*
X170031Y145982D01*
X170034Y145983D01*
X170460Y145807D01*
X171142Y145717D01*
X172644D01*
X173326Y145807D01*
X173962Y146070D01*
X174208Y146259D01*
X174663Y145981D01*
D02*
G37*
G36*
X48342Y135043D02*
Y133278D01*
X48450Y132733D01*
X48759Y132271D01*
X49221Y131963D01*
X49766Y131854D01*
X53310D01*
X53855Y131963D01*
X54317Y132271D01*
X54625Y132733D01*
X54734Y133278D01*
Y135313D01*
X55196Y135504D01*
X57828Y132871D01*
X58391Y132496D01*
X59054Y132364D01*
X59054Y132364D01*
X59810D01*
X60001Y131902D01*
X58375Y130276D01*
X58000Y129713D01*
X57868Y129050D01*
Y126768D01*
X55985Y124885D01*
X53033D01*
X52859Y125019D01*
X52543Y125492D01*
X50043Y127992D01*
X49381Y128434D01*
X48601Y128589D01*
X42601D01*
X42552Y128579D01*
X42165Y128896D01*
X42158Y131140D01*
X43587Y131854D01*
X45436D01*
X45981Y131963D01*
X46443Y132271D01*
X46751Y132733D01*
X46860Y133278D01*
Y135872D01*
X47322Y136064D01*
X48342Y135043D01*
D02*
G37*
G36*
X362948Y153896D02*
X363477Y153543D01*
X364101Y153419D01*
X366066D01*
X366258Y152957D01*
X365601Y152300D01*
Y151681D01*
X354101D01*
X353477Y151557D01*
X352947Y151204D01*
X324925Y123181D01*
X273001D01*
X272997Y123181D01*
X272994Y123181D01*
X272685Y123118D01*
X272377Y123057D01*
X272374Y123055D01*
X272370Y123054D01*
X272109Y122879D01*
X271848Y122704D01*
X271845Y122701D01*
X271842Y122698D01*
X266621Y117431D01*
X265012D01*
X264821Y117893D01*
X264852Y117924D01*
Y122176D01*
X264171Y122856D01*
X264363Y123318D01*
X265101D01*
X266067Y123445D01*
X266967Y123818D01*
X267740Y124411D01*
X273647Y130318D01*
X325101D01*
X326067Y130445D01*
X326967Y130818D01*
X327740Y131411D01*
X330740Y134411D01*
X331333Y135184D01*
X331706Y136084D01*
X331833Y137050D01*
X331800Y137300D01*
X331833Y137550D01*
Y142669D01*
X331939Y142881D01*
X332062Y143237D01*
X332206Y143584D01*
X332220Y143696D01*
X332257Y143802D01*
X332284Y144177D01*
X332333Y144550D01*
Y154050D01*
X332206Y155016D01*
X331833Y155916D01*
X331240Y156689D01*
X330467Y157282D01*
X329567Y157655D01*
X328601Y157782D01*
X327635Y157655D01*
X326735Y157282D01*
X325962Y156689D01*
X325369Y155916D01*
X324996Y155016D01*
X324869Y154050D01*
Y148494D01*
X324369Y148226D01*
X324228Y148321D01*
X323526Y148460D01*
X323054D01*
X322737Y148847D01*
X322765Y148986D01*
Y150562D01*
X322656Y151107D01*
X322348Y151569D01*
X322346Y151608D01*
X322741Y151910D01*
X323221Y152537D01*
X323524Y153267D01*
X323627Y154050D01*
X323524Y154833D01*
X323221Y155563D01*
X322741Y156190D01*
X322114Y156670D01*
X321384Y156973D01*
X320601Y157076D01*
X319818Y156973D01*
X319088Y156670D01*
X318461Y156190D01*
X318161Y155798D01*
X317899Y155746D01*
X317303Y155348D01*
X316303Y154348D01*
X315905Y153752D01*
X315766Y153050D01*
X315868Y152537D01*
Y151986D01*
X313861D01*
X313316Y151877D01*
X313211Y151912D01*
X312926Y152531D01*
X313024Y152767D01*
X313127Y153550D01*
X313024Y154333D01*
X312721Y155063D01*
X312241Y155690D01*
X311614Y156170D01*
X310884Y156473D01*
X310101Y156576D01*
X309318Y156473D01*
X308588Y156170D01*
X307961Y155690D01*
X307481Y155063D01*
X307178Y154333D01*
X307075Y153550D01*
X307178Y152767D01*
X307481Y152037D01*
X307961Y151410D01*
X308266Y151177D01*
Y147566D01*
X307766Y147517D01*
X307716Y147765D01*
X307409Y148224D01*
X306950Y148531D01*
X306408Y148639D01*
X305089D01*
X302123Y151605D01*
X302190Y152113D01*
X302087Y152896D01*
X301784Y153626D01*
X301304Y154253D01*
X300677Y154734D01*
X299947Y155036D01*
X299164Y155139D01*
X298381Y155036D01*
X297651Y154734D01*
X297024Y154253D01*
X296544Y153626D01*
X296241Y152896D01*
X296138Y152113D01*
X296241Y151330D01*
X296544Y150600D01*
X297024Y149973D01*
X297651Y149493D01*
X298381Y149190D01*
X299164Y149087D01*
X299672Y149154D01*
X300877Y147949D01*
X300754Y147765D01*
X300646Y147223D01*
Y142877D01*
X300754Y142335D01*
X301061Y141876D01*
X301520Y141569D01*
X302062Y141461D01*
X306408D01*
X306950Y141569D01*
X307409Y141876D01*
X307716Y142335D01*
X307824Y142877D01*
Y144707D01*
X308324Y144756D01*
X308405Y144348D01*
X308803Y143752D01*
X310303Y142252D01*
X310899Y141854D01*
X311601Y141715D01*
X312047D01*
X312457Y141215D01*
X312437Y141114D01*
Y139538D01*
X312546Y138993D01*
X312854Y138531D01*
X313228Y138282D01*
X313173Y137856D01*
X313144Y137782D01*
X272101D01*
X271135Y137655D01*
X270235Y137282D01*
X269462Y136689D01*
X268700Y135927D01*
X268276Y136210D01*
X268674Y137171D01*
X268743Y137428D01*
X268829Y137681D01*
X269071Y138898D01*
X269088Y139165D01*
X269123Y139430D01*
Y140670D01*
X269088Y140935D01*
X269071Y141202D01*
X268829Y142419D01*
X268743Y142672D01*
X268674Y142929D01*
X268199Y144076D01*
X268066Y144307D01*
X267947Y144547D01*
X267258Y145578D01*
X267082Y145779D01*
X266919Y145991D01*
X266042Y146868D01*
X265830Y147031D01*
X265629Y147207D01*
X264598Y147896D01*
X264358Y148015D01*
X264127Y148148D01*
X262981Y148623D01*
X262723Y148692D01*
X262470Y148778D01*
X261253Y149020D01*
X260986Y149037D01*
X260721Y149072D01*
X259481D01*
X259216Y149037D01*
X258949Y149020D01*
X257732Y148778D01*
X257479Y148692D01*
X257222Y148623D01*
X256075Y148148D01*
X255844Y148015D01*
X255604Y147896D01*
X254573Y147207D01*
X254372Y147031D01*
X254160Y146868D01*
X253283Y145991D01*
X253120Y145779D01*
X252944Y145578D01*
X252255Y144547D01*
X252136Y144307D01*
X252003Y144076D01*
X251528Y142929D01*
X251459Y142672D01*
X251373Y142419D01*
X251131Y141202D01*
X251114Y140935D01*
X251079Y140670D01*
Y139430D01*
X251114Y139165D01*
X251131Y138898D01*
X251366Y137714D01*
X251291Y137632D01*
X250935Y137418D01*
X250245Y137847D01*
X249313Y138131D01*
X248340Y138164D01*
X247391Y137944D01*
X246531Y137486D01*
X245819Y136821D01*
X245304Y135994D01*
X245020Y135062D01*
X244987Y134089D01*
X245207Y133140D01*
X246107Y130740D01*
X246251Y130468D01*
X246369Y130184D01*
X246480Y130040D01*
X246565Y129880D01*
X246775Y129655D01*
X246962Y129411D01*
X251572Y124801D01*
X251365Y124301D01*
X248476D01*
X246350Y122176D01*
Y117924D01*
X246365Y117910D01*
X246180Y117387D01*
X246097Y117371D01*
X245793Y117314D01*
X245786Y117309D01*
X245777Y117307D01*
X245519Y117135D01*
X245260Y116966D01*
X242960Y114716D01*
X242955Y114709D01*
X242948Y114704D01*
X242775Y114446D01*
X242601Y114191D01*
X242599Y114182D01*
X242594Y114174D01*
X242533Y113871D01*
X242470Y113568D01*
X242471Y113559D01*
X242470Y113550D01*
Y108726D01*
X241119Y107375D01*
X235776D01*
Y108185D01*
X235673Y108700D01*
X235517Y108934D01*
X235572Y109209D01*
Y109281D01*
X235165D01*
X234946Y109427D01*
X234432Y109529D01*
X231597D01*
Y109834D01*
X234432D01*
X234946Y109936D01*
X235164Y110081D01*
X235572D01*
Y110153D01*
X235517Y110429D01*
X235673Y110663D01*
X235776Y111178D01*
Y111539D01*
X235844Y111625D01*
X236276Y111852D01*
X236818Y111627D01*
X237601Y111524D01*
X238384Y111627D01*
X239114Y111930D01*
X239741Y112410D01*
X240222Y113037D01*
X240524Y113767D01*
X240627Y114550D01*
X240524Y115333D01*
X240222Y116063D01*
X239741Y116690D01*
X239114Y117171D01*
X238384Y117473D01*
X237632Y117572D01*
Y124950D01*
X237569Y125267D01*
X237935Y125767D01*
X238449D01*
X239073Y125891D01*
X239602Y126244D01*
X243254Y129896D01*
X243608Y130426D01*
X243732Y131050D01*
Y142937D01*
X250754Y149960D01*
X251108Y150489D01*
X251232Y151113D01*
Y162374D01*
X251777Y162919D01*
X353925D01*
X362948Y153896D01*
D02*
G37*
G36*
X48371Y123896D02*
X48200Y123483D01*
X48110Y122801D01*
Y121299D01*
X48200Y120617D01*
X48463Y119981D01*
X48882Y119434D01*
X49335Y119087D01*
X49383Y118832D01*
Y118768D01*
X49335Y118513D01*
X48882Y118166D01*
X48463Y117619D01*
X48200Y116983D01*
X48110Y116301D01*
Y114799D01*
X48200Y114117D01*
X48463Y113481D01*
X48882Y112934D01*
X49429Y112515D01*
X50065Y112252D01*
X50747Y112162D01*
X51455D01*
X52137Y112252D01*
X52773Y112515D01*
X53320Y112934D01*
X53677Y113400D01*
X54008Y113454D01*
X54259Y113429D01*
X54506Y113058D01*
X55305Y112525D01*
X56201Y112346D01*
Y115550D01*
X56601D01*
Y115950D01*
X59417D01*
Y116110D01*
X59739Y116482D01*
X60266Y116474D01*
X60610Y116087D01*
Y114799D01*
X60700Y114117D01*
X60963Y113481D01*
X61382Y112934D01*
X61766Y112640D01*
Y107050D01*
X60351D01*
X58101Y104800D01*
Y100300D01*
X60351Y98050D01*
X64851D01*
X67101Y100300D01*
Y104800D01*
X65436Y106465D01*
Y112640D01*
X65820Y112934D01*
X66051Y113236D01*
X66651D01*
X66882Y112934D01*
X67429Y112515D01*
X68065Y112252D01*
X68747Y112162D01*
X69455D01*
X70137Y112252D01*
X70773Y112515D01*
X71320Y112934D01*
X71739Y113481D01*
X72002Y114117D01*
X72092Y114799D01*
Y116090D01*
X72601Y116599D01*
X73110Y116090D01*
Y114799D01*
X73200Y114117D01*
X73463Y113481D01*
X73882Y112934D01*
X74429Y112515D01*
X75065Y112252D01*
X75747Y112162D01*
X76455D01*
X77137Y112252D01*
X77773Y112515D01*
X78320Y112934D01*
X78551Y113236D01*
X79151D01*
X79382Y112934D01*
X79868Y112562D01*
Y106567D01*
X78101Y104800D01*
Y100300D01*
X80351Y98050D01*
X84851D01*
X87101Y100300D01*
Y104800D01*
X84851Y107050D01*
X83334D01*
Y112562D01*
X83820Y112934D01*
X84239Y113481D01*
X84502Y114117D01*
X84592Y114799D01*
Y116301D01*
X84502Y116983D01*
X84239Y117619D01*
X83820Y118166D01*
X83273Y118585D01*
X82637Y118848D01*
X81955Y118938D01*
X81247D01*
X80565Y118848D01*
X79929Y118585D01*
X79382Y118166D01*
X79151Y117864D01*
X78551D01*
X78320Y118166D01*
X77773Y118585D01*
X77137Y118848D01*
X76455Y118938D01*
X75747D01*
X75413Y119231D01*
Y124080D01*
X75913Y124129D01*
X75968Y123851D01*
X76355Y123272D01*
X77658Y121969D01*
X77803Y121752D01*
X78399Y121354D01*
X79101Y121215D01*
X86728D01*
X86961Y120910D01*
X87588Y120430D01*
X88318Y120127D01*
X89101Y120024D01*
X89884Y120127D01*
X90614Y120430D01*
X90720Y120511D01*
X94256D01*
X95980Y118787D01*
X95661Y118399D01*
X95397Y118575D01*
X94501Y118754D01*
Y115550D01*
X93701D01*
Y118754D01*
X92805Y118575D01*
X92006Y118042D01*
X91648Y117506D01*
X91054D01*
X90696Y118042D01*
X89897Y118575D01*
X89001Y118754D01*
Y115550D01*
Y112346D01*
X89897Y112525D01*
X90696Y113058D01*
X91054Y113594D01*
X91648D01*
X92006Y113058D01*
X92526Y112711D01*
X92637Y112090D01*
X92634Y112083D01*
X88583Y107565D01*
X88408Y107270D01*
X88217Y106984D01*
X88206Y106929D01*
X88177Y106881D01*
X88129Y106541D01*
X88062Y106204D01*
Y97089D01*
X60601D01*
X59821Y96934D01*
X59159Y96492D01*
X55659Y92992D01*
X55217Y92330D01*
X55062Y91550D01*
Y84688D01*
X54675Y84370D01*
X54601Y84385D01*
X52861D01*
X52399Y84848D01*
X51803Y85246D01*
X51101Y85385D01*
X43361D01*
X42436Y86310D01*
Y95634D01*
X42664Y95787D01*
X42971Y96245D01*
X43078Y96786D01*
Y99503D01*
X45601D01*
X46537Y99689D01*
X47331Y100220D01*
X47862Y101014D01*
X48048Y101950D01*
X47862Y102886D01*
X47640Y103218D01*
Y107050D01*
X47485Y107830D01*
X47043Y108492D01*
X47043Y108492D01*
X43663Y111872D01*
X43905Y112337D01*
X44455D01*
X45397Y112525D01*
X46196Y113058D01*
X46729Y113857D01*
X46917Y114799D01*
Y115150D01*
X44101D01*
Y115950D01*
X46917D01*
Y116301D01*
X46729Y117243D01*
X46196Y118042D01*
X45467Y118529D01*
X45429Y118800D01*
X45467Y119071D01*
X46196Y119558D01*
X46729Y120357D01*
X46917Y121299D01*
Y121650D01*
X44101D01*
Y122450D01*
X46917D01*
Y122801D01*
X46729Y123743D01*
X46511Y124070D01*
X46747Y124511D01*
X47756D01*
X48371Y123896D01*
D02*
G37*
G36*
X37654Y112550D02*
X37840Y111614D01*
X38201Y111074D01*
Y104774D01*
X34694D01*
X34362Y104996D01*
X33665Y105135D01*
X30537D01*
X29840Y104996D01*
X29249Y104602D01*
X28855Y104011D01*
X28716Y103314D01*
Y102559D01*
X26429Y100272D01*
X25929Y100378D01*
Y100926D01*
X25790Y101623D01*
X25395Y102214D01*
X24804Y102609D01*
X24107Y102748D01*
X11095D01*
X10398Y102609D01*
X9807Y102214D01*
X9412Y101623D01*
X9273Y100926D01*
Y93820D01*
X9412Y93123D01*
X9807Y92532D01*
X10398Y92137D01*
X11095Y91998D01*
X24107D01*
X24804Y92137D01*
X25395Y92532D01*
X25790Y93123D01*
X25929Y93820D01*
Y94549D01*
X27524D01*
X28255Y94645D01*
X28936Y94927D01*
X29521Y95376D01*
X32910Y98765D01*
X33665D01*
X34362Y98904D01*
X34694Y99126D01*
X36716D01*
Y96786D01*
X36855Y96089D01*
X37249Y95498D01*
X37840Y95104D01*
X38201Y95032D01*
Y51950D01*
X2723D01*
Y118150D01*
X3277D01*
Y116550D01*
X3373Y115819D01*
X3655Y115138D01*
X4104Y114553D01*
X7927Y110730D01*
X8512Y110281D01*
X9193Y109999D01*
X9273Y109989D01*
Y109174D01*
X9412Y108477D01*
X9807Y107886D01*
X10398Y107491D01*
X11095Y107352D01*
X24107D01*
X24804Y107491D01*
X25395Y107886D01*
X25790Y108477D01*
X25929Y109174D01*
Y116280D01*
X25790Y116977D01*
X25395Y117568D01*
X25273Y117650D01*
X25425Y118150D01*
X37654D01*
Y112550D01*
D02*
G37*
G36*
X330790Y112546D02*
X320425Y102181D01*
X274601D01*
X273977Y102057D01*
X273447Y101704D01*
X266425Y94681D01*
X250777D01*
X250121Y95337D01*
X250312Y95799D01*
X252727D01*
X254852Y97925D01*
Y102175D01*
X254821Y102207D01*
X255012Y102669D01*
X256490D01*
X256681Y102207D01*
X256550Y102076D01*
Y100450D01*
X260601D01*
X264652D01*
Y102076D01*
X264521Y102207D01*
X264712Y102669D01*
X265401D01*
X265403Y102669D01*
X265405Y102669D01*
X265716Y102731D01*
X266025Y102793D01*
X266027Y102794D01*
X266029Y102794D01*
X266291Y102970D01*
X266554Y103147D01*
X266556Y103148D01*
X266557Y103149D01*
X276279Y112919D01*
X330101D01*
X330543Y113007D01*
X330790Y112546D01*
D02*
G37*
G36*
X322201Y96457D02*
X316425Y90681D01*
X270693D01*
X270501Y91143D01*
X276277Y96919D01*
X322009D01*
X322201Y96457D01*
D02*
G37*
G36*
X94125Y86930D02*
X94075Y86550D01*
X94178Y85767D01*
X94481Y85037D01*
X94654Y84811D01*
Y82550D01*
X94840Y81614D01*
X95371Y80820D01*
X96047Y80143D01*
X95856Y79681D01*
X90777D01*
X88189Y82269D01*
X88108Y82674D01*
X87754Y83204D01*
X87037Y83921D01*
X86508Y84274D01*
X85884Y84398D01*
X84811D01*
X84494Y84785D01*
X84508Y84854D01*
Y85798D01*
X84405Y86313D01*
X84114Y86749D01*
X84080Y86771D01*
X84217Y86976D01*
X84304Y87413D01*
Y87485D01*
X80920D01*
X77536D01*
Y87413D01*
X77607Y87058D01*
X77549Y86836D01*
X77363Y86481D01*
X76947Y86203D01*
X75447Y84703D01*
X75094Y84174D01*
X74970Y83550D01*
Y79550D01*
X75094Y78926D01*
X75447Y78396D01*
X78948Y74897D01*
X79477Y74543D01*
X80101Y74419D01*
X99590D01*
X99760Y73919D01*
X99461Y73690D01*
X98980Y73063D01*
X98678Y72333D01*
X98575Y71550D01*
X98678Y70767D01*
X98980Y70037D01*
X99461Y69410D01*
X100088Y68929D01*
X100818Y68627D01*
X101601Y68524D01*
X102384Y68627D01*
X103114Y68929D01*
X103741Y69410D01*
X103821Y69515D01*
X104321D01*
X104382Y69434D01*
X104929Y69015D01*
X105565Y68752D01*
X106077Y68684D01*
X106213Y68498D01*
X106283Y68321D01*
X106299Y68162D01*
X106000Y67713D01*
X105868Y67050D01*
Y66427D01*
X104985D01*
X104445Y66320D01*
X103987Y66014D01*
X103681Y65556D01*
X103574Y65016D01*
Y62161D01*
X96680D01*
X96433Y62661D01*
X96722Y63037D01*
X97024Y63767D01*
X97127Y64550D01*
X97024Y65333D01*
X96722Y66063D01*
X96241Y66690D01*
X95614Y67171D01*
X94884Y67473D01*
X94101Y67576D01*
X93318Y67473D01*
X92588Y67171D01*
X91961Y66690D01*
X91885Y66590D01*
X91417Y66799D01*
Y67150D01*
X88601D01*
X85785D01*
Y66799D01*
X85973Y65857D01*
X86043Y65751D01*
X85808Y65310D01*
X84709D01*
X84375Y65810D01*
X84502Y66117D01*
X84592Y66799D01*
Y68301D01*
X84502Y68983D01*
X84239Y69619D01*
X83820Y70166D01*
X83273Y70585D01*
X82637Y70848D01*
X81955Y70938D01*
X81520D01*
X72732Y79726D01*
Y86050D01*
X72608Y86674D01*
X72255Y87204D01*
X70420Y89038D01*
X69890Y89392D01*
X69266Y89516D01*
X67168D01*
X67044Y89599D01*
X66530Y89701D01*
X62555D01*
X62348Y90201D01*
X62861Y90715D01*
X90341D01*
X94125Y86930D01*
D02*
G37*
G36*
X277701Y80957D02*
X273425Y76681D01*
X239450D01*
X239127Y77050D01*
X239024Y77833D01*
X238888Y78162D01*
X239138Y78595D01*
X239384Y78627D01*
X240114Y78930D01*
X240741Y79410D01*
X241221Y80037D01*
X241224Y80042D01*
X241225Y80043D01*
X241755Y80396D01*
X242777Y81419D01*
X277509D01*
X277701Y80957D01*
D02*
G37*
G36*
X227471Y103040D02*
X227520Y102792D01*
X227418Y102279D01*
Y101335D01*
X227520Y100823D01*
X227418Y100311D01*
Y99367D01*
X227520Y98855D01*
X227418Y98342D01*
Y97398D01*
X227520Y96886D01*
X227418Y96374D01*
Y95430D01*
X227520Y94918D01*
X227418Y94405D01*
Y93461D01*
X227520Y92949D01*
X227418Y92437D01*
Y91493D01*
X227520Y90980D01*
X227418Y90468D01*
Y89524D01*
X227520Y89012D01*
X227418Y88500D01*
Y87556D01*
X227520Y87041D01*
X227812Y86605D01*
X228248Y86314D01*
X228762Y86212D01*
X229501D01*
X229835Y85712D01*
X229678Y85333D01*
X229575Y84550D01*
X229678Y83767D01*
X229980Y83037D01*
X230461Y82410D01*
X231088Y81929D01*
X231818Y81627D01*
X232566Y81529D01*
X232674Y81375D01*
X232821Y81077D01*
X228382Y76638D01*
X227977Y76557D01*
X227448Y76204D01*
X225854Y74610D01*
X225354Y74818D01*
Y76681D01*
X225437Y76805D01*
X225539Y77319D01*
Y82989D01*
X225437Y83503D01*
X225146Y83939D01*
X224710Y84231D01*
X224195Y84333D01*
X223251D01*
X222739Y84231D01*
X222227Y84333D01*
X221283D01*
X220771Y84231D01*
X220258Y84333D01*
X219314D01*
X218802Y84231D01*
X218290Y84333D01*
X217346D01*
X216833Y84231D01*
X216321Y84333D01*
X215377D01*
X214865Y84231D01*
X214353Y84333D01*
X213409D01*
X212896Y84231D01*
X212384Y84333D01*
X211440D01*
X210928Y84231D01*
X210416Y84333D01*
X209472D01*
X208960Y84231D01*
X208447Y84333D01*
X207503D01*
X206991Y84231D01*
X206479Y84333D01*
X205535D01*
X205023Y84231D01*
X204510Y84333D01*
X203566D01*
X203054Y84231D01*
X202542Y84333D01*
X201598D01*
X201085Y84231D01*
X200573Y84333D01*
X199629D01*
X199117Y84231D01*
X198604Y84333D01*
X197660D01*
X197148Y84231D01*
X196636Y84333D01*
X195692D01*
X195179Y84231D01*
X194667Y84333D01*
X193723D01*
X193211Y84231D01*
X192699Y84333D01*
X191755D01*
X191243Y84231D01*
X190730Y84333D01*
X189786D01*
X189271Y84231D01*
X189037Y84074D01*
X188943Y84093D01*
X188525Y84553D01*
X188564Y84750D01*
X188544Y84851D01*
Y86807D01*
X208601D01*
X209459Y86978D01*
X210187Y87464D01*
X224769Y102046D01*
X225384Y102127D01*
X226114Y102429D01*
X226741Y102910D01*
X226936Y103165D01*
X227471Y103040D01*
D02*
G37*
G36*
X75600Y72244D02*
X75409Y71782D01*
X74175D01*
X73708Y71689D01*
X73312Y71425D01*
X73051Y71034D01*
X72540Y71375D01*
X72105Y71462D01*
X72034Y71569D01*
X71572Y71877D01*
X71027Y71986D01*
X68861D01*
X68316Y71877D01*
X67854Y71569D01*
X67546Y71107D01*
X67437Y70562D01*
Y68986D01*
X67465Y68847D01*
X67148Y68460D01*
X64755D01*
X64547Y68962D01*
X64098Y69547D01*
X60008Y73637D01*
X60004Y74034D01*
X60206Y74198D01*
X60430Y74348D01*
X61101Y74215D01*
X67101D01*
X67803Y74354D01*
X68399Y74752D01*
X70399Y76752D01*
X70457Y76840D01*
X70955Y76889D01*
X75600Y72244D01*
D02*
G37*
G36*
X366258Y92957D02*
X365601Y92300D01*
Y91681D01*
X365101D01*
X364477Y91557D01*
X363948Y91203D01*
X336925Y64181D01*
X299195D01*
X298949Y64681D01*
X299221Y65037D01*
X299524Y65767D01*
X299627Y66550D01*
X299524Y67333D01*
X299221Y68063D01*
X298741Y68690D01*
X298114Y69170D01*
X297384Y69473D01*
X296601Y69576D01*
X295818Y69473D01*
X295088Y69170D01*
X295080Y69165D01*
X294612Y69435D01*
X294627Y69550D01*
X294524Y70333D01*
X294221Y71063D01*
X293741Y71690D01*
X293114Y72171D01*
X292384Y72473D01*
X291601Y72576D01*
X290818Y72473D01*
X290088Y72171D01*
X289461Y71690D01*
X289433Y71652D01*
X288860Y71728D01*
X288721Y72063D01*
X288241Y72690D01*
X287614Y73171D01*
X286884Y73473D01*
X286461Y73528D01*
X286224Y74032D01*
X286232Y74063D01*
X286524Y74767D01*
X286627Y75550D01*
X286524Y76333D01*
X286281Y76919D01*
X286519Y77419D01*
X331101D01*
X331725Y77543D01*
X332255Y77896D01*
X347777Y93419D01*
X366066D01*
X366258Y92957D01*
D02*
G37*
%LPC*%
G36*
X382351Y204550D02*
X377851D01*
X377083Y203782D01*
X373119D01*
X372351Y204550D01*
X367851D01*
X365601Y202300D01*
Y197800D01*
X367851Y195550D01*
X372351D01*
X373119Y196318D01*
X377083D01*
X377851Y195550D01*
X382351D01*
X384601Y197800D01*
Y202300D01*
X382351Y204550D01*
D02*
G37*
G36*
X186101Y192076D02*
X185318Y191973D01*
X184588Y191671D01*
X183961Y191190D01*
X183481Y190563D01*
X183178Y189833D01*
X183075Y189050D01*
X183178Y188267D01*
X183481Y187537D01*
X183961Y186910D01*
X184588Y186430D01*
X185318Y186127D01*
X186101Y186024D01*
X186884Y186127D01*
X187614Y186430D01*
X188241Y186910D01*
X188722Y187537D01*
X189024Y188267D01*
X189127Y189050D01*
X189024Y189833D01*
X188722Y190563D01*
X188241Y191190D01*
X187614Y191671D01*
X186884Y191973D01*
X186101Y192076D01*
D02*
G37*
G36*
X64126Y181101D02*
X62501D01*
Y177450D01*
X66152D01*
Y179076D01*
X64126Y181101D01*
D02*
G37*
G36*
X61701D02*
X60075D01*
X58050Y179076D01*
Y177450D01*
X61701D01*
Y181101D01*
D02*
G37*
G36*
X177001Y178376D02*
X176218Y178273D01*
X175488Y177971D01*
X174861Y177490D01*
X174471Y176981D01*
X165731D01*
X165341Y177490D01*
X164714Y177971D01*
X163984Y178273D01*
X163201Y178376D01*
X162418Y178273D01*
X161688Y177971D01*
X161061Y177490D01*
X160581Y176863D01*
X160278Y176133D01*
X160175Y175350D01*
X160278Y174567D01*
X160581Y173837D01*
X160960Y173342D01*
X161023Y173000D01*
X160960Y172658D01*
X160581Y172163D01*
X160278Y171433D01*
X160175Y170650D01*
X160278Y169867D01*
X160581Y169137D01*
X161061Y168510D01*
X161688Y168029D01*
X162418Y167727D01*
X163201Y167624D01*
X163984Y167727D01*
X164714Y168029D01*
X165341Y168510D01*
X165731Y169019D01*
X174471D01*
X174861Y168510D01*
X175488Y168029D01*
X176218Y167727D01*
X177001Y167624D01*
X177784Y167727D01*
X178514Y168029D01*
X179141Y168510D01*
X179622Y169137D01*
X179924Y169867D01*
X180027Y170650D01*
X179924Y171433D01*
X179622Y172163D01*
X179242Y172658D01*
X179179Y173000D01*
X179242Y173342D01*
X179622Y173837D01*
X179924Y174567D01*
X180027Y175350D01*
X179924Y176133D01*
X179622Y176863D01*
X179141Y177490D01*
X178514Y177971D01*
X177784Y178273D01*
X177001Y178376D01*
D02*
G37*
G36*
X111101Y183576D02*
X110318Y183473D01*
X109588Y183170D01*
X108961Y182690D01*
X108481Y182063D01*
X108178Y181333D01*
X108075Y180550D01*
X108178Y179767D01*
X108481Y179037D01*
X108961Y178410D01*
X109588Y177929D01*
X110318Y177627D01*
X110910Y177549D01*
X111150Y177141D01*
X111164Y177029D01*
X110973Y176743D01*
X110785Y175801D01*
Y175450D01*
X113601D01*
X116417D01*
Y175801D01*
X116229Y176743D01*
X115696Y177542D01*
X114897Y178075D01*
X113955Y178263D01*
X113758D01*
X113511Y178763D01*
X113722Y179037D01*
X114024Y179767D01*
X114127Y180550D01*
X114024Y181333D01*
X113722Y182063D01*
X113241Y182690D01*
X112614Y183170D01*
X111884Y183473D01*
X111101Y183576D01*
D02*
G37*
G36*
X116417Y174650D02*
X114001D01*
Y171846D01*
X114897Y172025D01*
X115696Y172558D01*
X116229Y173357D01*
X116417Y174299D01*
Y174650D01*
D02*
G37*
G36*
X113201D02*
X110785D01*
Y174299D01*
X110973Y173357D01*
X111506Y172558D01*
X112305Y172025D01*
X113201Y171846D01*
Y174650D01*
D02*
G37*
G36*
X106955Y178438D02*
X106247D01*
X105565Y178348D01*
X104929Y178085D01*
X104382Y177666D01*
X103963Y177119D01*
X103700Y176483D01*
X103610Y175801D01*
Y174299D01*
X103700Y173617D01*
X103963Y172981D01*
X104382Y172434D01*
X104929Y172015D01*
X105565Y171752D01*
X106247Y171662D01*
X106955D01*
X107637Y171752D01*
X108273Y172015D01*
X108820Y172434D01*
X109239Y172981D01*
X109502Y173617D01*
X109592Y174299D01*
Y175801D01*
X109502Y176483D01*
X109239Y177119D01*
X108820Y177666D01*
X108273Y178085D01*
X107637Y178348D01*
X106955Y178438D01*
D02*
G37*
G36*
X105567Y169435D02*
X103794D01*
X103330Y169343D01*
X102937Y169080D01*
X102674Y168687D01*
X102582Y168223D01*
Y166450D01*
X105567D01*
Y169435D01*
D02*
G37*
G36*
Y165650D02*
X102582D01*
Y163877D01*
X102674Y163413D01*
X102937Y163020D01*
X103330Y162757D01*
X103794Y162665D01*
X105567D01*
Y165650D01*
D02*
G37*
G36*
X235601Y158254D02*
X234705Y158075D01*
X233906Y157542D01*
X233373Y156743D01*
X233185Y155801D01*
Y155450D01*
X235601D01*
Y158254D01*
D02*
G37*
G36*
X154658Y123014D02*
Y120210D01*
X157074D01*
Y120561D01*
X156886Y121503D01*
X156353Y122302D01*
X155554Y122835D01*
X154658Y123014D01*
D02*
G37*
G36*
X153858D02*
X152962Y122835D01*
X152163Y122302D01*
X151630Y121503D01*
X151442Y120561D01*
Y120210D01*
X153858D01*
Y123014D01*
D02*
G37*
G36*
X157074Y119410D02*
X154658D01*
Y116606D01*
X155554Y116785D01*
X156353Y117318D01*
X156886Y118117D01*
X157074Y119059D01*
Y119410D01*
D02*
G37*
G36*
X153858D02*
X151442D01*
Y119059D01*
X151630Y118117D01*
X152163Y117318D01*
X152962Y116785D01*
X153858Y116606D01*
Y119410D01*
D02*
G37*
G36*
X200101Y119042D02*
X198659Y118900D01*
X197272Y118479D01*
X195994Y117796D01*
X194874Y116877D01*
X193955Y115756D01*
X193272Y114479D01*
X192851Y113092D01*
X192709Y111650D01*
X192851Y110208D01*
X193272Y108821D01*
X193955Y107544D01*
X194874Y106423D01*
X195994Y105504D01*
X197272Y104821D01*
X198659Y104400D01*
X200101Y104258D01*
X201543Y104400D01*
X202930Y104821D01*
X204207Y105504D01*
X205328Y106423D01*
X206247Y107544D01*
X206930Y108821D01*
X207351Y110208D01*
X207493Y111650D01*
X207351Y113092D01*
X206930Y114479D01*
X206247Y115756D01*
X205328Y116877D01*
X204207Y117796D01*
X202930Y118479D01*
X201543Y118900D01*
X200101Y119042D01*
D02*
G37*
G36*
X56201Y65650D02*
X53397D01*
X53576Y64754D01*
X54109Y63955D01*
X54908Y63422D01*
X55850Y63234D01*
X56201D01*
Y65650D01*
D02*
G37*
G36*
X50509Y64373D02*
X46701D01*
Y61350D01*
X51724D01*
Y63158D01*
X51632Y63623D01*
X51368Y64017D01*
X50974Y64281D01*
X50509Y64373D01*
D02*
G37*
G36*
X45901D02*
X42093D01*
X41628Y64281D01*
X41234Y64017D01*
X40970Y63623D01*
X40878Y63158D01*
Y61350D01*
X45901D01*
Y64373D01*
D02*
G37*
G36*
X51724Y60550D02*
X46701D01*
Y57527D01*
X50509D01*
X50974Y57619D01*
X51368Y57883D01*
X51632Y58277D01*
X51724Y58742D01*
Y60550D01*
D02*
G37*
G36*
X45901D02*
X40878D01*
Y58742D01*
X40970Y58277D01*
X41234Y57883D01*
X41628Y57619D01*
X42093Y57527D01*
X45901D01*
Y60550D01*
D02*
G37*
G36*
X131701Y56866D02*
X131350D01*
X130408Y56678D01*
X129609Y56145D01*
X129076Y55346D01*
X128897Y54450D01*
X131701D01*
Y56866D01*
D02*
G37*
G36*
X124601Y61282D02*
X123635Y61155D01*
X122735Y60782D01*
X121962Y60189D01*
X121369Y59416D01*
X120996Y58516D01*
X120869Y57550D01*
Y51096D01*
X110161Y40388D01*
X108347Y41348D01*
X108306Y41363D01*
X108270Y41388D01*
X106812Y42117D01*
X104584Y44344D01*
Y51212D01*
X104476Y51755D01*
X104168Y52216D01*
X103708Y52524D01*
X103164Y52632D01*
X98038D01*
X97494Y52524D01*
X97034Y52216D01*
X96726Y51755D01*
X96618Y51212D01*
Y39786D01*
X96726Y39243D01*
X97034Y38782D01*
X97494Y38474D01*
X98038Y38366D01*
X100007D01*
X101962Y36411D01*
X102051Y36343D01*
X102125Y36258D01*
X102437Y36047D01*
X102735Y35818D01*
X102839Y35775D01*
X102932Y35712D01*
X104894Y34731D01*
X107783Y33201D01*
X107869Y32944D01*
Y27550D01*
X107996Y26584D01*
X108369Y25684D01*
X108962Y24911D01*
X110962Y22911D01*
X111369Y22599D01*
Y19550D01*
X111496Y18584D01*
X111869Y17684D01*
X112462Y16911D01*
X113235Y16318D01*
X114135Y15945D01*
X115101Y15818D01*
X116067Y15945D01*
X116967Y16318D01*
X117740Y16911D01*
X118333Y17684D01*
X118706Y18584D01*
X118833Y19550D01*
Y25550D01*
X118706Y26516D01*
X118333Y27416D01*
X117740Y28189D01*
X116967Y28782D01*
X116067Y29155D01*
X115333Y29251D01*
Y33550D01*
X115318Y33661D01*
X115326Y33774D01*
X115255Y34143D01*
X115206Y34516D01*
X115163Y34620D01*
X115141Y34730D01*
X115121Y34792D01*
X127240Y46911D01*
X127833Y47684D01*
X128053Y48216D01*
X128598Y48215D01*
X128599Y48215D01*
X128601Y48215D01*
X135346D01*
X135438Y47750D01*
X135746Y47290D01*
X136207Y46982D01*
X136750Y46874D01*
X143452D01*
X143995Y46982D01*
X144456Y47290D01*
X144764Y47750D01*
X144872Y48294D01*
Y53420D01*
X144764Y53964D01*
X144456Y54424D01*
X143995Y54732D01*
X143452Y54840D01*
X136750D01*
X136207Y54732D01*
X135795Y54457D01*
X135529Y54512D01*
X135272Y54615D01*
X135126Y55346D01*
X134593Y56145D01*
X133794Y56678D01*
X132852Y56866D01*
X132501D01*
Y54050D01*
X132101D01*
Y53650D01*
X128897D01*
X129076Y52754D01*
X129322Y52385D01*
X129055Y51885D01*
X128604D01*
X128333Y51886D01*
Y57550D01*
X128206Y58516D01*
X127833Y59416D01*
X127240Y60189D01*
X126467Y60782D01*
X125567Y61155D01*
X124601Y61282D01*
D02*
G37*
G36*
X156001Y31254D02*
Y28450D01*
X158417D01*
Y28801D01*
X158229Y29743D01*
X157696Y30542D01*
X156897Y31075D01*
X156001Y31254D01*
D02*
G37*
G36*
X155201D02*
X154305Y31075D01*
X153506Y30542D01*
X152973Y29743D01*
X152785Y28801D01*
Y28450D01*
X155201D01*
Y31254D01*
D02*
G37*
G36*
X103164Y33530D02*
X101001D01*
Y27001D01*
X104380D01*
Y32314D01*
X104288Y32779D01*
X104024Y33174D01*
X103630Y33437D01*
X103164Y33530D01*
D02*
G37*
G36*
X75164D02*
X73001D01*
Y27001D01*
X76380D01*
Y32314D01*
X76288Y32779D01*
X76024Y33174D01*
X75630Y33437D01*
X75164Y33530D01*
D02*
G37*
G36*
X72201D02*
X70038D01*
X69573Y33437D01*
X69178Y33174D01*
X68914Y32779D01*
X68822Y32314D01*
Y27001D01*
X72201D01*
Y33530D01*
D02*
G37*
G36*
X384401Y29650D02*
X380501D01*
Y25750D01*
X382251D01*
X384401Y27900D01*
Y29650D01*
D02*
G37*
G36*
X379701D02*
X375801D01*
Y27900D01*
X377951Y25750D01*
X379701D01*
Y29650D01*
D02*
G37*
G36*
X374401D02*
X370501D01*
Y25750D01*
X372251D01*
X374401Y27900D01*
Y29650D01*
D02*
G37*
G36*
X369701D02*
X365801D01*
Y27900D01*
X367951Y25750D01*
X369701D01*
Y29650D01*
D02*
G37*
G36*
X158417Y27650D02*
X156001D01*
Y24846D01*
X156897Y25025D01*
X157696Y25558D01*
X158229Y26357D01*
X158417Y27299D01*
Y27650D01*
D02*
G37*
G36*
X155201D02*
X152785D01*
Y27299D01*
X152973Y26357D01*
X153506Y25558D01*
X154305Y25025D01*
X155201Y24846D01*
Y27650D01*
D02*
G37*
G36*
X104380Y26201D02*
X101001D01*
Y19672D01*
X103164D01*
X103630Y19765D01*
X104024Y20028D01*
X104288Y20423D01*
X104380Y20888D01*
Y26201D01*
D02*
G37*
G36*
X76380D02*
X73001D01*
Y19672D01*
X75164D01*
X75630Y19765D01*
X76024Y20028D01*
X76288Y20423D01*
X76380Y20888D01*
Y26201D01*
D02*
G37*
G36*
X72201D02*
X68822D01*
Y20888D01*
X68914Y20423D01*
X69178Y20028D01*
X69573Y19765D01*
X70038Y19672D01*
X72201D01*
Y26201D01*
D02*
G37*
G36*
X170501Y15510D02*
Y10450D01*
X173934D01*
Y11730D01*
X173803Y12722D01*
X173420Y13646D01*
X172811Y14440D01*
X172017Y15049D01*
X171093Y15432D01*
X170501Y15510D01*
D02*
G37*
G36*
X160501D02*
Y10450D01*
X163934D01*
Y11730D01*
X163803Y12722D01*
X163420Y13646D01*
X162811Y14440D01*
X162017Y15049D01*
X161093Y15432D01*
X160501Y15510D01*
D02*
G37*
G36*
X169701D02*
X169109Y15432D01*
X168185Y15049D01*
X167391Y14440D01*
X166782Y13646D01*
X166399Y12722D01*
X166268Y11730D01*
Y10450D01*
X169701D01*
Y15510D01*
D02*
G37*
G36*
X159701D02*
X159109Y15432D01*
X158185Y15049D01*
X157391Y14440D01*
X156782Y13646D01*
X156399Y12722D01*
X156268Y11730D01*
Y10450D01*
X159701D01*
Y15510D01*
D02*
G37*
G36*
X173934Y9650D02*
X170501D01*
Y4590D01*
X171093Y4668D01*
X172017Y5051D01*
X172811Y5660D01*
X173420Y6454D01*
X173803Y7378D01*
X173934Y8370D01*
Y9650D01*
D02*
G37*
G36*
X163934D02*
X160501D01*
Y4590D01*
X161093Y4668D01*
X162017Y5051D01*
X162811Y5660D01*
X163420Y6454D01*
X163803Y7378D01*
X163934Y8370D01*
Y9650D01*
D02*
G37*
G36*
X159701D02*
X156268D01*
Y8370D01*
X156399Y7378D01*
X156782Y6454D01*
X157391Y5660D01*
X158185Y5051D01*
X159109Y4668D01*
X159701Y4590D01*
Y9650D01*
D02*
G37*
G36*
X169701D02*
X166268D01*
Y8370D01*
X166399Y7378D01*
X166782Y6454D01*
X167391Y5660D01*
X168185Y5051D01*
X169109Y4668D01*
X169701Y4590D01*
Y9650D01*
D02*
G37*
G36*
X270101Y15765D02*
X269057Y15627D01*
X268084Y15224D01*
X267248Y14583D01*
X266607Y13747D01*
X266204Y12774D01*
X266067Y11730D01*
Y8370D01*
X266204Y7326D01*
X266607Y6353D01*
X267248Y5517D01*
X268084Y4876D01*
X269057Y4473D01*
X270101Y4335D01*
X271145Y4473D01*
X272118Y4876D01*
X272954Y5517D01*
X273595Y6353D01*
X273998Y7326D01*
X274135Y8370D01*
Y11730D01*
X273998Y12774D01*
X273595Y13747D01*
X272954Y14583D01*
X272118Y15224D01*
X271145Y15627D01*
X270101Y15765D01*
D02*
G37*
G36*
X260101D02*
X259057Y15627D01*
X258084Y15224D01*
X257248Y14583D01*
X256607Y13747D01*
X256204Y12774D01*
X256066Y11730D01*
Y8370D01*
X256204Y7326D01*
X256607Y6353D01*
X257248Y5517D01*
X258084Y4876D01*
X259057Y4473D01*
X260101Y4335D01*
X261145Y4473D01*
X262118Y4876D01*
X262954Y5517D01*
X263595Y6353D01*
X263998Y7326D01*
X264136Y8370D01*
Y11730D01*
X263998Y12774D01*
X263595Y13747D01*
X262954Y14583D01*
X262118Y15224D01*
X261145Y15627D01*
X260101Y15765D01*
D02*
G37*
G36*
X250101D02*
X249057Y15627D01*
X248084Y15224D01*
X247248Y14583D01*
X246607Y13747D01*
X246204Y12774D01*
X246066Y11730D01*
Y8370D01*
X246204Y7326D01*
X246607Y6353D01*
X247248Y5517D01*
X248084Y4876D01*
X249057Y4473D01*
X250101Y4335D01*
X251145Y4473D01*
X252118Y4876D01*
X252954Y5517D01*
X253595Y6353D01*
X253998Y7326D01*
X254135Y8370D01*
Y11730D01*
X253998Y12774D01*
X253595Y13747D01*
X252954Y14583D01*
X252118Y15224D01*
X251145Y15627D01*
X250101Y15765D01*
D02*
G37*
G36*
X240101D02*
X239057Y15627D01*
X238084Y15224D01*
X237248Y14583D01*
X236607Y13747D01*
X236204Y12774D01*
X236067Y11730D01*
Y8370D01*
X236204Y7326D01*
X236607Y6353D01*
X237248Y5517D01*
X238084Y4876D01*
X239057Y4473D01*
X240101Y4335D01*
X241145Y4473D01*
X242118Y4876D01*
X242954Y5517D01*
X243595Y6353D01*
X243998Y7326D01*
X244135Y8370D01*
Y11730D01*
X243998Y12774D01*
X243595Y13747D01*
X242954Y14583D01*
X242118Y15224D01*
X241145Y15627D01*
X240101Y15765D01*
D02*
G37*
G36*
X230101D02*
X229057Y15627D01*
X228084Y15224D01*
X227248Y14583D01*
X226607Y13747D01*
X226204Y12774D01*
X226066Y11730D01*
Y8370D01*
X226204Y7326D01*
X226607Y6353D01*
X227248Y5517D01*
X228084Y4876D01*
X229057Y4473D01*
X230101Y4335D01*
X231145Y4473D01*
X232118Y4876D01*
X232954Y5517D01*
X233595Y6353D01*
X233998Y7326D01*
X234136Y8370D01*
Y11730D01*
X233998Y12774D01*
X233595Y13747D01*
X232954Y14583D01*
X232118Y15224D01*
X231145Y15627D01*
X230101Y15765D01*
D02*
G37*
G36*
X220101D02*
X219057Y15627D01*
X218084Y15224D01*
X217248Y14583D01*
X216607Y13747D01*
X216204Y12774D01*
X216067Y11730D01*
Y8370D01*
X216204Y7326D01*
X216607Y6353D01*
X217248Y5517D01*
X218084Y4876D01*
X219057Y4473D01*
X220101Y4335D01*
X221145Y4473D01*
X222118Y4876D01*
X222954Y5517D01*
X223595Y6353D01*
X223998Y7326D01*
X224135Y8370D01*
Y11730D01*
X223998Y12774D01*
X223595Y13747D01*
X222954Y14583D01*
X222118Y15224D01*
X221145Y15627D01*
X220101Y15765D01*
D02*
G37*
G36*
X210101D02*
X209057Y15627D01*
X208084Y15224D01*
X207248Y14583D01*
X206607Y13747D01*
X206204Y12774D01*
X206066Y11730D01*
Y8370D01*
X206204Y7326D01*
X206607Y6353D01*
X207248Y5517D01*
X208084Y4876D01*
X209057Y4473D01*
X210101Y4335D01*
X211145Y4473D01*
X212118Y4876D01*
X212954Y5517D01*
X213595Y6353D01*
X213998Y7326D01*
X214136Y8370D01*
Y11730D01*
X213998Y12774D01*
X213595Y13747D01*
X212954Y14583D01*
X212118Y15224D01*
X211145Y15627D01*
X210101Y15765D01*
D02*
G37*
G36*
X200101D02*
X199057Y15627D01*
X198084Y15224D01*
X197248Y14583D01*
X196607Y13747D01*
X196204Y12774D01*
X196066Y11730D01*
Y8370D01*
X196204Y7326D01*
X196607Y6353D01*
X197248Y5517D01*
X198084Y4876D01*
X199057Y4473D01*
X200101Y4335D01*
X201145Y4473D01*
X202118Y4876D01*
X202954Y5517D01*
X203595Y6353D01*
X203998Y7326D01*
X204135Y8370D01*
Y11730D01*
X203998Y12774D01*
X203595Y13747D01*
X202954Y14583D01*
X202118Y15224D01*
X201145Y15627D01*
X200101Y15765D01*
D02*
G37*
G36*
X180101D02*
X179057Y15627D01*
X178084Y15224D01*
X177248Y14583D01*
X176607Y13747D01*
X176204Y12774D01*
X176067Y11730D01*
Y8370D01*
X176204Y7326D01*
X176607Y6353D01*
X177248Y5517D01*
X178084Y4876D01*
X179057Y4473D01*
X180101Y4335D01*
X181145Y4473D01*
X182118Y4876D01*
X182954Y5517D01*
X183595Y6353D01*
X183998Y7326D01*
X184135Y8370D01*
Y11730D01*
X183998Y12774D01*
X183595Y13747D01*
X182954Y14583D01*
X182118Y15224D01*
X181145Y15627D01*
X180101Y15765D01*
D02*
G37*
G36*
X148955Y31438D02*
X148247D01*
X147565Y31348D01*
X146929Y31085D01*
X146382Y30666D01*
X145963Y30119D01*
X145700Y29483D01*
X145610Y28801D01*
Y27299D01*
X145700Y26617D01*
X145777Y26431D01*
Y15550D01*
X145778Y15544D01*
X145777Y15537D01*
X145826Y15179D01*
X145873Y14819D01*
X145876Y14813D01*
X145876Y14807D01*
X146341Y13104D01*
X146204Y12774D01*
X146066Y11730D01*
Y8370D01*
X146204Y7326D01*
X146607Y6353D01*
X147248Y5517D01*
X148084Y4876D01*
X149057Y4473D01*
X150101Y4335D01*
X151145Y4473D01*
X152118Y4876D01*
X152954Y5517D01*
X153595Y6353D01*
X153998Y7326D01*
X154136Y8370D01*
Y11730D01*
X153998Y12774D01*
X153595Y13747D01*
X152954Y14583D01*
X152118Y15224D01*
X151553Y15458D01*
X151425Y15928D01*
Y26431D01*
X151502Y26617D01*
X151592Y27299D01*
Y28801D01*
X151502Y29483D01*
X151239Y30119D01*
X150820Y30666D01*
X150273Y31085D01*
X149637Y31348D01*
X148955Y31438D01*
D02*
G37*
G36*
X136601Y43076D02*
X135818Y42973D01*
X135088Y42671D01*
X134461Y42190D01*
X133981Y41563D01*
X133678Y40833D01*
X133575Y40050D01*
X133678Y39267D01*
X133981Y38537D01*
X134461Y37910D01*
X135088Y37429D01*
X135818Y37127D01*
X136100Y37090D01*
X137654Y35536D01*
Y14894D01*
X137248Y14583D01*
X136607Y13747D01*
X136204Y12774D01*
X136066Y11730D01*
Y8370D01*
X136204Y7326D01*
X136607Y6353D01*
X137248Y5517D01*
X138084Y4876D01*
X139057Y4473D01*
X140101Y4335D01*
X141145Y4473D01*
X142118Y4876D01*
X142954Y5517D01*
X143595Y6353D01*
X143998Y7326D01*
X144135Y8370D01*
Y11730D01*
X143998Y12774D01*
X143595Y13747D01*
X142954Y14583D01*
X142548Y14894D01*
Y36550D01*
X142362Y37486D01*
X141831Y38280D01*
X139561Y40551D01*
X139524Y40833D01*
X139222Y41563D01*
X138741Y42190D01*
X138114Y42671D01*
X137384Y42973D01*
X136601Y43076D01*
D02*
G37*
G36*
X124101Y40076D02*
X123318Y39973D01*
X122588Y39671D01*
X121961Y39190D01*
X121481Y38563D01*
X121178Y37833D01*
X121075Y37050D01*
X121178Y36267D01*
X121481Y35537D01*
X121961Y34910D01*
X122588Y34429D01*
X123318Y34127D01*
X124101Y34024D01*
X124481Y34074D01*
X128266Y30290D01*
Y15299D01*
X128084Y15224D01*
X127248Y14583D01*
X126607Y13747D01*
X126204Y12774D01*
X126067Y11730D01*
Y8370D01*
X126204Y7326D01*
X126607Y6353D01*
X127248Y5517D01*
X128084Y4876D01*
X129057Y4473D01*
X130101Y4335D01*
X131145Y4473D01*
X132118Y4876D01*
X132954Y5517D01*
X133595Y6353D01*
X133998Y7326D01*
X134135Y8370D01*
Y11730D01*
X133998Y12774D01*
X133595Y13747D01*
X132954Y14583D01*
X132118Y15224D01*
X131936Y15299D01*
Y31050D01*
X131797Y31752D01*
X131399Y32348D01*
X127077Y36670D01*
X127127Y37050D01*
X127024Y37833D01*
X126722Y38563D01*
X126241Y39190D01*
X125614Y39671D01*
X124884Y39973D01*
X124101Y40076D01*
D02*
G37*
G36*
X120101Y15765D02*
X119057Y15627D01*
X118084Y15224D01*
X117248Y14583D01*
X116607Y13747D01*
X116204Y12774D01*
X116067Y11730D01*
Y8370D01*
X116204Y7326D01*
X116607Y6353D01*
X117248Y5517D01*
X118084Y4876D01*
X119057Y4473D01*
X120101Y4335D01*
X121145Y4473D01*
X122118Y4876D01*
X122954Y5517D01*
X123595Y6353D01*
X123998Y7326D01*
X124135Y8370D01*
Y11730D01*
X123998Y12774D01*
X123595Y13747D01*
X122954Y14583D01*
X122118Y15224D01*
X121145Y15627D01*
X120101Y15765D01*
D02*
G37*
G36*
X110101D02*
X109057Y15627D01*
X108084Y15224D01*
X107248Y14583D01*
X106607Y13747D01*
X106204Y12774D01*
X106067Y11730D01*
Y8370D01*
X106204Y7326D01*
X106607Y6353D01*
X107248Y5517D01*
X108084Y4876D01*
X109057Y4473D01*
X110101Y4335D01*
X111145Y4473D01*
X112118Y4876D01*
X112954Y5517D01*
X113595Y6353D01*
X113998Y7326D01*
X114136Y8370D01*
Y11730D01*
X113998Y12774D01*
X113595Y13747D01*
X112954Y14583D01*
X112118Y15224D01*
X111145Y15627D01*
X110101Y15765D01*
D02*
G37*
G36*
X43872Y204696D02*
X41536D01*
Y201312D01*
X45313D01*
Y203255D01*
X45204Y203806D01*
X44891Y204274D01*
X44424Y204586D01*
X43872Y204696D01*
D02*
G37*
G36*
X40736D02*
X38400D01*
X37848Y204586D01*
X37381Y204274D01*
X37069Y203806D01*
X36959Y203255D01*
Y201312D01*
X40736D01*
Y204696D01*
D02*
G37*
G36*
X10802D02*
X8466D01*
Y201312D01*
X12243D01*
Y203255D01*
X12133Y203806D01*
X11821Y204274D01*
X11354Y204586D01*
X10802Y204696D01*
D02*
G37*
G36*
X7666D02*
X5330D01*
X4778Y204586D01*
X4311Y204274D01*
X3999Y203806D01*
X3889Y203255D01*
Y201312D01*
X7666D01*
Y204696D01*
D02*
G37*
G36*
X45313Y200512D02*
X41536D01*
Y197128D01*
X43872D01*
X44424Y197238D01*
X44891Y197550D01*
X45204Y198018D01*
X45313Y198569D01*
Y200512D01*
D02*
G37*
G36*
X40736D02*
X36959D01*
Y198569D01*
X37069Y198018D01*
X37381Y197550D01*
X37848Y197238D01*
X38400Y197128D01*
X40736D01*
Y200512D01*
D02*
G37*
G36*
X12243D02*
X8466D01*
Y197128D01*
X10802D01*
X11354Y197238D01*
X11821Y197550D01*
X12133Y198018D01*
X12243Y198569D01*
Y200512D01*
D02*
G37*
G36*
X7666D02*
X3889D01*
Y198569D01*
X3999Y198018D01*
X4311Y197550D01*
X4778Y197238D01*
X5330Y197128D01*
X7666D01*
Y200512D01*
D02*
G37*
G36*
X10802Y196042D02*
X5330D01*
X4700Y195916D01*
X4167Y195560D01*
X3810Y195026D01*
X3685Y194397D01*
Y189711D01*
X3810Y189082D01*
X4167Y188548D01*
X4700Y188192D01*
X5330Y188066D01*
X10802D01*
X11432Y188192D01*
X11965Y188548D01*
X12322Y189082D01*
X12447Y189711D01*
Y194397D01*
X12322Y195026D01*
X11965Y195560D01*
X11432Y195916D01*
X10802Y196042D01*
D02*
G37*
G36*
X115061Y149926D02*
X113158D01*
Y148318D01*
X113841D01*
X114308Y148411D01*
X114704Y148676D01*
X114968Y149071D01*
X115061Y149538D01*
Y149926D01*
D02*
G37*
G36*
X112358D02*
X110455D01*
Y149538D01*
X110548Y149071D01*
X110812Y148676D01*
X111208Y148411D01*
X111675Y148318D01*
X112358D01*
Y149926D01*
D02*
G37*
G36*
X107249Y97621D02*
X105473D01*
X104929Y97513D01*
X104468Y97205D01*
X104159Y96743D01*
X104051Y96199D01*
Y91865D01*
X104159Y91321D01*
X104468Y90859D01*
X104929Y90551D01*
X105473Y90443D01*
X107249D01*
X107793Y90551D01*
X108254Y90859D01*
X108563Y91321D01*
X108671Y91865D01*
Y96199D01*
X108563Y96743D01*
X108254Y97205D01*
X107793Y97513D01*
X107249Y97621D01*
D02*
G37*
G36*
X107001Y88254D02*
Y85450D01*
X109417D01*
Y85801D01*
X109229Y86743D01*
X108696Y87542D01*
X107897Y88075D01*
X107001Y88254D01*
D02*
G37*
G36*
X106201D02*
X105305Y88075D01*
X104506Y87542D01*
X103973Y86743D01*
X103785Y85801D01*
Y85450D01*
X106201D01*
Y88254D01*
D02*
G37*
G36*
X171493Y144524D02*
X171142D01*
X170200Y144336D01*
X169401Y143803D01*
X168868Y143004D01*
X168689Y142108D01*
X171493D01*
Y144524D01*
D02*
G37*
G36*
Y141308D02*
X168689D01*
X168868Y140412D01*
X169401Y139613D01*
X170200Y139080D01*
X171142Y138892D01*
X171493D01*
Y141308D01*
D02*
G37*
G36*
X298140Y148435D02*
X296367D01*
Y145450D01*
X299352D01*
Y147223D01*
X299260Y147687D01*
X298997Y148080D01*
X298604Y148343D01*
X298140Y148435D01*
D02*
G37*
G36*
X295567D02*
X293794D01*
X293330Y148343D01*
X292937Y148080D01*
X292674Y147687D01*
X292582Y147223D01*
Y145450D01*
X295567D01*
Y148435D01*
D02*
G37*
G36*
X279001Y157805D02*
X277559Y157663D01*
X276172Y157242D01*
X274894Y156559D01*
X273774Y155640D01*
X272855Y154520D01*
X272172Y153242D01*
X271751Y151855D01*
X271609Y150413D01*
X271751Y148971D01*
X272172Y147584D01*
X272855Y146306D01*
X273774Y145186D01*
X274894Y144267D01*
X276172Y143584D01*
X277559Y143163D01*
X279001Y143021D01*
X280443Y143163D01*
X281830Y143584D01*
X283107Y144267D01*
X284228Y145186D01*
X285147Y146306D01*
X285830Y147584D01*
X286251Y148971D01*
X286393Y150413D01*
X286251Y151855D01*
X285830Y153242D01*
X285147Y154520D01*
X284228Y155640D01*
X283107Y156559D01*
X281830Y157242D01*
X280443Y157663D01*
X279001Y157805D01*
D02*
G37*
G36*
X299352Y144650D02*
X296367D01*
Y141665D01*
X298140D01*
X298604Y141757D01*
X298997Y142020D01*
X299260Y142413D01*
X299352Y142877D01*
Y144650D01*
D02*
G37*
G36*
X295567D02*
X292582D01*
Y142877D01*
X292674Y142413D01*
X292937Y142020D01*
X293330Y141757D01*
X293794Y141665D01*
X295567D01*
Y144650D01*
D02*
G37*
G36*
X88201Y118754D02*
X87305Y118575D01*
X86506Y118042D01*
X85973Y117243D01*
X85785Y116301D01*
Y115950D01*
X88201D01*
Y118754D01*
D02*
G37*
G36*
X59417Y115150D02*
X57001D01*
Y112346D01*
X57897Y112525D01*
X58696Y113058D01*
X59229Y113857D01*
X59417Y114799D01*
Y115150D01*
D02*
G37*
G36*
X88201D02*
X85785D01*
Y114799D01*
X85973Y113857D01*
X86506Y113058D01*
X87305Y112525D01*
X88201Y112346D01*
Y115150D01*
D02*
G37*
G36*
X264652Y99650D02*
X261001D01*
Y95999D01*
X262627D01*
X264652Y98024D01*
Y99650D01*
D02*
G37*
G36*
X260201D02*
X256550D01*
Y98024D01*
X258576Y95999D01*
X260201D01*
Y99650D01*
D02*
G37*
G36*
X83164Y89497D02*
X81320D01*
Y88285D01*
X84304D01*
Y88357D01*
X84217Y88794D01*
X83970Y89164D01*
X83600Y89411D01*
X83164Y89497D01*
D02*
G37*
G36*
X80520D02*
X78676D01*
X78240Y89411D01*
X77870Y89164D01*
X77623Y88794D01*
X77536Y88357D01*
Y88285D01*
X80520D01*
Y89497D01*
D02*
G37*
G36*
X89001Y70754D02*
Y67950D01*
X91417D01*
Y68301D01*
X91229Y69243D01*
X90696Y70042D01*
X89897Y70575D01*
X89001Y70754D01*
D02*
G37*
G36*
X88201D02*
X87305Y70575D01*
X86506Y70042D01*
X85973Y69243D01*
X85785Y68301D01*
Y67950D01*
X88201D01*
Y70754D01*
D02*
G37*
%LPD*%
D10*
X63601Y115550D02*
X69101D01*
X76101D02*
X81601D01*
X42870Y162819D02*
Y163450D01*
X56901Y146550D02*
X57501Y145950D01*
Y144450D02*
Y145950D01*
Y144450D02*
X61701Y140250D01*
X50238Y154950D02*
X51538Y156250D01*
X49101Y154950D02*
X50238D01*
X44668Y151050D02*
X44944Y150774D01*
X41101Y151050D02*
X44668D01*
X39601Y152550D02*
X41101Y151050D01*
X39601Y152550D02*
Y157050D01*
X35755Y160896D02*
X39601Y157050D01*
X51038Y155550D02*
X51538Y156250D01*
X47401Y153250D02*
X49101Y154950D01*
X47401Y152350D02*
Y153250D01*
X45825Y150774D02*
X47401Y152350D01*
X44944Y150774D02*
X45825D01*
X28447Y160896D02*
X35755D01*
X27601Y160050D02*
X28447Y160896D01*
X50219Y136050D02*
X51538Y135050D01*
X44944Y141326D02*
X50219Y136050D01*
X44668Y141050D02*
X44944Y141326D01*
X42601Y141050D02*
X44668D01*
X39601Y148050D02*
X42601Y141050D01*
X39601Y148050D02*
Y148204D01*
X37755Y150050D02*
X39601Y148204D01*
X37601Y150050D02*
X37755D01*
X63901Y146550D02*
X64101Y146350D01*
Y142250D02*
Y146350D01*
Y142250D02*
X65301Y141050D01*
X40101Y97050D02*
Y98150D01*
X45601Y101950D02*
Y107050D01*
X40101Y112550D02*
X45601Y107050D01*
X40101Y112550D02*
Y124050D01*
X42601Y126550D01*
X48601D01*
X51101Y122050D02*
Y124050D01*
X48601Y126550D02*
X51101Y124050D01*
X113841Y85156D02*
Y94032D01*
X41136Y183196D02*
X41301D01*
X309101Y34050D02*
X309601Y34550D01*
X288601Y34050D02*
X309101D01*
X283901Y38750D02*
X288601Y34050D01*
X206501Y38750D02*
X283901D01*
X199101Y31550D02*
X206501Y38750D01*
X196601Y31550D02*
X199101D01*
X195101Y30050D02*
X196601Y31550D01*
X191101Y30050D02*
X195101D01*
X188601Y32550D02*
X191101Y30050D01*
X184570Y32582D02*
X188601Y32550D01*
X217101Y110050D02*
X220601Y109550D01*
X220801Y109750D01*
X158601Y15550D02*
X160101Y10050D01*
X155601Y28050D02*
X157101Y25550D01*
X158601Y15550D02*
Y24050D01*
X157101Y25550D02*
X158601Y24050D01*
X228601Y154650D02*
X229001Y155050D01*
X228601Y141850D02*
Y154650D01*
X64286Y80207D02*
X64344Y80150D01*
X61001D02*
X64344D01*
X57101Y84050D02*
X61001Y80150D01*
X57101Y84050D02*
Y91550D01*
X60601Y95050D01*
X89101D01*
X90101Y95550D01*
Y106204D01*
X60101Y119550D02*
X63101Y122550D01*
Y128550D01*
X96601Y111050D02*
X101101Y115550D01*
X94447Y111050D02*
X96601D01*
X90101Y106204D02*
X94447Y111050D01*
X89101Y123050D02*
X89601Y122550D01*
X95101D01*
X101101Y116550D01*
Y115550D02*
Y116550D01*
X100601Y114570D02*
X106361Y108810D01*
X100601Y114570D02*
X101101Y115550D01*
X222601Y135750D02*
X228601Y141850D01*
X222501Y135450D02*
X222601Y135750D01*
X222501Y134550D02*
Y135450D01*
X175101Y120050D02*
X175601Y121550D01*
X175101Y120050D02*
X175479Y120928D01*
D30*
X8066Y192054D02*
D03*
X41136Y183196D02*
D03*
X8066D02*
D03*
X41136Y200912D02*
D03*
X8066D02*
D03*
D38*
X78601Y137050D02*
D03*
D86*
X168605Y135272D02*
D03*
Y133304D02*
D03*
Y131335D02*
D03*
Y129367D02*
D03*
Y127398D02*
D03*
Y125430D02*
D03*
Y123461D02*
D03*
Y121493D02*
D03*
Y119524D02*
D03*
Y117556D02*
D03*
Y115587D02*
D03*
Y113619D02*
D03*
Y111650D02*
D03*
Y109681D02*
D03*
Y107713D02*
D03*
Y105744D02*
D03*
Y103776D02*
D03*
Y101807D02*
D03*
Y99839D02*
D03*
Y97870D02*
D03*
Y95902D02*
D03*
Y93933D02*
D03*
Y91965D02*
D03*
Y89996D02*
D03*
Y88028D02*
D03*
X231597D02*
D03*
Y89996D02*
D03*
Y91965D02*
D03*
Y93933D02*
D03*
Y95902D02*
D03*
Y97870D02*
D03*
Y99839D02*
D03*
Y101807D02*
D03*
Y103776D02*
D03*
Y105744D02*
D03*
Y107713D02*
D03*
Y109681D02*
D03*
Y111650D02*
D03*
Y113619D02*
D03*
Y115587D02*
D03*
Y117556D02*
D03*
Y119524D02*
D03*
Y121493D02*
D03*
Y123461D02*
D03*
Y125430D02*
D03*
Y127398D02*
D03*
Y129367D02*
D03*
Y131335D02*
D03*
Y133304D02*
D03*
Y135272D02*
D03*
D87*
X176479Y80154D02*
D03*
X178447D02*
D03*
X180416D02*
D03*
X182384D02*
D03*
X184353D02*
D03*
X186321D02*
D03*
X188290D02*
D03*
X190258D02*
D03*
X192227D02*
D03*
X194195D02*
D03*
X196164D02*
D03*
X198132D02*
D03*
X200101D02*
D03*
X202070D02*
D03*
X204038D02*
D03*
X206007D02*
D03*
X207975D02*
D03*
X209944D02*
D03*
X211912D02*
D03*
X213881D02*
D03*
X215849D02*
D03*
X217818D02*
D03*
X219786D02*
D03*
X221755D02*
D03*
X223723D02*
D03*
Y143146D02*
D03*
X221755D02*
D03*
X219786D02*
D03*
X217818D02*
D03*
X215849D02*
D03*
X213881D02*
D03*
X211912D02*
D03*
X209944D02*
D03*
X207975D02*
D03*
X206007D02*
D03*
X204038D02*
D03*
X202070D02*
D03*
X200101D02*
D03*
X198132D02*
D03*
X196164D02*
D03*
X194195D02*
D03*
X192227D02*
D03*
X190258D02*
D03*
X188290D02*
D03*
X186321D02*
D03*
X184353D02*
D03*
X182384D02*
D03*
X180416D02*
D03*
X178447D02*
D03*
X176479D02*
D03*
D88*
X171893Y141708D02*
D03*
Y148708D02*
D03*
X132101Y54050D02*
D03*
Y61050D02*
D03*
X56601Y66050D02*
D03*
Y73050D02*
D03*
D89*
X164221Y144261D02*
D03*
Y152923D02*
D03*
D90*
X51601Y175357D02*
D03*
Y188743D02*
D03*
X140101Y50857D02*
D03*
Y64243D02*
D03*
D91*
X64286Y80207D02*
D03*
Y82767D02*
D03*
Y85326D02*
D03*
Y87885D02*
D03*
X80920D02*
D03*
Y85326D02*
D03*
Y82767D02*
D03*
Y80207D02*
D03*
D92*
X88601Y115550D02*
D03*
X81601D02*
D03*
X56601D02*
D03*
X63601D02*
D03*
X56901Y146550D02*
D03*
X63901D02*
D03*
X101101Y115550D02*
D03*
X94101D02*
D03*
X81601Y67550D02*
D03*
X88601D02*
D03*
X113601Y72050D02*
D03*
X106601D02*
D03*
X44101Y115550D02*
D03*
X51101D02*
D03*
X113601Y85050D02*
D03*
X106601D02*
D03*
X44101Y122050D02*
D03*
X51101D02*
D03*
X155601Y28050D02*
D03*
X148601D02*
D03*
X236001Y155050D02*
D03*
X229001D02*
D03*
X154258Y119810D02*
D03*
X161258D02*
D03*
X113601Y175050D02*
D03*
X106601D02*
D03*
D93*
X113841Y94032D02*
D03*
X106361D02*
D03*
Y104268D02*
D03*
X110101D02*
D03*
X113841D02*
D03*
D94*
X76101Y115550D02*
D03*
X69101D02*
D03*
D95*
X44944Y141326D02*
D03*
Y144475D02*
D03*
Y147625D02*
D03*
Y150774D02*
D03*
X50258D02*
D03*
Y147625D02*
D03*
Y144475D02*
D03*
Y141326D02*
D03*
X112758Y159774D02*
D03*
Y156625D02*
D03*
Y153475D02*
D03*
Y150326D02*
D03*
X107444D02*
D03*
Y153475D02*
D03*
Y156625D02*
D03*
Y159774D02*
D03*
X320258Y149774D02*
D03*
Y146625D02*
D03*
Y143475D02*
D03*
Y140326D02*
D03*
X314944D02*
D03*
Y143475D02*
D03*
Y146625D02*
D03*
Y149774D02*
D03*
X69944Y60326D02*
D03*
Y63475D02*
D03*
Y66625D02*
D03*
Y69774D02*
D03*
X75258D02*
D03*
Y66625D02*
D03*
Y63475D02*
D03*
Y60326D02*
D03*
X107444Y117826D02*
D03*
Y120975D02*
D03*
Y124125D02*
D03*
Y127274D02*
D03*
X112758D02*
D03*
Y124125D02*
D03*
Y120975D02*
D03*
Y117826D02*
D03*
D96*
X200101Y111650D02*
D03*
X7101Y150050D02*
D03*
X10601Y9550D02*
D03*
X279001Y150413D02*
D03*
D97*
X159601Y61050D02*
D03*
Y54050D02*
D03*
D98*
X151101Y53613D02*
D03*
Y57550D02*
D03*
Y61487D02*
D03*
D99*
X51538Y156250D02*
D03*
X43664D02*
D03*
X51538Y135050D02*
D03*
X43664D02*
D03*
D100*
X42870Y163450D02*
D03*
X51532D02*
D03*
D101*
X68955Y130160D02*
D03*
Y132129D02*
D03*
Y134097D02*
D03*
Y136066D02*
D03*
Y138034D02*
D03*
Y140003D02*
D03*
Y141971D02*
D03*
Y143940D02*
D03*
X88247D02*
D03*
Y141971D02*
D03*
Y140003D02*
D03*
Y138034D02*
D03*
Y136066D02*
D03*
Y134097D02*
D03*
Y132129D02*
D03*
Y130160D02*
D03*
D102*
X71711Y146696D02*
D03*
X73680D02*
D03*
X75648D02*
D03*
X77617D02*
D03*
X79585D02*
D03*
X81554D02*
D03*
X83522D02*
D03*
X85491D02*
D03*
Y127404D02*
D03*
X83522D02*
D03*
X81554D02*
D03*
X79585D02*
D03*
X77617D02*
D03*
X75648D02*
D03*
X73680D02*
D03*
X71711D02*
D03*
D103*
X113101Y62050D02*
D03*
X107101D02*
D03*
D104*
X40101Y98150D02*
D03*
Y105750D02*
D03*
X32101Y101950D02*
D03*
D105*
X105967Y166050D02*
D03*
X114235D02*
D03*
X105967Y144050D02*
D03*
X114235D02*
D03*
X105967Y135050D02*
D03*
X114235D02*
D03*
X295967Y145050D02*
D03*
X304235D02*
D03*
D106*
X17601Y112727D02*
D03*
Y97373D02*
D03*
D107*
X21900Y70050D02*
D03*
D108*
X46301Y79150D02*
D03*
Y70050D02*
D03*
Y60950D02*
D03*
D109*
X93762Y11050D02*
D03*
X76440D02*
D03*
D110*
X100601Y26601D02*
D03*
Y45499D02*
D03*
X72601Y26601D02*
D03*
Y45499D02*
D03*
D111*
X163201Y175350D02*
X177001D01*
X163201Y170650D02*
X177001D01*
X196316Y42558D02*
X197109D01*
X194000Y41000D02*
X194758D01*
X197109Y42558D02*
X199101Y44550D01*
X194758Y41000D02*
X196316Y42558D01*
X181010Y149141D02*
Y150858D01*
X182384Y143146D02*
Y147767D01*
X181010Y149141D02*
X182384Y147767D01*
X194000Y46000D02*
X194536Y45464D01*
X197894D01*
X198980Y46550D01*
X363601D01*
X176479Y143146D02*
Y148269D01*
X171893Y148708D02*
X176040D01*
X176479Y148269D01*
X179169Y152700D02*
X181010Y150858D01*
X179169Y152700D02*
Y153263D01*
X131101Y90550D02*
X136601Y85050D01*
Y79550D02*
Y85050D01*
X135101Y78050D02*
X136601Y79550D01*
X90101Y78050D02*
X135101D01*
X131101Y90550D02*
Y157050D01*
X86601Y81550D02*
X90101Y78050D01*
X86601Y81550D02*
Y82050D01*
Y81050D02*
Y81550D01*
X85944Y80207D02*
X86601Y81050D01*
X80920Y80207D02*
X85944D01*
X85884Y82767D02*
X86601Y82050D01*
X80920Y82767D02*
X85884D01*
X129601Y158550D02*
X131101Y157050D01*
X124101Y158550D02*
X129601D01*
X122176Y156625D02*
X124101Y158550D01*
X112758Y156625D02*
X122176D01*
X167601Y69050D02*
X187227D01*
X192227Y74050D01*
Y80154D01*
X185358Y70650D02*
X190258Y75550D01*
Y80154D01*
X171001Y70650D02*
X185358D01*
X170601Y71050D02*
X171001Y70650D01*
X133101Y91550D02*
X138497Y86154D01*
Y79654D02*
Y86154D01*
Y78946D02*
Y79654D01*
X135601Y76050D02*
X138497Y78946D01*
X80644Y85050D02*
X80920Y85326D01*
X78101Y85050D02*
X80644D01*
X76601Y83550D02*
X78101Y85050D01*
X76601Y79550D02*
Y83550D01*
Y79550D02*
X80101Y76050D01*
X135601D01*
X147997Y79550D02*
X148101Y79654D01*
X121601Y160550D02*
X130601D01*
X133101Y158050D01*
Y91550D02*
Y158050D01*
X174201Y80150D02*
X176479Y80154D01*
X173705Y79654D02*
X174201Y80150D01*
X148101Y79654D02*
X173705D01*
X138497D02*
X148101D01*
X365101Y90050D02*
X370101D01*
X337601Y62550D02*
X365101Y90050D01*
X212601Y62550D02*
X337601D01*
X207975Y67176D02*
X212601Y62550D01*
X207975Y67176D02*
Y80154D01*
X206007D02*
X206101Y80059D01*
X365101Y85050D02*
X375101D01*
X340601Y60550D02*
X365101Y85050D01*
X375101D02*
X380101Y90050D01*
X206101Y65050D02*
Y80059D01*
X210601Y60550D02*
X340601D01*
X206101Y65050D02*
X210601Y60550D01*
X342601Y58550D02*
X364101Y80050D01*
X370101D01*
X208601Y58550D02*
X342601D01*
X204038Y63113D02*
X208601Y58550D01*
X204038Y63113D02*
Y80154D01*
X202070Y79682D02*
X202101Y79650D01*
X202070Y79682D02*
Y79882D01*
X345101Y56550D02*
X363601Y75050D01*
X375101D01*
X380101Y80050D01*
X202101Y62050D02*
Y79650D01*
Y62050D02*
X207601Y56550D01*
X345101D01*
X347601Y54550D02*
X363101Y70050D01*
X370101D01*
X206601Y54550D02*
X347601D01*
X200101Y61050D02*
X206601Y54550D01*
X200101Y61050D02*
Y80154D01*
X198101Y79950D02*
X198133Y79982D01*
Y80154D01*
X350101Y52550D02*
X362601Y65050D01*
X375101D01*
X380101Y70050D01*
X198101Y59050D02*
Y79950D01*
Y59050D02*
X204601Y52550D01*
X350101D01*
X352601Y50550D02*
X362101Y60050D01*
X370101D01*
X202601Y50550D02*
X352601D01*
X196164Y56987D02*
X202601Y50550D01*
X196164Y56987D02*
Y80154D01*
X355601Y48550D02*
X362101Y55050D01*
X201601Y48550D02*
X355601D01*
X362101Y55050D02*
X375101D01*
X380101Y60050D01*
X194101Y56050D02*
Y79950D01*
Y56050D02*
X201601Y48550D01*
X375101Y155050D02*
X380101Y160050D01*
X364101Y155050D02*
X375101D01*
X354601Y164550D02*
X364101Y155050D01*
X251101Y164550D02*
X354601D01*
X249601Y163050D02*
X251101Y164550D01*
X249601Y151113D02*
Y163050D01*
X242101Y143613D02*
X249601Y151113D01*
X242101Y131050D02*
Y143613D01*
X238449Y127398D02*
X242101Y131050D01*
X231597Y127398D02*
X238449D01*
X364101Y160050D02*
X370101D01*
X357601Y166550D02*
X364101Y160050D01*
X249101Y166550D02*
X357601D01*
X247601Y165050D02*
X249101Y166550D01*
X247601Y152113D02*
Y165050D01*
X240101Y144613D02*
X247601Y152113D01*
X240101Y132050D02*
Y144613D01*
X237418Y129367D02*
X240101Y132050D01*
X231597Y129367D02*
X237418D01*
X375101Y165050D02*
X380101Y170050D01*
X364101Y165050D02*
X375101D01*
X360601Y168550D02*
X364101Y165050D01*
X247601Y168550D02*
X360601D01*
X245601Y166550D02*
X247601Y168550D01*
X245601Y153113D02*
Y166550D01*
X238101Y145613D02*
X245601Y153113D01*
X238101Y133050D02*
Y145613D01*
X236386Y131335D02*
X238101Y133050D01*
X231597Y131335D02*
X236386D01*
X365101Y170050D02*
X370101D01*
X364601Y170550D02*
X365101Y170050D01*
X245601Y170550D02*
X364601D01*
X243601Y168550D02*
X245601Y170550D01*
X243601Y154113D02*
Y168550D01*
X236101Y146613D02*
X243601Y154113D01*
X236101Y134050D02*
Y146613D01*
X235355Y133304D02*
X236101Y134050D01*
X231597Y133304D02*
X235355D01*
X234101Y147113D02*
X241601Y154613D01*
X234101Y135950D02*
Y147113D01*
X234023Y135272D02*
X234101Y135950D01*
X231597Y135272D02*
X234023D01*
X360601Y172550D02*
X363101Y175050D01*
X375101D01*
X380101Y180050D01*
X241601Y170050D02*
X244101Y172550D01*
X241601Y154613D02*
Y170050D01*
X244101Y172550D02*
X360601D01*
X225601Y168050D02*
X232101Y174550D01*
X225601Y149050D02*
Y168050D01*
X223723Y147172D02*
X225601Y149050D01*
X223723Y143146D02*
Y147172D01*
X365101Y180050D02*
X370101D01*
X359601Y174550D02*
X365101Y180050D01*
X232101Y174550D02*
X359601D01*
X223601Y169050D02*
X231101Y176550D01*
X223601Y150050D02*
Y169050D01*
X357601Y176550D02*
X366101Y185050D01*
X375101D01*
X380101Y190050D01*
X221755Y148204D02*
X223601Y150050D01*
X221755Y143146D02*
Y148204D01*
X231101Y176550D02*
X357601D01*
X221601Y170050D02*
X230101Y178550D01*
X221601Y151050D02*
Y170050D01*
X367101Y190050D02*
X370101D01*
X355601Y178550D02*
X367101Y190050D01*
X230101Y178550D02*
X355601D01*
X219786Y149235D02*
X221601Y151050D01*
X219786Y143146D02*
Y149235D01*
X223723Y72928D02*
X224101Y72550D01*
X223723Y72928D02*
Y80154D01*
X224101Y72550D02*
X226101D01*
X228601Y75050D01*
X229101D01*
X235101Y81050D01*
Y82550D01*
X237501Y84950D01*
Y85050D01*
X321601D02*
X346601Y110050D01*
X370101D01*
X237501Y85050D02*
X321601D01*
X325101Y83050D02*
X347101Y105050D01*
X242101Y83050D02*
X325101D01*
X375101Y105050D02*
X380101Y110050D01*
X347101Y105050D02*
X375101D01*
X240601Y81550D02*
X242101Y83050D01*
X238601Y81550D02*
X240601D01*
X236001Y116150D02*
X237601Y114550D01*
X236001Y116150D02*
Y124950D01*
X235521Y125430D02*
X236001Y124950D01*
X231597Y125430D02*
X235521D01*
X274101Y75050D02*
X280101Y81050D01*
X237601Y75050D02*
X274101D01*
X236101Y76550D02*
X237601Y75050D01*
X236101Y76550D02*
Y77050D01*
X328101Y81050D02*
X347101Y100050D01*
X280101Y81050D02*
X328101D01*
X347101Y100050D02*
X370101D01*
X238047Y89996D02*
X239601Y88550D01*
X231597Y89996D02*
X238047D01*
X276101Y72550D02*
X277101Y73550D01*
X235101Y72550D02*
X276101D01*
X234101Y73550D02*
X235101Y72550D01*
X232601Y73550D02*
X234101D01*
X280601Y77050D02*
X282601Y79050D01*
X277101Y73550D02*
X280601Y77050D01*
X331101Y79050D02*
X347101Y95050D01*
X282601Y79050D02*
X331101D01*
X375101Y95050D02*
X380101Y100050D01*
X347101Y95050D02*
X375101D01*
X231597Y86054D02*
X232601Y84550D01*
X231597Y86054D02*
Y88028D01*
X375101Y45050D02*
X380101Y40050D01*
X365101Y45050D02*
X375101D01*
X363601Y46550D02*
X365101Y45050D01*
X178101Y100050D02*
X178812Y99839D01*
X168605D02*
X178812D01*
X267301Y115800D02*
X273001Y121550D01*
X354101Y150050D02*
X370101D01*
X244101Y113550D02*
X246401Y115800D01*
X244101Y108050D02*
Y113550D01*
X246401Y115800D02*
X267301D01*
X325601Y121550D02*
X354101Y150050D01*
X273001Y121550D02*
X325601D01*
X241795Y105744D02*
X244101Y108050D01*
X231597Y105744D02*
X241795D01*
X274201Y119550D02*
X327601D01*
X268901Y114300D02*
X274201Y119550D01*
X375101Y145050D02*
X380101Y150050D01*
X353101Y145050D02*
X375101D01*
X246101Y113050D02*
X247301Y114300D01*
X327601Y119550D02*
X353101Y145050D01*
X247301Y114300D02*
X268901D01*
X246101Y107550D02*
Y113050D01*
X242327Y103776D02*
X246101Y107550D01*
X231597Y103776D02*
X242327D01*
X352101Y140050D02*
X370101D01*
X329101Y117050D02*
X352101Y140050D01*
X275101Y117050D02*
X329101D01*
X263801Y105800D02*
X275101Y117050D01*
X246801Y105800D02*
X263801D01*
X242858Y101807D02*
X246801Y105800D01*
X231597Y101807D02*
X242858D01*
X350601Y135050D02*
X375101D01*
X330101Y114550D02*
X350601Y135050D01*
X375101D02*
X380101Y140050D01*
X275601Y114550D02*
X330101D01*
X265401Y104300D02*
X275601Y114550D01*
X248101Y104300D02*
X265401D01*
X243601Y99850D02*
X248101Y104300D01*
X231597Y99839D02*
X243601Y99850D01*
X321101Y100550D02*
X350601Y130050D01*
X370101D01*
X274601Y100550D02*
X321101D01*
X267101Y93050D02*
X274601Y100550D01*
X250101Y93050D02*
X267101D01*
X245281Y97870D02*
X250101Y93050D01*
X231597Y97870D02*
X245281D01*
X323101Y98550D02*
X349601Y125050D01*
X275601Y98550D02*
X323101D01*
X375101Y125050D02*
X380101Y130050D01*
X349601Y125050D02*
X375101D01*
X268101Y91050D02*
X275601Y98550D01*
X249101Y91050D02*
X268101D01*
X244249Y95902D02*
X249101Y91050D01*
X231597Y95902D02*
X244249D01*
X317101Y89050D02*
X348101Y120050D01*
X370101D01*
X247601Y89050D02*
X317101D01*
X243218Y93933D02*
X247601Y89050D01*
X231597Y93933D02*
X243218D01*
X319101Y87050D02*
X347101Y115050D01*
X375101D02*
X380101Y120050D01*
X347101Y115050D02*
X375101D01*
X247101Y87050D02*
X319101D01*
X242186Y91965D02*
X247101Y87050D01*
X231597Y91965D02*
X242186D01*
X219601Y125550D02*
X225601Y119550D01*
Y115050D02*
Y119550D01*
Y115050D02*
X227101Y113550D01*
X230601D01*
X231033Y113619D02*
X231597D01*
X230601Y113550D02*
X231033Y113619D01*
X224101Y111550D02*
X231601D01*
X231597Y111650D02*
X231601Y111550D01*
X219601Y116050D02*
X224101Y111550D01*
X219601Y116050D02*
Y117050D01*
X278601Y70550D02*
X283601Y75550D01*
X219101Y70550D02*
X278601D01*
X215901Y73800D02*
Y79800D01*
X215849Y79802D02*
Y80154D01*
Y79802D02*
X215901Y79800D01*
Y73800D02*
X219101Y70550D01*
X283401Y68350D02*
X286101Y70550D01*
X217801Y68350D02*
X283401D01*
X213951Y72300D02*
Y80300D01*
X213881Y80154D02*
X213997D01*
X213951Y80300D02*
X213997Y80154D01*
X213951Y72300D02*
X217801Y68350D01*
X71101Y79050D02*
X81601Y68550D01*
X71101Y79050D02*
Y86050D01*
X69266Y87885D02*
X71101Y86050D01*
X64286Y87885D02*
X69266D01*
X81601Y67550D02*
Y68550D01*
X157901Y135650D02*
Y155050D01*
X156701Y156250D02*
X157901Y155050D01*
X156501Y156250D02*
X156701D01*
X156501D02*
Y156350D01*
X157901Y135650D02*
X160247Y133304D01*
X168605D01*
X154501Y132850D02*
Y150950D01*
Y132850D02*
X156016Y131335D01*
X168605D01*
X365101Y40050D02*
X370101D01*
X360601Y44550D02*
X365101Y40050D01*
X296101Y44550D02*
X360601D01*
X289601D02*
X291101Y43050D01*
X199101Y44550D02*
X289601D01*
X161101Y99050D02*
X162281Y97870D01*
X168605D01*
X294601Y43050D02*
X296101Y44550D01*
X291101Y43050D02*
X294601D01*
X199601Y39912D02*
X202239Y42550D01*
X287101D01*
X357601D02*
X365101Y35050D01*
X305101Y42550D02*
X357601D01*
X380101Y50050D02*
X385101Y45050D01*
Y37550D02*
Y45050D01*
X382601Y35050D02*
X385101Y37550D01*
X365101Y35050D02*
X382601D01*
X302601Y40050D02*
X305101Y42550D01*
X298601Y40050D02*
X302601D01*
X298101Y39550D02*
X298601Y40050D01*
X290101Y39550D02*
X298101D01*
X287101Y42550D02*
X290101Y39550D01*
X157101Y95050D02*
X161601D01*
X162453Y95902D01*
X168605D01*
X193101Y34050D02*
X198601D01*
X205301Y40750D01*
X285901D02*
X289601Y37050D01*
X205301Y40750D02*
X285901D01*
X289601Y37050D02*
X303601D01*
X306601Y40050D01*
X315101D01*
X319101Y34550D02*
Y36050D01*
X315101Y40050D02*
X319101Y36050D01*
X175601Y90550D02*
Y93050D01*
X174718Y93933D02*
X175601Y93050D01*
X168605Y93933D02*
X174718D01*
X295601Y66050D02*
X296601Y66550D01*
X294101Y64550D02*
X295601Y66050D01*
X213601Y64550D02*
X294101D01*
X209944Y68207D02*
X213601Y64550D01*
X209944Y68207D02*
Y80154D01*
X211901Y78950D02*
X211951Y78800D01*
Y69300D02*
Y78800D01*
X211912Y79361D02*
Y80154D01*
X211901Y78950D02*
X211912Y79361D01*
X211951Y69300D02*
X214601Y66550D01*
X288601D02*
X291601Y69550D01*
X214601Y66550D02*
X288601D01*
X197601Y153550D02*
Y156050D01*
X195601Y158050D02*
X197601Y156050D01*
X195601Y158050D02*
Y162050D01*
X198601Y165050D01*
Y166550D01*
X196164Y152113D02*
X197601Y153550D01*
X196164Y143146D02*
Y152113D01*
X193901Y155050D02*
X194195Y154956D01*
Y143146D02*
Y154956D01*
X195601Y167050D02*
Y171550D01*
X194101Y165550D02*
X195601Y167050D01*
X194101Y163050D02*
Y165550D01*
X192601Y161550D02*
X194101Y163050D01*
X192601Y158050D02*
Y161550D01*
X190901Y156350D02*
X192601Y158050D01*
X190901Y151750D02*
Y156350D01*
Y151750D02*
X192227Y150424D01*
Y143146D02*
Y150424D01*
X192101Y163550D02*
Y168050D01*
X190601Y162050D02*
X192101Y163550D01*
X190601Y159050D02*
Y162050D01*
X189101Y157550D02*
X190601Y159050D01*
X189101Y151050D02*
Y157550D01*
Y151050D02*
X190258Y149893D01*
Y143146D02*
Y149893D01*
X188601Y159550D02*
Y164550D01*
X187101Y158050D02*
X188601Y159550D01*
X187101Y150550D02*
Y158050D01*
Y150550D02*
X188290Y149361D01*
Y143146D02*
Y149361D01*
X183101Y149550D02*
Y154550D01*
X181601Y156050D02*
X183101Y154550D01*
X181601Y156050D02*
Y157550D01*
X183101Y149550D02*
X184353Y148298D01*
Y143146D02*
Y148298D01*
X186301Y143167D02*
X186321Y143146D01*
X186301Y143167D02*
Y148850D01*
X186197Y143146D02*
X186321D01*
X185101Y150050D02*
Y161050D01*
Y150050D02*
X186301Y148850D01*
X236601Y184050D02*
X240101Y180550D01*
X311601D01*
X315101Y184050D01*
X315601D01*
X304101Y146050D02*
X304235Y145050D01*
X46301Y79150D02*
X46425Y79026D01*
X213701Y143250D02*
X214005Y143146D01*
X213881D02*
X214005D01*
X185101Y73550D02*
X188301Y76750D01*
Y80165D01*
X189201Y84750D02*
X208301D01*
X188301Y83650D02*
X189201Y84750D01*
X188290Y80154D02*
X188301Y80165D01*
Y83650D01*
X213881Y143270D02*
X214005Y143146D01*
X213881Y143270D02*
Y146830D01*
X213601Y138550D02*
X213881Y138830D01*
Y143146D01*
D112*
X178449Y140743D02*
X178453Y136546D01*
X178447Y143146D02*
X178449Y140743D01*
X184353Y76602D02*
Y80154D01*
X168605Y115600D02*
X168838D01*
X168605Y115587D02*
Y115600D01*
X168838D02*
X174601D01*
X168838Y115587D02*
Y115600D01*
X75651Y127200D02*
Y131400D01*
X75641Y131390D02*
X75651Y131400D01*
X75641Y131250D02*
Y131390D01*
X75648Y123003D02*
Y127404D01*
X231597Y109682D02*
X231629Y109650D01*
X236001D01*
X220901D02*
X231629D01*
X231597Y109682D02*
X231670D01*
X231701Y109650D01*
X186321Y80154D02*
Y84750D01*
X77617Y124534D02*
X79101Y123050D01*
X77617Y124534D02*
Y127404D01*
X163859Y117556D02*
X168605D01*
X173107D02*
X175101Y120050D01*
X224601Y105050D02*
X227101Y107550D01*
X227264Y107713D02*
X231597D01*
X168605Y117556D02*
X173107D01*
D113*
X180416Y143146D02*
Y147299D01*
X174739Y152976D02*
X180416Y147299D01*
X178101Y131550D02*
X178453Y131902D01*
Y136546D01*
X172775Y152976D02*
X174739D01*
X166601Y159150D02*
X172775Y152976D01*
X82101Y157050D02*
X83522Y155629D01*
Y146696D02*
Y155629D01*
X81101Y157050D02*
X82101D01*
X77101Y155250D02*
X81554Y150797D01*
Y146696D02*
Y150797D01*
X77101Y155250D02*
Y162050D01*
X72101Y157050D02*
X72601D01*
X79585Y150066D01*
Y146696D02*
Y150066D01*
X67101Y154550D02*
Y155050D01*
Y154550D02*
X70101Y151550D01*
X75101D01*
X77601Y149050D01*
Y146711D02*
Y149050D01*
Y146711D02*
X77617Y146696D01*
X69101Y115550D02*
X71711Y118160D01*
Y127404D01*
X69101Y115550D02*
X70190D01*
X81601Y103550D02*
X82601Y102550D01*
X81601Y103550D02*
Y115550D01*
X73680Y117971D02*
X76101Y115550D01*
X73680Y117971D02*
Y127404D01*
X159601Y54050D02*
X161101D01*
X164101Y57050D01*
Y66550D01*
X166601Y69050D01*
X167601D01*
X151101Y53613D02*
X157164D01*
X159601Y54050D01*
X161601Y63050D02*
Y67550D01*
X159601Y61050D02*
X161601Y63050D01*
Y67550D02*
X165101Y71050D01*
X149975Y61050D02*
X159601D01*
X149538Y61487D02*
X149975Y61050D01*
X149538Y61487D02*
X151101D01*
X165101Y71050D02*
X170601D01*
X149038Y61487D02*
X151101D01*
X61701Y140250D02*
X63917Y138034D01*
X68955D01*
X88247Y134097D02*
X94648D01*
X105601Y145050D02*
X105967Y144050D01*
X94648Y134097D02*
X105601Y145050D01*
X101022Y132129D02*
X101522Y132629D01*
X88247Y132129D02*
X101022D01*
X101522Y132629D02*
X103546D01*
X90101Y152050D02*
X92601Y154550D01*
X90101Y149050D02*
Y152050D01*
Y149050D02*
X92601Y146550D01*
Y143550D02*
Y146550D01*
X91022Y141971D02*
X92601Y143550D01*
X88247Y141971D02*
X91022D01*
X92601Y154550D02*
Y186550D01*
X87601Y191550D02*
X92601Y186550D01*
X76601Y191550D02*
X87601D01*
X72101Y187050D02*
X76601Y191550D01*
X88101Y153050D02*
X90101Y155050D01*
X88101Y144550D02*
Y153050D01*
Y144550D02*
X88247Y144196D01*
Y143940D02*
Y144196D01*
X88601Y182550D02*
X90101Y181050D01*
Y155050D02*
Y181050D01*
X87601Y155550D02*
Y178550D01*
X82101Y184050D02*
X87601Y178550D01*
X82101Y184050D02*
Y187050D01*
X85491Y153440D02*
X87601Y155550D01*
X85491Y146696D02*
Y153440D01*
X65101Y60050D02*
X68526Y63475D01*
X69944D01*
X65101Y153306D02*
Y154050D01*
Y153306D02*
X71711Y146696D01*
X50258Y150774D02*
X50383Y150650D01*
X52301D01*
X53301Y149650D01*
Y144450D02*
Y149650D01*
Y144450D02*
X61685Y136066D01*
X68955D01*
X55101Y138050D02*
X59054Y134097D01*
X68955D01*
X55101Y138050D02*
Y139357D01*
X53255Y141204D02*
X55101Y139357D01*
X50258Y141326D02*
X52381Y141204D01*
X53255D01*
X65301Y141050D02*
X66348Y140003D01*
X68955D01*
X206007Y80056D02*
Y80154D01*
X202070Y79882D02*
Y80154D01*
X198105D02*
X198133D01*
X194101Y79950D02*
X194201Y80050D01*
X194195Y80154D02*
X194205D01*
X194201Y80050D02*
X194205Y80154D01*
X72601Y67050D02*
X73101Y66550D01*
X72601Y67050D02*
Y69050D01*
X71877Y69774D02*
X72601Y69050D01*
X69944Y69774D02*
X71877D01*
X73101Y66550D02*
X75184D01*
X111101Y165050D02*
X114235Y166050D01*
X110101Y164050D02*
X111101Y165050D01*
X110101Y157550D02*
Y164050D01*
X109377Y156826D02*
X110101Y157550D01*
X107444Y156625D02*
X109377Y156826D01*
X56601Y123050D02*
X59601Y126050D01*
Y129050D01*
X62680Y132129D01*
X68955D01*
X95601Y150326D02*
X98601Y147326D01*
Y141050D02*
Y147326D01*
X95585Y138034D02*
X98601Y141050D01*
X88247Y138034D02*
X95585D01*
X93601Y150550D02*
X93825Y150326D01*
X95601D02*
X107444D01*
X93825D02*
X95601D01*
X114235Y143416D02*
Y144050D01*
Y143416D02*
X119101Y138550D01*
Y127050D02*
Y138550D01*
X116176Y124125D02*
X119101Y127050D01*
X112758Y124125D02*
X116176D01*
X112758Y133207D02*
X114235Y135050D01*
X112758Y127274D02*
Y133207D01*
Y120975D02*
X112833Y121050D01*
X117101D01*
X121601Y125550D01*
Y139550D01*
X120325Y140774D02*
X121601Y139550D01*
X120325Y140774D02*
Y147274D01*
X120601Y147550D01*
X124101Y124050D02*
Y143050D01*
X117877Y117826D02*
X124101Y124050D01*
X112758Y117826D02*
X117877D01*
X317601Y147050D02*
Y153050D01*
X317176Y146625D02*
X317601Y147050D01*
X94966Y127404D02*
X95356Y127795D01*
X85491Y127404D02*
X94966D01*
X95356Y127795D02*
X97856D01*
X99491Y130160D02*
X100101Y129550D01*
X88247Y130160D02*
X99491D01*
X107369Y121050D02*
X107444Y120975D01*
X299164Y152113D02*
X304101Y147176D01*
Y146050D02*
Y147176D01*
X112758Y159774D02*
X113833Y159550D01*
X115601D01*
X122101Y166050D01*
Y182050D01*
X120101Y184050D02*
X122101Y182050D01*
X107101Y62050D02*
X107601Y62550D01*
Y67050D01*
X110947Y70396D01*
X113447D01*
X172101Y77550D02*
X174101Y75550D01*
X183301D01*
X184353Y76602D01*
X63101Y128550D02*
X64711Y130160D01*
X68955D01*
X72601Y63050D02*
X73026Y63475D01*
X75258D01*
X72601Y61050D02*
Y63050D01*
X71877Y60326D02*
X72601Y61050D01*
X69944Y60326D02*
X71877D01*
X105672Y127274D02*
X107444D01*
X105219Y126822D02*
X105672Y127274D01*
X105219Y124459D02*
Y126822D01*
Y124459D02*
X105554Y124125D01*
X107444D01*
X110101Y112800D02*
Y123550D01*
Y112800D02*
X110351Y111050D01*
X110601Y110550D01*
X109526Y124125D02*
X110101Y123550D01*
X107444Y124125D02*
X109526D01*
X227101Y107550D02*
X227264Y107713D01*
X215801Y142850D02*
X215901Y142750D01*
Y139450D02*
Y142750D01*
X215849Y143146D02*
X215897Y142946D01*
X215801Y142850D02*
X215897Y142946D01*
D114*
X164221Y152922D02*
X165099Y152650D01*
X168501D01*
X171893Y149258D01*
Y148708D02*
Y149258D01*
X186301Y84770D02*
X186321Y84750D01*
X186301Y84770D02*
Y87850D01*
X187501Y89050D01*
X208601D01*
X110601Y110550D02*
X113841Y107310D01*
Y104268D02*
Y107310D01*
X107601Y110050D02*
X110101D01*
X106361Y108810D02*
X107601Y110050D01*
X106361Y104268D02*
Y108810D01*
X106243Y105050D02*
X106361Y104268D01*
X208601Y89050D02*
X224601Y105050D01*
D115*
X77101Y162050D02*
X82101Y167050D01*
X67101Y162050D02*
X72101Y167050D01*
X67101Y155050D02*
Y162050D01*
X62601Y102550D02*
X63601Y103550D01*
Y115550D01*
X103546Y132629D02*
X105967Y135050D01*
X46401Y172250D02*
X48101Y170550D01*
X46401Y183543D02*
X51601Y188743D01*
X46401Y172250D02*
Y183543D01*
X48101Y170550D02*
X56601D01*
X64101Y163050D01*
X63851Y156800D02*
X65101Y155550D01*
Y154050D02*
Y155550D01*
X63851Y156800D02*
X64101Y156550D01*
Y163050D01*
X65101Y60050D02*
X65377Y60326D01*
X59101Y187050D02*
X62101D01*
X75258Y66625D02*
X80676D01*
X81601Y67550D01*
X75258Y66625D02*
X78329D01*
X75184Y66550D02*
X75258Y66625D01*
X51101Y83550D02*
X52101Y82550D01*
X54601D01*
X61101Y76050D01*
X67101D01*
X69101Y78050D01*
Y81550D01*
X67884Y82767D02*
X69101Y81550D01*
X64286Y82767D02*
X67884D01*
X40101Y98150D02*
X40601Y97650D01*
Y85550D02*
Y97650D01*
Y85550D02*
X42601Y83550D01*
X51101D01*
Y122050D02*
X52101Y123050D01*
X56601D01*
X101601Y71550D02*
X102601Y72050D01*
X106601D01*
X317601Y153050D02*
X318601Y154050D01*
X314944Y146625D02*
X317176D01*
X318601Y154050D02*
X320601D01*
X314869Y143550D02*
X314944Y143475D01*
X311601Y143550D02*
X314869D01*
X310101Y145050D02*
X311601Y143550D01*
X310101Y145050D02*
Y153550D01*
X91101Y92550D02*
X97101Y86550D01*
X62101Y92550D02*
X91101D01*
X59601Y90050D02*
X62101Y92550D01*
X59601Y86550D02*
Y90050D01*
Y86550D02*
X60825Y85326D01*
X64286D01*
X107219Y118050D02*
X107444Y117826D01*
X104101Y118050D02*
X107219D01*
X100207Y121944D02*
X104101Y118050D01*
X100207Y121944D02*
Y125444D01*
X97856Y127795D02*
X100207Y125444D01*
X100101Y129550D02*
X102814Y126337D01*
Y122837D02*
Y126337D01*
Y122837D02*
X105101Y121050D01*
X107369D01*
X62101Y67550D02*
X63026Y66625D01*
X69944D01*
X4901Y169850D02*
Y180031D01*
X8066Y183196D01*
X8120Y183250D01*
X41082D01*
X41136Y183196D01*
X75258Y60326D02*
X75301Y60283D01*
X110601Y48050D02*
X113101Y50550D01*
Y62050D01*
X132101Y61050D02*
X135294Y64243D01*
X140101D01*
X105377Y60326D02*
X107101Y62050D01*
X75258Y60326D02*
X105377D01*
X121601Y74050D02*
X140101D01*
X113101Y65550D02*
X121601Y74050D01*
X113101Y62050D02*
Y65550D01*
X140101Y75050D02*
X142601Y77550D01*
X140101Y74050D02*
Y75050D01*
Y64243D02*
Y74050D01*
X107101Y62050D02*
X107601Y60550D01*
X107101Y62050D02*
X113101D01*
X113447Y70396D02*
X113601Y72050D01*
X142601Y77550D02*
X172101D01*
X124101Y37050D02*
X130101Y31050D01*
Y10050D02*
Y31050D01*
X70601Y74050D02*
X71601Y73050D01*
X73101D01*
X75258Y70893D01*
Y69774D02*
Y70893D01*
X74201Y132650D02*
X75641Y131250D01*
X84601Y120050D02*
X88601Y116050D01*
X78601Y120050D02*
X84601D01*
X75648Y123003D02*
X78601Y120050D01*
X74201Y132650D02*
X75648Y131203D01*
X74201Y132650D02*
X78601Y131250D01*
Y137050D01*
X88601Y115550D02*
Y116050D01*
X74201Y132650D02*
X75825D01*
X236001Y109650D02*
X236101Y109550D01*
X174601Y115600D02*
X174701Y115650D01*
X175001D01*
X217601Y150550D02*
Y153050D01*
X213881Y146830D02*
X217601Y150550D01*
X220801Y109750D02*
X220901Y109650D01*
X174601Y115600D02*
X174901Y115650D01*
X46301Y60950D02*
X46601Y61050D01*
X124601Y52050D02*
X125794Y50857D01*
X137908D02*
X140101D01*
X137101Y50050D02*
X137908Y50857D01*
X128601Y50050D02*
X137101D01*
X124794Y50057D02*
X128601Y50050D01*
X124794Y50057D02*
X125794Y50857D01*
X77101Y172050D02*
X82101Y177050D01*
X59101Y172050D02*
X77101D01*
X55794Y175357D02*
X59101Y172050D01*
X51601Y175357D02*
X55794D01*
X79101Y123050D02*
X89101D01*
X93026Y63475D02*
X94101Y64550D01*
X75258Y63475D02*
X93026D01*
X55101Y119550D02*
X60101D01*
X51101Y115550D02*
X55101Y119550D01*
X161258Y119810D02*
X163859Y117556D01*
X323526Y146625D02*
X323601Y146550D01*
X320258Y146625D02*
X323526D01*
X323601Y143550D02*
Y146550D01*
X323526Y143475D02*
X323601Y143550D01*
X320258Y143475D02*
X323526D01*
X105369Y159550D02*
X107444Y159774D01*
X104101Y158050D02*
X105369Y159550D01*
X97101Y158050D02*
X104101D01*
X323601Y143550D02*
X328101D01*
X215901Y138450D02*
Y139450D01*
Y138450D02*
X216101Y138250D01*
Y136550D02*
Y138250D01*
D116*
X42870Y163450D02*
X43664Y162656D01*
Y156250D02*
Y162656D01*
X39701Y163450D02*
X42870D01*
X38101Y165050D02*
X39701Y163450D01*
X38664Y132550D02*
X43664Y135050D01*
X22601Y132550D02*
X38664D01*
X20101Y130050D02*
X22601Y132550D01*
X15101Y130050D02*
X20101D01*
X15101Y173672D02*
X18279Y176850D01*
X38101Y165050D02*
Y170050D01*
X15101Y126428D02*
Y130050D01*
X56901Y146550D02*
X57301Y146950D01*
Y161050D01*
X54901Y163450D02*
X57301Y161050D01*
X51532Y163450D02*
X54901D01*
X48332Y166650D02*
X51532Y163450D01*
X47501Y166650D02*
X48332D01*
X43101Y170850D02*
X47501Y166650D01*
X43101Y170850D02*
Y172850D01*
X42701Y173250D02*
X43101Y172850D01*
X42701Y173250D02*
Y173450D01*
X40501Y175650D02*
X42701Y173450D01*
X33901Y175650D02*
X40501D01*
X30101Y171850D02*
X33901Y175650D01*
X29901Y171850D02*
X30101D01*
X17601Y147550D02*
Y159550D01*
X29901Y171850D01*
X25692Y145050D02*
X25770Y145129D01*
X20101Y145050D02*
X25692D01*
X17601Y147550D02*
X20101Y145050D01*
X50625Y79026D02*
X56601Y73050D01*
X46425Y79026D02*
X50625D01*
X56601Y73050D02*
X62101Y67550D01*
Y64050D02*
Y67550D01*
X60101Y62050D02*
X62101Y64050D01*
X60101Y52550D02*
Y62050D01*
Y52550D02*
X67152Y45499D01*
X72601D01*
X89050Y29050D01*
X94601D01*
X370101Y30050D02*
X380101D01*
X35101Y110050D02*
X39901Y105750D01*
X40101D01*
X257601Y123050D02*
X260601Y120050D01*
X257601Y123050D02*
Y127050D01*
X328101Y137050D02*
Y137550D01*
X148601Y15550D02*
X150101Y10050D01*
X148601Y15550D02*
Y28050D01*
X36601Y70050D02*
X46301D01*
D117*
X25770Y158219D02*
X27601Y160050D01*
X25770Y154971D02*
Y158219D01*
X33680Y153971D02*
X37601Y150050D01*
X33644Y154971D02*
X33680Y153971D01*
X33644Y145129D02*
X33701Y145072D01*
Y141850D02*
Y145072D01*
X29401Y137550D02*
X33701Y141850D01*
X6101Y134050D02*
X9601Y137550D01*
X29401D01*
X6101Y116550D02*
Y134050D01*
Y116550D02*
X9924Y112727D01*
X17601D01*
X53794Y187050D02*
X62101D01*
X51601Y188743D02*
X53794Y187050D01*
X27524Y97373D02*
X32101Y101950D01*
X17601Y97373D02*
X27524D01*
X32101Y101950D02*
X45601D01*
X114101Y82550D02*
Y84896D01*
X112101Y80550D02*
X114101Y82550D01*
X99101Y80550D02*
X112101D01*
X97101Y82550D02*
X99101Y80550D01*
X97101Y82550D02*
Y86550D01*
X113601Y85050D02*
X114101Y84896D01*
X113601Y85050D02*
X113841Y85156D01*
X136601Y40050D02*
X140101Y36550D01*
Y10050D02*
Y36550D01*
X175001Y115650D02*
X177001Y113650D01*
X217101Y110050D02*
X220101Y109550D01*
X164221Y139130D02*
X164301Y139250D01*
X164221Y139130D02*
Y144261D01*
X216101Y135050D02*
X216601Y134550D01*
X216101Y135050D02*
Y136550D01*
X110101Y110050D02*
X110601Y110550D01*
D118*
X46101Y32750D02*
X48801Y30050D01*
X53101D01*
X67101Y16050D02*
X72101Y11050D01*
X67101Y16050D02*
Y16550D01*
X60601Y23050D02*
X67101Y16550D01*
X60101Y23050D02*
X60601D01*
X53101Y30050D02*
X60101Y23050D01*
X72101Y11050D02*
X76440D01*
X94601Y11889D02*
Y29050D01*
X93762Y11050D02*
X94601Y11889D01*
D119*
X110851Y35800D02*
X124601Y49550D01*
X106601Y38050D02*
X110851Y35800D01*
X111601Y33550D01*
X104601Y39050D02*
X106601Y38050D01*
X100601Y43050D02*
X104601Y39050D01*
X100601Y43050D02*
Y45499D01*
X111601Y27550D02*
Y33550D01*
Y27550D02*
X113601Y25550D01*
X115101D01*
Y19550D02*
Y25550D01*
X216601Y134550D02*
X222501D01*
X215601D02*
X216601D01*
X124601Y49550D02*
Y52050D01*
Y57550D01*
X325101Y134050D02*
X328101Y137050D01*
X272101Y134050D02*
X325101D01*
X265101Y127050D02*
X272101Y134050D01*
X257601Y127050D02*
X265101D01*
X206101Y125050D02*
X215601Y134550D01*
X177601Y125050D02*
X206101D01*
X175479Y123428D02*
X177601Y125050D01*
X175479Y120928D02*
Y123428D01*
X328601Y144550D02*
Y154050D01*
X328101Y143550D02*
X328601Y144550D01*
X328101Y137550D02*
Y143550D01*
X254601Y127050D02*
X257601D01*
X249601Y132050D02*
X254601Y127050D01*
X248701Y134450D02*
X249601Y132050D01*
X370101Y200050D02*
X380101D01*
D120*
X34301Y13050D02*
D03*
X46101Y32750D02*
D03*
X22501D02*
D03*
D121*
X37301Y13050D02*
D03*
X31301D02*
D03*
X22501Y29750D02*
D03*
Y35750D02*
D03*
X46101Y29750D02*
D03*
Y35750D02*
D03*
D122*
X200101Y10050D02*
D03*
X210101D02*
D03*
X220101D02*
D03*
X230101D02*
D03*
X240101D02*
D03*
X250101D02*
D03*
X260101D02*
D03*
X270101D02*
D03*
X180101D02*
D03*
X170101D02*
D03*
X160101D02*
D03*
X150101D02*
D03*
X140101D02*
D03*
X130101D02*
D03*
X120101D02*
D03*
X110101D02*
D03*
D123*
X260101Y30050D02*
D03*
Y140050D02*
D03*
X55101Y10050D02*
D03*
X355101Y200050D02*
D03*
X60101D02*
D03*
X380101Y10050D02*
D03*
D124*
Y30050D02*
D03*
X370101D02*
D03*
X380101Y40050D02*
D03*
X370101D02*
D03*
X380101Y50050D02*
D03*
X370101D02*
D03*
X380101Y60050D02*
D03*
X370101D02*
D03*
X380101Y70050D02*
D03*
X370101D02*
D03*
X380101Y80050D02*
D03*
X370101D02*
D03*
X380101Y90050D02*
D03*
X370101D02*
D03*
X380101Y100050D02*
D03*
X370101D02*
D03*
X380101Y110050D02*
D03*
X370101D02*
D03*
X380101Y120050D02*
D03*
X370101D02*
D03*
X380101Y130050D02*
D03*
X370101D02*
D03*
X380101Y140050D02*
D03*
X370101D02*
D03*
X380101Y150050D02*
D03*
X370101D02*
D03*
X380101Y160050D02*
D03*
X370101D02*
D03*
X380101Y170050D02*
D03*
X370101D02*
D03*
X380101Y180050D02*
D03*
X370101D02*
D03*
X380101Y190050D02*
D03*
X370101D02*
D03*
X380101Y200050D02*
D03*
X370101D02*
D03*
X72101Y167050D02*
D03*
X82101D02*
D03*
X72101Y157050D02*
D03*
X82101D02*
D03*
X62601Y102550D02*
D03*
X82601D02*
D03*
X25770Y145129D02*
D03*
Y154971D02*
D03*
X33644D02*
D03*
Y145129D02*
D03*
D125*
X62101Y177050D02*
D03*
Y187050D02*
D03*
X72101Y177050D02*
D03*
Y187050D02*
D03*
X82101Y177050D02*
D03*
Y187050D02*
D03*
D126*
X15101Y126428D02*
D03*
Y173672D02*
D03*
D127*
X260601Y100050D02*
D03*
X250601D02*
D03*
X260601Y110050D02*
D03*
X250601D02*
D03*
X260601Y120050D02*
D03*
X250601D02*
D03*
D128*
X163201Y175350D02*
D03*
Y170650D02*
D03*
X194000Y41000D02*
D03*
Y46000D02*
D03*
X179169Y153263D02*
D03*
X38101Y170050D02*
D03*
X88601Y182550D02*
D03*
X65101Y60050D02*
D03*
X63851Y156800D02*
D03*
X121601Y160550D02*
D03*
X237601Y114550D02*
D03*
X238601Y81550D02*
D03*
X236101Y77050D02*
D03*
X239601Y88550D02*
D03*
X232601Y73550D02*
D03*
Y84550D02*
D03*
X178101Y100050D02*
D03*
X219601Y125550D02*
D03*
Y117050D02*
D03*
X283601Y75550D02*
D03*
X286101Y70550D02*
D03*
X93601Y150550D02*
D03*
X101601Y71550D02*
D03*
X156501Y156350D02*
D03*
X120601Y147550D02*
D03*
X124101Y143050D02*
D03*
X154501Y150950D02*
D03*
X186101Y189050D02*
D03*
X161101Y99050D02*
D03*
X291101Y43050D02*
D03*
X298601Y40050D02*
D03*
X199601Y39912D02*
D03*
X157101Y95050D02*
D03*
X319101Y34550D02*
D03*
X193101Y34050D02*
D03*
X175601Y90550D02*
D03*
X177001Y170650D02*
D03*
X296601Y66550D02*
D03*
X320601Y154050D02*
D03*
X177001Y175350D02*
D03*
X310101Y153550D02*
D03*
X291601Y69550D02*
D03*
X97101Y86550D02*
D03*
X136601Y40050D02*
D03*
X198601Y166550D02*
D03*
X193901Y155050D02*
D03*
X195601Y171550D02*
D03*
X192101Y168050D02*
D03*
X188601Y164550D02*
D03*
X181601Y157550D02*
D03*
X185101Y161050D02*
D03*
X120101Y184050D02*
D03*
X236601D02*
D03*
X315601D02*
D03*
X299164Y152113D02*
D03*
X94601Y29050D02*
D03*
X4901Y169850D02*
D03*
X124101Y37050D02*
D03*
X184570Y32582D02*
D03*
X309601Y34550D02*
D03*
X110601Y48050D02*
D03*
X111101Y180550D02*
D03*
X166601Y159150D02*
D03*
X147101Y67050D02*
D03*
X70601Y74050D02*
D03*
X74201Y132650D02*
D03*
X274901Y92750D02*
D03*
X239601Y109550D02*
D03*
X176601Y158050D02*
D03*
X127101Y64550D02*
D03*
X217601Y153050D02*
D03*
X239601Y123550D02*
D03*
X60101Y119550D02*
D03*
X94101Y64550D02*
D03*
X97101Y158050D02*
D03*
X110601Y110550D02*
D03*
X89101Y123050D02*
D03*
X32601Y55050D02*
D03*
X35101Y62550D02*
D03*
X17601Y55050D02*
D03*
X25101D02*
D03*
X10101D02*
D03*
X35101Y77550D02*
D03*
X10101Y87550D02*
D03*
X32601D02*
D03*
X17601D02*
D03*
X25101D02*
D03*
X224601Y105050D02*
D03*
X248701Y134450D02*
D03*
X222501Y134550D02*
D03*
X328601Y154050D02*
D03*
X124601Y57550D02*
D03*
X115101Y19550D02*
D03*
D129*
X24601Y200950D02*
D03*
X180101Y41961D02*
D03*
X88101Y87550D02*
D03*
X127001Y82850D02*
D03*
X273801Y106950D02*
D03*
X261301Y155550D02*
D03*
X54901Y127850D02*
D03*
X172038Y200050D02*
D03*
X259501Y201450D02*
D03*
X391738Y45450D02*
D03*
X247533Y78990D02*
D03*
X273536Y126418D02*
D03*
X72001Y102550D02*
D03*
X285401Y108650D02*
D03*
X392038Y145250D02*
D03*
X303101Y71082D02*
D03*
X305101Y108450D02*
D03*
X148601Y97050D02*
D03*
X50201Y109250D02*
D03*
X228401Y80550D02*
D03*
X99701Y164550D02*
D03*
X95101Y104550D02*
D03*
X51501Y88850D02*
D03*
X103201Y14150D02*
D03*
X190601Y22361D02*
D03*
X176901Y107150D02*
D03*
X301001Y186450D02*
D03*
X229601Y163050D02*
D03*
X100601Y95550D02*
D03*
X67101Y182050D02*
D03*
X160601Y83750D02*
D03*
X52801Y53050D02*
D03*
X86701Y42050D02*
D03*
X285501Y140650D02*
D03*
X350701Y87050D02*
D03*
X345101Y152050D02*
D03*
X150301Y114913D02*
D03*
X124001Y114750D02*
D03*
X178101Y131550D02*
D03*
X177001Y113650D02*
D03*
X150401Y83750D02*
D03*
X270555Y78990D02*
D03*
X217101Y110050D02*
D03*
X164301Y139250D02*
D03*
X35101Y115050D02*
D03*
X175601Y121550D02*
D03*
M02*
